<?xml version="1.0" encoding="UTF-8" standalone="no"?>
<svg
   xmlns:dc="http://purl.org/dc/elements/1.1/"
   xmlns:cc="http://creativecommons.org/ns#"
   xmlns:rdf="http://www.w3.org/1999/02/22-rdf-syntax-ns#"
   xmlns:svg="http://www.w3.org/2000/svg"
   xmlns="http://www.w3.org/2000/svg"
   xmlns:sodipodi="http://sodipodi.sourceforge.net/DTD/sodipodi-0.dtd"
   xmlns:inkscape="http://www.inkscape.org/namespaces/inkscape"
   width="31.444538mm"
   height="28.599693mm"
   viewBox="0 0 31.444538 28.599693"
   version="1.1"
   id="svg6304"
   inkscape:version="0.92.4 (5da689c313, 2019-01-14)"
   sodipodi:docname="gift24.svg">
  <defs
     id="defs6298" />
  <sodipodi:namedview
     id="base"
     pagecolor="#ffffff"
     bordercolor="#666666"
     borderopacity="1.0"
     inkscape:pageopacity="0.0"
     inkscape:pageshadow="2"
     inkscape:zoom="3.959798"
     inkscape:cx="-1.1422263"
     inkscape:cy="23.455977"
     inkscape:document-units="mm"
     inkscape:current-layer="layer1"
     inkscape:document-rotation="0"
     showgrid="false"
     inkscape:window-width="1600"
     inkscape:window-height="848"
     inkscape:window-x="-8"
     inkscape:window-y="-8"
     inkscape:window-maximized="1" />
  <metadata
     id="metadata6301">
    <rdf:RDF>
      <cc:Work
         rdf:about="">
        <dc:format>image/svg+xml</dc:format>
        <dc:type
           rdf:resource="http://purl.org/dc/dcmitype/StillImage" />
        <dc:title></dc:title>
      </cc:Work>
    </rdf:RDF>
  </metadata>
  <g
     inkscape:label="Layer 1"
     inkscape:groupmode="layer"
     id="layer1"
     transform="translate(-270.78368,-164.10492)">
    <path
       style="fill:#ffffff;stroke:none;stroke-width:0.26458332px;stroke-linecap:butt;stroke-linejoin:miter;stroke-opacity:1"
       d="m 271.51623,181.73252 c 0.46043,11.29101 0.93881,10.27519 0.93881,10.27519 l 28.12379,0.0118 0.93313,-10.41797 -1.04158,-16.63439 -27.98168,0.0472 z"
       id="path843"
       inkscape:connector-curvature="0"
       sodipodi:nodetypes="ccccccc" />
    <g
       id="g6257"
       transform="matrix(0.35277777,0,0,-0.35277777,97.631155,229.30841)">
      <g
         id="g1138"
         transform="translate(530.1741,162.143)">
        <path
           d="M 0,0 V -9.389 L -0.261,-9.564 H 7.9 V 0 Z"
           style="fill:#5ac8a8;fill-opacity:1;fill-rule:nonzero;stroke:none"
           id="path1140" />
      </g>
      <g
         id="g1142"
         transform="translate(559.574,157.4051)">
        <path
           d="m 0,0 c 0,2.14 0.538,4.397 1.187,6.914 0.64,2.571 1.705,6.841 0.696,7.79 -0.01,10e-4 -0.021,10e-4 -0.032,10e-4 -2.217,0 -8.929,-3.228 -16.405,-8.269 l 0.011,-2.553 11.257,1.396 c 1.025,0.128 1.964,-0.602 2.092,-1.63 0.127,-1.027 -0.603,-1.964 -1.63,-2.091 l -11.7,-1.452 0.02,-3.216 c 2.548,-1.67 6.626,-4.269 9.945,-6.038 0.661,-0.351 1.306,-0.7 1.931,-1.039 1.475,-0.799 2.904,-1.57 4.153,-2.13 -0.18,1.418 -0.41,2.91 -0.609,4.192 C 0.415,-4.963 0,-2.164 0,0"
           style="fill:#5ac8a8;fill-opacity:1;fill-rule:nonzero;stroke:none"
           id="path1144" />
      </g>
      <g
         id="g1146"
         transform="translate(522.8036,162.4523)">
        <path
           d="m 0,0 c -6.69,4.724 -13.04,8.128 -16.498,9.253 0.222,-1.521 0.653,-3.245 0.977,-4.546 0.651,-2.524 1.194,-4.801 1.194,-6.959 0,-2.183 -0.419,-5.005 -0.925,-8.2 -0.385,-2.48 -0.894,-5.754 -0.917,-7.752 0.057,-0.005 0.118,-0.008 0.186,-0.008 1.525,0 4.195,1.447 7.021,2.978 0.624,0.339 1.269,0.688 1.933,1.04 2.233,1.19 4.804,2.754 7.028,4.16 v 2.247 3.069 L -9.9,-3.489 c -1.028,0.127 -1.757,1.064 -1.63,2.091 0.128,1.028 1.066,1.757 2.092,1.63 l 9.437,-1.171 v 0.913 C -0.001,-0.017 0,-0.009 0,0"
           style="fill:#5ac8a8;fill-opacity:1;fill-rule:nonzero;stroke:none"
           id="path1148" />
      </g>
      <g
         id="g1150"
         transform="translate(550.6016,142.2802)">
        <path
           d="M 0,0 C -2.857,1.523 -6.231,3.625 -8.77,5.265 -9.397,4.41 -10.398,3.851 -11.514,3.851 h -1.819 V -4.09 H 8.501 C 6.575,-3.551 4.425,-2.393 1.886,-1.015 1.277,-0.685 0.648,-0.344 0,0"
           style="fill:#8484dc;fill-opacity:1;fill-rule:nonzero;stroke:none"
           id="path1152" />
      </g>
      <g
         id="g1154"
         transform="translate(566.6537,154.4291)">
        <path
           d="m 0,0 c 0.09,-0.598 0.185,-1.209 0.285,-1.843 0.626,-4.025 1.092,-7.284 0.932,-9.378 0.034,-0.804 -0.412,-1.306 -0.62,-1.496 -0.621,-0.563 -1.35,-0.92 -2.165,-1.094 -10e-4,-0.019 0,-0.042 -0.002,-0.061 0.034,-0.797 -0.408,-1.295 -0.615,-1.483 -0.429,-0.389 -0.909,-0.682 -1.433,-0.884 H 6.391 L 5.545,0 Z"
           style="fill:#8484dc;fill-opacity:1;fill-rule:nonzero;stroke:none"
           id="path1156" />
      </g>
      <g
         id="g1158"
         transform="translate(570.2512,178.1064)">
        <path
           d="m 0,0 h -3.905 c 3.175,-2.277 1.972,-7.141 0.796,-11.855 -0.51,-1.976 -0.94,-3.752 -1.052,-5.303 H 1.607 L 0.751,-0.713 C 0.731,-0.34 0.374,0 0,0"
           style="fill:#8484dc;fill-opacity:1;fill-rule:nonzero;stroke:none"
           id="path1160" />
      </g>
      <g
         id="g1162"
         transform="translate(564.5789,174.1723)">
        <path
           d="m 0,0 c -0.06,0.382 -0.178,0.679 -0.369,0.858 -0.01,0 -0.02,0.001 -0.032,0.001 -0.113,0 -0.251,-0.018 -0.387,-0.034 C -0.48,0.576 -0.22,0.3 0,0"
           style="fill:#8484dc;fill-opacity:1;fill-rule:nonzero;stroke:none"
           id="path1164" />
      </g>
      <g
         id="g1166"
         transform="translate(537.2683,168.7287)">
        <path
           d="m 0,0 h 4.367 c 0.594,0 1.17,-0.164 1.678,-0.453 6.024,4.255 12.935,8.284 17.59,9.831 H 0 Z"
           style="fill:#8484dc;fill-opacity:1;fill-rule:nonzero;stroke:none"
           id="path1168" />
      </g>
      <g
         id="g1170"
         transform="translate(509.8839,178.1064)">
        <path
           d="m 0,0 c 4.599,-1.528 11.397,-5.478 17.369,-9.675 0.426,0.19 0.895,0.297 1.389,0.297 h 2.403 V 0 Z"
           style="fill:#8484dc;fill-opacity:1;fill-rule:nonzero;stroke:none"
           id="path1172" />
      </g>
      <g
         id="g1174"
         transform="translate(495.9317,160.9487)">
        <path
           d="m 0,0 h 6.105 c -0.171,0.778 -0.37,1.588 -0.59,2.441 -1.198,4.802 -2.432,9.752 1.016,11.941 0.054,0.035 0.117,0.061 0.175,0.093 0.281,1.08 0.849,1.996 1.804,2.683 H 0.894 Z"
           style="fill:#8484dc;fill-opacity:1;fill-rule:nonzero;stroke:none"
           id="path1176" />
      </g>
      <g
         id="g1178"
         transform="translate(494.7751,131.864)">
        <path
           d="m 0,0 1.922,-23.586 c 0.032,-0.395 0.437,-0.769 0.834,-0.769 H 36.269 V 0 Z"
           style="fill:#8484dc;fill-opacity:1;fill-rule:nonzero;stroke:none"
           id="path1180" />
      </g>
      <g
         id="g1182"
         transform="translate(526.213,146.1307)">
        <path
           d="m 0,0 c -1.033,0 -1.958,0.464 -2.584,1.192 -2.495,-1.604 -5.695,-3.587 -8.423,-5.041 -0.65,-0.345 -1.279,-0.686 -1.888,-1.017 -2.54,-1.377 -4.689,-2.536 -6.616,-3.074 H 4.832 V 0 Z"
           style="fill:#8484dc;fill-opacity:1;fill-rule:nonzero;stroke:none"
           id="path1184" />
      </g>
      <g
         id="g1186"
         transform="translate(500.7211,140.5585)">
        <path
           d="m 0,0 c -0.159,2.076 0.304,5.307 0.922,9.292 0.263,1.66 0.5,3.207 0.661,4.579 H -5.129 L -5.977,-2.383 c 0.096,0.007 0.191,0.015 0.287,0.015 H 2.048 C 1.524,-2.166 1.044,-1.874 0.616,-1.485 0.408,-1.296 -0.034,-0.797 0,0"
           style="fill:#8484dc;fill-opacity:1;fill-rule:nonzero;stroke:none"
           id="path1188" />
      </g>
      <g
         id="g1190"
         transform="translate(573.2215,131.7373)">
        <path
           d="M 0,0 C -0.053,0.058 -0.153,0.127 -0.324,0.127 H -35.953 V -24.228 H -1.846 L 0.1,-0.334 C 0.114,-0.163 0.053,-0.058 0,0"
           style="fill:#8484dc;fill-opacity:1;fill-rule:nonzero;stroke:none"
           id="path1192" />
      </g>
      <g
         id="g1194"
         transform="translate(574.0896,108.2778)">
        <path
           d="m 0,0 c -0.032,-0.395 -0.437,-0.769 -0.834,-0.769 h -1.88 -34.107 v 24.355 2.576 H 1.666 c 0.173,0 0.274,-0.069 0.327,-0.127 0.054,-0.059 0.115,-0.164 0.101,-0.337 z m -40.571,29.912 h -2.474 -24.343 -3.933 -7.738 c -0.096,0 -0.191,-0.008 -0.286,-0.014 l 0.847,16.253 0.145,2.77 h 8.777 c -0.162,-1.384 -0.402,-2.944 -0.667,-4.618 -0.624,-4.02 -1.091,-7.277 -0.931,-9.372 -0.034,-0.804 0.412,-1.307 0.622,-1.497 0.892,-0.811 1.997,-1.222 3.283,-1.222 2.476,0 5.27,1.515 8.808,3.432 0.615,0.333 1.249,0.677 1.906,1.026 2.752,1.466 5.982,3.466 8.5,5.083 0.632,-0.734 1.565,-1.202 2.608,-1.202 h 4.876 z m 0,-30.681 h -2.474 -33.514 c -0.396,0 -0.802,0.374 -0.834,0.769 l -1.921,23.586 -0.173,2.112 c -0.014,0.173 0.047,0.278 0.101,0.337 0.054,0.058 0.154,0.127 0.327,0.127 h 38.488 z m -35.817,73.57 h 35.817 v -12.35 h -2.474 -2.402 c -0.495,0 -0.964,-0.108 -1.389,-0.297 -5.972,4.197 -12.771,8.147 -17.37,9.675 -1.282,0.426 -2.403,0.674 -3.275,0.674 -0.766,0 -1.42,-0.171 -1.936,-0.502 -0.084,-0.053 -0.153,-0.116 -0.231,-0.172 -0.955,-0.688 -1.523,-1.603 -1.804,-2.683 -0.653,-2.512 0.186,-5.883 1.01,-9.187 0.507,-1.963 0.937,-3.738 1.049,-5.288 h -2.66 -6.105 l 0.895,17.158 0.117,2.253 c 0.02,0.376 0.381,0.719 0.758,0.719 m 75.384,0 c 0.377,0 0.738,-0.343 0.757,-0.719 L 0.765,52.671 h -2.996 -5.768 c 0.112,1.551 0.542,3.327 1.052,5.303 1.176,4.714 2.379,9.578 -0.796,11.855 -0.077,0.054 -0.143,0.115 -0.225,0.167 -0.523,0.336 -1.178,0.507 -1.943,0.507 -0.873,0 -1.993,-0.249 -3.275,-0.674 -4.656,-1.547 -11.566,-5.576 -17.59,-9.831 -0.509,0.289 -1.085,0.453 -1.678,0.453 h -4.367 v 9.378 2.972 z m -32.473,-16.1 V 44.476 l 0.261,-0.175 h -2.799 -8.162 l 0.261,0.175 v 9.389 2.836 z M -12.99,36.81 c -1.25,0.56 -2.678,1.331 -4.154,2.131 -0.625,0.338 -1.27,0.688 -1.93,1.038 -3.32,1.769 -7.398,4.368 -9.945,6.039 l -0.021,3.215 11.7,1.452 c 1.028,0.128 1.757,1.064 1.63,2.092 -0.128,1.028 -1.067,1.757 -2.092,1.63 l -11.256,-1.397 -0.012,2.554 -0.003,0.683 -0.008,0.357 c 8.164,5.836 15.924,9.769 18.783,10.115 0.136,0.016 0.273,0.034 0.387,0.034 0.011,0 0.022,0 0.031,0 0.191,-0.18 0.309,-0.477 0.369,-0.859 0.262,-1.653 -0.546,-4.892 -1.071,-6.998 -0.655,-2.538 -1.198,-4.815 -1.198,-6.974 0,-2.182 0.419,-5.005 0.925,-8.194 0.386,-2.485 0.894,-5.76 0.917,-7.757 -0.056,-0.006 -0.118,-0.009 -0.186,-0.009 -0.728,0 -1.723,0.336 -2.866,0.848 m -47.734,17.597 c -1.026,0.126 -1.964,-0.602 -2.092,-1.63 -0.127,-1.028 0.602,-1.964 1.63,-2.092 l 9.899,-1.228 2.398,-0.298 V 45.68 c -0.717,-0.467 -1.534,-0.992 -2.398,-1.539 -2.224,-1.407 -4.795,-2.971 -7.028,-4.16 -0.664,-0.352 -1.309,-0.702 -1.933,-1.04 -2.826,-1.532 -5.496,-2.979 -7.021,-2.979 -0.068,0 -0.129,0.003 -0.186,0.009 0.023,1.997 0.532,5.272 0.917,7.751 0.506,3.195 0.925,6.018 0.925,8.2 0,2.159 -0.543,4.436 -1.194,6.959 -0.324,1.301 -0.755,3.026 -0.977,4.547 -0.222,1.521 -0.235,2.839 0.274,3.325 0.009,0 0.018,0 0.029,0 2.438,0 10.255,-3.856 18.593,-9.74 0,-0.009 -0.001,-0.018 -0.001,-0.026 v -4.049 l -2.398,0.298 z M 1.952,29.898 c -0.095,0.006 -0.19,0.014 -0.286,0.014 h -2.711 -10.009 -3.933 -21.834 v 7.941 2.698 h 4.367 c 1.126,0 2.136,0.565 2.768,1.426 2.563,-1.653 5.968,-3.773 8.852,-5.309 0.653,-0.347 1.288,-0.691 1.903,-1.024 3.537,-1.917 6.331,-3.432 8.807,-3.432 0.393,0 0.763,0.052 1.121,0.128 0.814,0.174 1.543,0.531 2.164,1.095 0.208,0.189 0.654,0.691 0.62,1.495 0.16,2.094 -0.306,5.353 -0.932,9.379 -0.1,0.633 -0.195,1.244 -0.285,1.842 -0.147,0.979 -0.28,1.911 -0.38,2.77 h 8.777 z m 1.547,42.379 c -0.123,2.357 -2.143,4.274 -4.503,4.274 h -75.384 c -2.36,0 -4.38,-1.917 -4.503,-4.274 l -2.37,-45.462 c -0.01,-0.192 0.01,-0.38 0.055,-0.557 -0.035,-0.284 -0.042,-0.574 -0.018,-0.864 l 2.094,-25.698 c 0.192,-2.364 2.2,-4.215 4.571,-4.215 h 75.725 c 2.371,0 4.379,1.851 4.572,4.215 l 2.094,25.697 c 0.023,0.291 0.017,0.581 -0.018,0.865 0.045,0.178 0.064,0.365 0.054,0.557 z"
           style="fill:#000101;fill-opacity:1;fill-rule:nonzero;stroke:none"
           id="path1196" />
      </g>
    </g>
  </g>
</svg>
