<?xml version="1.0" encoding="UTF-8" standalone="no"?>
<svg
   xmlns:dc="http://purl.org/dc/elements/1.1/"
   xmlns:cc="http://creativecommons.org/ns#"
   xmlns:rdf="http://www.w3.org/1999/02/22-rdf-syntax-ns#"
   xmlns:svg="http://www.w3.org/2000/svg"
   xmlns="http://www.w3.org/2000/svg"
   xmlns:sodipodi="http://sodipodi.sourceforge.net/DTD/sodipodi-0.dtd"
   xmlns:inkscape="http://www.inkscape.org/namespaces/inkscape"
   width="35.365971mm"
   height="32.886295mm"
   viewBox="0 0 35.365971 32.886295"
   version="1.1"
   id="svg5463"
   inkscape:version="0.92.4 (5da689c313, 2019-01-14)"
   sodipodi:docname="gift19.svg">
  <defs
     id="defs5457" />
  <sodipodi:namedview
     id="base"
     pagecolor="#ffffff"
     bordercolor="#666666"
     borderopacity="1.0"
     inkscape:pageopacity="0.0"
     inkscape:pageshadow="2"
     inkscape:zoom="5.6"
     inkscape:cx="88.412697"
     inkscape:cy="54.577923"
     inkscape:document-units="mm"
     inkscape:current-layer="layer1"
     inkscape:document-rotation="0"
     showgrid="false"
     inkscape:window-width="1600"
     inkscape:window-height="848"
     inkscape:window-x="-8"
     inkscape:window-y="-8"
     inkscape:window-maximized="1" />
  <metadata
     id="metadata5460">
    <rdf:RDF>
      <cc:Work
         rdf:about="">
        <dc:format>image/svg+xml</dc:format>
        <dc:type
           rdf:resource="http://purl.org/dc/dcmitype/StillImage" />
        <dc:title></dc:title>
      </cc:Work>
    </rdf:RDF>
  </metadata>
  <g
     inkscape:label="Layer 1"
     inkscape:groupmode="layer"
     id="layer1"
     transform="translate(-196.25154,-171.789)">
    <path
       style="opacity:1;fill:#ffffff;fill-opacity:1;fill-rule:nonzero;stroke:none;stroke-width:1.03571379;stroke-miterlimit:4;stroke-dasharray:none;stroke-dashoffset:0;stroke-opacity:1;paint-order:fill markers stroke"
       d="m 216.84933,178.71098 c 0.76672,1.62677 -11.4206,1.15401 -12.40082,-0.16712 -1.27043,-3.22049 1.09841,-6.95585 3.61508,-5.94419 1.65381,0.72912 8.76129,4.47704 8.78574,6.11131 z"
       id="path838"
       inkscape:connector-curvature="0"
       sodipodi:nodetypes="cccc" />
    <path
       style="opacity:1;fill:#ffffff;fill-opacity:1;fill-rule:nonzero;stroke:none;stroke-width:1.05477941;stroke-miterlimit:4;stroke-dasharray:none;stroke-dashoffset:0;stroke-opacity:1;paint-order:fill markers stroke"
       d="m 198.9702,188.90746 h 29.82428 l -0.23623,11.46836 -0.66146,3.67439 -27.67454,-0.0118 -0.74414,-4.04056 z"
       id="rect849"
       inkscape:connector-curvature="0"
       sodipodi:nodetypes="ccccccc" />
    <rect
       style="opacity:1;fill:#ffffff;fill-opacity:1;fill-rule:nonzero;stroke:none;stroke-width:0.89265585;stroke-miterlimit:4;stroke-dasharray:none;stroke-dashoffset:0;stroke-opacity:1;paint-order:fill markers stroke"
       id="rect852"
       width="33.58112"
       height="5.190167"
       x="197.20959"
       y="183.40138" />
    <path
       style="opacity:1;fill:#ffffff;fill-opacity:1;fill-rule:nonzero;stroke:none;stroke-width:1;stroke-miterlimit:4;stroke-dasharray:none;stroke-dashoffset:0;stroke-opacity:1;paint-order:fill markers stroke"
       d="m 202.01822,178.3587 h 23.8572 l 3.9215,4.17097 h -31.22773 z"
       id="rect854"
       inkscape:connector-curvature="0"
       sodipodi:nodetypes="ccccc" />
    <path
       style="opacity:1;fill:#ffffff;fill-opacity:1;fill-rule:nonzero;stroke:none;stroke-width:1.03571379;stroke-miterlimit:4;stroke-dasharray:none;stroke-dashoffset:0;stroke-opacity:1;paint-order:fill markers stroke"
       d="m 211.95583,178.5245 c -0.76672,1.62677 11.4206,1.15401 12.40082,-0.16712 1.27043,-3.22049 -1.09841,-6.95585 -3.61508,-5.94419 -1.65381,0.72912 -8.76129,4.47704 -8.78574,6.11131 z"
       id="path838-5"
       inkscape:connector-curvature="0"
       sodipodi:nodetypes="cccc" />
    <ellipse
       style="opacity:1;fill:#ffffff;fill-opacity:1;fill-rule:nonzero;stroke:none;stroke-width:1;stroke-miterlimit:4;stroke-dasharray:none;stroke-dashoffset:0;stroke-opacity:1;paint-order:fill markers stroke"
       id="path872"
       cx="214.36879"
       cy="176.19078"
       rx="2.3509109"
       ry="1.2073818" />
    <g
       id="g5416"
       transform="matrix(0.35277777,0,0,-0.35277777,28.405167,286.44523)">
      <g
         id="g156"
         transform="translate(477.8885,275.624)">
        <path
           d="M 0,0 C -0.114,0.07 -0.223,0.144 -0.33,0.223 -0.249,0.115 -0.136,0.037 0,0"
           style="fill:#ffca00;fill-opacity:1;fill-rule:nonzero;stroke:none"
           id="path158" />
      </g>
      <g
         id="g880"
         transform="translate(529.925,294.5638)">
        <path
           d="M 0,0 H 9.325 C 6.247,0.505 2.943,1.414 0,2.594 Z"
           style="fill:#ffca00;fill-opacity:1;fill-rule:nonzero;stroke:none"
           id="path882" />
      </g>
      <g
         id="g884"
         transform="translate(549.3783,295.6743)">
        <path
           d="M 0,0 C -0.724,-0.508 -1.477,-0.869 -2.225,-1.11 H 13.943 L 7.023,6.199 C 5.331,1.983 2.525,0.436 0,0"
           style="fill:#ffca00;fill-opacity:1;fill-rule:nonzero;stroke:none"
           id="path886" />
      </g>
      <g
         id="g888"
         transform="translate(544.0044,319.8441)">
        <path
           d="m 0,0 c -1.245,0 -2.763,-0.305 -4.416,-0.851 -1.641,-0.787 -3.324,-1.746 -4.949,-2.853 -0.091,-0.062 -0.178,-0.124 -0.267,-0.185 1.566,-1.346 2.662,-3.138 3.039,-5.152 l 6.761,0.866 c 1.028,0.131 1.967,-0.594 2.099,-1.622 0.131,-1.027 -0.595,-1.966 -1.622,-2.098 l -7.395,-0.947 c -0.507,-1.84 -1.623,-3.461 -3.14,-4.678 0.09,-0.039 0.179,-0.078 0.271,-0.116 4.218,-1.753 9.542,-2.93 13.248,-2.93 0.068,0 0.143,0 0.222,10e-4 1.548,1.576 2.931,4.905 2.931,11.946 C 6.782,-2.659 5.803,0 0,0"
           style="fill:#008bad;fill-opacity:1;fill-rule:nonzero;stroke:none"
           id="path890" />
      </g>
      <g
         id="g892"
         transform="translate(533.3046,311.3796)">
        <path
           d="M 0,0 C 0.011,-0.024 0.02,-0.048 0.031,-0.071 0.02,-0.048 0.012,-0.023 0,0"
           style="fill:#008bad;fill-opacity:1;fill-rule:nonzero;stroke:none"
           id="path894" />
      </g>
      <g
         id="g896"
         transform="translate(530.2939,307.1603)">
        <path
           d="m 0,0 c -0.011,0.183 0.005,0.362 0.046,0.534 0.001,0.045 0.004,0.091 0.004,0.137 0,3.02 -2.864,5.477 -6.384,5.477 -0.298,0 -0.589,-0.024 -0.877,-0.058 -1.252,-1.001 -2.041,-2.423 -2.041,-4.004 0,-0.045 0.002,-0.09 0.004,-0.135 0.04,-0.172 0.056,-0.352 0.045,-0.536 0.388,-2.704 3.079,-4.806 6.334,-4.806 0.302,0 0.594,0.036 0.885,0.071 C -0.919,-2.464 -0.187,-1.306 0,0"
           style="fill:#008bad;fill-opacity:1;fill-rule:nonzero;stroke:none"
           id="path898" />
      </g>
      <g
         id="g900"
         transform="translate(517.0123,314.5389)">
        <path
           d="m 0,0 c -0.089,0.062 -0.176,0.123 -0.267,0.185 -4.566,3.11 -9.602,5.12 -12.83,5.12 -0.593,0 -1.125,-0.035 -1.622,-0.091 -1.368,-1.368 -1.695,-3.695 -1.695,-7.112 0,-13.363 4.982,-13.363 6.618,-13.363 2.783,0 6.478,0.664 9.931,1.737 -1.452,1.204 -2.523,2.783 -3.016,4.572 l -0.078,1.869 -3.852,0.494 c -1.028,0.131 -1.754,1.071 -1.622,2.098 0.132,1.027 1.073,1.754 2.098,1.621 l 3.85,-0.493 C -1.934,-2.079 -1.083,-0.931 0,0"
           style="fill:#008bad;fill-opacity:1;fill-rule:nonzero;stroke:none"
           id="path902" />
      </g>
      <g
         id="g904"
         transform="translate(485.2818,270.6982)">
        <path
           d="m 0,0 1.993,-34.431 c 0.023,-0.381 0.391,-0.729 0.773,-0.729 H 36.178 V 0 Z"
           style="fill:#ffca00;fill-opacity:1;fill-rule:nonzero;stroke:none"
           id="path906" />
      </g>
      <g
         id="g908"
         transform="translate(483.8101,234.799)">
        <path
           d="M 0,0 C 0.007,-0.108 0.054,-0.21 0.116,-0.304 0.07,-0.202 0.038,-0.094 -0.001,0.012 Z"
           style="fill:#ffca00;fill-opacity:1;fill-rule:nonzero;stroke:none"
           id="path910" />
      </g>
      <g
         id="g912"
         transform="translate(479.5349,286.8106)">
        <path
           d="M 0,0 V -7.466 C 0,-7.805 0.286,-8.091 0.625,-8.091 H 6.013 42.332 V 0 Z"
           style="fill:#ffca00;fill-opacity:1;fill-rule:nonzero;stroke:none"
           id="path914" />
      </g>
      <g
         id="g916"
         transform="translate(494.853,300.7738)">
        <path
           d="M 0,0 C -0.327,0.871 -0.581,1.78 -0.78,2.697 H -2.727 L -11.159,-6.21 H 5.914 C 3.685,-5.49 1.411,-3.761 0,0"
           style="fill:#ffca00;fill-opacity:1;fill-rule:nonzero;stroke:none"
           id="path918" />
      </g>
      <g
         id="g920"
         transform="translate(519.9233,297.9883)">
        <path
           d="m 0,0 c -0.5,-0.236 -0.997,-0.456 -1.485,-0.659 -3.048,-1.267 -6.538,-2.235 -9.768,-2.765 H 1.537 V 0.585 C 1.033,0.383 0.523,0.186 0,0"
           style="fill:#ffca00;fill-opacity:1;fill-rule:nonzero;stroke:none"
           id="path922" />
      </g>
      <g
         id="g924"
         transform="translate(563.1667,270.5637)">
        <path
           d="m 0,0 c -0.062,0.061 -0.176,0.135 -0.359,0.135 h -32.883 v -35.16 H -2.041 L 0.124,-0.341 C 0.135,-0.17 0.062,-0.061 0,0"
           style="fill:#ffca00;fill-opacity:1;fill-rule:nonzero;stroke:none"
           id="path926" />
      </g>
      <g
         id="g928"
         transform="translate(567.6311,286.8088)">
        <path
           d="m 0,0 c -0.006,0 -0.012,0.002 -0.018,0.002 h -37.688 v -8.091 h 36.347 1.953 v 7.494 z"
           style="fill:#ffca00;fill-opacity:1;fill-rule:nonzero;stroke:none"
           id="path930" />
      </g>
      <g
         id="g932"
         transform="translate(524.925,294.5638)">
        <path
           d="m 0,0 h -3.465 -12.79 -7.903 -17.073 l 8.432,8.907 0.177,0.187 c 0.587,0.62 2.002,1.229 2.857,1.229 h 2.378 c 0.199,-0.918 0.453,-1.827 0.78,-2.697 2.066,-5.506 5.98,-6.662 8.899,-6.662 3.643,0 8.437,0.945 12.706,2.46 0.523,0.186 1.033,0.384 1.537,0.586 0.146,0.058 0.299,0.111 0.444,0.171 C -2.033,4.592 -1.002,5.073 0,5.62 Z m 0,-15.844 h -3.058 -36.319 -5.388 c -0.339,0 -0.625,0.286 -0.625,0.625 v 7.466 3.36 l 0.607,0.641 c 0.006,0 0.012,0.002 0.018,0.002 L 0,-3.75 Z m 0,-43.181 h -3.465 -33.412 c -0.383,0 -0.751,0.347 -0.773,0.729 l -1.993,34.43 -0.218,3.759 c -0.01,0.184 0.062,0.302 0.124,0.368 0.063,0.066 0.176,0.145 0.36,0.145 H 0 Z m -4.715,80.601 c 0.091,-0.062 0.179,-0.123 0.267,-0.185 -1.565,-1.346 -2.661,-3.138 -3.039,-5.152 l -2.911,0.373 -3.85,0.493 c -1.025,0.133 -1.966,-0.594 -2.098,-1.621 -0.131,-1.027 0.595,-1.967 1.622,-2.098 l 3.852,-0.494 3.543,-0.454 C -6.822,10.598 -5.706,8.977 -4.189,7.76 -4.28,7.722 -4.368,7.683 -4.46,7.644 -5.511,7.208 -6.631,6.807 -7.777,6.451 c -3.454,-1.073 -7.148,-1.737 -9.931,-1.737 -1.637,0 -6.619,0 -6.619,13.363 0,3.417 0.328,5.744 1.696,7.112 1.018,1.018 2.61,1.507 5.087,1.507 3.227,0 8.263,-2.01 12.829,-5.12 M 2.5,20.16 c 2.639,0 4.908,-1.381 5.88,-3.344 0.011,-0.024 0.019,-0.048 0.03,-0.072 0.303,-0.637 0.474,-1.332 0.474,-2.061 0,-0.046 -0.003,-0.091 -0.004,-0.137 C 8.839,14.375 8.823,14.196 8.834,14.012 8.483,11.559 6.229,9.619 3.385,9.277 3.093,9.242 2.802,9.206 2.5,9.206 c -3.255,0 -5.946,2.101 -6.334,4.805 0.011,0.184 -0.005,0.364 -0.046,0.536 -10e-4,0.046 -0.004,0.091 -0.004,0.136 0,1.581 0.79,3.003 2.042,4.004 1.14,0.911 2.664,1.473 4.342,1.473 M 29.327,18.077 C 29.327,5.268 24.752,4.737 22.93,4.715 22.852,4.714 22.776,4.714 22.708,4.714 19.002,4.714 13.678,5.892 9.46,7.644 9.368,7.683 9.28,7.722 9.189,7.76 c 1.517,1.217 2.633,2.838 3.14,4.678 l 7.395,0.948 c 1.027,0.131 1.754,1.071 1.622,2.098 -0.132,1.027 -1.071,1.753 -2.098,1.621 l -6.761,-0.866 c -0.378,2.014 -1.474,3.806 -3.039,5.152 0.088,0.062 0.176,0.123 0.267,0.185 1.625,1.107 3.307,2.066 4.949,2.853 2.97,1.425 5.801,2.267 7.88,2.267 5.804,0 6.783,-2.659 6.783,-8.619 m 3.041,-7.838 c 0.806,-0.186 1.767,-0.662 2.225,-1.145 L 43.202,0 H 38.396 22.228 14.325 5 V 2.594 5.62 C 6.002,5.073 7.033,4.592 8.021,4.181 12.725,2.227 18.49,0.964 22.708,0.964 c 0.553,0 1.141,0.042 1.745,0.146 2.525,0.437 5.331,1.984 7.023,6.2 0.043,0.107 0.09,0.205 0.131,0.316 0.317,0.844 0.565,1.724 0.761,2.613 M 46.754,-3.752 47.36,-4.393 v -10.826 c 0,-0.339 -0.286,-0.625 -0.625,-0.625 H 43.3 41.347 5 v 8.091 4.003 h 41.735 c 0.007,0 0.012,-0.002 0.019,-0.002 M 39.62,-58.296 c -0.022,-0.382 -0.39,-0.729 -0.773,-0.729 H 36.201 5 v 35.159 4.272 h 36.347 c 0.184,0 0.297,-0.079 0.36,-0.145 0.062,-0.066 0.135,-0.184 0.124,-0.368 z m 3.744,-0.217 2.211,38.19 c 0.014,0.247 0.003,0.49 -0.023,0.729 h 1.183 c 2.413,0 4.375,1.963 4.375,4.375 v 10.844 c 0,1.612 -0.879,3.02 -2.18,3.779 L 37.316,11.672 c -1.037,1.094 -2.778,1.972 -4.398,2.281 0.13,1.513 0.159,2.938 0.159,4.124 0,4.015 0,12.369 -10.533,12.369 -4.769,0 -10.845,-2.981 -14.94,-5.771 C 7.114,24.342 6.503,23.907 5.835,23.394 4.79,23.727 3.668,23.91 2.5,23.91 c -1.168,0 -2.29,-0.183 -3.335,-0.516 -0.668,0.513 -1.279,0.948 -1.769,1.281 -4.095,2.79 -10.171,5.771 -14.94,5.771 -10.533,0 -10.533,-8.354 -10.533,-12.369 0,-1.155 0.028,-2.536 0.15,-4.004 h -1.838 c -1.885,0 -4.285,-1.032 -5.58,-2.401 L -46.96,-0.596 c -1.301,-0.759 -2.18,-2.167 -2.18,-3.779 v -10.844 c 0,-1.435 0.704,-2.699 1.774,-3.498 0.107,-0.079 0.216,-0.153 0.329,-0.223 0.665,-0.407 1.437,-0.654 2.272,-0.654 h 1.183 c -0.026,-0.24 -0.037,-0.483 -0.022,-0.729 l 2.21,-38.19 c 0.026,-0.434 0.134,-0.845 0.278,-1.24 0.039,-0.106 0.071,-0.214 0.117,-0.316 0.716,-1.581 2.319,-2.706 4.122,-2.706 h 75.724 c 2.354,0 4.381,1.912 4.517,4.262"
           style="fill:#000000;fill-opacity:1;fill-rule:nonzero;stroke:none"
           id="path934" />
      </g>
    </g>
  </g>
</svg>
