<?xml version="1.0" encoding="UTF-8" standalone="no"?>
<svg
   xmlns:dc="http://purl.org/dc/elements/1.1/"
   xmlns:cc="http://creativecommons.org/ns#"
   xmlns:rdf="http://www.w3.org/1999/02/22-rdf-syntax-ns#"
   xmlns:svg="http://www.w3.org/2000/svg"
   xmlns="http://www.w3.org/2000/svg"
   xmlns:sodipodi="http://sodipodi.sourceforge.net/DTD/sodipodi-0.dtd"
   xmlns:inkscape="http://www.inkscape.org/namespaces/inkscape"
   width="31.381401mm"
   height="27.930828mm"
   viewBox="0 0 31.381401 27.930828"
   version="1.1"
   id="svg4169"
   inkscape:version="1.0.1 (3bc2e813f5, 2020-09-07)"
   sodipodi:docname="gift9.svg">
  <defs
     id="defs4163" />
  <sodipodi:namedview
     id="base"
     pagecolor="#ffffff"
     bordercolor="#666666"
     borderopacity="1.0"
     inkscape:pageopacity="0.0"
     inkscape:pageshadow="2"
     inkscape:zoom="0.35"
     inkscape:cx="210.732"
     inkscape:cy="995.63981"
     inkscape:document-units="mm"
     inkscape:current-layer="layer1"
     inkscape:document-rotation="0"
     showgrid="false"
     fit-margin-top="0"
     fit-margin-left="0"
     fit-margin-right="0"
     fit-margin-bottom="0"
     inkscape:window-width="1267"
     inkscape:window-height="1040"
     inkscape:window-x="234"
     inkscape:window-y="0"
     inkscape:window-maximized="0" />
  <metadata
     id="metadata4166">
    <rdf:RDF>
      <cc:Work
         rdf:about="">
        <dc:format>image/svg+xml</dc:format>
        <dc:type
           rdf:resource="http://purl.org/dc/dcmitype/StillImage" />
        <dc:title></dc:title>
      </cc:Work>
    </rdf:RDF>
  </metadata>
  <g
     inkscape:label="Layer 1"
     inkscape:groupmode="layer"
     id="layer1"
     transform="translate(-50.077159,115.26303)">
    <g
       id="g4130"
       transform="matrix(0.35277777,0,0,-0.35277777,-123.58747,90.754176)">
      <g
         id="g188"
         transform="translate(550.3158,540.5527)">
        <path
           d="M 0,0 C 0.075,0.074 0.165,0.152 0.243,0.227 0.016,0.199 -0.204,0.156 -0.42,0.099 -0.28,0.067 -0.137,0.039 0,0"
           style="fill:#5ac8a8;fill-opacity:1;fill-rule:nonzero;stroke:none"
           id="path190" />
      </g>
      <g
         id="g192"
         transform="translate(567.7021,565.5478)">
        <path
           d="m 0,0 h -14.865 v -21.125 c 0.252,-0.049 0.502,-0.105 0.745,-0.174 2.096,2.079 5.566,4.55 10.853,5.643 1.358,0.281 2.654,0.476 3.892,0.601 v 14.43 C 0.625,-0.286 0.339,0 0,0"
           style="fill:#5ac8a8;fill-opacity:1;fill-rule:nonzero;stroke:none"
           id="path194" />
      </g>
      <g
         id="g196"
         transform="translate(548.375,538.8501)">
        <path
           d="m 0,0 c -0.418,0 -0.816,-0.068 -1.201,-0.164 -0.392,-0.625 -0.633,-1.339 -0.633,-2.111 0,-2.35 2.078,-4.262 4.633,-4.262 0.418,0 0.815,0.068 1.201,0.164 0.391,0.625 0.633,1.339 0.633,2.111 C 4.633,-1.912 2.554,0 0,0"
           style="fill:#ff915c;fill-opacity:1;fill-rule:nonzero;stroke:none"
           id="path198" />
      </g>
      <g
         id="g200"
         transform="translate(540.3579,533.9863)">
        <path
           d="m 0,0 c 0,2.248 0.975,4.282 2.541,5.739 -1.94,1.666 -4.632,3.172 -8.179,3.905 -1.6,0.331 -3.13,0.499 -4.547,0.499 -2.064,0 -3.799,-0.361 -5.108,-1.01 -0.52,-1.685 0.056,-3.935 1.668,-6.439 1.92,-2.981 1.49,-6.277 1.144,-8.925 -0.226,-1.729 -0.439,-3.362 0.143,-4.025 0.306,-0.349 1.255,-0.934 4.163,-0.934 5.216,0 9.033,1.855 11.725,4.196 0.077,0.1 0.159,0.201 0.233,0.301 C 1.506,-5.259 0,-2.795 0,0"
           style="fill:#ff915c;fill-opacity:1;fill-rule:nonzero;stroke:none"
           id="path202" />
      </g>
      <g
         id="g204"
         transform="translate(499.6186,565.5478)">
        <path
           d="m 0,0 v -25.934 h 18.382 c 0.142,0.804 0.4,1.568 0.788,2.28 0.663,1.216 1.668,2.22 2.935,3.002 0.099,0.236 0.208,0.468 0.331,0.694 1.691,3.1 5.537,4.878 10.552,4.878 1.671,0 3.456,-0.194 5.305,-0.576 3.315,-0.685 5.914,-1.912 7.91,-3.245 V 0 Z"
           style="fill:#5ac8a8;fill-opacity:1;fill-rule:nonzero;stroke:none"
           id="path206" />
      </g>
      <g
         id="g208"
         transform="translate(544.5332,541.4415)">
        <path
           d="m 0,0 c 0.247,0.307 0.509,0.602 0.799,0.872 -1.94,1.666 -4.633,3.173 -8.18,3.906 -1.599,0.331 -3.129,0.498 -4.546,0.498 -0.419,0 -0.823,-0.017 -1.215,-0.046 1.056,-0.092 2.141,-0.245 3.254,-0.475 C -5.338,3.814 -2.141,1.854 0,0"
           style="fill:#5ac8a8;fill-opacity:1;fill-rule:nonzero;stroke:none"
           id="path210" />
      </g>
      <g
         id="g212"
         transform="translate(496.3525,507.2291)">
        <path
           d="M 0,0 V -1.738 C 0,-2.076 0.286,-2.363 0.625,-2.363 H 3.353 C 1.881,-2.179 0.644,-1.273 0,0"
           style="fill:#5ac8a8;fill-opacity:1;fill-rule:nonzero;stroke:none"
           id="path214" />
      </g>
      <g
         id="g216"
         transform="translate(545.1359,522.4568)">
        <path
           d="m 0,0 c -2.827,-3.242 -7.936,-7.106 -16.219,-7.106 -3.439,0 -5.657,0.702 -6.981,2.21 -1.703,1.939 -1.368,4.504 -1.044,6.985 0.295,2.252 0.599,4.582 -0.578,6.408 -0.262,0.407 -0.497,0.812 -0.718,1.215 H -45.517 V -13.27 c 0,-0.338 0.286,-0.625 0.625,-0.625 H 0.686 V 0.834 C 0.465,0.553 0.238,0.273 0,0"
           style="fill:#5ac8a8;fill-opacity:1;fill-rule:nonzero;stroke:none"
           id="path218" />
      </g>
      <g
         id="g220"
         transform="translate(566.8976,515.3506)">
        <path
           d="M 0,0 C -6.5,0 -11.038,2.381 -14.06,4.972 V -6.789 H 1.429 V 0.065 C 0.977,0.023 0.502,0 0,0"
           style="fill:#5ac8a8;fill-opacity:1;fill-rule:nonzero;stroke:none"
           id="path222" />
      </g>
      <g
         id="g224"
         transform="translate(571.4531,527.327)">
        <path
           d="m 0,0 c -0.232,3.108 -0.495,6.631 1.395,9.564 1.698,2.638 2.258,4.779 1.577,6.029 -0.698,1.278 -2.896,2.012 -6.031,2.012 -1.769,0 -3.776,-0.23 -5.966,-0.682 -2.083,-0.431 -3.864,-1.132 -5.378,-1.972 1.544,-1.454 2.506,-3.472 2.506,-5.703 0,-2.795 -1.506,-5.259 -3.782,-6.693 2.571,-3.5 7.131,-7.086 14.39,-7.086 0.46,0 0.875,0.025 1.255,0.068 C 0.241,-3.319 0.127,-1.697 0,0"
           style="fill:#ff915c;fill-opacity:1;fill-rule:nonzero;stroke:none"
           id="path226" />
      </g>
      <g
         id="g454"
         transform="translate(575.6137,538.8608)">
        <path
           d="m 0,0 c -1.889,-2.933 -1.626,-6.456 -1.395,-9.564 0.177,-2.365 0.343,-4.599 -0.559,-5.571 -0.421,-0.454 -1.176,-0.741 -2.24,-0.862 -0.381,-0.043 -0.796,-0.068 -1.256,-0.068 -7.258,0 -11.819,3.586 -14.39,7.086 2.276,1.434 3.782,3.898 3.782,6.693 0,2.231 -0.961,4.249 -2.506,5.703 -0.012,0.011 -0.023,0.024 -0.035,0.036 1.94,1.666 4.633,3.172 8.18,3.906 2.189,0.452 4.196,0.682 5.965,0.682 3.135,0 5.333,-0.734 6.031,-2.013 C 2.259,4.778 1.699,2.638 0,0 m -4.021,-29.674 c 0,-0.338 -0.286,-0.625 -0.625,-0.625 h -2.641 -15.489 v 11.761 7.219 c 0.346,-0.472 0.713,-0.937 1.107,-1.389 2.827,-3.242 7.936,-7.107 16.219,-7.107 0.502,0 0.977,0.023 1.429,0.066 z m -22.505,-0.625 h -3.266 -45.578 c -0.339,0 -0.625,0.287 -0.625,0.625 v 22.982 3.695 h 23.244 c 0.22,-0.403 0.455,-0.807 0.718,-1.214 1.176,-1.827 0.872,-4.156 0.578,-6.409 -0.324,-2.48 -0.659,-5.045 1.043,-6.984 1.324,-1.508 3.542,-2.211 6.981,-2.211 8.283,0 13.392,3.865 16.219,7.107 0.239,0.273 0.465,0.552 0.686,0.834 z M -75.37,30.383 h 48.844 V 5.468 c -0.108,-0.026 -0.217,-0.05 -0.323,-0.081 -0.782,0.776 -1.756,1.607 -2.943,2.399 -1.996,1.333 -4.595,2.56 -7.91,3.245 -1.849,0.382 -3.634,0.576 -5.306,0.576 -5.014,0 -8.86,-1.778 -10.551,-4.878 -0.123,-0.226 -0.233,-0.458 -0.331,-0.694 -0.658,-1.577 -0.761,-3.369 -0.328,-5.282 h -3.395 -18.382 v 25.934 3.071 c 0,0.338 0.286,0.625 0.625,0.625 m 24.723,7.367 c 0,1.999 1.626,3.625 3.625,3.625 h 16.317 c 1.999,0 3.625,-1.626 3.625,-3.625 v -3.617 h -23.567 z m 7.216,-53.815 c -2.908,0 -3.856,0.586 -4.163,0.935 -0.582,0.663 -0.369,2.296 -0.143,4.025 0.346,2.648 0.776,5.943 -1.144,8.924 -1.612,2.504 -2.188,4.755 -1.668,6.439 0.073,0.236 0.166,0.462 0.282,0.675 0.896,1.642 3.068,2.662 6.044,2.878 0.393,0.028 0.796,0.046 1.215,0.046 1.417,0 2.947,-0.168 4.547,-0.498 3.547,-0.734 6.239,-2.24 8.179,-3.906 -0.29,-0.27 -0.551,-0.565 -0.799,-0.872 -1.087,-1.351 -1.742,-3.035 -1.742,-4.867 0,-2.795 1.506,-5.259 3.783,-6.693 -0.724,-0.985 -1.611,-1.973 -2.665,-2.89 -2.693,-2.341 -6.509,-4.196 -11.726,-4.196 M -24.44,1.976 c 2.554,0 4.632,-1.912 4.632,-4.262 0,-1.965 -1.461,-3.608 -3.431,-4.098 -0.386,-0.096 -0.783,-0.164 -1.201,-0.164 -2.555,0 -4.633,1.912 -4.633,4.262 0,0.772 0.241,1.487 0.633,2.112 0.592,0.945 1.559,1.655 2.722,1.964 0.216,0.058 0.436,0.101 0.663,0.129 0.203,0.025 0.404,0.057 0.615,0.057 m 19.794,28.407 c 0.339,0 0.625,-0.287 0.625,-0.625 V 11.786 c -0.142,0.002 -0.286,0.005 -0.433,0.005 -0.896,0 -1.847,-0.059 -2.833,-0.159 -1.237,-0.125 -2.534,-0.32 -3.892,-0.601 -5.287,-1.093 -8.757,-3.564 -10.853,-5.644 -0.243,0.07 -0.492,0.126 -0.744,0.175 v 21.125 3.696 z M -0.271,11.34 v 18.418 c 0,0.212 -0.02,0.42 -0.049,0.625 h 1.766 c 1.035,0 1.875,0.839 1.875,1.875 0,1.035 -0.84,1.875 -1.875,1.875 H -4.646 -23.33 v 3.617 c 0,4.067 -3.308,7.375 -7.375,7.375 h -16.317 c -4.066,0 -7.375,-3.308 -7.375,-7.375 v -3.617 h -20.973 -6.091 c -1.036,0 -1.875,-0.84 -1.875,-1.875 0,-1.036 0.839,-1.875 1.875,-1.875 h 1.766 c -0.03,-0.205 -0.05,-0.413 -0.05,-0.625 v -59.432 c 0,-0.707 0.184,-1.366 0.484,-1.958 0.643,-1.272 1.881,-2.179 3.353,-2.362 0.178,-0.023 0.354,-0.055 0.538,-0.055 h 70.724 c 2.413,0 4.375,1.963 4.375,4.375 v 11.096 c 0.396,0.257 0.752,0.553 1.066,0.892 2.015,2.17 1.778,5.338 1.55,8.401 -0.197,2.644 -0.401,5.378 0.808,7.255 2.547,3.955 3.125,7.271 1.716,9.854 -0.711,1.304 -2.167,2.789 -5.14,3.516"
           style="fill:#000000;fill-opacity:1;fill-rule:nonzero;stroke:none"
           id="path456" />
      </g>
    </g>
  </g>
</svg>
