<?xml version="1.0" encoding="UTF-8" standalone="no"?>
<svg
   xmlns:dc="http://purl.org/dc/elements/1.1/"
   xmlns:cc="http://creativecommons.org/ns#"
   xmlns:rdf="http://www.w3.org/1999/02/22-rdf-syntax-ns#"
   xmlns:svg="http://www.w3.org/2000/svg"
   xmlns="http://www.w3.org/2000/svg"
   xmlns:sodipodi="http://sodipodi.sourceforge.net/DTD/sodipodi-0.dtd"
   xmlns:inkscape="http://www.inkscape.org/namespaces/inkscape"
   width="33.602081mm"
   height="32.593491mm"
   viewBox="0 0 33.602081 32.593491"
   version="1.1"
   id="svg4407"
   inkscape:version="1.0.1 (3bc2e813f5, 2020-09-07)"
   sodipodi:docname="gift11.svg">
  <defs
     id="defs4401" />
  <sodipodi:namedview
     id="base"
     pagecolor="#ffffff"
     bordercolor="#666666"
     borderopacity="1.0"
     inkscape:pageopacity="0.0"
     inkscape:pageshadow="2"
     inkscape:zoom="0.35"
     inkscape:cx="-153.64287"
     inkscape:cy="73.022586"
     inkscape:document-units="mm"
     inkscape:current-layer="layer1"
     inkscape:document-rotation="0"
     showgrid="false"
     fit-margin-top="0"
     fit-margin-left="0"
     fit-margin-right="0"
     fit-margin-bottom="0"
     inkscape:window-width="1267"
     inkscape:window-height="1040"
     inkscape:window-x="78"
     inkscape:window-y="0"
     inkscape:window-maximized="0" />
  <metadata
     id="metadata4404">
    <rdf:RDF>
      <cc:Work
         rdf:about="">
        <dc:format>image/svg+xml</dc:format>
        <dc:type
           rdf:resource="http://purl.org/dc/dcmitype/StillImage" />
        <dc:title></dc:title>
      </cc:Work>
    </rdf:RDF>
  </metadata>
  <g
     inkscape:label="Layer 1"
     inkscape:groupmode="layer"
     id="layer1"
     transform="translate(-146.48468,-128.84611)">
    <g
       id="g4354"
       transform="matrix(0.35277777,0,0,-0.35277777,117.20525,292.65656)">
      <g
         id="g490"
         transform="translate(118.7208,375.7034)">
        <path
           d="m 0,0 h 15.867 l 27.09,27.09 v 15.869 z"
           style="fill:#ff9f9d;fill-opacity:1;fill-rule:nonzero;stroke:none"
           id="path492" />
      </g>
      <g
         id="g494"
         transform="translate(93.6719,392.9991)">
        <path
           d="M 0,0 V -15.869 L 45.749,29.88 H 29.882 Z"
           style="fill:#ff9f9d;fill-opacity:1;fill-rule:nonzero;stroke:none"
           id="path496" />
      </g>
      <g
         id="g498"
         transform="translate(93.6719,419.4725)">
        <path
           d="M 0,0 3.407,3.407 H 0 Z"
           style="fill:#ff9f9d;fill-opacity:1;fill-rule:nonzero;stroke:none"
           id="path500" />
      </g>
      <g
         id="g502"
         transform="translate(161.6777,376.3201)">
        <path
           d="m 0,0 -0.617,-0.617 h 0.582 C -0.022,-0.503 0,-0.392 0,-0.275 Z"
           style="fill:#ff9f9d;fill-opacity:1;fill-rule:nonzero;stroke:none"
           id="path504" />
      </g>
      <g
         id="g506"
         transform="translate(93.6719,414.1692)">
        <path
           d="M 0,0 V -15.867 L 24.579,8.71 H 8.71 Z"
           style="fill:#5ac8a8;fill-opacity:1;fill-rule:nonzero;stroke:none"
           id="path508" />
      </g>
      <g
         id="g510"
         transform="translate(144.7245,422.8795)">
        <path
           d="m 0,0 -47.176,-47.176 h 15.869 L 15.867,0 h -2.005 z"
           style="fill:#5ac8a8;fill-opacity:1;fill-rule:nonzero;stroke:none"
           id="path512" />
      </g>
      <g
         id="g514"
         transform="translate(161.6777,397.4901)">
        <path
           d="M 0,0 -21.787,-21.787 H -5.92 l 5.92,5.92 v 9.682 z"
           style="fill:#5ac8a8;fill-opacity:1;fill-rule:nonzero;stroke:none"
           id="path516" />
      </g>
      <g
         id="g518"
         transform="translate(132.689,442.3982)">
        <path
           d="M 0,0 C -0.641,2.024 -2.497,3.384 -4.618,3.384 -4.909,3.384 -5.199,3.349 -5.487,3.296 -5.615,3.115 -5.746,2.937 -5.85,2.737 -6.446,1.588 -6.558,0.276 -6.167,-0.958 c 0.641,-2.024 2.497,-3.383 4.618,-3.383 0.291,0 0.581,0.034 0.869,0.087 0.127,0.181 0.259,0.359 0.362,0.559 C 0.278,-2.546 0.391,-1.234 0,0"
           style="fill:#ff3e37;fill-opacity:1;fill-rule:nonzero;stroke:none"
           id="path520" />
      </g>
      <g
         id="g522"
         transform="translate(125.9661,454.7936)">
        <path
           d="m 0,0 c -0.641,2.024 -2.497,3.384 -4.618,3.384 -0.291,0 -0.581,-0.035 -0.868,-0.088 -0.845,-1.197 -1.157,-2.752 -0.681,-4.254 0.641,-2.024 2.497,-3.384 4.618,-3.384 0.291,0 0.58,0.035 0.868,0.088 C 0.164,-3.057 0.476,-1.502 0,0"
           style="fill:#ff3e37;fill-opacity:1;fill-rule:nonzero;stroke:none"
           id="path524" />
      </g>
      <g
         id="g526"
         transform="translate(118.3149,442.4552)">
        <path
           d="M 0,0 C -0.641,2.024 -2.497,3.384 -4.618,3.384 -4.914,3.384 -5.208,3.347 -5.5,3.293 -5.899,2.725 -6.181,2.079 -6.31,1.392 -6.313,1.032 -6.338,0.674 -6.385,0.32 c 0.016,-0.425 0.083,-0.854 0.218,-1.278 0.641,-2.024 2.497,-3.384 4.618,-3.384 0.291,0 0.581,0.035 0.869,0.088 0.127,0.181 0.259,0.359 0.362,0.559 C 0.278,-2.546 0.391,-1.234 0,0"
           style="fill:#ff3e37;fill-opacity:1;fill-rule:nonzero;stroke:none"
           id="path528" />
      </g>
      <g
         id="g530"
         transform="translate(111.6806,455.2404)">
        <path
           d="m 0,0 c -0.641,2.024 -2.497,3.384 -4.618,3.384 -0.291,0 -0.581,-0.035 -0.868,-0.088 -0.845,-1.197 -1.157,-2.752 -0.681,-4.254 0.641,-2.024 2.497,-3.384 4.618,-3.384 0.291,0 0.581,0.035 0.869,0.088 0.127,0.181 0.259,0.359 0.362,0.559 C 0.278,-2.546 0.391,-1.234 0,0"
           style="fill:#ff3e37;fill-opacity:1;fill-rule:nonzero;stroke:none"
           id="path532" />
      </g>
      <g
         id="g534"
         transform="translate(105.1759,442.1205)">
        <path
           d="M 0,0 C -0.016,0.425 -0.084,0.854 -0.218,1.278 -0.86,3.302 -2.715,4.661 -4.836,4.661 -5.128,4.661 -5.418,4.626 -5.705,4.573 -5.833,4.393 -5.964,4.215 -6.068,4.015 -6.664,2.866 -6.776,1.554 -6.385,0.32 c 0.641,-2.024 2.497,-3.384 4.617,-3.384 0.297,0 0.591,0.037 0.883,0.091 0.399,0.568 0.681,1.214 0.81,1.901 C -0.073,-0.712 -0.047,-0.354 0,0"
           style="fill:#ff3e37;fill-opacity:1;fill-rule:nonzero;stroke:none"
           id="path536" />
      </g>
      <g
         id="g538"
         transform="translate(91.7423,442.134)">
        <path
           d="M 0,0 C 0,0.004 0,0.008 0,0.013"
           style="fill:none;stroke:#000000;stroke-width:0.75;stroke-linecap:round;stroke-linejoin:round;stroke-miterlimit:4;stroke-dasharray:none;stroke-opacity:1"
           id="path540" />
      </g>
      <g
         id="g542"
         transform="translate(91.8241,440.7537)">
        <path
           d="M 0,0 C 0.002,-0.014 0.004,-0.027 0.006,-0.041"
           style="fill:none;stroke:#000000;stroke-width:0.75;stroke-linecap:round;stroke-linejoin:round;stroke-miterlimit:4;stroke-dasharray:none;stroke-opacity:1"
           id="path544" />
      </g>
      <g
         id="g546"
         transform="translate(91.7708,441.2269)">
        <path
           d="M 0,0 C 0.002,-0.018 0.003,-0.035 0.005,-0.053"
           style="fill:none;stroke:#000000;stroke-width:0.75;stroke-linecap:round;stroke-linejoin:round;stroke-miterlimit:4;stroke-dasharray:none;stroke-opacity:1"
           id="path548" />
      </g>
      <g
         id="g550"
         transform="translate(91.7442,441.69)">
        <path
           d="M 0,0 C 0,-0.015 0.001,-0.031 0.002,-0.046"
           style="fill:none;stroke:#000000;stroke-width:0.75;stroke-linecap:round;stroke-linejoin:round;stroke-miterlimit:4;stroke-dasharray:none;stroke-opacity:1"
           id="path552" />
      </g>
      <g
         id="g554"
         transform="translate(169.0191,439.6169)">
        <path
           d="m 0,0 h -29.941 c -0.094,-0.226 -0.192,-0.45 -0.306,-0.67 -0.981,-1.891 -2.595,-3.313 -4.57,-4.064 -1.015,-1.103 -2.321,-1.931 -3.826,-2.386 -0.839,-0.253 -1.709,-0.382 -2.583,-0.382 -2.784,0 -5.292,1.279 -6.866,3.329 -0.319,-0.176 -0.648,-0.333 -0.991,-0.468 -1.018,-1.119 -2.326,-1.966 -3.845,-2.425 -0.84,-0.254 -1.709,-0.382 -2.583,-0.382 -2.865,0 -5.452,1.343 -7.015,3.499 -0.972,-1.001 -2.218,-1.783 -3.677,-2.224 -0.839,-0.253 -1.708,-0.382 -2.583,-0.382 -3.739,0 -7.011,2.284 -8.141,5.682 -0.096,0.289 -0.173,0.58 -0.235,0.873 h -5.111 v -7.607 c 0,-1.034 0.841,-1.875 1.875,-1.875 h 5.676 70.724 5.861 v 7.706 C 1.863,-0.797 1.028,0 0,0"
           style="fill:#ff9f9d;fill-opacity:1;fill-rule:nonzero;stroke:none"
           id="path556" />
      </g>
      <g
         id="g558"
         transform="translate(174.4968,432.0096)">
        <path
           d="M 0,0 C 0,-1.034 -0.841,-1.875 -1.875,-1.875 H -3.614 -9.475 -80.2 -85.875 c -1.034,0 -1.875,0.841 -1.875,1.875 v 7.607 0.737 c 0,1.034 0.841,1.875 1.875,1.875 h 6.358 c 0.062,-0.309 0.139,-0.617 0.236,-0.921 1.138,-3.59 4.43,-6.001 8.193,-6.001 0.879,0 1.754,0.136 2.599,0.404 1.467,0.465 2.721,1.291 3.699,2.348 1.573,-2.276 4.176,-3.695 7.059,-3.695 0.879,0 1.754,0.136 2.599,0.404 0.194,0.061 0.384,0.134 0.572,0.208 0.342,0.135 0.672,0.293 0.99,0.468 1.211,0.668 2.242,1.611 3.01,2.776 1.555,-2.403 4.229,-3.913 7.203,-3.913 0.879,0 1.754,0.136 2.599,0.404 0.158,0.05 0.309,0.113 0.463,0.172 1.975,0.751 3.59,2.173 4.57,4.064 0.114,0.22 0.213,0.444 0.306,0.67 0.35,0.842 0.566,1.721 0.636,2.613 V 10.219 H -1.875 C -0.841,10.219 0,9.378 0,8.344 Z m -8.85,-25.248 -3.969,-3.968 -27.09,-27.09 h -15.867 l 42.957,42.959 3.969,3.968 z m 0,-21.17 -3.969,-3.968 -5.92,-5.92 h -15.867 l 21.787,21.786 3.969,3.969 z m 0,-9.263 c 0,-0.339 -0.287,-0.625 -0.625,-0.625 h -3.379 -0.582 l 0.617,0.616 3.969,3.969 z m -5.055,46.551 -47.174,-47.176 h -15.869 l 47.176,47.176 3.505,3.505 H -10.4 Z m -63.513,0 -3.407,-3.407 v 3.407 2.88 c 0,0.339 0.286,0.625 0.625,0.625 h 6.287 z m 21.172,0 -24.579,-24.577 v 15.867 l 8.71,8.71 3.505,3.505 h 15.869 z m 21.17,0 -45.749,-45.75 v 15.87 l 29.883,29.88 3.505,3.505 h 15.867 z m -37.475,25.644 c 0.478,0.152 0.971,0.229 1.466,0.229 2.121,0 3.976,-1.36 4.618,-3.384 0.134,-0.424 0.202,-0.853 0.218,-1.278 -0.047,-0.353 -0.073,-0.711 -0.075,-1.072 -0.319,-1.699 -1.538,-3.176 -3.298,-3.734 -0.192,-0.06 -0.388,-0.1 -0.584,-0.137 -0.292,-0.054 -0.586,-0.091 -0.882,-0.091 -2.121,0 -3.977,1.36 -4.618,3.384 -0.391,1.234 -0.279,2.546 0.317,3.695 0.104,0.2 0.235,0.377 0.363,0.558 0.606,0.859 1.456,1.507 2.475,1.83 m 6.723,11.843 c 0.478,0.151 0.971,0.228 1.466,0.228 2.12,0 3.976,-1.36 4.618,-3.384 0.391,-1.234 0.278,-2.546 -0.318,-3.695 -0.596,-1.149 -1.604,-1.997 -2.838,-2.389 -0.196,-0.062 -0.396,-0.103 -0.596,-0.14 -0.288,-0.053 -0.578,-0.088 -0.87,-0.088 -2.12,0 -3.976,1.36 -4.618,3.384 -0.475,1.501 -0.164,3.056 0.682,4.254 0.589,0.833 1.428,1.498 2.474,1.83 m 8.1,-12.557 c 2.121,0 3.976,-1.36 4.618,-3.384 0.391,-1.234 0.278,-2.546 -0.318,-3.695 -0.596,-1.149 -1.603,-1.998 -2.837,-2.389 -0.197,-0.062 -0.397,-0.103 -0.597,-0.14 -0.288,-0.053 -0.578,-0.088 -0.869,-0.088 -2.121,0 -3.977,1.36 -4.618,3.384 -0.135,0.424 -0.202,0.853 -0.218,1.278 0.047,0.353 0.072,0.711 0.075,1.072 0.129,0.686 0.411,1.332 0.81,1.9 0.588,0.838 1.439,1.501 2.488,1.833 0.478,0.152 0.971,0.229 1.466,0.229 m 6.185,12.11 c 0.478,0.151 0.971,0.228 1.466,0.228 2.121,0 3.977,-1.36 4.618,-3.383 0.808,-2.548 -0.608,-5.277 -3.155,-6.084 -0.197,-0.063 -0.397,-0.104 -0.598,-0.141 -0.287,-0.053 -0.577,-0.088 -0.868,-0.088 -2.121,0 -3.976,1.36 -4.618,3.384 -0.476,1.502 -0.164,3.057 0.681,4.254 0.589,0.833 1.429,1.498 2.474,1.83 m 8.189,-12.167 c 2.121,0 3.977,-1.36 4.618,-3.384 0.391,-1.234 0.278,-2.546 -0.318,-3.695 -0.596,-1.149 -1.603,-1.997 -2.837,-2.389 -0.196,-0.062 -0.396,-0.103 -0.597,-0.14 -0.288,-0.053 -0.578,-0.088 -0.869,-0.088 -2.121,0 -3.977,1.36 -4.618,3.384 -0.391,1.234 -0.278,2.546 0.318,3.695 0.103,0.2 0.234,0.377 0.362,0.558 0.606,0.859 1.456,1.507 2.475,1.83 0.478,0.152 0.971,0.229 1.466,0.229 m 41.479,-1.774 h -33.457 c 0.06,-0.157 0.119,-0.315 0.171,-0.477 -1.041,3.283 -3.885,5.574 -7.241,5.943 0.971,1.933 1.222,4.232 0.518,6.453 -1.138,3.589 -4.43,6 -8.193,6 -0.879,0 -1.754,-0.136 -2.599,-0.404 -1.842,-0.583 -3.349,-1.734 -4.393,-3.198 -1.54,2.483 -4.263,4.049 -7.293,4.049 -0.88,0 -1.754,-0.136 -2.599,-0.404 -4.519,-1.432 -7.029,-6.273 -5.597,-10.791 0.079,-0.252 0.172,-0.496 0.273,-0.736 -0.473,-0.067 -0.94,-0.169 -1.399,-0.315 -2.189,-0.694 -3.976,-2.198 -5.034,-4.236 -0.314,-0.606 -0.55,-1.238 -0.712,-1.884 v 0 h -6.445 c -3.102,0 -5.625,-2.523 -5.625,-5.625 L -91.5,0 c 0,-3.102 2.523,-5.625 5.625,-5.625 h 1.35 c -0.029,-0.205 -0.05,-0.412 -0.05,-0.625 v -49.431 c 0,-2.413 1.963,-4.375 4.375,-4.375 h 70.725 c 2.412,0 4.375,1.962 4.375,4.375 V -6.25 c 0,0.213 -0.021,0.42 -0.05,0.625 h 3.275 c 3.102,0 5.625,2.523 5.625,5.625 v 8.344 c 0,3.102 -2.523,5.625 -5.625,5.625"
           style="fill:#000000;fill-opacity:1;fill-rule:nonzero;stroke:none"
           id="path560" />
      </g>
    </g>
  </g>
</svg>
