<?xml version="1.0" encoding="UTF-8" standalone="no"?>
<svg
   xmlns:dc="http://purl.org/dc/elements/1.1/"
   xmlns:cc="http://creativecommons.org/ns#"
   xmlns:rdf="http://www.w3.org/1999/02/22-rdf-syntax-ns#"
   xmlns:svg="http://www.w3.org/2000/svg"
   xmlns="http://www.w3.org/2000/svg"
   xmlns:sodipodi="http://sodipodi.sourceforge.net/DTD/sodipodi-0.dtd"
   xmlns:inkscape="http://www.inkscape.org/namespaces/inkscape"
   width="35.365971mm"
   height="29.547607mm"
   viewBox="0 0 35.365971 29.547607"
   version="1.1"
   id="svg4831"
   inkscape:version="0.92.4 (5da689c313, 2019-01-14)"
   sodipodi:docname="gift15.svg">
  <defs
     id="defs4825" />
  <sodipodi:namedview
     id="base"
     pagecolor="#ffffff"
     bordercolor="#666666"
     borderopacity="1.0"
     inkscape:pageopacity="0.0"
     inkscape:pageshadow="2"
     inkscape:zoom="5.6"
     inkscape:cx="9.305571"
     inkscape:cy="50.317259"
     inkscape:document-units="mm"
     inkscape:current-layer="layer1"
     inkscape:document-rotation="0"
     showgrid="false"
     fit-margin-top="0"
     fit-margin-left="0"
     fit-margin-right="0"
     fit-margin-bottom="0"
     inkscape:window-width="1600"
     inkscape:window-height="848"
     inkscape:window-x="-8"
     inkscape:window-y="-8"
     inkscape:window-maximized="1" />
  <metadata
     id="metadata4828">
    <rdf:RDF>
      <cc:Work
         rdf:about="">
        <dc:format>image/svg+xml</dc:format>
        <dc:type
           rdf:resource="http://purl.org/dc/dcmitype/StillImage" />
        <dc:title></dc:title>
      </cc:Work>
    </rdf:RDF>
  </metadata>
  <g
     inkscape:label="Layer 1"
     inkscape:groupmode="layer"
     id="layer1"
     transform="translate(-341.39439,-68.380959)">
    <rect
       style="opacity:1;fill:#ffffff;fill-opacity:1;fill-rule:nonzero;stroke:none;stroke-width:1.06022012;stroke-miterlimit:4;stroke-dasharray:none;stroke-dashoffset:0;stroke-opacity:1;paint-order:fill markers stroke"
       id="rect834"
       width="27.596043"
       height="20.119141"
       x="345.14691"
       y="76.769989" />
    <rect
       style="opacity:1;fill:#ffffff;fill-opacity:1;fill-rule:nonzero;stroke:none;stroke-width:1.08543491;stroke-miterlimit:4;stroke-dasharray:none;stroke-dashoffset:0;stroke-opacity:1;paint-order:fill markers stroke"
       id="rect836"
       width="33.844627"
       height="5.6285701"
       x="342.27634"
       y="72.314507" />
    <path
       style="opacity:1;fill:#ffffff;fill-opacity:1;fill-rule:nonzero;stroke:none;stroke-width:1;stroke-miterlimit:4;stroke-dasharray:none;stroke-dashoffset:0;stroke-opacity:1;paint-order:fill markers stroke"
       d="m 355.06773,73.055996 c 0.0911,7.022975 -1.95245,2.784805 -3.48668,2.784803 -1.53423,-4e-6 -2.22945,-1.464949 -2.77796,-3.068285 -1.1423,-3.339016 -0.24082,-4.117175 2.02201,-3.068284 1.48698,0.75595 4.22064,1.657341 4.24263,3.351766 z"
       id="path838"
       inkscape:connector-curvature="0"
       sodipodi:nodetypes="scscs" />
    <path
       style="opacity:1;fill:#ffffff;fill-opacity:1;fill-rule:nonzero;stroke:none;stroke-width:1;stroke-miterlimit:4;stroke-dasharray:none;stroke-dashoffset:0;stroke-opacity:1;paint-order:fill markers stroke"
       d="m 363.48223,72.896889 c -0.0911,7.022975 1.95245,2.784805 3.48668,2.784803 1.53423,-4e-6 2.22945,-1.464949 2.77796,-3.068285 1.1423,-3.339016 0.24082,-4.117175 -2.02201,-3.068284 -1.48698,0.75595 -4.22064,1.657341 -4.24263,3.351766 z"
       id="path838-7"
       inkscape:connector-curvature="0"
       sodipodi:nodetypes="scscs" />
    <g
       id="g4796"
       transform="matrix(0.35277777,0,0,-0.35277777,123.93244,228.28729)">
      <g
         id="g168"
         transform="translate(626.6097,370.2214)">
        <path
           d="M 0,0 H 0.295 C 0.193,0.077 0.092,0.155 0,0.243 Z"
           style="fill:#ff915c;fill-opacity:1;fill-rule:nonzero;stroke:none"
           id="path170" />
      </g>
      <g
         id="g172"
         transform="translate(695.2361,418.3953)">
        <path
           d="m 0,0 c 0.06,-0.004 0.13,-0.02 0.188,-0.02 0.076,0 0.145,0.004 0.207,0.011 C 0.386,0.904 0.273,2.087 0.118,3.338 H -0.397 C -0.229,2.124 -0.094,1.011 0,0"
           style="fill:#ff915c;fill-opacity:1;fill-rule:nonzero;stroke:none"
           id="path174" />
      </g>
      <g
         id="g626"
         transform="translate(689.835,432.4691)">
        <path
           d="m 0,0 c 0,2.179 0.511,4.478 1.127,7.042 0.611,2.628 1.627,6.996 0.651,7.963 -0.011,0 -0.023,0 -0.037,0 -2.083,0 -8.328,-3.204 -15.327,-8.23 l 0.008,-0.352 0.015,-3.293 11.396,1.414 C -1.141,4.671 -0.203,3.942 -0.076,2.914 0.052,1.886 -0.678,0.95 -1.706,0.822 l -11.839,-1.469 0.021,-3.277 c 2.575,-1.689 6.703,-4.32 10.059,-6.108 0.668,-0.354 1.32,-0.708 1.951,-1.049 1.028,-0.558 2.034,-1.102 2.975,-1.573 C 1.289,-11.178 1.064,-9.616 0.87,-8.277 0.394,-5.055 0,-2.203 0,0"
           style="fill:#008bad;fill-opacity:1;fill-rule:nonzero;stroke:none"
           id="path628" />
      </g>
      <g
         id="g630"
         transform="translate(668.3929,431.4969)">
        <path
           d="M 0,0 C 0,0.158 0.018,0.298 0.042,0.419 L 0.01,5.654 H -8.371 V -4.695 H 0.071 L 0.044,-0.441 C 0.019,-0.316 0,-0.17 0,0"
           style="fill:#008bad;fill-opacity:1;fill-rule:nonzero;stroke:none"
           id="path632" />
      </g>
      <g
         id="g634"
         transform="translate(653.1797,437.4558)">
        <path
           d="m 0,0 c -6.377,4.501 -12.45,7.825 -16.101,9.18 0.193,-1.648 0.687,-3.629 1.05,-5.087 0.658,-2.549 1.206,-4.848 1.206,-7.027 0,-2.203 -0.423,-5.054 -0.935,-8.283 -0.39,-2.513 -0.906,-5.834 -0.926,-7.853 0.062,-0.006 0.131,-0.01 0.207,-0.01 1.546,0 4.246,1.463 7.104,3.012 0.631,0.342 1.282,0.695 1.953,1.051 2.036,1.085 4.354,2.479 6.44,3.787 v 3.302 2.604 l -9.348,1.16 c -1.028,0.127 -1.757,1.064 -1.63,2.091 0.128,1.028 1.068,1.758 2.092,1.63 l 8.886,-1.103 v 1.51 C -0.002,-0.024 0,-0.012 0,0"
           style="fill:#008bad;fill-opacity:1;fill-rule:nonzero;stroke:none"
           id="path636" />
      </g>
      <g
         id="g638"
         transform="translate(620.1771,428.3818)">
        <path
           d="m 0,0 c 0,-0.339 0.286,-0.625 0.625,-0.625 h 14.04 c 0.418,2.684 0.742,5.034 0.742,6.765 0,0.943 -0.155,1.99 -0.383,3.109 L 0,9.249 Z"
           style="fill:#ff915c;fill-opacity:1;fill-rule:nonzero;stroke:none"
           id="path640" />
      </g>
      <g
         id="g642"
         transform="translate(699.1323,421.7335)">
        <path
           d="m 0,0 c 0.206,-1.758 0.305,-3.243 0.217,-4.381 0.034,-0.804 -0.411,-1.307 -0.619,-1.496 -0.9,-0.817 -2.012,-1.231 -3.307,-1.231 -0.04,0 -0.082,0.008 -0.122,0.009 -0.091,-0.584 -0.403,-0.972 -0.572,-1.13 -0.883,-0.831 -1.974,-1.251 -3.244,-1.251 -2.45,0 -5.219,1.554 -8.724,3.521 -0.61,0.343 -1.239,0.696 -1.888,1.052 -1.243,0.686 -2.585,1.488 -3.913,2.312 l 9.717,-15.795 c 0.543,-0.882 0.267,-2.037 -0.615,-2.579 -0.306,-0.189 -0.645,-0.279 -0.98,-0.279 -0.63,0 -1.245,0.318 -1.599,0.893 l -12.313,20.017 c -0.121,-0.082 -0.245,-0.159 -0.376,-0.225 l 12.108,-20.384 c 0.532,-0.897 0.262,-2.07 -0.603,-2.622 -0.301,-0.191 -0.634,-0.283 -0.963,-0.283 -0.618,0 -1.221,0.323 -1.569,0.908 l -13.083,22.028 h -5.105 l -11.958,-19.439 c -0.354,-0.575 -0.969,-0.893 -1.598,-0.893 -0.148,0 -0.296,0.025 -0.442,0.061 l -1.044,-1.757 c -0.347,-0.585 -0.951,-0.908 -1.569,-0.908 -0.329,0 -0.661,0.092 -0.962,0.283 -0.866,0.552 -1.136,1.725 -0.603,2.622 l 12.002,20.207 c -0.458,0.156 -0.873,0.411 -1.222,0.74 h -0.797 c -2.419,-1.6 -5.394,-3.494 -7.952,-4.905 -0.651,-0.358 -1.28,-0.711 -1.89,-1.054 -3.505,-1.967 -6.274,-3.521 -8.724,-3.521 -1.271,0 -2.362,0.42 -3.243,1.249 -0.206,0.194 -0.644,0.706 -0.61,1.523 -0.12,1.617 0.113,3.912 0.499,6.708 h -2.152 V -48.463 H 0.563 V 0 Z"
           style="fill:#ff915c;fill-opacity:1;fill-rule:nonzero;stroke:none"
           id="path644" />
      </g>
      <g
         id="g646"
         transform="translate(708.2744,437.6312)">
        <path
           d="m 0,0 h -10.37 c -0.229,-1.121 -0.384,-2.167 -0.384,-3.109 0,-1.732 0.324,-4.083 0.742,-6.765 H 0.559 v 9.249 C 0.559,-0.286 0.303,0 0,0"
           style="fill:#ff915c;fill-opacity:1;fill-rule:nonzero;stroke:none"
           id="path648" />
      </g>
      <g
         id="g650"
         transform="translate(712.9276,428.3818)">
        <path
           d="m 0,0 c 0,-0.339 -0.286,-0.625 -0.625,-0.625 h -3.469 -10.571 c -0.418,2.682 -0.742,5.033 -0.742,6.765 0,0.942 0.155,1.988 0.384,3.109 0.144,0.71 0.312,1.444 0.508,2.22 h 13.89 C -0.286,11.469 0,11.183 0,10.844 Z m -9.138,-55.111 h -4.094 -70.381 v 48.463 2.219 h 4.949 c -0.393,-2.75 -0.63,-5.009 -0.508,-6.599 -0.036,-0.804 0.411,-1.308 0.621,-1.499 0.898,-0.816 2.01,-1.229 3.304,-1.229 2.497,0 5.319,1.529 8.891,3.465 0.621,0.337 1.262,0.684 1.926,1.036 2.606,1.389 5.637,3.252 8.103,4.826 h 0.812 c 0.356,-0.323 0.778,-0.574 1.245,-0.727 L -66.5,-25.038 c -0.543,-0.882 -0.268,-2.037 0.615,-2.58 0.171,-0.105 0.353,-0.173 0.538,-0.218 0.147,-0.035 0.294,-0.06 0.442,-0.06 0.63,0 1.245,0.317 1.599,0.893 l 11.958,19.438 1.374,2.235 h 7.197 l 1.019,-1.657 12.314,-20.016 c 0.354,-0.576 0.969,-0.893 1.598,-0.893 0.336,0 0.675,0.09 0.981,0.278 0.882,0.543 1.157,1.698 0.615,2.58 l -9.717,15.795 -2.621,4.261 c 0.299,0.145 0.574,0.331 0.819,0.553 h 1.346 c 2.466,-1.574 5.497,-3.437 8.106,-4.827 0.66,-0.351 1.302,-0.698 1.923,-1.035 3.514,-1.905 6.3,-3.408 8.768,-3.456 0.04,-10e-4 0.082,-0.009 0.122,-0.009 1.295,0 2.406,0.413 3.306,1.23 0.208,0.19 0.654,0.693 0.62,1.497 0.087,1.137 -0.011,2.622 -0.217,4.381 -0.082,0.699 -0.179,1.436 -0.292,2.219 h 4.949 z m -82.987,66.58 h 13.889 c 0.196,-0.775 0.364,-1.509 0.509,-2.22 0.228,-1.119 0.384,-2.166 0.384,-3.109 0,-1.731 -0.324,-4.081 -0.742,-6.765 h -14.04 c -0.339,0 -0.625,0.286 -0.625,0.625 v 9.249 1.595 c 0,0.339 0.286,0.625 0.625,0.625 m 16.626,9.676 c 0.012,0.001 0.024,0.001 0.038,0.001 2.467,0 10.376,-3.901 18.808,-9.852 -0.001,-0.012 -0.002,-0.024 -0.002,-0.037 V 8.769 7.144 l -3.095,0.384 -8.886,1.103 c -1.024,0.128 -1.964,-0.602 -2.092,-1.63 -0.127,-1.027 0.603,-1.964 1.63,-2.091 l 9.348,-1.16 3.095,-0.384 v -3.544 c -0.907,-0.591 -1.969,-1.272 -3.095,-1.978 -2.086,-1.308 -4.404,-2.702 -6.44,-3.787 -0.671,-0.356 -1.322,-0.709 -1.953,-1.051 -2.858,-1.549 -5.557,-3.012 -7.104,-3.012 -0.076,0 -0.145,0.004 -0.207,0.01 0.02,2.019 0.536,5.34 0.926,7.853 0.512,3.229 0.935,6.08 0.935,8.283 0,2.179 -0.548,4.478 -1.206,7.027 -0.363,1.458 -0.856,3.439 -1.05,5.087 -0.157,1.335 -0.117,2.452 0.35,2.891 m 35.067,-10.157 0.033,-5.234 c -0.025,-0.121 -0.044,-0.261 -0.044,-0.419 0,-0.17 0.02,-0.317 0.046,-0.441 l 0.041,-6.474 h -4.108 -8.441 v 10.349 2.219 z m 23.143,10.158 c 0.014,0 0.028,0 0.04,-0.001 1.046,-0.967 -0.043,-5.335 -0.699,-7.963 -0.662,-2.564 -1.209,-4.863 -1.209,-7.042 0,-2.203 0.423,-5.054 0.933,-8.277 0.214,-1.379 0.464,-2.996 0.651,-4.511 0.154,-1.251 0.268,-2.435 0.277,-3.348 -0.063,-0.006 -0.132,-0.01 -0.208,-0.01 -0.057,0 -0.127,0.016 -0.188,0.019 -0.982,0.065 -2.363,0.631 -3.939,1.42 -0.941,0.471 -1.947,1.015 -2.976,1.573 -0.631,0.342 -1.282,0.695 -1.95,1.049 -3.357,1.788 -7.484,4.42 -10.06,6.108 l -0.021,3.278 11.84,1.469 c 1.027,0.127 1.757,1.064 1.63,2.091 -0.128,1.028 -1.066,1.758 -2.092,1.63 l -11.396,-1.414 -0.015,3.293 -0.007,0.352 -0.001,0.019 c 8.648,6.184 16.866,10.265 19.39,10.265 m 16.664,-5.927 h -12.984 c 0.825,3.839 1.059,7.4 -1.726,9.167 -0.527,0.338 -1.184,0.51 -1.954,0.51 -3.845,0 -12.273,-4.561 -19.729,-9.677 h -18.715 c -7.456,5.116 -15.883,9.677 -19.728,9.677 -0.77,0 -1.428,-0.172 -1.945,-0.504 -2.791,-1.771 -2.56,-5.329 -1.735,-9.173 h -12.984 c -2.413,0 -4.375,-1.963 -4.375,-4.375 L -96.5,0 c 0,-2.412 1.962,-4.375 4.375,-4.375 h 4.762 v -51.111 c 0,-0.956 0.404,-1.816 1.045,-2.431 0.092,-0.088 0.193,-0.166 0.295,-0.243 0.567,-0.434 1.268,-0.701 2.035,-0.701 h 75.225 c 1.861,0 3.375,1.514 3.375,3.375 v 51.111 h 4.763 c 2.412,0 4.375,1.963 4.375,4.375 v 10.844 c 0,2.412 -1.963,4.375 -4.375,4.375"
           style="fill:#000101;fill-opacity:1;fill-rule:nonzero;stroke:none"
           id="path652" />
      </g>
    </g>
  </g>
</svg>
