<?xml version="1.0" encoding="UTF-8" standalone="no"?>
<svg
   xmlns:dc="http://purl.org/dc/elements/1.1/"
   xmlns:cc="http://creativecommons.org/ns#"
   xmlns:rdf="http://www.w3.org/1999/02/22-rdf-syntax-ns#"
   xmlns:svg="http://www.w3.org/2000/svg"
   xmlns="http://www.w3.org/2000/svg"
   xmlns:sodipodi="http://sodipodi.sourceforge.net/DTD/sodipodi-0.dtd"
   xmlns:inkscape="http://www.inkscape.org/namespaces/inkscape"
   width="33.602436mm"
   height="32.259056mm"
   viewBox="0 0 33.602436 32.259056"
   version="1.1"
   id="svg3905"
   inkscape:version="1.0.1 (3bc2e813f5, 2020-09-07)"
   sodipodi:docname="gift7.svg">
  <defs
     id="defs3899" />
  <sodipodi:namedview
     id="base"
     pagecolor="#ffffff"
     bordercolor="#666666"
     borderopacity="1.0"
     inkscape:pageopacity="0.0"
     inkscape:pageshadow="2"
     inkscape:zoom="0.35"
     inkscape:cx="-176.49933"
     inkscape:cy="-110.46658"
     inkscape:document-units="mm"
     inkscape:current-layer="layer1"
     inkscape:document-rotation="0"
     showgrid="false"
     fit-margin-top="0"
     fit-margin-left="0"
     fit-margin-right="0"
     fit-margin-bottom="0"
     inkscape:window-width="1267"
     inkscape:window-height="1040"
     inkscape:window-x="130"
     inkscape:window-y="0"
     inkscape:window-maximized="0" />
  <metadata
     id="metadata3902">
    <rdf:RDF>
      <cc:Work
         rdf:about="">
        <dc:format>image/svg+xml</dc:format>
        <dc:type
           rdf:resource="http://purl.org/dc/dcmitype/StillImage" />
        <dc:title></dc:title>
      </cc:Work>
    </rdf:RDF>
  </metadata>
  <g
     inkscape:label="Layer 1"
     inkscape:groupmode="layer"
     id="layer1"
     transform="translate(-152.53212,-177.39428)">
    <g
       id="g3859"
       transform="matrix(0.35277777,0,0,-0.35277777,76.117981,387.71658)">
      <g
         id="g280"
         transform="translate(287.7584,571.6224)">
        <path
           d="m 0,0 c -0.384,0.402 -0.701,0.711 -0.956,0.959 -0.675,0.656 -1.208,1.174 -1.323,2.052 -0.137,1.045 0.439,1.736 0.946,2.346 0.464,0.557 1.164,1.399 2.117,3.074 0.872,1.534 1.975,5.583 0.573,7.994 -0.823,1.414 -2.535,2.131 -5.09,2.131 -1.417,0 -3.082,-0.223 -4.95,-0.663 -1.789,-0.422 -3.341,-1.056 -4.687,-1.816 -0.756,-0.695 -1.421,-1.417 -1.983,-2.139 0.029,-0.168 0.047,-0.339 0.047,-0.515 v -14.75 c 0,-0.249 -0.033,-0.489 -0.088,-0.721 0.858,-0.759 1.853,-1.538 2.966,-2.28 2.237,-1.49 6.694,-3.989 11.424,-3.989 1.318,0 2.559,0.209 3.716,0.605 0.09,0.212 0.16,0.434 0.201,0.674 C 3.304,-4.729 1.406,-1.473 0,0"
           style="fill:#5ac8a8;fill-opacity:1;fill-rule:nonzero;stroke:none"
           id="path282" />
      </g>
      <g
         id="g284"
         transform="translate(266.3132,564.9135)">
        <path
           d="m 0,0 c -0.027,-0.001 -0.053,-0.004 -0.08,-0.004 h -0.126 v -6.982 h 8.093 v 1.681 C 4.828,-3.87 2.081,-1.936 0,0"
           style="fill:#5ac8a8;fill-opacity:1;fill-rule:nonzero;stroke:none"
           id="path286" />
      </g>
      <path
         d="m 259.952,570.92 h 5.657 v 11.239 h -5.657 z"
         style="fill:#5ac8a8;fill-opacity:1;fill-rule:nonzero;stroke:none"
         id="path288" />
      <g
         id="g290"
         transform="translate(256.2949,564.9095)">
        <path
           d="M 0,0 C -0.493,-0.359 -1.007,-0.709 -1.537,-1.049 -2.615,-1.944 -3.82,-2.817 -5.123,-3.621 V -6.982 H 2.969 V 0 Z"
           style="fill:#5ac8a8;fill-opacity:1;fill-rule:nonzero;stroke:none"
           id="path292" />
      </g>
      <g
         id="g294"
         transform="translate(232.8114,562.6705)">
        <path
           d="M 0,0 C -0.422,0.431 -0.771,0.907 -1.056,1.418 -0.863,0.867 -0.527,0.396 0,0"
           style="fill:#5ac8a8;fill-opacity:1;fill-rule:nonzero;stroke:none"
           id="path296" />
      </g>
      <g
         id="g298"
         transform="translate(233.5699,580.4608)">
        <path
           d="M 0,0 C -0.073,0.129 -0.149,0.272 -0.225,0.427 -0.095,0.105 0.038,-0.181 0.166,-0.407 0.45,-0.906 0.709,-1.324 0.948,-1.689 H 1.04 C 0.724,-1.217 0.378,-0.665 0,0"
           style="fill:#5ac8a8;fill-opacity:1;fill-rule:nonzero;stroke:none"
           id="path300" />
      </g>
      <g
         id="g302"
         transform="translate(253.1086,568.0345)">
        <path
           d="m 0,0 v 14.75 c 0,0.116 0.007,0.23 0.02,0.343 -1.952,2.575 -5.063,5.241 -9.926,6.388 -1.867,0.44 -3.533,0.663 -4.95,0.663 -0.813,0 -1.531,-0.081 -2.172,-0.226 -1.117,-2.435 -0.082,-6.177 0.749,-7.638 0.953,-1.676 1.653,-2.517 2.117,-3.074 0.507,-0.61 1.082,-1.302 0.946,-2.346 -0.115,-0.878 -0.648,-1.397 -1.323,-2.053 -0.255,-0.248 -0.572,-0.556 -0.956,-0.958 -1.406,-1.474 -3.304,-4.729 -2.913,-7.039 0.175,-1.029 0.792,-1.783 1.942,-2.371 1.516,-0.775 3.221,-1.168 5.069,-1.168 4.348,-0.001 8.462,2.111 10.836,3.609 0.212,0.18 0.42,0.359 0.618,0.536 C 0.021,-0.395 0,-0.2 0,0"
           style="fill:#5ac8a8;fill-opacity:1;fill-rule:nonzero;stroke:none"
           id="path304" />
      </g>
      <g
         id="g306"
         transform="translate(243.394,557.9274)">
        <path
           d="M 0,0 H 0.934 V 0.245 C 0.625,0.154 0.312,0.079 0,0"
           style="fill:#ff915c;fill-opacity:1;fill-rule:nonzero;stroke:none"
           id="path308" />
      </g>
      <g
         id="g310"
         transform="translate(217.6849,555.7093)">
        <path
           d="M 0,0 C -0.152,0.176 -0.293,0.359 -0.416,0.558 -0.405,0.302 -0.233,0.085 0,0"
           style="fill:#ff915c;fill-opacity:1;fill-rule:nonzero;stroke:none"
           id="path312" />
      </g>
      <g
         id="g314"
         transform="translate(227.9102,563.9572)">
        <path
           d="M 0,0 C -0.552,3.257 1.148,6.655 2.704,8.804 H -7.553 V -5.405 c 0,-0.339 0.287,-0.625 0.625,-0.625 H -0.04 6.377 C 5.534,-5.781 4.711,-5.482 3.931,-5.083 1.733,-3.958 0.373,-2.201 0,0"
           style="fill:#ff915c;fill-opacity:1;fill-rule:nonzero;stroke:none"
           id="path316" />
      </g>
      <path
         d="m 228.245,508.496 h 16.083 v 43.421 h -16.083 z"
         style="fill:#ff915c;fill-opacity:1;fill-rule:nonzero;stroke:none"
         id="path318" />
      <path
         d="m 251.171,508.496 h 8.093 v 43.421 h -8.093 z"
         style="fill:#5ac8a8;fill-opacity:1;fill-rule:nonzero;stroke:none"
         id="path320" />
      <path
         d="m 266.108,508.496 h 8.093 v 43.421 h -8.093 z"
         style="fill:#5ac8a8;fill-opacity:1;fill-rule:nonzero;stroke:none"
         id="path322" />
      <path
         d="m 281.044,508.496 h 16.083 v 43.421 h -16.083 z"
         style="fill:#ff915c;fill-opacity:1;fill-rule:nonzero;stroke:none"
         id="path324" />
      <g
         id="g326"
         transform="translate(293.1169,570.3507)">
        <path
           d="M 0,0 C -0.378,0.876 -0.86,1.707 -1.362,2.41 H -1.453 C -0.955,1.723 -0.449,0.898 0,0"
           style="fill:#ff915c;fill-opacity:1;fill-rule:nonzero;stroke:none"
           id="path328" />
      </g>
      <g
         id="g330"
         transform="translate(304.3895,572.7609)">
        <path
           d="m 0,0 h -8.255 c 0.995,-1.938 1.713,-4.27 1.327,-6.543 -0.373,-2.201 -1.732,-3.959 -3.931,-5.083 -0.176,-0.09 -0.363,-0.154 -0.543,-0.237 -0.651,-0.803 -1.502,-1.487 -2.551,-2.024 -0.779,-0.398 -1.602,-0.698 -2.445,-0.946 H -3.794 0.625 V -0.625 C 0.625,-0.286 0.339,0 0,0"
           style="fill:#ff915c;fill-opacity:1;fill-rule:nonzero;stroke:none"
           id="path332" />
      </g>
      <g
         id="g446"
         transform="translate(300.22,508.4962)">
        <path
           d="m 0,0 h -3.093 -16.083 v 43.421 2.26 H 0 Z m -22.926,49.431 h -3.093 -8.093 v 6.982 2.261 h 3.219 c 0.027,0 0.053,0.003 0.08,0.004 2.081,-1.936 4.827,-3.87 7.887,-5.305 z m 0,-49.431 h -3.093 -8.093 v 43.421 2.26 h 11.186 z m -14.936,49.431 h -3.094 -8.093 v 3.361 0.581 c 1.258,0.59 2.459,1.267 3.587,1.991 0.53,0.341 1.044,0.691 1.537,1.049 1.014,0.738 1.948,1.505 2.774,2.274 0.085,-0.007 0.171,-0.013 0.258,-0.013 h 3.031 z m 0,-49.431 h -3.094 -8.093 v 43.421 2.26 h 11.187 z m -14.937,49.431 h -3.093 -0.934 -9.107 -6.417 -6.888 c -0.338,0 -0.625,0.287 -0.625,0.625 V 64.265 65.9 c 0,0.339 0.287,0.625 0.625,0.625 h 12.726 c -1.557,-2.148 -3.257,-5.546 -2.704,-8.803 0.13,-0.768 0.387,-1.478 0.751,-2.129 0.285,-0.511 0.634,-0.988 1.056,-1.419 0.583,-0.595 1.293,-1.11 2.124,-1.535 2.05,-1.048 4.33,-1.58 6.776,-1.58 h 10e-4 c 1.917,0 3.842,0.325 5.709,0.878 z m 0,-49.431 h -3.093 -16.083 v 43.421 2.26 h 19.176 z m -6.075,83.943 c 1.417,0 3.083,-0.223 4.951,-0.663 4.862,-1.147 7.973,-3.813 9.925,-6.388 -0.012,-0.113 -0.02,-0.227 -0.02,-0.343 v -14.75 c 0,-0.2 0.021,-0.395 0.057,-0.584 -0.892,-0.801 -1.944,-1.631 -3.124,-2.417 -0.181,-0.12 -0.38,-0.248 -0.588,-0.379 -2.373,-1.499 -6.487,-3.611 -10.836,-3.61 -1.847,0 -3.552,0.393 -5.069,1.169 -1.15,0.588 -1.767,1.341 -1.941,2.371 -0.392,2.309 1.506,5.565 2.913,7.038 0.384,0.402 0.701,0.711 0.955,0.958 0.675,0.657 1.208,1.175 1.323,2.053 0.137,1.045 -0.438,1.736 -0.946,2.346 -0.463,0.557 -1.164,1.399 -2.116,3.074 -0.831,1.461 -1.867,5.203 -0.75,7.639 0.055,0.12 0.111,0.241 0.177,0.355 0.823,1.414 2.535,2.131 5.089,2.131 m 27.356,-8.019 v -13.5 h -3.093 -5.657 v 11.239 2.261 z m 13.467,7.356 c 1.868,0.44 3.533,0.663 4.95,0.663 2.554,0 4.267,-0.717 5.089,-2.131 1.403,-2.411 0.3,-6.46 -0.572,-7.994 -0.953,-1.675 -1.653,-2.517 -2.117,-3.074 -0.507,-0.61 -1.083,-1.301 -0.946,-2.346 0.115,-0.878 0.648,-1.396 1.323,-2.053 0.255,-0.247 0.572,-0.556 0.956,-0.958 0.288,-0.302 0.597,-0.693 0.903,-1.122 0.502,-0.703 0.984,-1.534 1.362,-2.41 0.515,-1.194 0.827,-2.448 0.648,-3.506 -0.175,-1.03 -0.792,-1.783 -1.942,-2.371 -0.434,-0.223 -0.888,-0.404 -1.353,-0.564 -1.156,-0.396 -2.398,-0.605 -3.716,-0.605 -4.729,0 -9.187,2.499 -11.423,3.989 -1.114,0.742 -2.108,1.521 -2.966,2.28 0.055,0.232 0.087,0.472 0.087,0.721 v 14.75 c 0,0.176 -0.018,0.347 -0.046,0.516 0.562,0.721 1.227,1.443 1.983,2.138 1.889,1.736 4.41,3.282 7.78,4.077 M 7.263,66.525 c 0.339,0 0.625,-0.286 0.625,-0.625 V 50.056 c 0,-0.338 -0.286,-0.625 -0.625,-0.625 H 4.794 0.375 -12.229 -19.176 v 2.507 c 1.868,-0.554 3.793,-0.879 5.71,-0.879 2.236,0 4.324,0.466 6.234,1.343 0.179,0.082 0.366,0.147 0.542,0.237 2.199,1.124 3.559,2.882 3.932,5.083 0.385,2.273 -0.333,4.605 -1.327,6.543 -0.431,0.839 -0.907,1.611 -1.378,2.26 z M 3.75,45.681 h 3.513 c 2.412,0 4.375,1.963 4.375,4.375 V 65.9 c 0,2.413 -1.963,4.375 -4.375,4.375 H -6.365 c 0.316,0.472 0.663,1.025 1.041,1.689 1.19,2.093 2.891,7.715 0.554,11.733 -1.061,1.823 -3.367,3.996 -8.331,3.996 -1.706,0 -3.661,-0.257 -5.811,-0.764 -5.59,-1.318 -9.273,-4.292 -11.662,-7.271 -0.105,0.011 -0.211,0.016 -0.319,0.016 h -10 c -0.166,0 -0.328,-0.017 -0.487,-0.042 -2.388,2.988 -6.077,5.976 -11.683,7.297 -2.149,0.507 -4.104,0.764 -5.811,0.764 -4.964,0 -7.27,-2.173 -8.33,-3.996 -2.194,-3.77 -0.831,-8.951 0.329,-11.305 0.076,-0.155 0.151,-0.298 0.225,-0.427 0.378,-0.665 0.724,-1.218 1.04,-1.69 h -0.092 -13.536 c -2.412,0 -4.375,-1.962 -4.375,-4.375 V 50.056 c 0,-0.84 0.25,-1.618 0.662,-2.285 0.123,-0.199 0.264,-0.382 0.416,-0.558 0.803,-0.93 1.975,-1.532 3.297,-1.532 h 3.513 V -0.375 c 0,-1.861 1.514,-3.375 3.375,-3.375 H 0.375 c 1.861,0 3.375,1.514 3.375,3.375 z"
           style="fill:#000000;fill-opacity:1;fill-rule:nonzero;stroke:none"
           id="path448" />
      </g>
    </g>
  </g>
</svg>
