<?xml version="1.0" encoding="UTF-8" standalone="no"?>
<svg
   xmlns:dc="http://purl.org/dc/elements/1.1/"
   xmlns:cc="http://creativecommons.org/ns#"
   xmlns:rdf="http://www.w3.org/1999/02/22-rdf-syntax-ns#"
   xmlns:svg="http://www.w3.org/2000/svg"
   xmlns="http://www.w3.org/2000/svg"
   xmlns:sodipodi="http://sodipodi.sourceforge.net/DTD/sodipodi-0.dtd"
   xmlns:inkscape="http://www.inkscape.org/namespaces/inkscape"
   width="28.053242mm"
   height="35.013016mm"
   viewBox="0 0 28.053242 35.013016"
   version="1.1"
   id="svg3752"
   inkscape:version="0.92.4 (5da689c313, 2019-01-14)"
   sodipodi:docname="gift6.svg">
  <defs
     id="defs3746" />
  <sodipodi:namedview
     id="base"
     pagecolor="#ffffff"
     bordercolor="#666666"
     borderopacity="1.0"
     inkscape:pageopacity="0.0"
     inkscape:pageshadow="2"
     inkscape:zoom="5.6"
     inkscape:cx="73.869956"
     inkscape:cy="86.432846"
     inkscape:document-units="mm"
     inkscape:current-layer="layer1"
     inkscape:document-rotation="0"
     showgrid="false"
     fit-margin-top="0"
     fit-margin-left="0"
     fit-margin-right="0"
     fit-margin-bottom="0"
     inkscape:window-width="1600"
     inkscape:window-height="848"
     inkscape:window-x="-8"
     inkscape:window-y="-8"
     inkscape:window-maximized="1" />
  <metadata
     id="metadata3749">
    <rdf:RDF>
      <cc:Work
         rdf:about="">
        <dc:format>image/svg+xml</dc:format>
        <dc:type
           rdf:resource="http://purl.org/dc/dcmitype/StillImage" />
        <dc:title></dc:title>
      </cc:Work>
    </rdf:RDF>
  </metadata>
  <g
     inkscape:label="Layer 1"
     inkscape:groupmode="layer"
     id="layer1"
     transform="translate(18.562335,107.46484)">
    <path
       style="opacity:1;fill:#ffffff;fill-opacity:1;fill-rule:nonzero;stroke:none;stroke-width:0.92510307;stroke-miterlimit:4;stroke-dasharray:none;stroke-dashoffset:0;stroke-opacity:1;paint-order:fill markers stroke"
       d="m -3.915758,-101.48512 c 1.6754227,4.708848 -3.0454402,4.984559 -5.8113843,4.984559 -2.7659437,0 -5.0081847,-2.316277 -5.0081847,-5.173549 0,-2.85727 2.24224,-5.17355 5.0081847,-5.17355 2.7659444,0 4.8535792,2.67058 5.8113843,5.36254 z"
       id="path899"
       inkscape:connector-curvature="0"
       sodipodi:nodetypes="sssss" />
    <path
       style="opacity:1;fill:#ffffff;fill-opacity:1;fill-rule:nonzero;stroke:none;stroke-width:0.92510307;stroke-miterlimit:4;stroke-dasharray:none;stroke-dashoffset:0;stroke-opacity:1;paint-order:fill markers stroke"
       d="m -4.9923915,-101.50874 c -1.675423,4.708846 3.0454403,4.984557 5.81138426,4.984557 2.76594404,0 5.00818484,-2.316277 5.00818484,-5.173547 0,-2.85727 -2.2422398,-5.17355 -5.00818484,-5.17355 -2.76594396,0 -4.85357906,2.67058 -5.81138426,5.36254 z"
       id="path899-4"
       inkscape:connector-curvature="0"
       sodipodi:nodetypes="sssss" />
    <rect
       style="opacity:1;fill:#ffffff;fill-opacity:1;fill-rule:nonzero;stroke:none;stroke-width:0.9383902;stroke-miterlimit:4;stroke-dasharray:none;stroke-dashoffset:0;stroke-opacity:1;paint-order:fill markers stroke"
       id="rect840"
       width="26.069372"
       height="22.554392"
       x="-17.588278"
       y="-95.847885" />
    <path
       inkscape:connector-curvature="0"
       id="path334"
       style="fill:#ffca00;fill-opacity:1;fill-rule:nonzero;stroke:none;stroke-width:0.35277778"
       d="m -4.0151553,-87.533005 h -3.7038138 v 0.02046 h 3.7038138 z" />
    <path
       inkscape:connector-curvature="0"
       id="path336"
       style="fill:#ffca00;fill-opacity:1;fill-rule:nonzero;stroke:none;stroke-width:0.35277778"
       d="m -7.7189691,-88.855922 h 0.016228 v -5.003094 h -0.016228 z" />
    <path
       inkscape:connector-curvature="0"
       id="path338"
       style="fill:#ffca00;fill-opacity:1;fill-rule:nonzero;stroke:none;stroke-width:0.35277778"
       d="m -4.0151553,-93.858663 h -2.3646693 v 5.003094 h 2.3646693 z" />
    <g
       transform="matrix(0.35277777,0,0,-0.35277777,-0.31656256,-104.79869)"
       id="g340">
      <path
         inkscape:connector-curvature="0"
         id="path342"
         style="fill:#ffca00;fill-opacity:1;fill-rule:nonzero;stroke:none"
         d="m 0,0 c -2.176,0 -4.42,-0.92 -6.44,-2.396 -1.93,-2.62 -3.192,-5.751 -3.192,-8.764 0,-1.01 -0.017,-1.964 -0.04,-2.863 0.016,-0.638 0.036,-1.25 0.055,-1.828 0.009,-0.279 0.017,-0.539 0.025,-0.804 0.152,0.101 0.317,0.198 0.48,0.296 1.13,1.892 2.705,3.523 5.674,4.76 0.463,0.196 0.956,0.392 1.433,0.581 3.413,1.353 5.691,2.426 6.232,4.9 0.221,1.012 1.221,1.652 2.232,1.431 1.012,-0.221 1.653,-1.221 1.431,-2.232 -1.008,-4.609 -5.169,-6.259 -8.512,-7.585 -0.479,-0.19 -0.931,-0.369 -1.365,-0.553 -0.334,-0.139 -0.641,-0.284 -0.927,-0.434 l -2.871,-2.872 0.002,-0.502 c -0.2,-0.083 -0.373,-0.172 -0.555,-0.26 -0.323,-0.637 -0.631,-1.325 -0.971,-2.113 -0.136,-0.316 -0.275,-0.638 -0.421,-0.967 0.084,-0.001 0.17,-0.001 0.259,-0.001 5.663,0 10.384,0.67 14.033,1.991 1.338,0.485 2.511,1.051 3.537,1.693 0.908,1.583 1.365,3.415 1.365,5.518 C 11.464,-5.833 6.321,0 0,0" />
    </g>
    <g
       transform="matrix(0.35277777,0,0,-0.35277777,-10.809443,-104.79869)"
       id="g344">
      <path
         inkscape:connector-curvature="0"
         id="path346"
         style="fill:#ffca00;fill-opacity:1;fill-rule:nonzero;stroke:none"
         d="m 0,0 c -2.873,0 -5.48,-1.302 -7.399,-3.406 -0.77,-1.747 -1.214,-3.708 -1.214,-5.79 0,-10.753 12.362,-13.01 22.731,-13.01 0.089,0 0.175,0 0.259,0.001 -0.145,0.329 -0.284,0.651 -0.421,0.967 -0.412,0.955 -0.772,1.789 -1.174,2.526 l -3.223,3.223 c -0.282,0.148 -0.585,0.291 -0.916,0.428 -0.442,0.188 -0.895,0.367 -1.373,0.557 -3.344,1.326 -7.505,2.976 -8.513,7.585 -0.221,1.011 0.419,2.011 1.431,2.232 1.01,0.221 2.011,-0.419 2.232,-1.431 0.542,-2.474 2.819,-3.547 6.232,-4.9 0.477,-0.189 0.971,-0.385 1.443,-0.585 0.896,-0.373 1.658,-0.785 2.326,-1.226 C 11.768,-6.512 5.627,0 0,0" />
    </g>
    <path
       inkscape:connector-curvature="0"
       id="path348"
       style="fill:#8484dc;fill-opacity:1;fill-rule:nonzero;stroke:none;stroke-width:0.35277778"
       d="m -9.0418857,-87.533005 h -8.1812693 v 0.02046 h 8.1812693 z" />
    <g
       transform="matrix(0.35277777,0,0,-0.35277777,-18.546107,-93.339868)"
       id="g350">
      <path
         inkscape:connector-curvature="0"
         id="path352"
         style="fill:#8484dc;fill-opacity:1;fill-rule:nonzero;stroke:none"
         d="M 0,0 C -0.029,-0.13 -0.046,-0.265 -0.046,-0.404 V -16.518 H 0 v 3.808 z" />
    </g>
    <path
       inkscape:connector-curvature="0"
       id="path354"
       style="fill:#8484dc;fill-opacity:1;fill-rule:nonzero;stroke:none;stroke-width:0.35277778"
       d="m -17.223155,-88.855922 h 8.1812693 v -5.003094 h -8.1812693 z" />
    <g
       transform="matrix(0.35277777,0,0,-0.35277777,-17.22319,-81.162791)"
       id="g356">
      <path
         inkscape:connector-curvature="0"
         id="path358"
         style="fill:#8484dc;fill-opacity:1;fill-rule:nonzero;stroke:none"
         d="m 0,0 v -19.01 c 0,-1.033 0.841,-1.875 1.875,-1.875 H 23.191 V 0 Z" />
    </g>
    <g
       transform="matrix(0.32476603,0,0,-0.32025964,-17.791443,-75.074832)"
       id="g360">
      <path
         inkscape:connector-curvature="0"
         id="path362"
         style="fill:#8484dc;fill-opacity:1;fill-rule:nonzero;stroke:none"
         d="M 0,0 V 19.01 H -0.046 V -3.808 c 0,-1.034 0.841,-1.875 1.875,-1.875 h 25.112 v 0.058 H 5.625 C 2.523,-5.625 0,-3.102 0,0" />
    </g>
    <path
       inkscape:connector-curvature="0"
       id="path364"
       style="fill:#ffca00;fill-opacity:1;fill-rule:nonzero;stroke:none;stroke-width:0.35277778"
       d="m -6.3794719,-73.795133 h 2.3646694 v -7.367764 h -2.3646694 z" />
    <g
       transform="matrix(0.35277777,0,0,-0.35277777,-7.7188985,-72.472287)"
       id="g366">
      <path
         inkscape:connector-curvature="0"
         id="path368"
         style="fill:#ffca00;fill-opacity:1;fill-rule:nonzero;stroke:none"
         d="M 0,0 V -0.058 H 10.499 V 0 H 0.046 Z" />
    </g>
    <path
       inkscape:connector-curvature="0"
       id="path370"
       style="fill:#ffca00;fill-opacity:1;fill-rule:nonzero;stroke:none;stroke-width:0.35277778"
       d="m -7.7189691,-73.795133 h 0.016228 v -7.367764 h -0.016228 z" />
    <g
       transform="matrix(0.35277777,0,0,-0.35277777,-2.6920975,-72.472287)"
       id="g372">
      <path
         inkscape:connector-curvature="0"
         id="path374"
         style="fill:#8484dc;fill-opacity:1;fill-rule:nonzero;stroke:none"
         d="m 0,0 v -0.058 h 25.113 c 0.152,0 0.299,0.023 0.441,0.058 H 3.796 Z" />
    </g>
    <path
       inkscape:connector-curvature="0"
       id="path376"
       style="fill:#8484dc;fill-opacity:1;fill-rule:nonzero;stroke:none;stroke-width:0.35277778"
       d="m -2.6922386,-73.795133 h 0.016228 v -7.367764 h -0.016228 z" />
    <path
       inkscape:connector-curvature="0"
       id="path378"
       style="fill:#8484dc;fill-opacity:1;fill-rule:nonzero;stroke:none;stroke-width:0.35277778"
       d="m -1.3527414,-73.795133 h 8.1812692 v -7.367764 h -8.1812692 z" />
    <path
       inkscape:connector-curvature="0"
       id="path380"
       style="fill:#ffca00;fill-opacity:1;fill-rule:nonzero;stroke:none;stroke-width:0.35277778"
       d="m -7.7023885,-82.506275 h -9.5207665 v 0.02046 h 9.5207665 z" />
    <path
       inkscape:connector-curvature="0"
       id="path382"
       style="fill:#ffca00;fill-opacity:1;fill-rule:nonzero;stroke:none;stroke-width:0.35277778"
       d="m 6.8285278,-82.506275 h -8.1812692 v 0.02046 h 8.1812692 z" />
    <path
       inkscape:connector-curvature="0"
       id="path384"
       style="fill:#ffca00;fill-opacity:1;fill-rule:nonzero;stroke:none;stroke-width:0.35277778"
       d="M 6.8285278,-86.189627 H -17.223155 v 2.360436 H 6.8285278 Z" />
    <path
       inkscape:connector-curvature="0"
       id="path386"
       style="fill:#ffca00;fill-opacity:1;fill-rule:nonzero;stroke:none;stroke-width:0.35277778"
       d="m -2.6756581,-82.506275 h -3.7038138 v 0.02046 h 3.7038138 z" />
    <g
       transform="matrix(0.35277777,0,0,-0.35277777,-18.546107,-86.189627)"
       id="g388">
      <path
         inkscape:connector-curvature="0"
         id="path390"
         style="fill:#ffca00;fill-opacity:1;fill-rule:nonzero;stroke:none"
         d="M 0,0 H -0.046 V -10.499 H 0 v 0.058 z" />
    </g>
    <path
       inkscape:connector-curvature="0"
       id="path392"
       style="fill:#8484dc;fill-opacity:1;fill-rule:nonzero;stroke:none;stroke-width:0.35277778"
       d="m -2.6922386,-88.855922 h 0.016228 v -5.003094 h -0.016228 z" />
    <path
       inkscape:connector-curvature="0"
       id="path394"
       style="fill:#8484dc;fill-opacity:1;fill-rule:nonzero;stroke:none;stroke-width:0.35277778"
       d="m 6.8285278,-87.533005 h -9.5207664 v 0.02046 h 9.5207664 z" />
    <g
       transform="matrix(0.35277777,0,0,-0.35277777,6.1671048,-93.85884)"
       id="g396">
      <path
         inkscape:connector-curvature="0"
         id="path398"
         style="fill:#8484dc;fill-opacity:1;fill-rule:nonzero;stroke:none"
         d="M 0,0 H -21.316 V -14.182 H 1.875 V -1.875 C 1.875,-0.841 1.034,0 0,0" />
    </g>
    <g
       transform="matrix(0.35277777,0,0,-0.35277777,-17.22319,-82.506169)"
       id="g442">
      <path
         inkscape:connector-curvature="0"
         id="path444"
         style="fill:#000000;fill-opacity:1;fill-rule:nonzero;stroke:none"
         d="m 0,0 h 26.988 v -0.058 -3.75 -20.885 H 26.941 23.191 1.875 C 0.841,-24.693 0,-23.851 0,-22.818 v 19.01 3.75 z m 0,14.191 v 0.058 h 23.191 3.75 10.5 3.75 26.987 3.797 V 3.75 H 68.178 0 v 6.691 z M 1.875,35.989 H 26.988 V 32.181 17.999 H 26.941 23.191 0 v 14.182 1.933 c 0,1.034 0.841,1.875 1.875,1.875 m 19.157,31.01 c 6.4,0 13.428,-7.833 13.428,-14.968 0,-1.009 0.017,-1.964 0.041,-2.862 -0.017,-0.639 -0.037,-1.251 -0.056,-1.829 -0.015,-0.466 -0.029,-0.91 -0.041,-1.343 -0.858,1.655 -1.943,3.135 -3.803,4.365 -0.667,0.442 -1.429,0.853 -2.325,1.226 -0.473,0.2 -0.966,0.396 -1.443,0.585 -3.413,1.354 -5.691,2.426 -6.232,4.9 -0.221,1.012 -1.222,1.652 -2.232,1.431 -1.012,-0.221 -1.653,-1.22 -1.431,-2.232 1.008,-4.608 5.169,-6.259 8.512,-7.585 0.479,-0.19 0.931,-0.369 1.374,-0.556 0.33,-0.138 0.634,-0.281 0.916,-0.429 l 3.222,-3.222 c 0.403,-0.738 0.763,-1.572 1.175,-2.526 0.136,-0.316 0.275,-0.638 0.421,-0.968 -0.084,0 -0.17,0 -0.259,0 -10.37,0 -22.731,2.257 -22.731,13.01 0,2.081 0.444,4.043 1.214,5.789 1.882,4.269 5.763,7.214 10.25,7.214 m 30.689,0 c 6.321,0 11.463,-5.833 11.463,-13.003 0,-4.085 -1.7,-7.159 -5.16,-9.326 -1.026,-0.643 -2.2,-1.209 -3.538,-1.693 -3.649,-1.321 -8.37,-1.991 -14.033,-1.991 -0.088,0 -0.175,0 -0.258,0 0.145,0.33 0.284,0.652 0.42,0.968 0.34,0.787 0.649,1.475 0.971,2.113 0.069,0.135 0.134,0.284 0.205,0.413 l 0.348,0.349 2.871,2.871 c 0.286,0.151 0.593,0.295 0.928,0.435 0.433,0.183 0.885,0.363 1.364,0.553 3.344,1.325 7.505,2.976 8.513,7.584 0.221,1.012 -0.42,2.011 -1.431,2.232 -1.012,0.221 -2.011,-0.419 -2.233,-1.431 -0.541,-2.474 -2.818,-3.546 -6.231,-4.9 -0.477,-0.189 -0.971,-0.385 -1.434,-0.581 -2.968,-1.236 -4.544,-2.867 -5.673,-4.76 -0.163,-0.273 -0.317,-0.551 -0.465,-0.835 -0.004,0.174 -0.011,0.361 -0.016,0.539 -0.008,0.266 -0.016,0.525 -0.025,0.804 -0.019,0.578 -0.038,1.19 -0.055,1.829 0.023,0.898 0.04,1.853 0.04,2.862 0,3.013 1.262,6.145 3.192,8.764 2.641,3.584 6.539,6.204 10.237,6.204 M 30.738,32.181 v 3.808 H 41.237 V 32.181 17.999 h -0.046 -3.75 -6.703 z M 70.1,35.989 c 1.034,0 1.875,-0.841 1.875,-1.875 V 17.999 H 68.178 44.987 v 14.182 3.808 z m 1.875,-58.807 c 0,-1.033 -0.841,-1.875 -1.875,-1.875 H 68.178 44.987 V -3.808 -0.058 0 h 23.191 3.797 z m -30.784,-1.875 h -3.75 -6.703 V -3.808 -0.058 0 h 10.499 v -0.058 -3.75 -20.885 z m -44.941,1.875 c 0,-3.101 2.523,-5.625 5.625,-5.625 h 21.316 3.75 0.047 10.453 3.75 3.796 21.757 3.356 c 3.101,0 5.625,2.524 5.625,5.625 V 0 17.999 34.114 c 0,3.101 -2.524,5.625 -5.625,5.625 H 56.519 c 6.818,2.714 10.415,7.628 10.415,14.257 0,9.238 -6.824,16.753 -15.213,16.753 -4.048,0 -8.349,-2.169 -11.8,-5.951 -1.462,-1.603 -2.655,-3.372 -3.545,-5.214 -0.889,1.842 -2.082,3.611 -3.545,5.214 -3.451,3.782 -7.752,5.951 -11.799,5.951 -8.389,0 -15.214,-7.515 -15.214,-16.753 0,-6.629 3.598,-11.543 10.416,-14.257 H 1.875 c -3.102,0 -5.625,-2.524 -5.625,-5.625 V 30.71 17.999 14.191 10.441 0 -0.058 -3.808 Z" />
    </g>
  </g>
</svg>
