<?xml version="1.0" encoding="UTF-8" standalone="no"?>
<svg
   xmlns:dc="http://purl.org/dc/elements/1.1/"
   xmlns:cc="http://creativecommons.org/ns#"
   xmlns:rdf="http://www.w3.org/1999/02/22-rdf-syntax-ns#"
   xmlns:svg="http://www.w3.org/2000/svg"
   xmlns="http://www.w3.org/2000/svg"
   xmlns:sodipodi="http://sodipodi.sourceforge.net/DTD/sodipodi-0.dtd"
   xmlns:inkscape="http://www.inkscape.org/namespaces/inkscape"
   width="28.069187mm"
   height="30.807024mm"
   viewBox="0 0 28.069187 30.807024"
   version="1.1"
   id="svg4940"
   inkscape:version="1.0.1 (3bc2e813f5, 2020-09-07)"
   sodipodi:docname="gift16.svg">
  <defs
     id="defs4934" />
  <sodipodi:namedview
     id="base"
     pagecolor="#ffffff"
     bordercolor="#666666"
     borderopacity="1.0"
     inkscape:pageopacity="0.0"
     inkscape:pageshadow="2"
     inkscape:zoom="0.35"
     inkscape:cx="-221.2416"
     inkscape:cy="15.360841"
     inkscape:document-units="mm"
     inkscape:current-layer="layer1"
     inkscape:document-rotation="0"
     showgrid="false"
     fit-margin-top="0"
     fit-margin-left="0"
     fit-margin-right="0"
     fit-margin-bottom="0"
     inkscape:window-width="1267"
     inkscape:window-height="1040"
     inkscape:window-x="78"
     inkscape:window-y="0"
     inkscape:window-maximized="0" />
  <metadata
     id="metadata4937">
    <rdf:RDF>
      <cc:Work
         rdf:about="">
        <dc:format>image/svg+xml</dc:format>
        <dc:type
           rdf:resource="http://purl.org/dc/dcmitype/StillImage" />
        <dc:title></dc:title>
      </cc:Work>
    </rdf:RDF>
  </metadata>
  <g
     inkscape:label="Layer 1"
     inkscape:groupmode="layer"
     id="layer1"
     transform="translate(-164.37017,-144.10244)">
    <g
       id="g4899"
       transform="matrix(0.35277777,0,0,-0.35277777,131.88562,257.71897)">
      <g
         id="g654"
         transform="translate(118.9299,271.0287)">
        <path
           d="M 0,0 -22.819,19.416 V 0 Z"
           style="fill:#ff915c;fill-opacity:1;fill-rule:nonzero;stroke:none"
           id="path656" />
      </g>
      <g
         id="g658"
         transform="translate(92.0822,293.8725)">
        <path
           d="M 0,0 V -25.969 H 0.287 V -0.245 Z"
           style="fill:#ff915c;fill-opacity:1;fill-rule:nonzero;stroke:none"
           id="path660" />
      </g>
      <g
         id="g662"
         transform="translate(102.9981,296.0492)">
        <path
           d="m 0,0 28.134,-23.938 c 0.214,-0.183 0.534,-0.287 0.877,-0.287 0.079,0 0.15,0.023 0.226,0.034 L 57.667,0 Z"
           style="fill:#ff915c;fill-opacity:1;fill-rule:nonzero;stroke:none"
           id="path664" />
      </g>
      <g
         id="g666"
         transform="translate(137.3866,271.0287)">
        <path
           d="M 0,0 H 26.493 V 22.542 Z"
           style="fill:#ff915c;fill-opacity:1;fill-rule:nonzero;stroke:none"
           id="path668" />
      </g>
      <g
         id="g670"
         transform="translate(96.1104,264.1624)">
        <path
           d="M 0,0 V -23.207 L 27.275,0 Z"
           style="fill:#ff915c;fill-opacity:1;fill-rule:nonzero;stroke:none"
           id="path672" />
      </g>
      <g
         id="g674"
         transform="translate(92.3697,264.1624)">
        <path
           d="m 0,0 h -0.287 v -26.635 l 0.559,0.477 C 0.097,-25.687 0,-25.178 0,-24.647 Z"
           style="fill:#ff915c;fill-opacity:1;fill-rule:nonzero;stroke:none"
           id="path676" />
      </g>
      <g
         id="g678"
         transform="translate(127.9808,262.702)">
        <path
           d="M 0,0 C -0.079,0 -0.15,-0.024 -0.226,-0.035 L -28.167,-23.81 H 28.522 L 0.877,-0.287 C 0.663,-0.105 0.343,0 0,0"
           style="fill:#ff915c;fill-opacity:1;fill-rule:nonzero;stroke:none"
           id="path680" />
      </g>
      <g
         id="g682"
         transform="translate(140.2781,264.1624)">
        <path
           d="M 0,0 23.601,-20.082 V 0 Z"
           style="fill:#ff915c;fill-opacity:1;fill-rule:nonzero;stroke:none"
           id="path684" />
      </g>
      <g
         id="g686"
         transform="translate(153.4892,314.1385)">
        <path
           d="m 0,0 c -0.698,0.722 -1.554,1.058 -2.695,1.058 -2.542,0 -6.413,-1.725 -10.625,-4.677 -3.527,-3.022 -5.594,-5.62 -5.886,-6.484 0.124,-0.121 0.75,-0.59 3.144,-0.861 0.03,-0.003 0.062,-0.006 0.092,-0.01 H 2.183 C 2.265,-7.856 2.227,-2.303 0,0"
           style="fill:#8484dc;fill-opacity:1;fill-rule:nonzero;stroke:none"
           id="path688" />
      </g>
      <g
         id="g690"
         transform="translate(100.5537,304.0619)">
        <path
           d="M 0,0 C 0,0.287 -0.014,0.7 -0.03,1.179 -0.068,2.304 -0.112,3.719 -0.069,5.245 -0.399,3.073 -0.391,0.752 -0.347,-0.897 H 0.098 C 0.034,-0.613 0,-0.315 0,0"
           style="fill:#8484dc;fill-opacity:1;fill-rule:nonzero;stroke:none"
           id="path692" />
      </g>
      <g
         id="g694"
         transform="translate(117.7547,309.0134)">
        <path
           d="m 0,0 c -4.927,3.826 -9.604,6.12 -12.56,6.173 -1.153,-3.072 -1.006,-7.613 -0.932,-9.821 0.017,-0.512 0.032,-0.954 0.032,-1.304 0,-0.004 0,-0.007 0,-0.01 0.081,-0.089 0.645,-0.592 3.16,-0.877 0.03,-0.003 0.062,-0.006 0.093,-0.009 H 6.292 C 4.959,-4.296 2.831,-2.199 0,0"
           style="fill:#8484dc;fill-opacity:1;fill-rule:nonzero;stroke:none"
           id="path696" />
      </g>
      <g
         id="g698"
         transform="translate(96.1104,295.3566)">
        <path
           d="M 0,0 V 0.693 1.642 L 1.115,0.693 30.521,-24.328 H 28.592 22.819 0 V -4.912 Z M 68.583,3.818 36.776,-23.245 c -0.165,-0.141 -0.4,-0.217 -0.652,-0.253 -0.076,-0.011 -0.146,-0.035 -0.225,-0.035 -0.343,0 -0.663,0.105 -0.878,0.288 L 6.888,0.693 3.214,3.818 Z M 13.002,22.965 c 2.949,0 7.685,-2.311 12.671,-6.183 4.738,-3.679 7.525,-7.088 7.869,-8.103 C 33.417,8.558 32.791,8.089 30.397,7.818 30.367,7.815 30.335,7.812 30.305,7.808 h -2.368 -16.5 c -0.03,0.004 -0.062,0.007 -0.093,0.01 -2.515,0.285 -3.079,0.788 -3.16,0.877 0,0.003 0,0.006 0,0.01 0,0.35 -0.015,0.792 -0.032,1.304 -0.074,2.208 -0.22,6.749 0.933,9.821 0.307,0.819 0.702,1.54 1.222,2.078 0.698,0.721 1.554,1.057 2.695,1.057 m 45.71,0 c 1.141,0 1.997,-0.336 2.695,-1.057 2.468,-2.552 2.248,-9.102 2.155,-11.899 C 63.545,9.497 63.53,9.055 63.53,8.705 c 0,-0.004 0,-0.007 0,-0.01 C 63.448,8.606 62.884,8.103 60.37,7.818 60.339,7.815 60.307,7.812 60.277,7.808 H 59.561 41.409 c -0.031,0.004 -0.062,0.007 -0.092,0.01 -2.394,0.271 -3.02,0.74 -3.145,0.861 0.292,0.864 2.36,3.462 5.887,6.484 0.618,0.529 1.276,1.071 1.982,1.619 4.985,3.872 9.722,6.183 12.671,6.183 M 71.797,1.642 v -25.97 H 67.769 41.276 l 26.493,22.542 z m 0,-56.345 -4.028,3.427 -23.601,20.082 -3.674,3.125 h 31.303 z m -4.028,-1.761 H 66.165 60.393 3.703 l 27.942,23.775 3.376,2.873 c 0.215,0.182 0.535,0.287 0.878,0.287 0.342,0 0.662,-0.105 0.877,-0.287 l 1.619,-1.378 29.374,-24.993 0.325,-0.277 z M 0,-31.194 v 3.125 H 31.303 L 0,-54.703 v 0.302 z m -3.741,-24.647 c 0,-0.532 0.097,-1.04 0.273,-1.511 0.298,-0.801 0.824,-1.491 1.5,-1.992 0.37,-0.57 1.167,-1.277 2.841,-1.277 h 70.051 c 1.674,0 2.471,0.707 2.841,1.277 1.073,0.796 1.773,2.068 1.773,3.503 V 3.444 c 0,2.407 -1.958,4.364 -4.364,4.364 h -4.001 c 0.063,0.284 0.098,0.583 0.098,0.897 0,0.287 0.013,0.7 0.029,1.179 0.128,3.821 0.366,10.932 -3.204,14.624 -1.411,1.459 -3.222,2.198 -5.384,2.198 -5.566,0 -12.616,-5.106 -15.389,-7.301 -1.072,-0.85 -5.231,-4.234 -7.466,-7.358 -2.235,3.124 -6.394,6.508 -7.467,7.358 -2.772,2.195 -9.822,7.301 -15.388,7.301 -2.162,0 -3.974,-0.739 -5.384,-2.198 C 5.1,21.904 4.478,17.602 4.374,13.95 4.331,12.425 4.376,11.01 4.413,9.884 4.429,9.405 4.443,8.992 4.443,8.705 4.443,8.391 4.477,8.092 4.541,7.808 H 4.096 0.623 c -2.406,0 -4.364,-1.957 -4.364,-4.364 v -5.173 -25.724 -3.741 z"
           style="fill:#000000;fill-opacity:1;fill-rule:nonzero;stroke:none"
           id="path700" />
      </g>
    </g>
  </g>
</svg>
