<?xml version="1.0" encoding="UTF-8" standalone="no"?>
<svg
   xmlns:dc="http://purl.org/dc/elements/1.1/"
   xmlns:cc="http://creativecommons.org/ns#"
   xmlns:rdf="http://www.w3.org/1999/02/22-rdf-syntax-ns#"
   xmlns:svg="http://www.w3.org/2000/svg"
   xmlns="http://www.w3.org/2000/svg"
   xmlns:sodipodi="http://sodipodi.sourceforge.net/DTD/sodipodi-0.dtd"
   xmlns:inkscape="http://www.inkscape.org/namespaces/inkscape"
   width="35.365971mm"
   height="28.319235mm"
   viewBox="0 0 35.365971 28.319235"
   version="1.1"
   id="svg4730"
   inkscape:version="0.92.4 (5da689c313, 2019-01-14)"
   sodipodi:docname="gift14.svg">
  <defs
     id="defs4724" />
  <sodipodi:namedview
     id="base"
     pagecolor="#ffffff"
     bordercolor="#666666"
     borderopacity="1.0"
     inkscape:pageopacity="0.0"
     inkscape:pageshadow="2"
     inkscape:zoom="3.959798"
     inkscape:cx="115.88211"
     inkscape:cy="25.951059"
     inkscape:document-units="mm"
     inkscape:current-layer="layer1"
     inkscape:document-rotation="0"
     showgrid="false"
     fit-margin-top="0"
     fit-margin-left="0"
     fit-margin-right="0"
     fit-margin-bottom="0"
     inkscape:window-width="1267"
     inkscape:window-height="900"
     inkscape:window-x="234"
     inkscape:window-y="0"
     inkscape:window-maximized="0" />
  <metadata
     id="metadata4727">
    <rdf:RDF>
      <cc:Work
         rdf:about="">
        <dc:format>image/svg+xml</dc:format>
        <dc:type
           rdf:resource="http://purl.org/dc/dcmitype/StillImage" />
        <dc:title></dc:title>
      </cc:Work>
    </rdf:RDF>
  </metadata>
  <g
     inkscape:label="Layer 1"
     inkscape:groupmode="layer"
     id="layer1"
     transform="translate(-88.9063,-72.774906)">
    <rect
       style="opacity:1;fill:#ffffff;fill-opacity:1;fill-rule:nonzero;stroke:none;stroke-width:1.05369318;stroke-miterlimit:4;stroke-dasharray:none;stroke-dashoffset:0;stroke-opacity:1;paint-order:fill markers stroke"
       id="rect849"
       width="33.468899"
       height="5.0802188"
       x="89.920532"
       y="73.568657" />
    <g
       id="g4693"
       transform="matrix(0.35277777,0,0,-0.35277777,-79.964538,232.02747)">
      <g
         id="g586"
         transform="translate(543.7408,407.6372)">
        <path
           d="m 0,0 c -0.232,4.338 -3.829,7.868 -8.017,7.868 -2.927,0 -5.273,-2.56 -6.675,-4.089 -0.944,-1.031 -1.569,-1.712 -2.611,-1.712 -1.028,0 -1.625,0.68 -2.452,1.621 -1.372,1.564 -3.669,4.18 -6.835,4.18 -1.801,0 -3.491,-0.656 -4.853,-1.745 -0.594,-1.078 -0.968,-2.297 -1.038,-3.591 -0.116,-2.185 0.438,-4.032 1.852,-6.179 1.099,-1.668 4.279,-4.828 7.913,-7.864 4.148,-3.465 6.764,-5.034 7.562,-5.274 0.797,0.233 3.406,1.79 7.532,5.248 2.209,1.852 4.249,3.754 5.759,5.342 0.003,0.005 0.008,0.01 0.011,0.015 1.415,2.151 1.968,4 1.852,6.18"
           style="fill:#ff3e37;fill-opacity:1;fill-rule:nonzero;stroke:none"
           id="path588" />
      </g>
      <g
         id="g590"
         transform="translate(490.3269,429.0804)">
        <path
           d="m 0,0 v -20.839 h 14.072 c 0.269,4.219 2.737,7.807 6.248,9.669 2.157,2.385 5.229,3.877 8.631,3.877 1.717,0 3.226,-0.464 4.534,-1.136 V 0 Z"
           style="fill:#ff9f9d;fill-opacity:1;fill-rule:nonzero;stroke:none"
           id="path592" />
      </g>
      <g
         id="g594"
         transform="translate(523.8121,416.1839)">
        <path
           d="M 0,0 C -0.487,0.402 -1.022,0.774 -1.6,1.08 -1.013,0.674 -0.477,0.242 0,-0.189 Z"
           style="fill:#ff9f9d;fill-opacity:1;fill-rule:nonzero;stroke:none"
           id="path596" />
      </g>
      <g
         id="g598"
         transform="translate(482.439,445.0496)">
        <path
           d="m 0,0 v -8.844 c 0,-0.339 0.286,-0.625 0.625,-0.625 h 7.138 33.61 V 0 Z"
           style="fill:#ff9f9d;fill-opacity:1;fill-rule:nonzero;stroke:none"
           id="path600" />
      </g>
      <g
         id="g602"
         transform="translate(515.8234,390.9226)">
        <path
           d="m 0,0 c -3.263,2.599 -7.334,6.228 -8.97,8.619 -0.456,0.666 -0.967,1.489 -1.406,2.467 h -15.12 V -16.023 H 7.989 V -5.292 C 6.621,-4.739 4.236,-3.374 0,0"
           style="fill:#ff9f9d;fill-opacity:1;fill-rule:nonzero;stroke:none"
           id="path604" />
      </g>
      <g
         id="g606"
         transform="translate(547.1983,402.0091)">
        <path
           d="m 0,0 c -0.016,-0.025 -0.033,-0.056 -0.049,-0.081 -1.652,-2.51 -5.7,-6.277 -8.938,-8.966 -3.043,-2.526 -5.465,-4.234 -7.26,-5.131 -0.088,-0.06 -0.176,-0.12 -0.262,-0.178 V -27.11 H 16.976 V 0 Z"
           style="fill:#ff9f9d;fill-opacity:1;fill-rule:nonzero;stroke:none"
           id="path608" />
      </g>
      <g
         id="g610"
         transform="translate(545.4409,412.3729)">
        <path
           d="M 0,0 C -0.659,1.961 -2.019,3.604 -3.748,4.607 -2.14,3.423 -0.84,1.844 0,0"
           style="fill:#ff9f9d;fill-opacity:1;fill-rule:nonzero;stroke:none"
           id="path612" />
      </g>
      <g
         id="g614"
         transform="translate(530.6892,429.0804)">
        <path
           d="m 0,0 v -10.319 c 1.771,1.543 4.162,3.026 7.162,3.026 6.252,0 11.418,-5.016 11.761,-11.418 0.041,-0.754 0.017,-1.461 -0.054,-2.128 H 33.485 V 0 Z"
           style="fill:#ff9f9d;fill-opacity:1;fill-rule:nonzero;stroke:none"
           id="path616" />
      </g>
      <g
         id="g618"
         transform="translate(571.4374,445.0496)">
        <path
           d="M 0,0 H -40.748 V -9.469 H -4.011 0.625 V -0.56 C 0.625,-0.257 0.339,0 0,0"
           style="fill:#ff9f9d;fill-opacity:1;fill-rule:nonzero;stroke:none"
           id="path620" />
      </g>
      <g
         id="g622"
         transform="translate(483.064,447.6746)">
        <path
           d="M 0,0 H 43.875 V -12.094 H 40.748 7.138 0 c -0.339,0 -0.625,0.286 -0.625,0.625 v 8.844 2 C -0.625,-0.286 -0.339,0 0,0 m 91.5,0 c 0.339,0 0.625,-0.286 0.625,-0.625 v -10.844 c 0,-0.339 -0.286,-0.625 -0.625,-0.625 H 88.998 84.363 47.625 V -2.625 0 Z M 84.238,-39.434 H 81.11 66.495 c 0.07,0.668 0.094,1.375 0.054,2.129 -0.343,6.402 -5.51,11.417 -11.762,11.417 -2.999,0 -5.391,-1.482 -7.162,-3.025 v 10.319 2.75 h 36.613 z m 0,-33.341 H 81.11 47.625 v 12.754 0.043 c 0.084,0.04 0.176,0.091 0.263,0.134 1.794,0.898 4.216,2.605 7.259,5.132 3.238,2.688 7.287,6.455 8.938,8.966 0.016,0.025 0.033,0.055 0.049,0.081 0.467,0.714 0.951,1.532 1.365,2.481 h 18.739 z m -40.363,0 H 40.748 7.263 v 27.11 2.481 H 25.51 c 0.44,-1.017 0.95,-1.871 1.407,-2.563 1.636,-2.484 5.706,-6.254 8.969,-8.954 4.236,-3.505 6.621,-4.923 7.989,-5.498 z m 0,43.522 c -0.861,0.797 -1.907,1.604 -3.127,2.23 -1.308,0.672 -2.817,1.135 -4.534,1.135 -3.402,0 -6.474,-1.492 -8.631,-3.876 -1.808,-1.999 -2.975,-4.622 -3.131,-7.541 -0.04,-0.751 -0.015,-1.46 0.057,-2.129 H 21.335 7.263 v 20.84 2.75 h 36.612 z m 4.237,-4.474 c 1.402,1.53 3.748,4.089 6.675,4.089 1.379,0 2.69,-0.388 3.842,-1.056 1.729,-1.004 3.089,-2.646 3.748,-4.608 0.235,-0.7 0.386,-1.438 0.427,-2.203 0.116,-2.181 -0.438,-4.029 -1.852,-6.181 -0.432,-0.656 -1.18,-1.539 -2.138,-2.546 -1.51,-1.588 -3.55,-3.49 -5.76,-5.342 -4.125,-3.458 -6.734,-5.015 -7.531,-5.249 -0.798,0.241 -3.415,1.809 -7.562,5.274 -3.634,3.036 -6.814,6.197 -7.913,7.865 -1.414,2.146 -1.968,3.994 -1.852,6.178 0.07,1.295 0.444,2.514 1.038,3.592 1.399,2.535 4.041,4.276 6.98,4.276 1.081,0 2.058,-0.309 2.934,-0.773 0.578,-0.306 1.113,-0.677 1.6,-1.08 0.938,-0.774 1.706,-1.649 2.301,-2.326 0.827,-0.941 1.424,-1.621 2.451,-1.621 1.043,0 1.667,0.681 2.612,1.711 M 0,-15.844 H 3.513 V -72.9 c 0,-1.999 1.626,-3.625 3.625,-3.625 h 77.225 c 1.998,0 3.625,1.626 3.625,3.625 v 57.056 H 91.5 c 2.413,0 4.375,1.963 4.375,4.375 v 10.844 c 0,2.412 -1.962,4.375 -4.375,4.375 L 0,3.75 c -2.412,0 -4.375,-1.963 -4.375,-4.375 v -10.844 c 0,-2.412 1.963,-4.375 4.375,-4.375"
           style="fill:#000000;fill-opacity:1;fill-rule:nonzero;stroke:none"
           id="path624" />
      </g>
    </g>
  </g>
</svg>
