<?xml version="1.0" encoding="UTF-8" standalone="no"?>
<svg
   xmlns:dc="http://purl.org/dc/elements/1.1/"
   xmlns:cc="http://creativecommons.org/ns#"
   xmlns:rdf="http://www.w3.org/1999/02/22-rdf-syntax-ns#"
   xmlns:svg="http://www.w3.org/2000/svg"
   xmlns="http://www.w3.org/2000/svg"
   xmlns:sodipodi="http://sodipodi.sourceforge.net/DTD/sodipodi-0.dtd"
   xmlns:inkscape="http://www.inkscape.org/namespaces/inkscape"
   width="33.602257mm"
   height="33.767536mm"
   viewBox="0 0 33.602257 33.767536"
   version="1.1"
   id="svg3029"
   inkscape:version="0.92.4 (5da689c313, 2019-01-14)"
   sodipodi:docname="gift1.svg">
  <defs
     id="defs3023" />
  <sodipodi:namedview
     id="base"
     pagecolor="#ffffff"
     bordercolor="#666666"
     borderopacity="1.0"
     inkscape:pageopacity="0.0"
     inkscape:pageshadow="2"
     inkscape:zoom="3.959798"
     inkscape:cx="128.67149"
     inkscape:cy="61.158468"
     inkscape:document-units="mm"
     inkscape:current-layer="layer1"
     inkscape:document-rotation="0"
     showgrid="false"
     fit-margin-top="0"
     fit-margin-left="0"
     fit-margin-right="0"
     fit-margin-bottom="0"
     inkscape:window-width="1600"
     inkscape:window-height="848"
     inkscape:window-x="-8"
     inkscape:window-y="-8"
     inkscape:window-maximized="1"
     showguides="false" />
  <metadata
     id="metadata3026">
    <rdf:RDF>
      <cc:Work
         rdf:about="">
        <dc:format>image/svg+xml</dc:format>
        <dc:type
           rdf:resource="http://purl.org/dc/dcmitype/StillImage" />
        <dc:title></dc:title>
      </cc:Work>
    </rdf:RDF>
  </metadata>
  <g
     inkscape:label="Layer 1"
     inkscape:groupmode="layer"
     id="layer1"
     transform="translate(-72.401252,-3.5269458)">
    <g
       id="g958"
       style="fill:#ffffff;stroke:none"
       transform="translate(1.2366667e-6,-1.2466667e-6)">
      <rect
         y="19.253788"
         x="75.875755"
         height="16.717775"
         width="26.022123"
         id="rect840"
         style="opacity:1;fill:#ffffff;fill-opacity:1;fill-rule:nonzero;stroke:none;stroke-width:0.80716676;stroke-miterlimit:4;stroke-dasharray:none;stroke-dashoffset:0;stroke-opacity:1;paint-order:fill markers stroke" />
      <rect
         y="11.367242"
         x="73.428581"
         height="7.3633423"
         width="31.50115"
         id="rect840-6"
         style="opacity:1;fill:#ffffff;fill-opacity:1;fill-rule:nonzero;stroke:none;stroke-width:0.58939081;stroke-miterlimit:4;stroke-dasharray:none;stroke-dashoffset:0;stroke-opacity:1;paint-order:fill markers stroke" />
      <path
         sodipodi:nodetypes="cccccc"
         inkscape:connector-curvature="0"
         id="path923"
         d="M 89.361575,10.510208 84.815163,5.4938385 80.552657,4.3892045 78.81355,6.3070569 c 0.03001,1.9870935 0.307111,2.8016881 0.0945,3.8304621 z"
         style="fill:#ffffff;stroke:none;stroke-width:0.26458332px;stroke-linecap:butt;stroke-linejoin:miter;stroke-opacity:1" />
      <path
         sodipodi:nodetypes="cccccc"
         inkscape:connector-curvature="0"
         id="path923-7"
         d="m 89.277638,10.485292 4.546412,-5.0163692 4.262506,-1.104634 1.739107,1.917852 c -0.03001,1.9870935 -0.307111,2.8016882 -0.0945,3.8304622 z"
         style="fill:#ffffff;stroke:none;stroke-width:0.26458332px;stroke-linecap:butt;stroke-linejoin:miter;stroke-opacity:1" />
    </g>
    <g
       id="g952"
       transform="translate(-32.510098,-26.77274)">
      <path
         d="m 122.46504,47.509879 v 15.234357 h 0.8576 V 46.628993 h -2.17275 v 0.880886 z"
         style="fill:#ffffff;fill-opacity:1;fill-rule:nonzero;stroke:none;stroke-width:0.35277799"
         id="path146-4"
         inkscape:connector-curvature="0" />
      <path
         d="m 122.46504,39.787327 v 5.518855 h 0.8576 v -5.173838 c -0.22648,-0.209198 -0.52599,-0.340078 -0.8576,-0.345017"
         style="fill:#ffffff;fill-opacity:1;fill-rule:nonzero;stroke:none;stroke-width:0.35277799"
         id="path150-0"
         inkscape:connector-curvature="0" />
      <path
         d="m 104.91135,45.692263 h 0.12488 c -0.0801,-0.186267 -0.12488,-0.391231 -0.12488,-0.606425 z"
         style="fill:#5ac8a8;fill-opacity:1;fill-rule:nonzero;stroke:none;stroke-width:0.35277799"
         id="path402-7"
         inkscape:connector-curvature="0" />
      <path
         d="m 122.46504,39.564902 h -2.3629 v 5.741105 h 2.3629 v -5.518855 z"
         style="fill:#ff3e37;fill-opacity:1;fill-rule:nonzero;stroke:none;stroke-width:0.35277799"
         id="path776-7"
         inkscape:connector-curvature="0" />
      <path
         d="m 129.89052,32.382734 c -0.24694,-0.255411 -0.54963,-0.373944 -0.95321,-0.373944 -0.36195,0 -0.80398,0.104422 -1.2954,0.289983 -0.72248,0.37077 -1.51412,0.878417 -2.32762,1.510242 -1.66617,1.293989 -2.65007,2.49308 -2.7806,2.859616 0.0511,0.04057 0.2413,0.15487 0.81316,0.229659 0.4706,0.06174 5.31142,-0.102658 7.30179,-0.189442 0.001,-0.03951 0.002,-0.07585 0.004,-0.118181 0.0332,-0.989188 0.11077,-3.305527 -0.762,-4.207933"
         style="fill:#ff3e37;fill-opacity:1;fill-rule:nonzero;stroke:none;stroke-width:0.35277799"
         id="path780-6"
         inkscape:connector-curvature="0" />
      <path
         d="m 117.253,34.195236 c -1.76283,-1.36913 -3.43817,-2.186517 -4.48098,-2.186517 -0.0399,0 -0.0744,0.0063 -0.11254,0.0088 -0.85337,0.915812 -0.77752,3.204987 -0.74471,4.18712 0.006,0.179211 0.0113,0.334433 0.0113,0.457553 0.0363,0.03175 6.91656,0.289631 8.03239,0.244123 -0.27658,-0.478016 -1.21602,-1.554341 -2.70545,-2.711099"
         style="fill:#ff3e37;fill-opacity:1;fill-rule:nonzero;stroke:none;stroke-width:0.35277799"
         id="path784-8"
         inkscape:connector-curvature="0" />
      <path
         d="m 122.46504,47.509879 h -1.31515 -1.04775 v 15.234357 h 2.3629 z"
         style="fill:#ff3e37;fill-opacity:1;fill-rule:nonzero;stroke:none;stroke-width:0.35277799"
         id="path788-5"
         inkscape:connector-curvature="0" />
      <path
         d="m 124.6456,62.744553 h 8.28992 V 47.953639 h -8.28992 z"
         style="fill:#5ac8a8;fill-opacity:1;fill-rule:nonzero;stroke:none;stroke-width:0.352777"
         id="path790-0"
         inkscape:connector-curvature="0" />
      <path
         d="m 109.01684,62.744553 h 8.4395 V 47.953639 h -8.4395 z"
         style="fill:#5ac8a8;fill-opacity:1;fill-rule:nonzero;stroke:none;stroke-width:0.352777"
         id="path792-5"
         inkscape:connector-curvature="0" />
      <path
         d="m 135.71337,39.564902 h -11.0677 v 5.741105 h 9.98291 1.30528 v -5.545666 c 0,-0.105833 -0.1009,-0.195439 -0.22049,-0.195439"
         style="fill:#5ac8a8;fill-opacity:1;fill-rule:nonzero;stroke:none;stroke-width:0.35277799"
         id="path796-6"
         inkscape:connector-curvature="0" />
      <path
         d="m 117.23585,39.564902 h -11.00172 v 5.520619 c 0,0.119592 0.10124,0.220486 0.22048,0.220486 h 2.34174 8.65999 v -5.545666 c 0,-0.105833 -0.10089,-0.195439 -0.22049,-0.195439"
         style="fill:#5ac8a8;fill-opacity:1;fill-rule:nonzero;stroke:none;stroke-width:0.35277799"
         id="path800-9"
         inkscape:connector-curvature="0" />
      <path
         d="m 137.19069,45.085661 c 0,0.119592 -0.10089,0.220486 -0.22049,0.220486 h -1.03646 -1.30527 -9.98291 v -5.741105 -1.171223 h 12.32464 c 0.1196,0 0.22049,0.100895 0.22049,0.220487 z m -2.78271,17.658643 h -1.4725 -8.28992 V 47.953391 46.629064 h 9.76242 z M 118.77922,45.306147 h -1.32292 -8.65999 -2.34138 c -0.1196,0 -0.22049,-0.100894 -0.22049,-0.220486 v -5.520619 -0.950736 c 0,-0.119592 0.10089,-0.220487 0.22049,-0.220487 h 12.32429 z m 0,17.438157 h -1.32292 -8.4395 V 47.953391 46.629064 h 9.76242 z m -5.1495,-31.121701 c 1.04281,0 2.71815,0.817386 4.48098,2.186516 1.66617,1.293989 2.65007,2.492728 2.7806,2.859617 -0.0512,0.04022 -0.2413,0.154517 -0.81351,0.229659 -0.0254,0.0035 -0.0688,0.006 -0.11924,0.0078 -1.11583,0.04586 -7.99606,-0.21202 -8.03239,-0.244123 -3.5e-4,-0.123119 -0.005,-0.277989 -0.0113,-0.457553 -0.0332,-0.982133 -0.10866,-3.271308 0.74436,-4.186766 0.006,-0.0067 0.0113,-0.01482 0.0173,-0.02117 0.24694,-0.255059 0.54998,-0.373945 0.9532,-0.373945 m 8.83532,13.683545 h -2.36291 v -5.741105 -1.132417 h 3.22051 v 1.700036 5.173486 z m -2.36291,17.438118 V 47.50995 46.629064 h 1.04775 2.17276 v 16.11524 h -0.8576 z m 10.64613,-30.747757 c 0.87277,0.902406 0.79516,3.218745 0.762,4.207933 -0.006,0.179564 -0.0113,0.334434 -0.0113,0.457553 -0.008,0.0071 -0.33514,0.02434 -0.85019,0.04692 -1.99073,0.08678 -6.83154,0.251179 -7.3018,0.189443 -0.5722,-0.07514 -0.762,-0.189443 -0.8135,-0.22966 0.13088,-0.366889 1.11477,-1.565628 2.78059,-2.859616 0.81351,-0.631825 1.60514,-1.139473 2.32798,-1.510242 0.84314,-0.432506 1.59138,-0.676275 2.153,-0.676275 0.40358,0 0.70627,0.118886 0.95321,0.373944 m 6.22195,5.074357 h -4.20758 c 0.043,-0.138995 0.0593,-0.276931 0.0593,-0.405343 0,-0.1016 0.005,-0.24765 0.0106,-0.41663 0.0452,-1.351492 0.12947,-3.866445 -1.13312,-5.172075 -0.49884,-0.515761 -1.13949,-0.77717 -1.90431,-0.77717 -1.9685,0 -4.46158,1.805517 -5.44195,2.581981 -0.37962,0.300567 -1.85035,1.497542 -2.64058,2.602089 -0.79057,-1.104547 -2.2613,-2.301522 -2.64054,-2.602089 -0.98072,-0.776463 -3.4738,-2.58198 -5.4423,-2.58198 -0.76447,0 -1.40511,0.261408 -1.90394,0.777169 -1.26259,1.305631 -1.17863,3.820584 -1.13312,5.172075 0.006,0.168981 0.0106,0.315031 0.0106,0.416631 0,0.128411 0.0162,0.266347 0.0593,0.405342 h -4.20759 c -0.85125,0 -1.5434,0.692503 -1.5434,1.543403 v 0.950736 5.520619 c 0,0.215194 0.0448,0.420158 0.12488,0.606425 0.23601,0.550333 0.78282,0.936978 1.41852,0.936978 h 1.23896 V 62.96479 c 0,0.607835 0.49459,1.102432 1.10243,1.102432 h 9.98291 5.86634 9.98291 c 0.60783,0 1.10243,-0.494597 1.10243,-1.102432 V 46.629064 h 1.2393 c 0.8509,0 1.54341,-0.692503 1.54341,-1.543403 v -6.471355 c 0,-0.8509 -0.69251,-1.543403 -1.54341,-1.543403"
         style="fill:#000000;fill-opacity:1;fill-rule:nonzero;stroke:none;stroke-width:0.35277799"
         id="path804-1"
         inkscape:connector-curvature="0" />
    </g>
  </g>
</svg>
