<?xml version="1.0" encoding="UTF-8" standalone="no"?>
<svg
   xmlns:dc="http://purl.org/dc/elements/1.1/"
   xmlns:cc="http://creativecommons.org/ns#"
   xmlns:rdf="http://www.w3.org/1999/02/22-rdf-syntax-ns#"
   xmlns:svg="http://www.w3.org/2000/svg"
   xmlns="http://www.w3.org/2000/svg"
   xmlns:sodipodi="http://sodipodi.sourceforge.net/DTD/sodipodi-0.dtd"
   xmlns:inkscape="http://www.inkscape.org/namespaces/inkscape"
   width="28.037014mm"
   height="32.166279mm"
   viewBox="0 0 28.037014 32.166279"
   version="1.1"
   id="svg5638"
   inkscape:version="1.0.1 (3bc2e813f5, 2020-09-07)"
   sodipodi:docname="gift20.svg">
  <defs
     id="defs5632" />
  <sodipodi:namedview
     id="base"
     pagecolor="#ffffff"
     bordercolor="#666666"
     borderopacity="1.0"
     inkscape:pageopacity="0.0"
     inkscape:pageshadow="2"
     inkscape:zoom="0.35"
     inkscape:cx="-375.58809"
     inkscape:cy="-156.3562"
     inkscape:document-units="mm"
     inkscape:current-layer="layer1"
     inkscape:document-rotation="0"
     showgrid="false"
     inkscape:window-width="1267"
     inkscape:window-height="1040"
     inkscape:window-x="208"
     inkscape:window-y="0"
     inkscape:window-maximized="0" />
  <metadata
     id="metadata5635">
    <rdf:RDF>
      <cc:Work
         rdf:about="">
        <dc:format>image/svg+xml</dc:format>
        <dc:type
           rdf:resource="http://purl.org/dc/dcmitype/StillImage" />
        <dc:title></dc:title>
      </cc:Work>
    </rdf:RDF>
  </metadata>
  <g
     inkscape:label="Layer 1"
     inkscape:groupmode="layer"
     id="layer1"
     transform="translate(-205.20768,-189.53591)">
    <g
       id="g5576"
       transform="matrix(0.35277777,0,0,-0.35277777,-14.826444,304.02595)">
      <g
         id="g936"
         transform="translate(685.6801,303.7268)">
        <path
           d="M 0,0 C -0.185,1.293 -2.286,2.621 -5.675,3.105 -5.827,2.918 -5.97,2.728 -6.128,2.544 c -2.144,-2.496 -5.028,-4.689 -7.736,-6.282 1.378,-0.411 2.932,-0.692 4.573,-0.692 0.649,0 1.294,0.045 1.918,0.135 2.339,0.335 4.32,0.938 5.92,1.661 C -0.401,-1.693 0.107,-0.745 0,0"
           style="fill:#5ac8a8;fill-opacity:1;fill-rule:nonzero;stroke:none"
           id="path938" />
      </g>
      <g
         id="g940"
         transform="translate(673.5524,306.7495)">
        <path
           d="m 0,0 c 2.079,2.42 3.615,5.177 4.217,7.564 0.483,1.917 0.327,3.442 -0.416,4.08 -0.332,0.285 -0.814,0.43 -1.433,0.43 -0.809,0 -1.838,-0.255 -2.991,-0.779 C -1.73,10.437 -2.866,9.391 -3.981,8.093 -6.657,4.977 -7.553,-0.192 -7.66,-3.522 c 0.011,-0.408 0.012,-0.828 -10e-4,-1.249 0.008,-0.246 0.02,-0.475 0.038,-0.68 0.779,0.265 1.874,0.748 3.108,1.417 C -2.933,-2.912 -1.339,-1.559 0,0"
           style="fill:#5ac8a8;fill-opacity:1;fill-rule:nonzero;stroke:none"
           id="path942" />
      </g>
      <g
         id="g944"
         transform="translate(646.8555,318.6954)">
        <path
           d="m 0,0 c -0.055,-0.682 0.026,-1.503 0.256,-2.417 0.602,-2.387 2.139,-5.144 4.217,-7.564 2.225,-2.59 5.151,-4.619 7.56,-5.938 -0.3,3.24 -1.28,7.425 -3.579,10.101 C 5.436,-2.303 2.235,-0.462 0,0"
           style="fill:#5ac8a8;fill-opacity:1;fill-rule:nonzero;stroke:none"
           id="path946" />
      </g>
      <g
         id="g948"
         transform="translate(645.329,304.3062)">
        <path
           d="M 0,0 C -0.746,0.868 -1.427,1.768 -2.037,2.682 -3.519,2.596 -4.808,2.356 -5.879,2.021 -6.009,1.811 -6.097,1.598 -6.128,1.385 -6.406,-0.558 -2.535,-3.88 4.401,-4.875 4.825,-4.935 5.26,-4.968 5.698,-4.987 3.64,-3.58 1.611,-1.876 0,0"
           style="fill:#5ac8a8;fill-opacity:1;fill-rule:nonzero;stroke:none"
           id="path950" />
      </g>
      <path
         d="m 659.332,237.108 h 5.478 v 53.725 h -5.478 z"
         style="fill:#5ac8a8;fill-opacity:1;fill-rule:nonzero;stroke:none"
         id="path952" />
      <g
         id="g954"
         transform="translate(677.6029,261.8365)">
        <path
           d="m 0,0 c -2.219,0 -4.023,1.805 -4.023,4.023 0,2.219 1.804,4.023 4.023,4.023 2.219,0 4.023,-1.804 4.023,-4.023 C 4.023,1.805 2.219,0 0,0 m 0,-13.638 c -2.219,0 -4.023,1.805 -4.023,4.023 0,2.219 1.804,4.024 4.023,4.024 2.219,0 4.023,-1.805 4.023,-4.024 0,-2.218 -1.804,-4.023 -4.023,-4.023 m 4.023,31.299 c 0,-2.218 -1.804,-4.023 -4.023,-4.023 -2.219,0 -4.023,1.805 -4.023,4.023 0,2.218 1.804,4.023 4.023,4.023 2.219,0 4.023,-1.805 4.023,-4.023 m 10.123,-38.262 c -2.218,0 -4.023,1.805 -4.023,4.024 0,2.218 1.805,4.023 4.023,4.023 2.219,0 4.024,-1.805 4.024,-4.023 v 13.85 c 0,-2.218 -1.805,-4.023 -4.024,-4.023 -2.218,0 -4.023,1.805 -4.023,4.023 0,2.219 1.805,4.023 4.023,4.023 2.219,0 4.024,-1.804 4.024,-4.023 V 11.124 C 18.17,8.905 16.365,7.1 14.146,7.1 c -2.218,0 -4.023,1.805 -4.023,4.024 0,2.218 1.805,4.023 4.023,4.023 2.219,0 4.024,-1.805 4.024,-4.023 v 13.85 c 0,-2.218 -1.805,-4.023 -4.024,-4.023 -2.218,0 -4.023,1.805 -4.023,4.023 0,2.219 1.805,4.023 4.023,4.023 H 5.37 3.291 C 2.563,27.959 1.362,27.276 0,27.276 c -1.362,0 -2.563,0.683 -3.291,1.721 h -2.864 -0.117 v -53.725 h 2.533 c -0.181,0.457 -0.284,0.954 -0.284,1.475 0,2.219 1.804,4.024 4.023,4.024 2.219,0 4.023,-1.805 4.023,-4.024 0,-0.521 -0.103,-1.018 -0.284,-1.475 H 18.17 v 8.151 c 0,-2.219 -1.805,-4.024 -4.024,-4.024"
           style="fill:#ff3e37;fill-opacity:1;fill-rule:nonzero;stroke:none"
           id="path956" />
      </g>
      <g
         id="g958"
         transform="translate(695.7726,286.8107)">
        <path
           d="M 0,0 V 3.425 C 0,3.749 -0.276,4.023 -0.602,4.023 H -4.023 C -1.805,4.023 0,2.218 0,0"
           style="fill:#ff3e37;fill-opacity:1;fill-rule:nonzero;stroke:none"
           id="path960" />
      </g>
      <g
         id="g962"
         transform="translate(649.3099,283.5208)">
        <path
           d="m 0,0 c 2.219,0 4.023,-1.805 4.023,-4.023 0,-2.219 -1.804,-4.023 -4.023,-4.023 -2.219,0 -4.023,1.804 -4.023,4.023 C -4.023,-1.805 -2.219,0 0,0 m 0,-21.684 c -2.219,0 -4.023,1.805 -4.023,4.023 0,2.218 1.804,4.023 4.023,4.023 2.219,0 4.023,-1.805 4.023,-4.023 0,-2.218 -1.804,-4.023 -4.023,-4.023 m 0,-13.638 c -2.219,0 -4.023,1.805 -4.023,4.023 0,2.219 1.804,4.023 4.023,4.023 2.219,0 4.023,-1.804 4.023,-4.023 0,-2.218 -1.804,-4.023 -4.023,-4.023 m -14.146,-6.963 c -2.219,0 -4.024,1.805 -4.024,4.024 0,2.218 1.805,4.023 4.024,4.023 2.218,0 4.023,-1.805 4.023,-4.023 0,-2.219 -1.805,-4.024 -4.023,-4.024 m 4.023,31.724 c 0,-2.218 -1.805,-4.023 -4.023,-4.023 -2.219,0 -4.024,1.805 -4.024,4.023 0,2.219 1.805,4.024 4.024,4.024 2.218,0 4.023,-1.805 4.023,-4.024 m -4.023,-17.873 c -2.219,0 -4.024,1.805 -4.024,4.023 0,2.218 1.805,4.023 4.024,4.023 2.218,0 4.023,-1.805 4.023,-4.023 0,-2.218 -1.805,-4.023 -4.023,-4.023 m 0,35.747 c 2.218,0 4.023,-1.805 4.023,-4.023 0,-2.219 -1.805,-4.023 -4.023,-4.023 -2.219,0 -4.024,1.804 -4.024,4.023 0,2.218 1.805,4.023 4.024,4.023 h -7.695 v -53.1 c 0,-0.339 0.286,-0.625 0.625,-0.625 h 17.477 c -0.181,0.457 -0.284,0.954 -0.284,1.475 0,2.219 1.804,4.024 4.023,4.024 2.219,0 4.023,-1.805 4.023,-4.024 0,-0.521 -0.103,-1.018 -0.284,-1.475 h 0.44 V 7.313 H 3.291 C 2.563,6.275 1.362,5.591 0,5.591 c -1.362,0 -2.563,0.684 -3.291,1.722 h -1.846 z"
           style="fill:#ff3e37;fill-opacity:1;fill-rule:nonzero;stroke:none"
           id="path964" />
      </g>
      <g
         id="g966"
         transform="translate(631.1403,286.8107)">
        <path
           d="m 0,0 c 0,-2.219 1.805,-4.023 4.023,-4.023 2.219,0 4.023,1.804 4.023,4.023 0,2.218 -1.804,4.023 -4.023,4.023 C 1.805,4.023 0,2.218 0,0"
           style="fill:#000000;fill-opacity:1;fill-rule:nonzero;stroke:none"
           id="path968" />
      </g>
      <g
         id="g970"
         transform="translate(631.1403,272.9602)">
        <path
           d="m 0,0 c 0,-2.219 1.805,-4.023 4.023,-4.023 2.219,0 4.023,1.804 4.023,4.023 0,2.218 -1.804,4.023 -4.023,4.023 C 1.805,4.023 0,2.218 0,0"
           style="fill:#000000;fill-opacity:1;fill-rule:nonzero;stroke:none"
           id="path972" />
      </g>
      <g
         id="g974"
         transform="translate(639.1866,259.1097)">
        <path
           d="m 0,0 c 0,2.218 -1.805,4.023 -4.023,4.023 -2.219,0 -4.023,-1.805 -4.023,-4.023 0,-2.218 1.804,-4.023 4.023,-4.023 C -1.805,-4.023 0,-2.218 0,0"
           style="fill:#000000;fill-opacity:1;fill-rule:nonzero;stroke:none"
           id="path976" />
      </g>
      <g
         id="g978"
         transform="translate(639.1866,245.2593)">
        <path
           d="m 0,0 c 0,2.218 -1.805,4.023 -4.023,4.023 -2.219,0 -4.023,-1.805 -4.023,-4.023 0,-2.219 1.804,-4.023 4.023,-4.023 C -1.805,-4.023 0,-2.219 0,0"
           style="fill:#000000;fill-opacity:1;fill-rule:nonzero;stroke:none"
           id="path980" />
      </g>
      <g
         id="g982"
         transform="translate(687.7262,286.8107)">
        <path
           d="m 0,0 c 0,-2.219 1.805,-4.023 4.023,-4.023 2.219,0 4.023,1.804 4.023,4.023 0,2.218 -1.804,4.023 -4.023,4.023 C 1.805,4.023 0,2.218 0,0"
           style="fill:#000000;fill-opacity:1;fill-rule:nonzero;stroke:none"
           id="path984" />
      </g>
      <g
         id="g986"
         transform="translate(691.7494,276.9834)">
        <path
           d="m 0,0 c -2.219,0 -4.023,-1.805 -4.023,-4.023 0,-2.219 1.804,-4.024 4.023,-4.024 2.219,0 4.023,1.805 4.023,4.024 C 4.023,-1.805 2.219,0 0,0"
           style="fill:#000000;fill-opacity:1;fill-rule:nonzero;stroke:none"
           id="path988" />
      </g>
      <g
         id="g990"
         transform="translate(691.7494,263.1329)">
        <path
           d="m 0,0 c -2.219,0 -4.023,-1.805 -4.023,-4.023 0,-2.219 1.804,-4.023 4.023,-4.023 2.219,0 4.023,1.804 4.023,4.023 C 4.023,-1.805 2.219,0 0,0"
           style="fill:#000000;fill-opacity:1;fill-rule:nonzero;stroke:none"
           id="path992" />
      </g>
      <g
         id="g994"
         transform="translate(691.7494,249.2825)">
        <path
           d="m 0,0 c -2.219,0 -4.023,-1.805 -4.023,-4.023 0,-2.219 1.804,-4.024 4.023,-4.024 2.219,0 4.023,1.805 4.023,4.024 C 4.023,-1.805 2.219,0 0,0"
           style="fill:#000000;fill-opacity:1;fill-rule:nonzero;stroke:none"
           id="path996" />
      </g>
      <g
         id="g998"
         transform="translate(649.3099,275.4744)">
        <path
           d="M 0,0 C 2.219,0 4.023,1.805 4.023,4.023 4.023,6.242 2.219,8.046 0,8.046 -2.219,8.046 -4.023,6.242 -4.023,4.023 -4.023,1.805 -2.219,0 0,0"
           style="fill:#000000;fill-opacity:1;fill-rule:nonzero;stroke:none"
           id="path1000" />
      </g>
      <g
         id="g1002"
         transform="translate(649.3099,269.8829)">
        <path
           d="m 0,0 c -2.219,0 -4.023,-1.805 -4.023,-4.023 0,-2.219 1.804,-4.023 4.023,-4.023 2.219,0 4.023,1.804 4.023,4.023 C 4.023,-1.805 2.219,0 0,0"
           style="fill:#000000;fill-opacity:1;fill-rule:nonzero;stroke:none"
           id="path1004" />
      </g>
      <g
         id="g1006"
         transform="translate(649.3099,256.2451)">
        <path
           d="m 0,0 c -2.219,0 -4.023,-1.805 -4.023,-4.023 0,-2.219 1.804,-4.023 4.023,-4.023 2.219,0 4.023,1.804 4.023,4.023 C 4.023,-1.805 2.219,0 0,0"
           style="fill:#000000;fill-opacity:1;fill-rule:nonzero;stroke:none"
           id="path1008" />
      </g>
      <g
         id="g1010"
         transform="translate(673.5797,279.4976)">
        <path
           d="m 0,0 c 0,-2.218 1.805,-4.023 4.023,-4.023 2.219,0 4.023,1.805 4.023,4.023 0,2.218 -1.804,4.023 -4.023,4.023 C 1.805,4.023 0,2.218 0,0"
           style="fill:#000000;fill-opacity:1;fill-rule:nonzero;stroke:none"
           id="path1012" />
      </g>
      <g
         id="g1014"
         transform="translate(677.6029,269.8829)">
        <path
           d="m 0,0 c -2.219,0 -4.023,-1.805 -4.023,-4.023 0,-2.219 1.804,-4.023 4.023,-4.023 2.219,0 4.023,1.804 4.023,4.023 C 4.023,-1.805 2.219,0 0,0"
           style="fill:#000000;fill-opacity:1;fill-rule:nonzero;stroke:none"
           id="path1016" />
      </g>
      <g
         id="g1018"
         transform="translate(677.6029,256.2451)">
        <path
           d="m 0,0 c -2.219,0 -4.023,-1.805 -4.023,-4.023 0,-2.219 1.804,-4.023 4.023,-4.023 2.219,0 4.023,1.804 4.023,4.023 C 4.023,-1.805 2.219,0 0,0"
           style="fill:#000000;fill-opacity:1;fill-rule:nonzero;stroke:none"
           id="path1020" />
      </g>
      <g
         id="g1022"
         transform="translate(645.9178,295.2897)">
        <path
           d="m 0,0 c -0.397,-0.624 -0.631,-1.362 -0.631,-2.154 0,-0.857 0.274,-1.648 0.732,-2.302 0.729,-1.038 1.93,-1.721 3.291,-1.721 1.362,0 2.563,0.683 3.291,1.721 0.458,0.654 0.732,1.445 0.732,2.302 0,0.792 -0.233,1.53 -0.631,2.154 h 2.88 V -58.181 H 7.571 7.131 c 0.181,0.457 0.284,0.954 0.284,1.475 0,2.219 -1.804,4.024 -4.023,4.024 -2.218,0 -4.023,-1.805 -4.023,-4.024 0,-0.521 0.103,-1.018 0.284,-1.475 h -17.477 c -0.339,0 -0.625,0.286 -0.625,0.625 v 53.1 3.831 c 0,0.339 0.286,0.625 0.625,0.625 z M 0.53,13.663 C 1.14,12.749 1.821,11.85 2.566,10.981 4.71,8.485 7.595,6.292 10.303,4.699 8.925,4.288 7.371,4.007 5.73,4.007 5.522,4.007 5.316,4.02 5.11,4.029 4.671,4.049 4.236,4.081 3.812,4.142 c -6.936,0.994 -10.807,4.316 -10.528,6.26 0.03,0.212 0.118,0.425 0.249,0.635 0.783,1.259 3.309,2.413 6.997,2.626 m 2.513,11.836 c 2.189,0 5.977,-1.839 9.504,-5.946 C 15.223,16.437 16.12,11.267 16.226,7.937 16.216,7.53 16.215,7.109 16.228,6.689 16.22,6.444 16.207,6.214 16.189,6.009 15.387,6.282 14.25,6.786 12.971,7.486 c -2.409,1.32 -5.336,3.349 -7.56,5.939 -2.078,2.42 -3.615,5.177 -4.217,7.564 -0.23,0.914 -0.311,1.735 -0.256,2.417 0.06,0.748 0.283,1.329 0.672,1.663 0.332,0.285 0.814,0.43 1.433,0.43 m 31.548,-0.43 c 0.743,-0.638 0.899,-2.164 0.416,-4.08 C 34.405,18.602 32.868,15.845 30.79,13.425 28.531,10.795 25.549,8.743 23.12,7.426 21.885,6.757 20.791,6.274 20.012,6.009 c -0.018,0.205 -0.031,0.434 -0.039,0.68 0.014,0.42 0.013,0.841 0.002,1.249 0.107,3.33 1.003,8.499 3.679,11.615 1.114,1.297 2.251,2.343 3.358,3.202 2.399,1.858 4.648,2.744 6.146,2.744 0.619,0 1.101,-0.145 1.433,-0.43 M 42.918,10.402 C 43.102,9.114 41.454,7.223 38.309,5.803 36.709,5.08 34.728,4.477 32.389,4.142 31.765,4.053 31.12,4.007 30.471,4.007 c -1.641,0 -3.195,0.281 -4.573,0.692 2.708,1.593 5.593,3.786 7.737,6.282 0.157,0.184 0.3,0.375 0.452,0.561 0.566,0.694 1.103,1.401 1.584,2.121 4.304,-0.249 7.034,-1.778 7.247,-3.261 M 52.901,0 c 0.339,0 0.625,-0.286 0.625,-0.625 v -56.931 c 0,-0.339 -0.286,-0.625 -0.625,-0.625 H 49.855 35.424 c 0.181,0.457 0.284,0.954 0.284,1.475 0,2.219 -1.804,4.024 -4.023,4.024 -2.218,0 -4.023,-1.805 -4.023,-4.024 0,-0.521 0.103,-1.018 0.284,-1.475 H 25.413 V -4.456 0 h 2.88 c -0.397,-0.624 -0.631,-1.362 -0.631,-2.154 0,-0.857 0.274,-1.648 0.732,-2.302 0.729,-1.038 1.93,-1.721 3.291,-1.721 1.362,0 2.563,0.683 3.291,1.721 0.458,0.654 0.732,1.445 0.732,2.302 0,0.792 -0.233,1.53 -0.631,2.154 z M 21.663,-58.181 H 18.892 13.414 V -4.456 0 h 8.249 z m -43.862,57.556 v -56.931 c 0,-2.413 1.963,-4.375 4.375,-4.375 H 9.664 25.413 52.901 c 2.412,0 4.375,1.962 4.375,4.375 v 56.931 c 0,2.412 -1.963,4.375 -4.375,4.375 H 42.37 c 2.991,1.97 4.639,4.537 4.259,7.184 -0.464,3.244 -3.94,5.601 -8.978,6.3 0.425,0.959 0.759,1.911 0.992,2.839 0.863,3.424 0.292,6.209 -1.609,7.841 -1.017,0.873 -2.357,1.335 -3.876,1.335 -3.775,0 -8.507,-2.779 -12.349,-7.252 -1.188,-1.384 -2.062,-2.991 -2.708,-4.593 -0.647,1.602 -1.521,3.209 -2.709,4.593 -3.842,4.473 -8.574,7.252 -12.349,7.252 -1.519,0 -2.859,-0.462 -3.876,-1.335 -1.901,-1.632 -2.472,-4.417 -1.609,-7.841 0.234,-0.928 0.568,-1.88 0.992,-2.839 -5.037,-0.699 -8.513,-3.056 -8.978,-6.3 C -10.807,8.287 -9.16,5.72 -6.169,3.75 h -11.655 c -2.412,0 -4.375,-1.963 -4.375,-4.375"
           style="fill:#000000;fill-opacity:1;fill-rule:nonzero;stroke:none"
           id="path1024" />
      </g>
    </g>
  </g>
</svg>
