<?xml version="1.0" encoding="UTF-8" standalone="no"?>
<svg
   xmlns:dc="http://purl.org/dc/elements/1.1/"
   xmlns:cc="http://creativecommons.org/ns#"
   xmlns:rdf="http://www.w3.org/1999/02/22-rdf-syntax-ns#"
   xmlns:svg="http://www.w3.org/2000/svg"
   xmlns="http://www.w3.org/2000/svg"
   xmlns:sodipodi="http://sodipodi.sourceforge.net/DTD/sodipodi-0.dtd"
   xmlns:inkscape="http://www.inkscape.org/namespaces/inkscape"
   width="28.57641mm"
   height="27.986567mm"
   viewBox="0 0 28.57641 27.986567"
   version="1.1"
   id="svg6179"
   inkscape:version="1.0.1 (3bc2e813f5, 2020-09-07)"
   sodipodi:docname="gift23.svg">
  <defs
     id="defs6173" />
  <sodipodi:namedview
     id="base"
     pagecolor="#ffffff"
     bordercolor="#666666"
     borderopacity="1.0"
     inkscape:pageopacity="0.0"
     inkscape:pageshadow="2"
     inkscape:zoom="0.35"
     inkscape:cx="-645.99732"
     inkscape:cy="-478.54059"
     inkscape:document-units="mm"
     inkscape:current-layer="layer1"
     inkscape:document-rotation="0"
     showgrid="false"
     inkscape:window-width="1267"
     inkscape:window-height="1040"
     inkscape:window-x="52"
     inkscape:window-y="0"
     inkscape:window-maximized="0" />
  <metadata
     id="metadata6176">
    <rdf:RDF>
      <cc:Work
         rdf:about="">
        <dc:format>image/svg+xml</dc:format>
        <dc:type
           rdf:resource="http://purl.org/dc/dcmitype/StillImage" />
        <dc:title></dc:title>
      </cc:Work>
    </rdf:RDF>
  </metadata>
  <g
     inkscape:label="Layer 1"
     inkscape:groupmode="layer"
     id="layer1"
     transform="translate(-276.75346,-274.78053)">
    <g
       id="g6142"
       transform="matrix(0.35277777,0,0,-0.35277777,150.77246,340.06742)">
      <g
         id="g1098"
         transform="translate(410.7414,145.8823)">
        <path
           d="m 0,0 2.553,5.298 -8.559,-2.14 c 0.562,-1.093 0.882,-2.33 0.882,-3.641 0,-2.048 -0.774,-3.918 -2.044,-5.335 L 0.81,-7.813 0,-6.132 C -0.843,-4.385 -0.843,-1.748 0,0"
           style="fill:#ff3e37;fill-opacity:1;fill-rule:nonzero;stroke:none"
           id="path1100" />
      </g>
      <g
         id="g1102"
         transform="translate(397.1904,134.6124)">
        <path
           d="M 0,0 C -0.493,0.123 -1.212,0.194 -1.97,0.194 -2.729,0.194 -3.448,0.123 -3.941,0 l -2.323,-0.581 -1.677,-6.707 5.298,2.554 c 0.848,0.408 1.937,0.633 3.066,0.633 1.13,0 2.218,-0.225 3.066,-0.633 l 1.842,-0.888 -1.143,4.575 z"
           style="fill:#ff3e37;fill-opacity:1;fill-rule:nonzero;stroke:none"
           id="path1104" />
      </g>
      <g
         id="g1106"
         transform="translate(389.2604,148.1511)">
        <path
           d="m 0,0 -7.978,1.995 0.81,-1.681 c 0.842,-1.748 0.842,-4.384 0,-6.132 l -2.553,-5.298 8.559,2.14 c -0.562,1.093 -0.882,2.33 -0.882,3.641 0,2.048 0.774,3.918 2.044,5.335"
           style="fill:#ff3e37;fill-opacity:1;fill-rule:nonzero;stroke:none"
           id="path1108" />
      </g>
      <g
         id="g1110"
         transform="translate(395.2199,147.0694)">
        <path
           d="M 0,0 C -0.574,0 -1.121,-0.117 -1.621,-0.325 -1.764,-0.75 -1.86,-1.197 -1.86,-1.67 c 0,-2.346 1.908,-4.254 4.254,-4.254 0.574,0 1.121,0.118 1.621,0.325 0.143,0.425 0.239,0.872 0.239,1.345 C 4.254,-1.908 2.345,0 0,0"
           style="fill:#ff3e37;fill-opacity:1;fill-rule:nonzero;stroke:none"
           id="path1112" />
      </g>
      <g
         id="g1114"
         transform="translate(398.2861,158.3371)">
        <path
           d="m 0,0 c -0.848,-0.409 -1.937,-0.634 -3.066,-0.634 -1.13,0 -2.218,0.225 -3.066,0.634 l -1.842,0.888 1.143,-4.576 4.188,-1.047 c 0.493,-0.123 1.212,-0.194 1.97,-0.194 0.759,0 1.478,0.071 1.971,0.195 l 2.323,0.58 1.677,6.707 z"
           style="fill:#ff3e37;fill-opacity:1;fill-rule:nonzero;stroke:none"
           id="path1116" />
      </g>
      <g
         id="g1118"
         transform="translate(362.8431,178.7314)">
        <path
           d="m 0,0 c -0.61,0 -1.191,-0.127 -1.719,-0.354 -0.159,-0.453 -0.262,-0.931 -0.262,-1.438 v -29.665 h 14.003 l -1.749,3.628 c -0.749,1.556 -0.324,2.643 -0.004,3.153 0.43,0.684 1.138,1.106 1.99,1.221 0.025,0.616 0.227,1.08 0.404,1.362 0.663,1.057 1.988,1.502 3.488,1.127 l 5.096,-1.275 -1.236,4.945 c -0.378,1.514 0.126,2.458 0.461,2.887 0.437,0.559 1.088,0.895 1.813,0.978 0.055,0.781 0.354,1.315 0.58,1.605 0.503,0.644 1.285,1.014 2.143,1.014 0.538,0 1.102,-0.14 1.675,-0.416 l 3.819,-1.841 V 0 Z"
           style="fill:#ff9f9d;fill-opacity:1;fill-rule:nonzero;stroke:none"
           id="path1120" />
      </g>
      <g
         id="g1122"
         transform="translate(387.133,120.7121)">
        <path
           d="m 0,0 c -0.573,-0.276 -1.137,-0.416 -1.675,-0.416 -0.859,0 -1.64,0.369 -2.143,1.014 -0.335,0.428 -0.839,1.372 -0.461,2.886 l 2.085,8.339 -8.339,-2.085 c -1.5,-0.375 -2.824,0.07 -3.488,1.126 -0.32,0.51 -0.745,1.598 0.004,3.153 l 2.994,6.212 H -26.271 V -6.853 c 0,-2.413 1.962,-4.375 4.375,-4.375 H 6.212 V 2.994 Z"
           style="fill:#ff9f9d;fill-opacity:1;fill-rule:nonzero;stroke:none"
           id="path1124" />
      </g>
      <g
         id="g1126"
         transform="translate(431.9719,140.9409)">
        <path
           d="m 0,0 h -14.003 l 1.748,-3.629 c 0.75,-1.554 0.325,-2.642 0.005,-3.152 -0.428,-0.681 -1.144,-1.096 -1.99,-1.211 -0.023,-0.621 -0.226,-1.089 -0.404,-1.372 -0.504,-0.802 -1.395,-1.263 -2.443,-1.263 -0.333,0 -0.684,0.046 -1.045,0.136 l -5.097,1.274 1.237,-4.945 c 0.378,-1.513 -0.127,-2.457 -0.461,-2.886 -0.437,-0.559 -1.088,-0.895 -1.813,-0.978 -0.056,-0.781 -0.354,-1.315 -0.581,-1.605 -0.503,-0.644 -1.284,-1.014 -2.143,-1.014 -0.538,0 -1.101,0.14 -1.675,0.416 l -3.818,1.841 v -13.069 h 30.502 c 0.61,0 1.19,0.127 1.719,0.354 0.159,0.452 0.262,0.931 0.262,1.437 z"
           style="fill:#ff9f9d;fill-opacity:1;fill-rule:nonzero;stroke:none"
           id="path1128" />
      </g>
      <g
         id="g1130"
         transform="translate(427.5969,178.7314)">
        <path
           d="m 0,0 h -28.108 v -14.222 l 6.212,2.994 c 0.573,0.276 1.137,0.416 1.675,0.416 0.859,0 1.64,-0.37 2.143,-1.014 0.334,-0.428 0.839,-1.373 0.461,-2.886 l -2.085,-8.339 8.339,2.085 c 1.499,0.375 2.824,-0.07 3.488,-1.127 0.32,-0.51 0.745,-1.597 -0.005,-3.153 l -2.993,-6.211 H 4.375 V -4.375 C 4.375,-1.963 2.412,0 0,0"
           style="fill:#ff9f9d;fill-opacity:1;fill-rule:nonzero;stroke:none"
           id="path1132" />
      </g>
      <g
         id="g1134"
         transform="translate(434.3655,147.2742)">
        <path
           d="m 0,0 h -2.394 -15.248 l 2.994,6.212 c 0.749,1.555 0.324,2.642 0.004,3.152 -0.664,1.057 -1.988,1.502 -3.488,1.127 l -8.339,-2.085 2.085,8.339 c 0.378,1.513 -0.126,2.458 -0.461,2.886 -0.503,0.645 -1.284,1.014 -2.143,1.014 -0.538,0 -1.102,-0.14 -1.675,-0.416 l -6.212,-2.994 v 14.222 2.584 H -4.375 C -1.963,34.041 0,32.078 0,29.666 Z m 0,-33.416 c 0,-1.802 -1.096,-3.351 -2.656,-4.021 -0.528,-0.226 -1.109,-0.354 -1.719,-0.354 h -30.502 v 13.069 3.737 l 6.212,-2.994 c 0.574,-0.276 1.137,-0.416 1.675,-0.416 0.113,0 0.22,0.023 0.33,0.036 0.725,0.083 1.377,0.418 1.813,0.978 0.335,0.428 0.839,1.373 0.461,2.886 l -1.236,4.945 -0.849,3.394 8.339,-2.085 c 0.361,-0.09 0.712,-0.136 1.045,-0.136 0.158,0 0.304,0.031 0.454,0.051 0.846,0.116 1.561,0.53 1.989,1.212 0.32,0.51 0.745,1.597 -0.004,3.152 l -1.749,3.629 -1.245,2.583 H 0 Z m -38.627,-4.375 h -2.394 -28.108 c -2.412,0 -4.375,1.963 -4.375,4.375 v 27.083 2.583 h 17.642 l -2.994,-6.212 c -0.749,-1.555 -0.324,-2.643 -0.004,-3.152 0.664,-1.057 1.988,-1.502 3.488,-1.127 l 8.339,2.085 -2.085,-8.339 c -0.378,-1.513 0.126,-2.458 0.461,-2.886 0.503,-0.645 1.284,-1.014 2.143,-1.014 0.538,0 1.102,0.14 1.675,0.416 l 6.212,2.994 z m -30.502,71.832 h 30.502 V 17.235 l -2.394,1.154 -3.818,1.84 c -0.573,0.276 -1.137,0.416 -1.675,0.416 -0.859,0 -1.64,-0.369 -2.143,-1.014 -0.227,-0.29 -0.525,-0.824 -0.58,-1.605 -0.027,-0.371 -0.003,-0.793 0.119,-1.281 l 2.085,-8.339 -3.242,0.811 -5.097,1.274 c -1.5,0.375 -2.824,-0.07 -3.487,-1.127 -0.178,-0.281 -0.38,-0.746 -0.405,-1.362 -0.02,-0.498 0.073,-1.095 0.408,-1.79 L -55.862,0 h -3.639 -14.003 v 29.666 c 0,0.506 0.104,0.985 0.263,1.437 0.598,1.705 2.206,2.938 4.112,2.938 m 46.314,-43.246 -7.977,1.995 c 1.27,1.417 2.044,3.287 2.044,5.335 0,1.311 -0.321,2.548 -0.882,3.641 -0.316,0.614 -0.706,1.184 -1.162,1.694 l 12.115,3.029 -2.553,-5.298 c -0.843,-1.748 -0.843,-4.384 -0.001,-6.132 l 2.554,-5.298 z m -9.029,-9.079 -1.842,0.888 c -0.848,0.408 -1.937,0.633 -3.066,0.633 -1.129,0 -2.218,-0.225 -3.066,-0.633 l -5.298,-2.553 1.677,6.706 0.529,2.118 4.187,1.047 c 0.494,0.123 1.212,0.194 1.971,0.194 0.759,0 1.477,-0.071 1.971,-0.194 l 4.187,-1.047 2.206,-8.824 z M -42.711,3.46 c -1.27,-1.417 -2.044,-3.287 -2.044,-5.335 0,-2.048 0.774,-3.918 2.044,-5.335 l -3.556,-0.889 -8.559,-2.14 2.553,5.298 c 0.842,1.748 0.842,4.384 0,6.132 l -0.81,1.68 -1.743,3.618 z m 7.93,2.868 c -0.494,-0.123 -1.212,-0.194 -1.971,-0.194 -0.759,0 -1.477,0.071 -1.971,0.194 l -4.187,1.047 -1.144,4.576 -1.062,4.248 5.298,-2.553 c 0.848,-0.408 1.937,-0.633 3.066,-0.633 1.129,0 2.218,0.225 3.066,0.633 l 5.298,2.553 -2.206,-8.824 -1.864,-0.466 z m -1.971,-12.457 c -2.345,0 -4.253,1.909 -4.253,4.254 0,0.473 0.095,0.92 0.238,1.346 0.567,1.684 2.143,2.908 4.015,2.908 2.346,0 4.254,-1.909 4.254,-4.254 0,-1.771 -1.09,-3.29 -2.633,-3.929 -0.5,-0.207 -1.047,-0.325 -1.621,-0.325 m 32.377,43.92 h -64.754 c -4.48,0 -8.125,-3.645 -8.125,-8.125 v -63.082 c 0,-4.48 3.645,-8.125 8.125,-8.125 h 64.754 c 4.48,0 8.125,3.645 8.125,8.125 v 63.082 c 0,4.48 -3.645,8.125 -8.125,8.125"
           style="fill:#000000;fill-opacity:1;fill-rule:nonzero;stroke:none"
           id="path1136" />
      </g>
    </g>
  </g>
</svg>
