<?xml version="1.0" encoding="UTF-8" standalone="no"?>
<svg
   xmlns:dc="http://purl.org/dc/elements/1.1/"
   xmlns:cc="http://creativecommons.org/ns#"
   xmlns:rdf="http://www.w3.org/1999/02/22-rdf-syntax-ns#"
   xmlns:svg="http://www.w3.org/2000/svg"
   xmlns="http://www.w3.org/2000/svg"
   xmlns:sodipodi="http://sodipodi.sourceforge.net/DTD/sodipodi-0.dtd"
   xmlns:inkscape="http://www.inkscape.org/namespaces/inkscape"
   width="32.720139mm"
   height="27.878263mm"
   viewBox="0 0 32.720139 27.878263"
   version="1.1"
   id="svg4044"
   inkscape:version="1.0.1 (3bc2e813f5, 2020-09-07)"
   sodipodi:docname="gift8.svg">
  <defs
     id="defs4038" />
  <sodipodi:namedview
     id="base"
     pagecolor="#ffffff"
     bordercolor="#666666"
     borderopacity="1.0"
     inkscape:pageopacity="0.0"
     inkscape:pageshadow="2"
     inkscape:zoom="0.35"
     inkscape:cx="-43.880954"
     inkscape:cy="401.25477"
     inkscape:document-units="mm"
     inkscape:current-layer="layer1"
     inkscape:document-rotation="0"
     showgrid="false"
     fit-margin-top="0"
     fit-margin-left="0"
     fit-margin-right="0"
     fit-margin-bottom="0"
     inkscape:window-width="1267"
     inkscape:window-height="1040"
     inkscape:window-x="182"
     inkscape:window-y="0"
     inkscape:window-maximized="0" />
  <metadata
     id="metadata4041">
    <rdf:RDF>
      <cc:Work
         rdf:about="">
        <dc:format>image/svg+xml</dc:format>
        <dc:type
           rdf:resource="http://purl.org/dc/dcmitype/StillImage" />
        <dc:title></dc:title>
      </cc:Work>
    </rdf:RDF>
  </metadata>
  <g
     inkscape:label="Layer 1"
     inkscape:groupmode="layer"
     id="layer1"
     transform="translate(-117.4435,-42.001342)">
    <g
       id="g3999"
       transform="matrix(0.35277777,0,0,-0.35277777,-6.1303524,247.99248)">
      <g
         id="g228"
         transform="translate(429.8807,554.3403)">
        <path
           d="M 0,0 C 0.096,-0.231 0.189,-0.462 0.27,-0.688 V 0.076 Z"
           style="fill:#ff9f9d;fill-opacity:1;fill-rule:nonzero;stroke:none"
           id="path230" />
      </g>
      <g
         id="g232"
         transform="translate(430.0229,546.7546)">
        <path
           d="m 0,0 c -0.689,-1.263 -2.014,-2.677 -4.552,-3.555 -1.447,-1.67 -4.244,-3.251 -9.645,-3.251 -0.81,0 -1.662,0.045 -2.538,0.118 v -17.34 c 0,-1.485 -1.034,-2.605 -2.406,-2.605 -0.455,0 -0.914,0.136 -1.344,0.381 v -0.177 c 0,-1.485 -1.034,-2.605 -2.406,-2.605 -0.53,0 -1.068,0.174 -1.556,0.505 l -5.183,3.514 -1.643,-1.113 c -0.245,-0.166 -0.502,-0.293 -0.765,-0.378 l -2.985,-2.023 c -0.487,-0.331 -1.025,-0.505 -1.555,-0.505 -0.749,0 -1.436,0.342 -1.884,0.94 -0.342,0.455 -0.523,1.031 -0.523,1.665 v 5.269 c -0.071,0.041 -0.142,0.084 -0.212,0.131 l -5.183,3.515 -1.643,-1.114 c -0.245,-0.166 -0.502,-0.293 -0.765,-0.378 l -2.985,-2.023 c -0.487,-0.331 -1.025,-0.505 -1.555,-0.505 -0.749,0 -1.436,0.342 -1.884,0.94 -0.342,0.455 -0.523,1.031 -0.523,1.665 V -6.2 c -2.258,-0.4 -4.369,-0.606 -6.287,-0.606 -6.649,0 -9.351,2.396 -10.447,4.405 -0.051,0.094 -0.082,0.195 -0.128,0.29 V -38.118 H 0.128 V 0.29 C 0.081,0.195 0.051,0.093 0,0"
           style="fill:#ff9f9d;fill-opacity:1;fill-rule:nonzero;stroke:none"
           id="path234" />
      </g>
      <g
         id="g236"
         transform="translate(359.426,554.4168)">
        <path
           d="M 0,0 V -3.166 C 0.362,-2.158 0.853,-1.106 1.501,0 Z"
           style="fill:#ff9f9d;fill-opacity:1;fill-rule:nonzero;stroke:none"
           id="path238" />
      </g>
      <g
         id="g240"
         transform="translate(355.676,506.2355)">
        <path
           d="M 0,0 H 0.827 C 0.318,0.624 0,1.41 0,2.276 Z"
           style="fill:#ff9f9d;fill-opacity:1;fill-rule:nonzero;stroke:none"
           id="path242" />
      </g>
      <g
         id="g244"
         transform="translate(364.25,545.447)">
        <path
           d="M 0,0 C -0.162,0.176 -0.314,0.353 -0.446,0.53 -0.324,0.343 -0.175,0.166 0,0"
           style="fill:#ff3e37;fill-opacity:1;fill-rule:nonzero;stroke:none"
           id="path246" />
      </g>
      <g
         id="g248"
         transform="translate(388.2443,560.5039)">
        <path
           d="m 0,0 c -0.549,0.66 -1.163,1.331 -1.85,1.997 -3.239,3.139 -8.803,6.881 -16.918,6.881 -0.429,0 -0.798,-0.015 -1.14,-0.038 0.105,-0.825 0.353,-1.819 0.589,-2.752 0.814,-3.217 1.827,-7.22 -0.511,-10.851 -2.004,-3.112 -2.65,-5.666 -1.818,-7.191 0.849,-1.557 3.457,-2.45 7.154,-2.45 2.047,0 4.366,0.265 6.895,0.788 2.019,0.417 3.773,0.947 5.303,1.542 -0.968,1.404 -1.537,3.079 -1.537,4.882 0,2.951 1.511,5.57 3.833,7.192"
           style="fill:#ff3e37;fill-opacity:1;fill-rule:nonzero;stroke:none"
           id="path250" />
      </g>
      <g
         id="g252"
         transform="translate(363.7765,546.0148)">
        <path
           d="M 0,0 C -0.037,0.05 -0.069,0.1 -0.103,0.15 -0.101,0.145 -0.1,0.139 -0.097,0.134 -0.071,0.087 -0.029,0.046 0,0"
           style="fill:#ff3e37;fill-opacity:1;fill-rule:nonzero;stroke:none"
           id="path254" />
      </g>
      <g
         id="g256"
         transform="translate(422.1617,553.3399)">
        <path
           d="m 0,0 c -2.346,3.643 -1.164,7.636 -0.213,10.844 0.506,1.707 1.079,3.642 0.603,4.279 -0.161,0.216 -0.952,0.919 -4.369,0.919 -6.366,0 -11.156,-2.304 -14.491,-4.812 -0.553,-0.557 -1.068,-1.115 -1.526,-1.665 2.321,-1.623 3.833,-4.241 3.833,-7.192 0,-2.129 -0.787,-4.085 -2.097,-5.619 2.143,-1.265 5.013,-2.428 8.779,-3.206 2.529,-0.523 4.849,-0.788 6.895,-0.788 1.844,0 3.416,0.222 4.635,0.638 C 2.474,-5.048 1.766,-2.742 0,0"
           style="fill:#ff3e37;fill-opacity:1;fill-rule:nonzero;stroke:none"
           id="path258" />
      </g>
      <g
         id="g260"
         transform="translate(400.7101,547.6841)">
        <path
           d="m 0,0 c -0.682,-0.314 -1.411,-0.549 -2.172,-0.697 v -16.76 -5.214 l 3.413,2.315 c 0.583,0.394 1.324,0.612 2.087,0.612 0.763,0 1.505,-0.218 2.087,-0.613 l 0.663,-0.449 V -3.03 C 3.708,-2.174 1.677,-1.14 0,0"
           style="fill:#ff3e37;fill-opacity:1;fill-rule:nonzero;stroke:none"
           id="path262" />
      </g>
      <g
         id="g264"
         transform="translate(393.8297,558.4724)">
        <path
           d="m 0,0 c -0.751,0 -1.467,-0.14 -2.122,-0.389 -0.4,-0.711 -0.63,-1.516 -0.63,-2.37 0,-2.846 2.506,-5.161 5.586,-5.161 0.751,0 1.467,0.14 2.122,0.389 0.4,0.711 0.629,1.516 0.629,2.371 C 5.585,-2.315 3.08,0 0,0"
           style="fill:#ff3e37;fill-opacity:1;fill-rule:nonzero;stroke:none"
           id="path266" />
      </g>
      <g
         id="g268"
         transform="translate(383.7883,543.7853)">
        <path
           d="m 0,0 v -11.272 l 3.413,2.314 c 0.583,0.395 1.324,0.613 2.087,0.613 0.763,0 1.504,-0.218 2.087,-0.613 L 8.25,-9.407 V 3.526 C 6.045,2.123 3.294,0.895 0,0"
           style="fill:#ff3e37;fill-opacity:1;fill-rule:nonzero;stroke:none"
           id="path270" />
      </g>
      <g
         id="g272"
         transform="translate(434.2376,577.0547)">
        <path
           d="m 0,0 h -80.2 v -15.862 c 0,-0.339 0.287,-0.625 0.625,-0.625 h 4.638 3.53 c -0.154,0.835 -0.37,1.681 -0.586,2.519 -0.668,2.593 -1.359,5.275 0.241,7.294 0.569,0.718 1.359,1.248 2.388,1.612 0.157,0.434 0.358,0.855 0.662,1.246 1.218,1.565 3.397,2.295 6.857,2.295 10.591,0 18.185,-5.682 22.373,-11.096 0.613,0.121 1.247,0.186 1.898,0.186 0.222,0 0.439,-0.018 0.657,-0.033 1.487,1.455 3.237,2.847 5.24,4.054 4.387,3.795 10.562,6.889 18.373,6.889 3.795,0 6.138,-0.771 7.374,-2.426 1.601,-2.143 0.781,-4.911 -0.012,-7.588 -0.495,-1.671 -0.998,-3.376 -0.991,-4.952 h 6.721 0.825 V -0.602 C 0.613,-0.276 0.333,0 0,0"
           style="fill:#ff9f9d;fill-opacity:1;fill-rule:nonzero;stroke:none"
           id="path274" />
      </g>
      <g
         id="g276"
         transform="translate(378.3981,571.046)">
        <path
           d="m 0,0 c 5.364,-1.879 9.483,-5.211 12.261,-8.536 0.166,0.134 0.327,0.272 0.502,0.395 -0.549,0.66 -1.163,1.331 -1.85,1.997 C 8.547,-3.851 4.935,-1.243 0,0"
           style="fill:#ff9f9d;fill-opacity:1;fill-rule:nonzero;stroke:none"
           id="path278" />
      </g>
      <g
         id="g450"
         transform="translate(354.6631,580.1619)">
        <path
           d="m 0,0 h 84 c 0.339,0 0.625,-0.286 0.625,-0.625 v -18.344 c 0,-0.339 -0.286,-0.625 -0.625,-0.625 h -3.812 -0.825 -6.722 c -0.007,1.576 0.496,3.281 0.991,4.952 0.793,2.676 1.613,5.444 0.013,7.588 -1.236,1.655 -3.579,2.425 -7.374,2.425 -7.812,0 -13.987,-3.093 -18.373,-6.888 -1.561,-1.35 -2.9,-2.787 -4,-4.207 -0.403,0.08 -0.819,0.125 -1.24,0.153 -0.218,0.015 -0.436,0.032 -0.658,0.032 -0.65,0 -1.285,-0.064 -1.898,-0.185 -4.188,5.413 -11.781,11.095 -22.372,11.095 -3.46,0 -5.639,-0.729 -6.858,-2.294 -0.304,-0.391 -0.505,-0.812 -0.662,-1.246 -0.684,-1.891 -0.137,-4.133 0.417,-6.322 0.435,-1.72 0.879,-3.477 0.806,-5.103 H 8.167 4.638 0 c -0.339,0 -0.625,0.286 -0.625,0.625 v 15.862 2.482 C -0.625,-0.286 -0.339,0 0,0 m 35.996,-17.652 c -2.03,-1.635 -3.331,-4.069 -3.331,-6.797 0,-2.129 0.787,-4.085 2.097,-5.619 -0.994,-0.587 -2.152,-1.149 -3.476,-1.664 -1.531,-0.595 -3.285,-1.125 -5.304,-1.542 -2.528,-0.523 -4.848,-0.788 -6.895,-0.788 -3.697,0 -6.305,0.893 -7.154,2.45 -0.832,1.525 -0.186,4.079 1.818,7.191 2.339,3.631 1.325,7.634 0.511,10.851 -0.236,0.933 -0.484,1.927 -0.588,2.752 -0.09,0.707 -0.075,1.292 0.158,1.591 0.198,0.255 0.975,0.848 3.898,0.848 2.188,0 4.184,-0.278 6.005,-0.737 4.935,-1.243 8.547,-3.851 10.913,-6.144 0.687,-0.666 1.301,-1.337 1.85,-1.997 -0.175,-0.123 -0.336,-0.261 -0.502,-0.395 m 11.589,-6.797 c 0,-2.151 -1.433,-3.997 -3.463,-4.771 -0.654,-0.25 -1.371,-0.389 -2.122,-0.389 -3.079,0 -5.585,2.315 -5.585,5.16 0,0.855 0.23,1.66 0.629,2.37 0.931,1.655 2.802,2.79 4.956,2.79 3.08,0 5.585,-2.315 5.585,-5.16 m 3.877,-28.385 c -0.582,0.395 -1.324,0.612 -2.087,0.612 -0.763,0 -1.504,-0.217 -2.087,-0.612 l -3.413,-2.314 v 5.213 16.76 c 0.761,0.149 1.49,0.383 2.172,0.697 1.677,-1.139 3.708,-2.174 6.078,-3.03 0.872,-0.314 1.786,-0.607 2.75,-0.869 v -3.23 -15.541 l -2.75,1.864 z m -14.75,7.5 c -0.582,0.395 -1.324,0.612 -2.087,0.612 -0.763,0 -1.504,-0.217 -2.087,-0.612 l -3.413,-2.314 v 11.271 c 3.294,0.896 6.045,2.124 8.25,3.526 0.195,0.124 0.392,0.247 0.578,0.373 0.682,-0.314 1.411,-0.548 2.172,-0.697 v -14.473 l -2.75,1.864 z m 29.559,36.955 c 3.417,0 4.208,-0.703 4.369,-0.919 0.475,-0.637 -0.098,-2.572 -0.604,-4.279 -0.95,-3.208 -2.133,-7.201 0.214,-10.844 2.004,-3.112 2.649,-5.666 1.818,-7.191 -0.426,-0.78 -1.295,-1.394 -2.52,-1.812 -1.219,-0.415 -2.791,-0.638 -4.635,-0.638 -2.047,0 -4.366,0.265 -6.895,0.788 -3.766,0.778 -6.637,1.941 -8.779,3.206 1.309,1.534 2.096,3.49 2.096,5.619 0,2.951 -1.511,5.569 -3.832,7.192 0.457,0.55 0.972,1.108 1.525,1.665 0.11,0.111 0.211,0.222 0.325,0.332 3.238,3.139 8.803,6.881 16.918,6.881 M 79.238,-71.525 H 75.488 4.763 v 36.007 6.607 3.166 2.401 h 5.251 c -2.358,-4.022 -2.823,-7.405 -1.373,-10.063 0.105,-0.194 0.231,-0.392 0.369,-0.59 0.035,-0.05 0.067,-0.1 0.103,-0.15 0.01,-0.013 0.018,-0.025 0.028,-0.038 0.132,-0.177 0.284,-0.354 0.446,-0.53 1.484,-1.612 4.266,-3.097 9.5,-3.097 1.919,0 4.03,0.205 6.288,0.606 v -12.729 c 0,-0.634 0.181,-1.21 0.522,-1.666 0.449,-0.597 1.135,-0.94 1.885,-0.94 0.263,0 0.529,0.044 0.79,0.128 0.262,0.085 0.52,0.212 0.765,0.378 l 1.643,1.113 3.61,2.448 c 0.019,0.002 0.052,0.002 0.07,0 l 5.253,-3.561 c 0.07,-0.047 0.141,-0.09 0.212,-0.131 v -5.269 c 0,-0.634 0.181,-1.21 0.522,-1.666 0.449,-0.597 1.135,-0.94 1.885,-0.94 0.263,0 0.529,0.044 0.79,0.128 0.263,0.085 0.52,0.212 0.765,0.378 l 1.643,1.113 3.61,2.448 c 0.019,0.002 0.052,0.002 0.07,0 l 5.253,-3.561 c 0.069,-0.047 0.141,-0.083 0.212,-0.124 0.43,-0.246 0.889,-0.382 1.344,-0.382 1.372,0 2.406,1.121 2.406,2.606 v 17.339 2.89 c 2.258,-0.401 4.37,-0.606 6.288,-0.606 2.47,0 4.394,0.332 5.895,0.85 2.538,0.878 3.863,2.292 4.552,3.555 0.051,0.093 0.081,0.194 0.128,0.29 0.907,1.869 0.907,4.079 0,6.607 -0.082,0.227 -0.175,0.457 -0.27,0.688 -0.331,0.799 -0.729,1.621 -1.231,2.478 h 5.251 z M 0,-23.344 h 1.013 v -2.401 -45.905 c 0,-0.867 0.318,-1.652 0.827,-2.276 0.665,-0.816 1.665,-1.349 2.798,-1.349 h 74.725 c 1.998,0 3.625,1.626 3.625,3.625 v 48.306 H 84 c 2.413,0 4.375,1.963 4.375,4.375 V -0.625 C 88.375,1.787 86.413,3.75 84,3.75 H 0 c -2.412,0 -4.375,-1.963 -4.375,-4.375 v -18.344 c 0,-2.412 1.963,-4.375 4.375,-4.375"
           style="fill:#000000;fill-opacity:1;fill-rule:nonzero;stroke:none"
           id="path452" />
      </g>
    </g>
  </g>
</svg>
