<?xml version="1.0" encoding="UTF-8" standalone="no"?>
<svg
   xmlns:dc="http://purl.org/dc/elements/1.1/"
   xmlns:cc="http://creativecommons.org/ns#"
   xmlns:rdf="http://www.w3.org/1999/02/22-rdf-syntax-ns#"
   xmlns:svg="http://www.w3.org/2000/svg"
   xmlns="http://www.w3.org/2000/svg"
   xmlns:sodipodi="http://sodipodi.sourceforge.net/DTD/sodipodi-0.dtd"
   xmlns:inkscape="http://www.inkscape.org/namespaces/inkscape"
   width="33.258476mm"
   height="30.369579mm"
   viewBox="0 0 33.258476 30.369579"
   version="1.1"
   id="svg3283"
   inkscape:version="0.92.4 (5da689c313, 2019-01-14)"
   sodipodi:docname="gift3.svg">
  <defs
     id="defs3277" />
  <sodipodi:namedview
     id="base"
     pagecolor="#ffffff"
     bordercolor="#666666"
     borderopacity="1.0"
     inkscape:pageopacity="0.0"
     inkscape:pageshadow="2"
     inkscape:zoom="3.959798"
     inkscape:cx="131.11918"
     inkscape:cy="73.668363"
     inkscape:document-units="mm"
     inkscape:current-layer="layer1"
     inkscape:document-rotation="0"
     showgrid="false"
     fit-margin-top="0"
     fit-margin-left="0"
     fit-margin-right="0"
     fit-margin-bottom="0"
     inkscape:window-width="1600"
     inkscape:window-height="848"
     inkscape:window-x="-8"
     inkscape:window-y="-8"
     inkscape:window-maximized="1" />
  <metadata
     id="metadata3280">
    <rdf:RDF>
      <cc:Work
         rdf:about="">
        <dc:format>image/svg+xml</dc:format>
        <dc:type
           rdf:resource="http://purl.org/dc/dcmitype/StillImage" />
        <dc:title></dc:title>
      </cc:Work>
    </rdf:RDF>
  </metadata>
  <g
     inkscape:label="Layer 1"
     inkscape:groupmode="layer"
     id="layer1"
     transform="translate(-69.549333,-36.975923)">
    <ellipse
       style="opacity:1;fill:#ffffff;fill-opacity:1;fill-rule:nonzero;stroke:none;stroke-width:1;stroke-miterlimit:4;stroke-dasharray:none;stroke-dashoffset:0;stroke-opacity:1;paint-order:fill markers stroke"
       id="path974"
       cx="85.843147"
       cy="42.899204"
       rx="3.1976111"
       ry="2.4142876" />
    <rect
       style="opacity:1;fill:#ffffff;fill-opacity:1;fill-rule:nonzero;stroke:none;stroke-width:0.49373204;stroke-miterlimit:4;stroke-dasharray:none;stroke-dashoffset:0;stroke-opacity:1;paint-order:fill markers stroke"
       id="rect840-5"
       width="31.96887"
       height="5.0915504"
       x="70.166412"
       y="42.375961" />
    <rect
       style="opacity:1;fill:#ffffff;fill-opacity:1;fill-rule:nonzero;stroke:none;stroke-width:0.98448139;stroke-miterlimit:4;stroke-dasharray:none;stroke-dashoffset:0;stroke-opacity:1;paint-order:fill markers stroke"
       id="rect840"
       width="26.022123"
       height="24.869495"
       x="72.760353"
       y="42.027683" />
    <rect
       style="opacity:1;fill:#ffffff;fill-opacity:1;fill-rule:nonzero;stroke:none;stroke-width:0.58939081;stroke-miterlimit:4;stroke-dasharray:none;stroke-dashoffset:0;stroke-opacity:1;paint-order:fill markers stroke"
       id="rect840-6"
       width="31.50115"
       height="7.3633423"
       x="29.721251"
       y="44.003113" />
    <path
       style="fill:#ffffff;stroke:none;stroke-width:0.2909146px;stroke-linecap:butt;stroke-linejoin:miter;stroke-opacity:1"
       d="m 86.993063,44.17959 -5.2664,-5.235406 -4.937541,-1.152868 -2.014523,2.001595 c 0.03475,2.073858 0.355745,2.924022 0.109464,3.997717 z"
       id="path923"
       inkscape:connector-curvature="0"
       sodipodi:nodetypes="cccccc" />
    <path
       style="fill:#ffffff;stroke:none;stroke-width:0.30137625px;stroke-linecap:butt;stroke-linejoin:miter;stroke-opacity:1"
       d="m 84.918116,44.243901 5.266401,-5.618719 4.937541,-1.237275 2.014523,2.148142 c -0.03475,2.225697 -0.355745,3.138106 -0.109465,4.290412 z"
       id="path923-7"
       inkscape:connector-curvature="0"
       sodipodi:nodetypes="cccccc" />
    <path
       inkscape:connector-curvature="0"
       id="path402-7"
       style="fill:#5ac8a8;fill-opacity:1;fill-rule:nonzero;stroke:none;stroke-width:0.35277799"
       d="m 28.693921,51.555393 h 0.12488 c -0.0801,-0.186267 -0.12488,-0.391231 -0.12488,-0.606425 z" />
    <g
       id="g3248"
       transform="matrix(0.35277777,0,0,-0.35277777,-55.190911,292.90346)">
      <g
         id="g1382"
         transform="translate(427.2551,698.1487)">
        <path
           inkscape:connector-curvature="0"
           d="m 0,0 c -0.197,0.206 -0.378,0.394 -0.545,0.567 -1.162,1.205 -1.863,1.932 -2.024,3.014 -0.183,1.233 0.456,2.134 1.265,3.274 0.555,0.783 1.315,1.855 2.267,3.529 0.974,1.713 0.839,3.969 -0.362,6.034 -1.307,2.246 -4.194,4.647 -8.378,4.647 -0.875,0 -1.777,-0.108 -2.68,-0.321 -3.468,-0.817 -5.963,-2.294 -7.763,-3.994 -0.399,-0.602 -0.737,-1.206 -1.02,-1.797 1.86,-1.91 3,-4.465 3,-7.269 0,-3.102 -1.396,-5.898 -3.617,-7.854 -0.012,-0.019 -0.025,-0.037 -0.037,-0.056 2.334,-3.512 7.675,-7.971 13.954,-7.971 2.234,0 4.462,0.56 6.623,1.665 0.432,0.221 0.816,0.455 1.169,0.698 0.071,0.201 0.129,0.405 0.164,0.615 C 2.346,-3.272 1.136,-1.191 0,0"
           style="fill:#ffa051;fill-opacity:1;fill-rule:nonzero;stroke:none"
           id="path1384" />
      </g>
      <g
         id="g1386"
         transform="translate(397.6742,710.2841)">
        <path
           inkscape:connector-curvature="0"
           d="m 0,0 c -1.77,0 -3.395,-0.576 -4.678,-1.534 -0.445,-0.888 -0.701,-1.875 -0.701,-2.918 0,-3.833 3.358,-6.951 7.485,-6.951 1.77,0 3.395,0.576 4.678,1.534 0.445,0.888 0.701,1.875 0.701,2.917 C 7.485,-3.118 4.127,0 0,0"
           style="fill:#ffa051;fill-opacity:1;fill-rule:nonzero;stroke:none"
           id="path1388" />
      </g>
      <g
         id="g1390"
         transform="translate(386.4396,703.3325)">
        <path
           inkscape:connector-curvature="0"
           d="m 0,0 c 0,2.816 1.15,5.38 3.023,7.293 -1.531,3.194 -4.63,6.786 -10.913,8.268 -0.902,0.212 -1.804,0.32 -2.68,0.32 -2.658,0 -4.788,-0.972 -6.327,-2.255 -1.144,-2.035 -1.264,-4.242 -0.306,-5.926 0.951,-1.674 1.712,-2.746 2.267,-3.528 0.809,-1.141 1.448,-2.042 1.265,-3.275 -0.161,-1.082 -0.862,-1.809 -2.024,-3.014 -0.126,-0.13 -0.269,-0.279 -0.411,-0.427 -0.261,-0.498 -0.67,-0.989 -1.208,-1.559 -0.683,-1.121 -1.165,-2.488 -0.943,-3.8 0.254,-1.493 1.411,-2.775 3.439,-3.813 2.161,-1.105 4.39,-1.665 6.624,-1.665 h 0.002 c 4.74,0 8.944,2.542 11.725,5.3 0.042,0.061 0.089,0.123 0.129,0.183 C 1.413,-5.94 0,-3.124 0,0"
           style="fill:#ffa051;fill-opacity:1;fill-rule:nonzero;stroke:none"
           id="path1392" />
      </g>
      <g
         id="g1394"
         transform="translate(357.3444,698.8539)">
        <path
           inkscape:connector-curvature="0"
           d="m 0,0 c 0,-1.034 0.841,-1.875 1.875,-1.875 h 4.852 0.362 c 0.273,2.498 1.638,4.776 3.053,6.259 0.202,0.211 0.388,0.404 0.559,0.581 0.308,0.32 0.623,0.646 0.837,0.888 C 11.413,6.04 11.251,6.268 11.1,6.48 10.978,6.653 10.838,6.851 10.689,7.064 H 0 Z"
           style="fill:#008bad;fill-opacity:1;fill-rule:nonzero;stroke:none"
           id="path1396" />
      </g>
      <g
         id="g1398"
         transform="translate(375.1765,682.0627)">
        <path
           inkscape:connector-curvature="0"
           d="m 0,0 h -0.002 c -2.639,0 -5.249,0.672 -7.758,1.998 -1.432,0.756 -2.466,1.609 -3.22,2.476 V -38.935 H 10.027 V 3.297 C 7.266,1.388 3.859,0 0,0"
           style="fill:#008bad;fill-opacity:1;fill-rule:nonzero;stroke:none"
           id="path1400" />
      </g>
      <g
         id="g1402"
         transform="translate(403.4136,690.7289)">
        <path
           inkscape:connector-curvature="0"
           d="M 0,0 H -10.651 V -47.602 H 0.341 V -0.383 C 0.225,-0.255 0.111,-0.128 0,0"
           style="fill:#ffa051;fill-opacity:1;fill-rule:nonzero;stroke:none"
           id="path1404" />
      </g>
      <g
         id="g1406"
         transform="translate(438.4986,705.9182)">
        <path
           inkscape:connector-curvature="0"
           d="m 0,0 h -6.972 c -0.148,-0.213 -0.288,-0.411 -0.411,-0.584 -0.151,-0.212 -0.313,-0.44 -0.438,-0.627 0.215,-0.242 0.529,-0.568 0.838,-0.888 0.171,-0.177 0.357,-0.37 0.558,-0.581 1.416,-1.483 2.78,-3.761 3.054,-6.259 h 0.362 4.598 v 7.14 C 1.589,-0.807 0.876,0 0,0"
           style="fill:#008bad;fill-opacity:1;fill-rule:nonzero;stroke:none"
           id="path1408" />
      </g>
      <g
         id="g1410"
         transform="translate(432.2251,687.2057)">
        <path
           inkscape:connector-curvature="0"
           d="m 0,0 c -7.505,-9.329 -20.511,-3.776 -21.679,-3.251 -0.031,0.017 -0.063,0.034 -0.094,0.051 V -3.209 -8.073 -44.078 H 0 v 36.005 z"
           style="fill:#008bad;fill-opacity:1;fill-rule:nonzero;stroke:none"
           id="path1412" />
      </g>
    </g>
    <g
       id="g1378"
       transform="matrix(0.35277777,0,0,-0.35277777,101.48489,46.363339)">
      <path
         inkscape:connector-curvature="0"
         d="m 0,0 c 0,-1.034 -0.841,-1.875 -1.875,-1.875 h -2.158 -4.598 -0.362 c -0.274,2.498 -1.638,4.776 -3.053,6.259 -0.202,0.211 -0.388,0.404 -0.559,0.581 -0.308,0.32 -0.623,0.646 -0.838,0.888 0.126,0.187 0.287,0.415 0.438,0.627 0.123,0.173 0.263,0.371 0.411,0.584 0.504,0.724 1.149,1.686 1.9,2.986 h 8.819 C -0.841,10.05 0,9.209 0,8.175 Z m -8.756,-55.727 h -3.139 -21.773 v 36.005 4.865 0.009 5.687 c 2.981,-2.018 6.674,-3.492 10.863,-3.492 2.833,0 5.636,0.699 8.331,2.077 2.906,1.487 4.315,3.332 4.977,4.951 h 0.741 z m -28.662,0 h -2.948 -10.991 v 47.602 2.018 c 0.156,0.16 0.309,0.321 0.458,0.482 h 13.118 c 0.118,-0.128 0.239,-0.255 0.363,-0.383 z m -17.689,0 h -3.81 -21.007 v 43.409 6.693 h 0.741 c 0.662,-1.619 2.071,-3.464 4.977,-4.951 2.694,-1.378 5.497,-2.076 8.331,-2.077 h 0.002 c 4.143,0 7.802,1.443 10.766,3.427 z M -84.901,10.05 h 6.914 c 0.752,-1.3 1.396,-2.262 1.9,-2.986 0.149,-0.213 0.289,-0.411 0.411,-0.584 0.151,-0.212 0.313,-0.44 0.438,-0.627 -0.214,-0.242 -0.529,-0.568 -0.837,-0.888 -0.171,-0.177 -0.357,-0.37 -0.559,-0.581 -1.415,-1.483 -2.78,-3.761 -3.053,-6.259 h -0.362 -4.852 c -1.034,0 -1.875,0.841 -1.875,1.875 v 7.064 1.111 c 0,1.034 0.841,1.875 1.875,1.875 m 18.757,12.81 c 0.875,0 1.777,-0.108 2.68,-0.321 6.282,-1.481 9.381,-5.074 10.912,-8.268 -1.873,-1.913 -3.023,-4.476 -3.023,-7.292 0,-3.125 1.414,-5.94 3.663,-7.898 -0.573,-0.864 -1.33,-1.785 -2.236,-2.683 -2.781,-2.758 -6.985,-5.301 -11.725,-5.301 h -0.002 c -2.234,0.001 -4.463,0.561 -6.624,1.666 -2.028,1.037 -3.185,2.32 -3.439,3.812 -0.222,1.313 0.26,2.68 0.943,3.8 0.33,0.542 0.703,1.032 1.074,1.42 0.048,0.051 0.088,0.091 0.134,0.14 0.143,0.148 0.285,0.296 0.411,0.427 1.162,1.204 1.863,1.932 2.024,3.013 0.183,1.234 -0.456,2.135 -1.265,3.275 -0.555,0.783 -1.315,1.854 -2.267,3.528 -0.958,1.684 -0.838,3.891 0.306,5.926 0.021,0.036 0.035,0.073 0.056,0.108 1.307,2.247 4.194,4.648 8.378,4.648 m 21.804,-8.93 c 4.127,0 7.485,-3.118 7.485,-6.951 0,-2.19 -1.098,-4.143 -2.807,-5.418 -1.283,-0.957 -2.908,-1.534 -4.678,-1.534 -4.127,0 -7.485,3.119 -7.485,6.952 0,1.043 0.256,2.029 0.701,2.917 1.19,2.378 3.78,4.034 6.784,4.034 m 19.124,8.609 c 0.903,0.213 1.805,0.321 2.68,0.321 4.184,0 7.071,-2.401 8.378,-4.648 1.201,-2.064 1.336,-4.32 0.362,-6.034 -0.952,-1.674 -1.712,-2.745 -2.267,-3.528 -0.81,-1.14 -1.448,-2.041 -1.265,-3.275 0.16,-1.081 0.862,-1.808 2.024,-3.013 0.167,-0.173 0.348,-0.361 0.545,-0.567 1.136,-1.191 2.346,-3.272 2.016,-5.22 -0.199,-1.174 -0.967,-2.216 -2.27,-3.114 -0.353,-0.243 -0.737,-0.477 -1.169,-0.698 -2.161,-1.105 -4.39,-1.666 -6.623,-1.666 -6.279,0 -11.62,4.459 -13.954,7.972 -0.003,0.004 -0.006,0.008 -0.009,0.012 0.016,0.014 0.03,0.03 0.046,0.043 2.221,1.957 3.617,4.752 3.617,7.855 0,2.804 -1.14,5.359 -3,7.269 0.283,0.591 0.621,1.195 1.02,1.797 1.769,2.666 4.77,5.292 9.869,6.494 M -1.875,13.8 h -7.569 c 0.203,2.07 -0.291,4.267 -1.473,6.298 -2.336,4.017 -6.789,6.512 -11.619,6.512 -1.165,0 -2.356,-0.142 -3.54,-0.421 -7.51,-1.771 -11.264,-6.147 -13.12,-9.701 -1.543,0.76 -3.291,1.192 -5.144,1.192 -1.854,0 -3.602,-0.432 -5.144,-1.193 -1.856,3.555 -5.61,7.931 -13.12,9.702 -1.184,0.279 -2.376,0.421 -3.54,0.421 -4.831,0 -9.283,-2.495 -11.62,-6.512 -1.181,-2.031 -1.675,-4.228 -1.473,-6.298 h -5.664 c -3.102,0 -5.625,-2.523 -5.625,-5.625 V 0 c 0,-3.102 2.523,-5.625 5.625,-5.625 h 1.227 v -50.227 c 0,-1.998 1.626,-3.625 3.625,-3.625 h 71.418 c 1.999,0 3.625,1.627 3.625,3.625 v 50.227 h 3.131 c 3.102,0 5.625,2.523 5.625,5.625 v 8.175 c 0,3.102 -2.523,5.625 -5.625,5.625"
         style="fill:#000000;fill-opacity:1;fill-rule:nonzero;stroke:none"
         id="path1380" />
    </g>
  </g>
</svg>
