<?xml version="1.0" encoding="UTF-8" standalone="no"?>
<svg
   xmlns:dc="http://purl.org/dc/elements/1.1/"
   xmlns:cc="http://creativecommons.org/ns#"
   xmlns:rdf="http://www.w3.org/1999/02/22-rdf-syntax-ns#"
   xmlns:svg="http://www.w3.org/2000/svg"
   xmlns="http://www.w3.org/2000/svg"
   xmlns:sodipodi="http://sodipodi.sourceforge.net/DTD/sodipodi-0.dtd"
   xmlns:inkscape="http://www.inkscape.org/namespaces/inkscape"
   width="37.521091mm"
   height="30.113462mm"
   viewBox="0 0 37.521091 30.113462"
   version="1.1"
   id="svg6018"
   inkscape:version="1.0.1 (3bc2e813f5, 2020-09-07)"
   sodipodi:docname="gift22.svg">
  <defs
     id="defs6012" />
  <sodipodi:namedview
     id="base"
     pagecolor="#ffffff"
     bordercolor="#666666"
     borderopacity="1.0"
     inkscape:pageopacity="0.0"
     inkscape:pageshadow="2"
     inkscape:zoom="0.35"
     inkscape:cx="-523.37971"
     inkscape:cy="-77.378381"
     inkscape:document-units="mm"
     inkscape:current-layer="layer1"
     inkscape:document-rotation="0"
     showgrid="false"
     inkscape:window-width="1267"
     inkscape:window-height="1040"
     inkscape:window-x="26"
     inkscape:window-y="0"
     inkscape:window-maximized="0" />
  <metadata
     id="metadata6015">
    <rdf:RDF>
      <cc:Work
         rdf:about="">
        <dc:format>image/svg+xml</dc:format>
        <dc:type
           rdf:resource="http://purl.org/dc/dcmitype/StillImage" />
        <dc:title></dc:title>
      </cc:Work>
    </rdf:RDF>
  </metadata>
  <g
     inkscape:label="Layer 1"
     inkscape:groupmode="layer"
     id="layer1"
     transform="translate(-244.31088,-168.6397)">
    <g
       id="g5953"
       transform="matrix(0.35277777,0,0,-0.35277777,169.85597,235.7998)">
      <g
         id="g152"
         transform="translate(299.7476,138.2652)">
        <path
           d="m 0,0 c -0.528,-0.84 -1.642,-1.842 -3.948,-1.842 -2.766,0 -6.286,0.618 -9.609,1.643 l 10.293,-11.026 c 1.38,-1.479 1.04,-2.765 0.829,-3.249 -0.204,-0.471 -0.882,-1.565 -2.754,-1.565 -0.116,0 -0.238,0.004 -0.366,0.013 l -11.617,0.826 c -1.231,0.087 -2.397,0.704 -3.268,1.6 -0.391,0.198 -0.748,0.598 -0.816,0.975 l -0.024,0.129 c -0.258,0.459 -0.45,0.954 -0.543,1.47 l -1.506,8.333 -1.506,-8.333 c -0.394,-2.183 -2.437,-4.017 -4.651,-4.174 l -11.617,-0.826 c -0.128,-0.009 -0.25,-0.013 -0.366,-0.013 -1.872,0 -2.55,1.094 -2.754,1.565 -0.211,0.484 -0.551,1.77 0.829,3.248 l 10.238,10.968 c -3.265,-0.989 -6.7,-1.584 -9.412,-1.584 -2.037,0 -3.142,0.782 -3.736,1.544 -0.08,0.019 -0.139,0.039 -0.167,0.051 -0.01,0.036 -0.024,0.111 -0.03,0.227 -0.004,0.006 -0.01,0.013 -0.014,0.02 -1.606,2.554 0.216,6.342 1.979,10.006 0.503,1.046 1.162,2.42 1.352,3.09 -0.318,0.555 -0.723,1.155 -1.191,1.839 -0.576,0.844 -1.696,2.483 -1.959,3.339 0.006,10e-4 0.017,0.002 0.023,0.003 -0.695,1.435 -1.008,2.864 -0.334,4.141 0.676,1.28 2.096,1.929 4.221,1.929 4.213,0 9.562,-2.621 13.163,-5.074 1.479,-1.007 4.182,-3.028 6.003,-5.442 1.822,2.414 4.525,4.435 6.004,5.442 3.601,2.453 8.95,5.074 13.163,5.074 2.125,0 3.545,-0.649 4.221,-1.929 1.182,-2.239 -0.666,-4.945 -2.297,-7.332 -0.407,-0.596 -1.001,-1.465 -1.196,-1.879 0.144,-0.621 0.854,-2.099 1.384,-3.201 1.091,-2.267 2.202,-4.581 2.512,-6.621 v 23.62 H -76.099 V -29.501 H 0.533 V 1.409 C 0.441,0.909 0.274,0.435 0,0"
           style="fill:#ffca00;fill-opacity:1;fill-rule:nonzero;stroke:none"
           id="path154" />
      </g>
      <g
         id="g1414"
         transform="translate(271.2225,127.9681)">
        <path
           d="m 0,0 c -0.092,-0.509 -0.711,-1.064 -1.226,-1.101 l -1.698,-0.12 -0.011,-0.063 1.709,0.122 c 0.515,0.036 1.134,0.592 1.226,1.1 L 2.144,11.801 2.13,11.786 Z"
           style="fill:#ffca00;fill-opacity:1;fill-rule:nonzero;stroke:none"
           id="path1416" />
      </g>
      <g
         id="g1418"
         transform="translate(256.5596,158.8081)">
        <path
           d="M 0,0 C -0.006,-0.001 -0.017,-0.002 -0.023,-0.003 0.214,-0.773 1.141,-2.172 1.745,-3.06 1.764,-3.066 1.783,-3.074 1.801,-3.08 1.214,-2.219 0.271,-0.806 0,0"
           style="fill:#ffca00;fill-opacity:1;fill-rule:nonzero;stroke:none"
           id="path1420" />
      </g>
      <g
         id="g1422"
         transform="translate(292.6113,151.6477)">
        <path
           d="M 0,0 C 0,-0.011 0.002,-0.023 0.002,-0.035 0.015,1.096 0.794,2.24 1.873,3.819 2.449,4.663 3.569,6.302 3.832,7.158 3.826,7.159 3.815,7.159 3.809,7.16 3.517,6.291 2.437,4.707 1.873,3.881 0.786,2.29 0,1.14 0,0"
           style="fill:#ffca00;fill-opacity:1;fill-rule:nonzero;stroke:none"
           id="path1424" />
      </g>
      <g
         id="g1426"
         transform="translate(279.4849,139.7542)">
        <path
           d="M 0,0 -0.014,0.015 1.244,-6.945 1.258,-6.96 Z"
           style="fill:#ffca00;fill-opacity:1;fill-rule:nonzero;stroke:none"
           id="path1428" />
      </g>
      <g
         id="g1430"
         transform="translate(220.4986,106.2839)">
        <path
           d="M 0,0 H 0.159 C 0.106,0.065 0.047,0.124 0,0.192 Z"
           style="fill:#ffca00;fill-opacity:1;fill-rule:nonzero;stroke:none"
           id="path1432" />
      </g>
      <g
         id="g1434"
         transform="translate(270.904,143.8505)">
        <path
           d="M 0,0 C -0.029,-0.036 -0.056,-0.072 -0.087,-0.108 2.188,1.108 3.709,2.449 3.709,3.599 3.709,3.606 3.705,3.616 3.705,3.623 3.673,2.496 2.203,1.19 0,0"
           style="fill:#ffca00;fill-opacity:1;fill-rule:nonzero;stroke:none"
           id="path1436" />
      </g>
      <g
         id="g1438"
         transform="translate(296.5799,140.3466)">
        <path
           d="m 0,0 c -0.071,-0.033 -0.292,-0.111 -0.78,-0.111 -0.893,0 -1.834,0.066 -2.797,0.188 0.007,-0.021 0.016,-0.043 0.024,-0.064 0.955,-0.12 1.888,-0.186 2.773,-0.186 0.488,0 0.709,0.079 0.78,0.111 C 0.014,-0.014 0.036,0.1 0.031,0.302 0.031,0.14 0.012,0.043 0,0"
           style="fill:#ffca00;fill-opacity:1;fill-rule:nonzero;stroke:none"
           id="path1440" />
      </g>
      <g
         id="g1442"
         transform="translate(286.5194,126.6061)">
        <path
           d="M 0,0 0.062,-0.066 5.673,-0.465 5.612,-0.399 Z"
           style="fill:#ffca00;fill-opacity:1;fill-rule:nonzero;stroke:none"
           id="path1444" />
      </g>
      <g
         id="g1446"
         transform="translate(308.3713,182.7103)">
        <path
           d="m 0,0 h -93.568 v -9.478 c 0,-0.339 0.286,-0.625 0.625,-0.625 h 7.845 81.918 3.784 v 9.489 C 0.604,-0.281 0.327,0 0,0"
           style="fill:#ffca00;fill-opacity:1;fill-rule:nonzero;stroke:none"
           id="path1448" />
      </g>
      <g
         id="g1450"
         transform="translate(214.0789,168.9508)">
        <path
           d="M 0,0 H 0.454 C 0.104,0.073 -0.224,0.2 -0.539,0.352 -0.439,0.147 -0.235,0 0,0"
           style="fill:#ffca00;fill-opacity:1;fill-rule:nonzero;stroke:none"
           id="path1452" />
      </g>
      <g
         id="g1454"
         transform="translate(286.5194,126.6061)">
        <path
           d="M 0,0 5.612,-0.399 -7.035,13.148 -5.777,6.188 Z"
           style="fill:#ffffff;fill-opacity:1;fill-rule:nonzero;stroke:none"
           id="path1456" />
      </g>
      <g
         id="g1458"
         transform="translate(293.3195,156.539)">
        <path
           d="m 0,0 c -0.263,-0.856 -1.383,-2.495 -1.959,-3.338 -1.087,-1.592 -1.873,-2.741 -1.873,-3.881 0,-1.186 0.643,-2.58 1.779,-4.941 0.611,-1.271 1.29,-2.695 1.736,-3.955 0.963,-0.122 1.905,-0.189 2.797,-0.189 0.488,0 0.709,0.079 0.78,0.112 0.013,0.042 0.031,0.14 0.032,0.301 -0.008,0.323 -0.086,0.876 -0.386,1.775 -0.44,1.321 -1.182,2.862 -1.836,4.223 -1.136,2.361 -1.778,3.754 -1.778,4.94 0,0.009 0.002,0.018 0.002,0.027 0,0.011 -0.002,0.023 -0.002,0.035 0,1.14 0.785,2.289 1.872,3.881 0.565,0.826 1.645,2.41 1.937,3.279 -0.17,0.029 -0.414,0.054 -0.764,0.054 -2.769,0 -7.108,-1.736 -11.052,-4.423 -0.856,-0.583 -1.594,-1.155 -2.267,-1.715 3.705,2.364 7.625,3.872 10.196,3.872 C -0.423,0.057 -0.17,0.03 0,0"
           style="fill:#ffffff;fill-opacity:1;fill-rule:nonzero;stroke:none"
           id="path1460" />
      </g>
      <g
         id="g1462"
         transform="translate(269.9963,126.8675)">
        <path
           d="M 0,0 C 0.516,0.037 1.134,0.592 1.226,1.101 L 3.356,12.887 0.004,9.296 -1.697,-0.121 Z"
           style="fill:#ffffff;fill-opacity:1;fill-rule:nonzero;stroke:none"
           id="path1464" />
      </g>
      <g
         id="g1466"
         transform="translate(265.2521,152.1726)">
        <path
           d="m 0,0 c 4.285,-2.919 6.237,-5.669 6.237,-6.989 0,-0.424 -0.212,-0.874 -0.585,-1.333 2.203,1.19 3.673,2.496 3.705,3.623 -0.021,1.328 -1.971,4.062 -6.233,6.965 -3.945,2.687 -8.283,4.423 -11.053,4.423 -0.35,0 -0.594,-0.025 -0.764,-0.054 0.271,-0.806 1.214,-2.218 1.802,-3.08 C -4.716,2.79 -2.295,1.563 0,0"
           style="fill:#ffffff;fill-opacity:1;fill-rule:nonzero;stroke:none"
           id="path1468" />
      </g>
      <g
         id="g1470"
         transform="translate(278.4913,125.64)">
        <path
           d="M 0,0 C 0.068,-0.377 0.426,-0.777 0.816,-0.975 0.491,-0.641 0.203,-0.274 -0.023,0.129 Z"
           style="fill:#8484dc;fill-opacity:1;fill-rule:nonzero;stroke:none"
           id="path1472" />
      </g>
      <g
         id="g1474"
         transform="translate(280.7427,132.7943)">
        <path
           d="M 0,0 -0.014,0.015 0.872,-4.888 C 0.964,-5.396 1.583,-5.952 2.098,-5.989 L 5.839,-6.254 5.777,-6.188 Z"
           style="fill:#8484dc;fill-opacity:1;fill-rule:nonzero;stroke:none"
           id="path1476" />
      </g>
      <g
         id="g1478"
         transform="translate(291.2661,144.3793)">
        <path
           d="m 0,0 c -1.136,2.361 -1.778,3.755 -1.778,4.94 0,1.14 0.785,2.29 1.872,3.881 0.576,0.844 1.696,2.483 1.959,3.339 -0.17,0.03 -0.423,0.056 -0.786,0.056 -2.571,0 -6.491,-1.507 -10.195,-3.871 -2.696,-2.242 -3.971,-4.218 -3.971,-5.275 0,-2.622 7.885,-6.237 14.66,-7.09 C 1.753,-3.999 1.744,-3.976 1.737,-3.955 1.29,-2.695 0.612,-1.272 0,0"
           style="fill:#8484dc;fill-opacity:1;fill-rule:nonzero;stroke:none"
           id="path1480" />
      </g>
      <g
         id="g1482"
         transform="translate(270.0007,136.1636)">
        <path
           d="m 0,0 -9.356,-10.022 7.643,0.543 0.011,0.062 z"
           style="fill:#8484dc;fill-opacity:1;fill-rule:nonzero;stroke:none"
           id="path1484" />
      </g>
      <g
         id="g1486"
         transform="translate(255.3998,153.3515)">
        <path
           d="M 0,0 C -0.701,1.025 -1.44,2.11 -1.963,3.19 -1.97,3.189 -1.98,3.189 -1.987,3.187 -1.723,2.332 -0.604,0.693 -0.027,-0.151 0.44,-0.835 0.846,-1.435 1.164,-1.99 1.174,-1.954 1.189,-1.911 1.196,-1.879 1.001,-1.465 0.407,-0.596 0,0"
           style="fill:#8484dc;fill-opacity:1;fill-rule:nonzero;stroke:none"
           id="path1488" />
      </g>
      <g
         id="g1490"
         transform="translate(253.2766,138.0186)">
        <path
           d="M 0,0 C 0.028,-0.013 0.087,-0.032 0.167,-0.052 0.094,0.042 0.029,0.135 -0.03,0.226 -0.024,0.111 -0.01,0.036 0,0"
           style="fill:#8484dc;fill-opacity:1;fill-rule:nonzero;stroke:none"
           id="path1492" />
      </g>
      <g
         id="g1494"
         transform="translate(271.4892,145.1834)">
        <path
           d="m 0,0 c 0,1.32 -1.952,4.07 -6.237,6.989 -2.295,1.564 -4.716,2.79 -6.891,3.555 -0.019,0.007 -0.038,0.014 -0.056,0.021 0.067,-0.099 0.133,-0.197 0.191,-0.281 1.087,-1.592 1.873,-2.741 1.873,-3.881 0,-1.186 -0.643,-2.58 -1.779,-4.941 -0.654,-1.36 -1.396,-2.902 -1.836,-4.222 -0.487,-1.463 -0.39,-2.013 -0.354,-2.138 0.071,-0.033 0.293,-0.112 0.78,-0.112 4.412,0 9.994,1.624 13.637,3.57 0.031,0.036 0.058,0.071 0.087,0.107 C -0.212,-0.873 0,-0.424 0,0"
           style="fill:#8484dc;fill-opacity:1;fill-rule:nonzero;stroke:none"
           id="path1496" />
      </g>
      <g
         id="g1498"
         transform="translate(313.6623,173.2321)">
        <path
           d="m 0,0 c 0,-0.339 -0.286,-0.625 -0.625,-0.625 h -4.062 -3.784 -81.918 -7.845 c -0.339,0 -0.625,0.286 -0.625,0.625 v 9.478 3.29 c 0,0.339 0.286,0.625 0.625,0.625 H -0.625 C -0.286,13.393 0,13.107 0,12.768 Z m -8.846,-64.468 h -4.536 -76.632 v 56.506 3.587 h 81.168 z m 8.221,81.611 h -97.609 c -2.412,0 -4.375,-1.963 -4.375,-4.375 V 0 c 0,-1.734 1.021,-3.222 2.487,-3.929 0.314,-0.152 0.642,-0.279 0.993,-0.352 0.289,-0.061 0.588,-0.094 0.895,-0.094 h 4.47 v -60.468 c 0,-0.711 0.224,-1.369 0.6,-1.913 0.048,-0.069 0.107,-0.128 0.159,-0.192 0.619,-0.768 1.556,-1.27 2.616,-1.27 h 81.918 c 1.861,0 3.375,1.514 3.375,3.375 v 60.468 h 4.471 c 2.412,0 4.375,1.963 4.375,4.375 v 12.768 c 0,2.412 -1.963,4.375 -4.375,4.375"
           style="fill:#000000;fill-opacity:1;fill-rule:nonzero;stroke:none"
           id="path1500" />
      </g>
      <g
         id="g1502"
         transform="translate(296.5799,140.2849)">
        <path
           d="m 0,0 c -0.071,-0.033 -0.292,-0.111 -0.78,-0.111 -0.885,0 -1.818,0.066 -2.773,0.186 -6.775,0.853 -14.66,4.467 -14.66,7.09 0,1.056 1.276,3.033 3.971,5.274 0.673,0.56 1.41,1.132 2.267,1.715 3.944,2.687 8.282,4.423 11.052,4.423 0.35,0 0.594,-0.025 0.764,-0.054 0.006,-0.001 0.016,-0.002 0.022,-0.003 -0.263,-0.855 -1.383,-2.494 -1.959,-3.338 -1.078,-1.579 -1.858,-2.723 -1.87,-3.854 0,-0.009 -0.003,-0.018 -0.003,-0.027 0,-1.186 0.643,-2.579 1.779,-4.94 C -1.536,5 -0.794,3.459 -0.354,2.138 -0.055,1.239 0.024,0.686 0.031,0.364 0.036,0.161 0.014,0.048 0,0 m -9.999,-13.745 -3.74,0.266 c -0.515,0.036 -1.134,0.592 -1.226,1.1 l -0.886,4.903 -1.258,6.96 0.014,-0.015 12.646,-13.547 0.062,-0.066 z M -25.763,3.458 c -3.642,-1.946 -9.224,-3.569 -13.637,-3.569 -0.487,0 -0.709,0.078 -0.78,0.111 -0.036,0.125 -0.133,0.676 0.355,2.138 0.44,1.321 1.181,2.862 1.836,4.223 1.135,2.361 1.778,3.754 1.778,4.94 0,1.14 -0.785,2.29 -1.873,3.881 -0.057,0.085 -0.124,0.182 -0.191,0.281 -0.604,0.888 -1.531,2.287 -1.768,3.057 0.006,0.001 0.016,0.002 0.023,0.003 0.17,0.029 0.413,0.054 0.763,0.054 2.77,0 7.108,-1.736 11.053,-4.423 4.262,-2.903 6.212,-5.637 6.233,-6.965 0,-0.007 0.004,-0.017 0.004,-0.024 0,-1.151 -1.52,-2.491 -3.796,-3.707 m 0.406,-15.837 c -0.092,-0.508 -0.711,-1.064 -1.227,-1.1 l -1.708,-0.122 -7.643,-0.543 9.356,10.023 3.352,3.59 0.013,0.015 z M -0.195,11.187 C 0,11.602 0.593,12.471 1,13.067 c 1.631,2.387 3.479,5.092 2.297,7.332 -0.675,1.279 -2.095,1.928 -4.22,1.928 -4.214,0 -9.563,-2.621 -13.164,-5.074 -1.478,-1.007 -4.181,-3.028 -6.003,-5.441 -1.822,2.413 -4.524,4.434 -6.003,5.441 -3.601,2.453 -8.95,5.074 -13.164,5.074 -2.124,0 -3.544,-0.649 -4.22,-1.928 -0.674,-1.278 -0.361,-2.707 0.334,-4.142 0.523,-1.081 1.262,-2.165 1.963,-3.19 0.407,-0.596 1.001,-1.465 1.196,-1.88 -0.007,-0.032 -0.022,-0.074 -0.032,-0.111 -0.19,-0.669 -0.85,-2.044 -1.353,-3.09 -1.762,-3.663 -3.584,-7.451 -1.978,-10.006 0.004,-0.006 0.01,-0.013 0.014,-0.02 0.058,-0.091 0.124,-0.184 0.197,-0.278 0.594,-0.762 1.699,-1.543 3.736,-1.543 2.712,0 6.147,0.594 9.412,1.583 l -10.239,-10.967 c -1.379,-1.479 -1.039,-2.765 -0.829,-3.249 0.205,-0.47 0.882,-1.564 2.755,-1.565 0.116,0 0.238,0.005 0.366,0.014 l 11.617,0.825 c 2.213,0.158 4.256,1.991 4.651,4.174 l 1.506,8.333 1.506,-8.332 c 0.093,-0.517 0.285,-1.011 0.543,-1.471 0.227,-0.403 0.514,-0.77 0.839,-1.104 0.871,-0.896 2.038,-1.512 3.268,-1.6 l 11.618,-0.825 c 0.127,-0.009 0.25,-0.014 0.366,-0.014 1.872,0 2.55,1.095 2.754,1.565 0.21,0.484 0.551,1.771 -0.829,3.249 l -10.293,11.026 c 3.323,-1.025 6.843,-1.642 9.609,-1.642 2.306,0 3.42,1.001 3.948,1.841 0.273,0.436 0.441,0.909 0.533,1.41 0.113,0.619 0.105,1.28 0,1.975 -0.31,2.041 -1.422,4.354 -2.512,6.621 -0.53,1.103 -1.241,2.58 -1.384,3.201"
           style="fill:#000000;fill-opacity:1;fill-rule:nonzero;stroke:none"
           id="path1504" />
      </g>
    </g>
  </g>
</svg>
