<?xml version="1.0" encoding="UTF-8" standalone="no"?>
<svg
   xmlns:dc="http://purl.org/dc/elements/1.1/"
   xmlns:cc="http://creativecommons.org/ns#"
   xmlns:rdf="http://www.w3.org/1999/02/22-rdf-syntax-ns#"
   xmlns:svg="http://www.w3.org/2000/svg"
   xmlns="http://www.w3.org/2000/svg"
   xmlns:sodipodi="http://sodipodi.sourceforge.net/DTD/sodipodi-0.dtd"
   xmlns:inkscape="http://www.inkscape.org/namespaces/inkscape"
   width="37.312248mm"
   height="28.610983mm"
   viewBox="0 0 37.312248 28.610983"
   version="1.1"
   id="svg3184"
   inkscape:version="0.92.4 (5da689c313, 2019-01-14)"
   sodipodi:docname="gift2.svg">
  <defs
     id="defs3178" />
  <sodipodi:namedview
     id="base"
     pagecolor="#ffffff"
     bordercolor="#666666"
     borderopacity="1.0"
     inkscape:pageopacity="0.0"
     inkscape:pageshadow="2"
     inkscape:zoom="5.6"
     inkscape:cx="85.923746"
     inkscape:cy="59.675881"
     inkscape:document-units="mm"
     inkscape:current-layer="layer1"
     inkscape:document-rotation="0"
     showgrid="false"
     fit-margin-top="0"
     fit-margin-left="0"
     fit-margin-right="0"
     fit-margin-bottom="0"
     inkscape:window-width="1600"
     inkscape:window-height="848"
     inkscape:window-x="-8"
     inkscape:window-y="-8"
     inkscape:window-maximized="1" />
  <metadata
     id="metadata3181">
    <rdf:RDF>
      <cc:Work
         rdf:about="">
        <dc:format>image/svg+xml</dc:format>
        <dc:type
           rdf:resource="http://purl.org/dc/dcmitype/StillImage" />
        <dc:title></dc:title>
      </cc:Work>
    </rdf:RDF>
  </metadata>
  <g
     inkscape:label="Layer 1"
     inkscape:groupmode="layer"
     id="layer1"
     transform="translate(-66.010543,-18.956411)">
    <g
       id="g1046">
      <ellipse
         ry="2.2206101"
         rx="2.2914808"
         cy="24.085625"
         cx="84.460503"
         id="path1022"
         style="opacity:1;fill:#ffffff;fill-opacity:1;fill-rule:nonzero;stroke:none;stroke-width:1.75867689;stroke-miterlimit:4;stroke-dasharray:none;stroke-dashoffset:0;stroke-opacity:1;paint-order:fill markers stroke" />
      <rect
         y="34.515564"
         x="69.443535"
         height="12.323802"
         width="30.463343"
         id="rect840"
         style="opacity:1;fill:#ffffff;fill-opacity:1;fill-rule:nonzero;stroke:none;stroke-width:0.74983174;stroke-miterlimit:4;stroke-dasharray:none;stroke-dashoffset:0;stroke-opacity:1;paint-order:fill markers stroke" />
      <rect
         y="27.290476"
         x="66.996361"
         height="6.7018838"
         width="35.375404"
         id="rect840-6"
         style="opacity:1;fill:#ffffff;fill-opacity:1;fill-rule:nonzero;stroke:none;stroke-width:0.59587044;stroke-miterlimit:4;stroke-dasharray:none;stroke-dashoffset:0;stroke-opacity:1;paint-order:fill markers stroke" />
      <path
         sodipodi:nodetypes="cccccc"
         inkscape:connector-curvature="0"
         id="path923"
         d="m 87.507561,28.431317 -5.936526,-7.419286 -5.565812,-1.63377 -2.270858,2.836533 c 0.03919,2.93894 0.401013,4.143738 0.123394,5.665311 z"
         style="fill:#ffffff;stroke:none;stroke-width:0.36768889px;stroke-linecap:butt;stroke-linejoin:miter;stroke-opacity:1" />
      <path
         sodipodi:nodetypes="cccccc"
         inkscape:connector-curvature="0"
         id="path923-7"
         d="m 80.858426,28.395847 6.582854,-7.184718 6.17178,-1.582118 2.518094,2.746853 c -0.04345,2.846023 -0.444673,4.012731 -0.136829,5.486198 z"
         style="fill:#ffffff;stroke:none;stroke-width:0.38101786px;stroke-linecap:butt;stroke-linejoin:miter;stroke-opacity:1" />
      <g
         id="g404"
         transform="matrix(0.35277777,0,0,-0.35277777,94.571996,25.849795)">
        <path
           inkscape:connector-curvature="0"
           d="m 0,0 c -0.045,1.066 -0.088,2.073 -0.088,3.023 0,6.325 -1.158,9.336 -7.741,9.336 -3.39,0 -7.719,-1.603 -11.676,-3.811 1.529,-1.72 2.457,-3.9 2.457,-6.279 0,-2.666 -1.159,-5.084 -3.033,-6.882 -0.106,-0.198 -0.223,-0.391 -0.344,-0.581 0.416,-0.166 0.841,-0.333 1.295,-0.499 5.305,-1.94 11.978,-3.294 16.227,-3.294 0.953,0 1.721,0.173 2.354,0.49 C 0.26,-6.206 0.121,-2.839 0,0"
           style="fill:#ffca00;fill-opacity:1;fill-rule:nonzero;stroke:none"
           id="path406" />
      </g>
      <g
         id="g408"
         transform="matrix(0.35277777,0,0,-0.35277777,83.928091,23.667088)">
        <path
           inkscape:connector-curvature="0"
           d="m 0,0 c -1.73,0 -3.318,-0.525 -4.569,-1.396 -0.395,-0.773 -0.619,-1.625 -0.619,-2.522 0,-3.461 3.267,-6.277 7.281,-6.277 1.73,0 3.319,0.525 4.569,1.397 0.395,0.772 0.619,1.625 0.619,2.522 C 7.281,-2.815 4.015,0 0,0"
           style="fill:#ffca00;fill-opacity:1;fill-rule:nonzero;stroke:none"
           id="path410" />
      </g>
      <g
         id="g412"
         transform="matrix(0.35277777,0,0,-0.35277777,74.263532,21.910325)">
        <path
           inkscape:connector-curvature="0"
           d="m 0,0 c -0.345,-1.389 -0.456,-3.097 -0.456,-5.136 0,-0.992 -0.043,-2.045 -0.088,-3.159 -0.157,-3.88 -0.353,-8.708 1.584,-10.726 0.733,-0.762 1.803,-1.133 3.273,-1.133 3.757,0 9.408,1.06 14.333,2.646 -1.399,1.606 -2.237,3.6 -2.237,5.764 0,2.41 1.037,4.609 2.736,6.296 0.155,0.383 0.337,0.754 0.541,1.114 C 15.085,-1.288 9.412,1.192 5.192,1.192 2.821,1.192 1.163,0.795 0,0"
           style="fill:#ffca00;fill-opacity:1;fill-rule:nonzero;stroke:none"
           id="path414" />
      </g>
      <path
         inkscape:connector-curvature="0"
         d="M 69.884607,46.244618 H 80.595646 V 35.74313 H 69.884607 Z"
         style="fill:#ff9f9d;fill-opacity:1;fill-rule:nonzero;stroke:none;stroke-width:0.35277778"
         id="path420" />
      <g
         id="g422"
         transform="matrix(0.35277777,0,0,-0.35277777,74.721967,31.35976)">
        <path
           inkscape:connector-curvature="0"
           d="m 0,0 c -2.404,0 -4.33,0.769 -5.724,2.286 -1.158,1.258 -1.821,2.881 -2.19,4.681 h -13.03 V -5.169 c 0,-0.338 0.286,-0.625 0.625,-0.625 h 5.982 30.987 v 9.27 C 11.155,1.395 4.481,0 0,0"
           style="fill:#ff9f9d;fill-opacity:1;fill-rule:nonzero;stroke:none"
           id="path424" />
      </g>
      <path
         inkscape:connector-curvature="0"
         d="m 83.241479,46.244618 h 2.111728 V 35.558274 h -2.111728 z"
         style="fill:#ffca00;fill-opacity:1;fill-rule:nonzero;stroke:none;stroke-width:0.35277778"
         id="path426" />
      <g
         id="g428"
         transform="matrix(0.35277777,0,0,-0.35277777,85.068163,29.26299)">
        <path
           inkscape:connector-curvature="0"
           d="m 0,0 c -1.023,-0.285 -2.108,-0.44 -3.232,-0.44 -0.664,0 -1.313,0.06 -1.946,0.163 v -11.46 H 0.808 V -0.39 C 0.537,-0.262 0.267,-0.135 0,0"
           style="fill:#ffca00;fill-opacity:1;fill-rule:nonzero;stroke:none"
           id="path430" />
      </g>
      <path
         inkscape:connector-curvature="0"
         d="M 87.414487,46.244618 H 98.125526 V 35.74313 H 87.414487 Z"
         style="fill:#ff9f9d;fill-opacity:1;fill-rule:nonzero;stroke:none;stroke-width:0.35277778"
         id="path432" />
      <g
         id="g434"
         transform="matrix(0.35277777,0,0,-0.35277777,100.45633,28.901851)">
        <path
           inkscape:connector-curvature="0"
           d="m 0,0 h -12.344 c -0.343,-0.652 -0.747,-1.265 -1.261,-1.8 -0.801,-0.834 -1.775,-1.433 -2.903,-1.812 -0.25,-0.378 -0.528,-0.738 -0.847,-1.07 -1.456,-1.516 -3.468,-2.285 -5.978,-2.285 -3.696,0 -8.817,0.879 -13.636,2.271 v -8.065 H -2.232 0.625 V -0.625 C 0.625,-0.286 0.339,0 0,0"
           style="fill:#ff9f9d;fill-opacity:1;fill-rule:nonzero;stroke:none"
           id="path436" />
      </g>
      <g
         id="g438"
         transform="matrix(0.35277777,0,0,-0.35277777,67.553946,27.885217)">
        <path
           inkscape:connector-curvature="0"
           d="m 0,0 h 15.069 c 0.385,-1.8 1.077,-3.423 2.286,-4.682 1.456,-1.516 3.468,-2.285 5.978,-2.285 4.679,0 11.647,1.395 17.386,3.476 V -15.643 H 36.969 5.982 0 c -0.339,0 -0.625,0.287 -0.625,0.625 v 12.136 2.257 C -0.625,-0.286 -0.339,0 0,0 m 26.286,21.56 c 4.335,0 10.209,-2.746 14.868,-6.057 -1.002,-0.816 -1.827,-1.803 -2.448,-2.9 -0.204,-0.36 -0.386,-0.731 -0.542,-1.115 -0.437,-1.077 -0.687,-2.236 -0.687,-3.45 0,-2.919 1.381,-5.551 3.58,-7.385 C 40.583,0.461 40.085,0.269 39.56,0.076 38.945,-0.148 38.311,-0.364 37.666,-0.572 32.74,-2.157 27.09,-3.217 23.333,-3.217 c -1.471,0 -2.541,0.37 -3.273,1.133 -1.938,2.018 -1.742,6.846 -1.585,10.725 0.045,1.115 0.088,2.167 0.088,3.16 0,2.039 0.112,3.746 0.456,5.136 0.773,3.116 2.725,4.623 7.267,4.623 m 22.222,-7.245 c 4.015,0 7.281,-2.816 7.281,-6.277 0,-1.969 -1.06,-3.728 -2.712,-4.879 -1.25,-0.872 -2.839,-1.397 -4.569,-1.397 -4.014,0 -7.281,2.816 -7.281,6.276 0,0.898 0.224,1.75 0.619,2.522 1.129,2.208 3.689,3.755 6.662,3.755 M 70.73,21.56 c 6.568,0 7.723,-3.147 7.723,-9.759 0,-0.993 0.043,-2.045 0.088,-3.16 0.158,-3.879 0.354,-8.707 -1.584,-10.725 -0.258,-0.269 -0.574,-0.471 -0.919,-0.644 -0.634,-0.316 -1.402,-0.489 -2.354,-0.489 -4.249,0 -10.922,1.354 -16.227,3.293 -0.455,0.167 -0.88,0.333 -1.295,0.5 -0.065,0.026 -0.138,0.051 -0.202,0.077 0.191,0.16 0.367,0.333 0.546,0.504 1.873,1.798 3.033,4.216 3.033,6.881 0,2.38 -0.928,4.559 -2.457,6.28 -0.375,0.422 -0.776,0.824 -1.219,1.185 4.658,3.311 10.532,6.057 14.867,6.057 M 97.017,0 c 0.338,0 0.625,-0.286 0.625,-0.625 v -14.393 c 0,-0.338 -0.287,-0.625 -0.625,-0.625 H 93.892 91.035 56.298 v 8.065 4.087 c 5.738,-2.081 12.707,-3.476 17.386,-3.476 1.13,0 2.153,0.164 3.075,0.474 1.127,0.378 2.102,0.977 2.903,1.811 0.514,0.535 0.917,1.148 1.26,1.8 C 81.387,-2 81.727,-1.035 81.948,0 Z M 90.41,-52.042 H 86.66 56.298 v 29.768 2.881 H 90.41 Z m -37.862,0 h -2.093 -5.986 v 30.292 2.357 h 8.079 v -2.881 z m 0,45.669 v -9.27 h -2.093 -5.986 v 11.461 2.244 c 0.27,0.128 0.541,0.255 0.808,0.39 1.022,-0.285 2.107,-0.44 3.231,-0.44 1.124,0 2.209,0.155 3.232,0.44 0.267,-0.135 0.537,-0.262 0.808,-0.39 z M 40.719,-52.042 H 36.969 6.607 v 29.768 2.881 H 40.719 Z M 0,-19.393 h 2.857 v -2.881 -30.393 c 0,-0.889 0.377,-1.687 0.974,-2.257 0.561,-0.535 1.316,-0.868 2.151,-0.868 h 34.737 15.579 34.737 c 1.723,0 3.125,1.402 3.125,3.125 v 33.274 h 2.857 c 2.412,0 4.375,1.963 4.375,4.375 v 14.393 c 0,2.412 -1.963,4.375 -4.375,4.375 h -14.65 c 0.058,1.678 -0.012,3.398 -0.079,5.043 -0.043,1.076 -0.085,2.092 -0.085,3.008 0,3.248 -0.227,6.614 -1.877,9.228 -1.819,2.881 -4.957,4.281 -9.596,4.281 -5.241,0 -11.934,-3.286 -16.449,-6.362 -0.561,-0.382 -1.265,-0.884 -2.035,-1.477 -1.168,0.383 -2.426,0.594 -3.738,0.594 -1.311,0 -2.57,-0.211 -3.738,-0.594 -0.769,0.593 -1.474,1.095 -2.034,1.477 -4.516,3.076 -11.208,6.362 -16.45,6.362 -4.638,0 -7.777,-1.4 -9.596,-4.281 -1.649,-2.614 -1.877,-5.98 -1.877,-9.228 0,-0.916 -0.041,-1.932 -0.085,-3.008 C 14.662,7.148 14.592,5.428 14.649,3.75 H 0 c -2.412,0 -4.375,-1.963 -4.375,-4.375 v -14.393 c 0,-2.412 1.963,-4.375 4.375,-4.375"
           style="fill:#000000;fill-opacity:1;fill-rule:nonzero;stroke:none"
           id="path440" />
      </g>
    </g>
  </g>
</svg>
