<?xml version="1.0" encoding="UTF-8" standalone="no"?>
<svg
   xmlns:dc="http://purl.org/dc/elements/1.1/"
   xmlns:cc="http://creativecommons.org/ns#"
   xmlns:rdf="http://www.w3.org/1999/02/22-rdf-syntax-ns#"
   xmlns:svg="http://www.w3.org/2000/svg"
   xmlns="http://www.w3.org/2000/svg"
   xmlns:sodipodi="http://sodipodi.sourceforge.net/DTD/sodipodi-0.dtd"
   xmlns:inkscape="http://www.inkscape.org/namespaces/inkscape"
   width="34.611576mm"
   height="36.63858mm"
   viewBox="0 0 34.611576 36.63858"
   version="1.1"
   id="svg5085"
   inkscape:version="1.0.1 (3bc2e813f5, 2020-09-07)"
   sodipodi:docname="gift17.svg">
  <defs
     id="defs5079" />
  <sodipodi:namedview
     id="base"
     pagecolor="#ffffff"
     bordercolor="#666666"
     borderopacity="1.0"
     inkscape:pageopacity="0.0"
     inkscape:pageshadow="2"
     inkscape:zoom="0.35"
     inkscape:cx="-226.02087"
     inkscape:cy="-79.33317"
     inkscape:document-units="mm"
     inkscape:current-layer="layer1"
     inkscape:document-rotation="0"
     showgrid="false"
     inkscape:window-width="1267"
     inkscape:window-height="1040"
     inkscape:window-x="130"
     inkscape:window-y="0"
     inkscape:window-maximized="0" />
  <metadata
     id="metadata5082">
    <rdf:RDF>
      <cc:Work
         rdf:about="">
        <dc:format>image/svg+xml</dc:format>
        <dc:type
           rdf:resource="http://purl.org/dc/dcmitype/StillImage" />
        <dc:title></dc:title>
      </cc:Work>
    </rdf:RDF>
  </metadata>
  <g
     inkscape:label="Layer 1"
     inkscape:groupmode="layer"
     id="layer1"
     transform="translate(-165.63469,-169.1569)">
    <g
       id="g5032"
       transform="matrix(0.35277777,0,0,-0.35277777,86.502825,288.39547)">
      <g
         id="g702"
         transform="translate(316.3954,280.314)">
        <path
           d="m 0,0 c -2.486,2.513 -9.896,4.017 -15.652,4.027 2.241,-2.413 8.205,-8.416 9.408,-9.433 1.412,-1.194 2.092,-1.476 2.344,-1.542 0.185,0.179 0.408,0.385 0.659,0.617 0.99,0.917 2.784,2.58 4.057,4.355 0.002,0.025 0.008,0.052 0.008,0.078 C 0.84,-1.187 0.578,-0.584 0,0"
           style="fill:#ffca00;fill-opacity:1;fill-rule:nonzero;stroke:none"
           id="path704" />
      </g>
      <g
         id="g706"
         transform="translate(293.8599,296.1908)">
        <path
           d="m 0,0 c -0.611,4.937 -1.937,8.856 -3.546,10.482 -0.57,0.576 -1.16,0.845 -1.857,0.845 -2.062,0 -4.618,-2.172 -6.409,-3.935 0.217,-0.319 0.499,-0.7 0.887,-1.168 1.148,-1.388 8.74,-9.06 10.115,-10.223 C -0.364,-4.376 0.007,-4.66 0.316,-4.877 0.315,-3.508 0.232,-1.874 0,0"
           style="fill:#ffca00;fill-opacity:1;fill-rule:nonzero;stroke:none"
           id="path708" />
      </g>
      <g
         id="g710"
         transform="translate(268.052,307.5435)">
        <path
           d="M 0,0 -4.106,-4.063 C -4.348,-4.302 -4.35,-4.708 -4.111,-4.949 l 21.805,-22.07 4.293,4.248 L 0.036,-0.023 C 0.025,-0.011 0.012,-0.011 0,0"
           style="fill:#ff9f9d;fill-opacity:1;fill-rule:nonzero;stroke:none"
           id="path712" />
      </g>
      <g
         id="g714"
         transform="translate(283.5232,277.4383)">
        <path
           d="m 0,0 -0.73,0.739 0.721,-0.748 z"
           style="fill:#ff9f9d;fill-opacity:1;fill-rule:nonzero;stroke:none"
           id="path716" />
      </g>
      <g
         id="g718"
         transform="translate(228.0608,255.3115)">
        <path
           d="m 0,0 v -16.7 c 0,-0.339 0.286,-0.625 0.625,-0.625 H 30.914 V 0 Z"
           style="fill:#ff9f9d;fill-opacity:1;fill-rule:nonzero;stroke:none"
           id="path720" />
      </g>
      <g
         id="g722"
         transform="translate(228.6858,234.2367)">
        <path
           d="M 0,0 C -1.024,0 -1.955,0.369 -2.701,0.96 V 0.53 c 0,-0.339 0.321,-0.625 0.7,-0.625 h 33.963 29.055 c 0.105,0 0.2,0.04 0.287,0.095 z"
           style="fill:#ff9f9d;fill-opacity:1;fill-rule:nonzero;stroke:none"
           id="path724" />
      </g>
      <path
         d="m 258.975,259.156 h -30.914 v -0.095 h 30.914 z"
         style="fill:#ff9f9d;fill-opacity:1;fill-rule:nonzero;stroke:none"
         id="path726" />
      <path
         d="m 228.061,262.906 h 30.914 v 18.91 h -30.914 z"
         style="fill:#ff9f9d;fill-opacity:1;fill-rule:nonzero;stroke:none"
         id="path728" />
      <path
         d="m 262.725,237.987 h 27.564 v 17.325 h -27.564 z"
         style="fill:#ff9f9d;fill-opacity:1;fill-rule:nonzero;stroke:none"
         id="path730" />
      <path
         d="m 290.288,259.156 h -27.564 v -0.095 h 27.564 z"
         style="fill:#ff9f9d;fill-opacity:1;fill-rule:nonzero;stroke:none"
         id="path732" />
      <g
         id="g734"
         transform="translate(262.7247,281.816)">
        <path
           d="M 0,0 V -18.91 H 27.318 L 9.804,0 Z"
           style="fill:#ff9f9d;fill-opacity:1;fill-rule:nonzero;stroke:none"
           id="path736" />
      </g>
      <g
         id="g738"
         transform="translate(286.8573,274.0638)">
        <path
           d="m 0,0 -0.052,-0.052 7.539,-7.631 v 0.105 z"
           style="fill:#ff9f9d;fill-opacity:1;fill-rule:nonzero;stroke:none"
           id="path740" />
      </g>
      <g
         id="g742"
         transform="translate(298.0947,262.6901)">
        <path
           d="M 0,0 V -0.105 L 10.517,-10.75 c 0.157,-0.158 0.345,-0.182 0.444,-0.182 0.096,0 0.282,0.023 0.438,0.177 l 0.065,0.065 c -0.765,0.192 -1.47,0.574 -2.038,1.149 z"
           style="fill:#ff9f9d;fill-opacity:1;fill-rule:nonzero;stroke:none"
           id="path744" />
      </g>
      <g
         id="g746"
         transform="translate(289.5229,276.7014)">
        <path
           d="m 0,0 20.666,-20.916 c 0.156,-0.159 0.345,-0.183 0.443,-0.183 0.097,0 0.282,0.023 0.438,0.178 l 3.566,3.528 -21.104,21.36 z"
           style="fill:#ff9f9d;fill-opacity:1;fill-rule:nonzero;stroke:none"
           id="path748" />
      </g>
      <g
         id="g750"
         transform="translate(243.9033,312.6033)">
        <path
           d="M 0,0 C -0.589,0 -1.152,-0.132 -1.674,-0.394 -2.908,-1.011 -3.41,-2.769 -3.709,-3.819 -3.95,-4.662 -4.177,-5.459 -5.03,-5.885 -5.306,-6.024 -5.607,-6.094 -5.924,-6.094 v 0 c -0.495,0 -0.899,0.164 -1.458,0.392 -0.694,0.282 -1.743,0.708 -2.768,0.708 -0.482,0 -0.903,-0.093 -1.286,-0.285 -1.27,-0.635 -2.027,-1.954 -2.103,-3.357 0.422,-0.587 0.981,-1.078 1.774,-1.537 1.867,-1.079 8.451,-2.749 10.838,-2.749 h 0.001 c 1.181,1.508 3.976,7.974 4.251,10.299 0.035,0.298 0.049,0.572 0.052,0.836 C 2.606,-0.694 1.324,0 0,0"
           style="fill:#ff3e37;fill-opacity:1;fill-rule:nonzero;stroke:none"
           id="path752" />
      </g>
      <g
         id="g754"
         transform="translate(268.3709,326.8419)">
        <path
           d="m 0,0 c -0.239,0.08 -0.488,0.118 -0.76,0.118 -1.121,0 -2.313,-0.662 -3.102,-1.101 -0.656,-0.365 -1.131,-0.629 -1.76,-0.629 h -0.001 c -0.217,0 -0.43,0.034 -0.633,0.102 -0.905,0.301 -1.225,1.059 -1.534,1.792 -0.424,1.006 -1.134,2.69 -2.567,3.167 -0.38,0.126 -0.775,0.19 -1.174,0.19 -0.933,0 -1.82,-0.348 -2.532,-0.929 0.029,-0.392 0.088,-0.798 0.208,-1.248 0.601,-2.25 4.315,-8.276 5.704,-9.607 1.933,0.24 8.466,2.826 10.304,4.275 0.181,0.142 0.327,0.282 0.479,0.423 C 2.485,-1.894 1.484,-0.494 0,0"
           style="fill:#ff3e37;fill-opacity:1;fill-rule:nonzero;stroke:none"
           id="path756" />
      </g>
      <g
         id="g758"
         transform="translate(258.0498,315.6225)">
        <path
           d="m 0,0 c 0.233,-0.292 0.44,-0.529 0.612,-0.694 0.148,0.019 0.332,0.055 0.53,0.099 C 1.083,-0.579 1.02,-0.571 0.963,-0.552 0.768,-0.488 0.469,-0.385 0,0"
           style="fill:#ff3e37;fill-opacity:1;fill-rule:nonzero;stroke:none"
           id="path760" />
      </g>
      <g
         id="g762"
         transform="translate(316.9138,262.4434)">
        <path
           d="M 0,0 C 0.239,-0.241 0.236,-0.647 -0.005,-0.886 L -2.278,-3.135 -5.844,-6.663 C -6,-6.818 -6.185,-6.841 -6.282,-6.841 c -0.098,0 -0.286,0.024 -0.443,0.183 l -20.666,20.916 -1.141,1.156 6.727,6.656 z m -22.569,0.463 h -4.303 -27.317 v 18.91 3.845 h 12.674 l 7.395,-7.484 0.729,-0.739 3.334,-3.375 7.488,-7.578 V 3.937 Z m 0,-24.295 c 0,-0.338 -0.286,-0.625 -0.625,-0.625 h -3.431 -27.564 v 17.325 3.75 0.095 h 27.564 4.056 z m -65.659,-0.625 c -0.339,0 -0.625,0.287 -0.625,0.625 v 16.7 3.75 0.095 h 30.914 v -0.095 -3.75 -17.325 z m 0,47.675 h 30.289 V 19.373 0.463 h -30.914 v 18.91 3.22 c 0,0.338 0.286,0.625 0.625,0.625 m 41.537,23.773 c 0.098,0 0.286,-0.023 0.443,-0.182 l 21.807,-22.071 -2.434,-2.409 -4.293,-4.248 -21.805,22.07 c -0.239,0.241 -0.237,0.647 0.005,0.886 l 4.106,4.063 1.732,1.714 c 0.156,0.155 0.342,0.177 0.439,0.177 m 11.819,-4.007 c 1.537,1.626 5.136,5.434 7.866,5.434 0.697,0 1.288,-0.268 1.858,-0.845 1.609,-1.626 2.934,-5.544 3.546,-10.481 0.56,-4.531 0.28,-7.759 -0.039,-8.847 -0.204,0.074 -0.554,0.245 -1.097,0.625 -0.309,0.217 -0.68,0.501 -1.126,0.878 -1.375,1.163 -8.967,8.836 -10.115,10.223 -0.388,0.468 -0.67,0.849 -0.887,1.168 -0.442,0.652 -0.587,1.022 -0.63,1.192 0.181,0.184 0.389,0.404 0.624,0.653 m 20.094,-17.741 c 5.763,0 13.216,-1.507 15.711,-4.028 0.578,-0.585 0.84,-1.188 0.825,-1.898 -0.024,-1.073 -0.634,-2.271 -1.46,-3.423 -1.274,-1.775 -3.067,-3.438 -4.058,-4.354 -0.25,-0.232 -0.473,-0.438 -0.658,-0.617 -0.253,0.066 -0.932,0.347 -2.344,1.541 -1.203,1.018 -7.167,7.02 -9.408,9.434 -0.32,0.344 -0.564,0.616 -0.707,0.789 -1.021,1.233 -1.363,1.91 -1.478,2.234 0.508,0.138 1.622,0.322 3.577,0.322 M -1.213,8.787 c 2.315,2.142 6.625,6.13 6.72,10.447 0.038,1.722 -0.622,3.319 -1.908,4.618 -4.024,4.067 -13.78,5.141 -18.377,5.141 -1.196,0 -2.16,-0.059 -2.945,-0.154 0.407,2.931 0.074,6.661 -0.088,8.12 -0.398,3.588 -1.534,10.081 -4.672,13.252 -1.266,1.28 -2.83,1.957 -4.523,1.957 -4.345,0 -8.409,-4.299 -10.592,-6.609 -0.264,-0.279 -0.493,-0.521 -0.654,-0.681 -0.143,-0.141 -0.266,-0.29 -0.38,-0.442 l -4.948,5.009 c -0.826,0.836 -1.931,1.296 -3.111,1.296 -1.162,0 -2.254,-0.448 -3.076,-1.261 l -5.839,-5.777 c -1.714,-1.697 -1.73,-4.472 -0.035,-6.188 L -45.22,26.968 h -43.008 c -2.412,0 -4.375,-1.963 -4.375,-4.375 v -46.425 c 0,-1.388 0.662,-2.612 1.673,-3.414 0.747,-0.592 1.678,-0.961 2.702,-0.961 h 61.304 3.73 c 2.412,0 4.375,1.963 4.375,4.375 V 0.142 0.247 l 9.426,-9.541 c 0.568,-0.575 1.273,-0.957 2.038,-1.149 0.348,-0.087 0.704,-0.148 1.073,-0.148 1.161,0 2.254,0.448 3.076,1.262 l 5.839,5.777 c 1.714,1.697 1.73,4.472 0.034,6.188 L -2.38,7.745 c 0.168,0.116 0.329,0.246 0.479,0.395 0.162,0.16 0.406,0.386 0.688,0.647"
           style="fill:#000000;fill-opacity:1;fill-rule:nonzero;stroke:none"
           id="path764" />
      </g>
      <g
         id="g766"
         transform="translate(229.8623,304.8303)">
        <path
           d="M 0,0 C -0.858,1.971 -0.058,4.324 1.782,5.245 2.165,5.437 2.586,5.53 3.069,5.53 4.094,5.53 5.143,5.104 5.837,4.821 6.395,4.594 6.799,4.43 7.294,4.43 h 0.001 c 0.317,0 0.617,0.07 0.894,0.208 0.852,0.427 1.079,1.223 1.32,2.066 0.3,1.051 0.801,2.808 2.035,3.426 0.522,0.261 1.086,0.394 1.674,0.394 1.452,0 2.862,-0.829 3.592,-2.112 C 17.241,7.655 17.428,6.909 17.418,5.986 17.415,5.721 17.401,5.448 17.366,5.15 17.091,2.825 14.296,-3.641 13.115,-5.15 v 0 C 10.727,-5.149 4.143,-3.479 2.276,-2.4 1.483,-1.941 0.924,-1.45 0.502,-0.863 0.31,-0.597 0.138,-0.317 0,0 m 13.218,14.274 c -1.176,0 -2.304,-0.266 -3.352,-0.79 C 7.675,12.387 6.702,10.237 6.195,8.7 5.34,8.997 4.26,9.28 3.069,9.28 2.005,9.28 1.008,9.051 0.104,8.599 -3.55,6.77 -5.106,2.336 -3.438,-1.497 -2.431,-3.809 -0.766,-4.973 0.399,-5.646 2.818,-7.045 10.067,-8.899 13.114,-8.9 h 10e-4 c 0.729,0 1.253,0.1 1.698,0.323 0.476,0.238 1.59,0.795 3.878,6.002 1.017,2.316 2.182,5.446 2.399,7.284 0.158,1.337 0.225,3.369 -1.021,5.558 -1.407,2.471 -4.032,4.007 -6.851,4.007"
           style="fill:#000000;fill-opacity:1;fill-rule:nonzero;stroke:none"
           id="path768" />
      </g>
      <g
         id="g770"
         transform="translate(254.6034,331.6101)">
        <path
           d="m 0,0 c 0.621,1.579 2.146,2.639 3.795,2.639 0.399,0 0.794,-0.064 1.174,-0.19 C 6.402,1.971 7.112,0.288 7.536,-0.718 7.845,-1.451 8.165,-2.209 9.07,-2.511 9.273,-2.578 9.486,-2.613 9.703,-2.613 h 0.001 c 0.629,10e-4 1.104,0.265 1.76,0.63 0.789,0.438 1.981,1.101 3.102,1.101 0.272,0 0.521,-0.039 0.76,-0.118 1.952,-0.65 3.078,-2.865 2.508,-4.938 -0.246,-0.897 -0.689,-1.589 -1.434,-2.277 -0.153,-0.141 -0.299,-0.281 -0.479,-0.423 -1.838,-1.45 -8.371,-4.035 -10.304,-4.275 -1.39,1.33 -5.103,7.356 -5.704,9.606 -0.121,0.451 -0.179,0.857 -0.208,1.249 C -0.35,-1.33 -0.264,-0.67 0,0 m 3.446,-15.988 c 0.47,-0.384 0.769,-0.487 0.963,-0.552 0.057,-0.019 0.12,-0.027 0.179,-0.042 0.239,-0.061 0.49,-0.099 0.777,-0.1 v 0 c 2.705,0 10.536,3.253 12.877,5.099 1.058,0.833 2.542,2.223 3.209,4.652 1.106,4.03 -1.064,8.198 -4.94,9.489 -0.619,0.206 -1.273,0.31 -1.945,0.31 -1.586,0 -2.988,-0.566 -4.034,-1.096 C 9.821,3.242 8.56,5.205 6.153,6.006 5.391,6.26 4.597,6.389 3.795,6.389 c -3.176,0 -6.104,-2.015 -7.285,-5.016 -0.923,-2.347 -0.568,-4.348 -0.22,-5.648 0.473,-1.771 2.082,-4.709 3.431,-6.868 1.842,-2.952 2.993,-4.244 3.725,-4.845"
           style="fill:#000000;fill-opacity:1;fill-rule:nonzero;stroke:none"
           id="path772" />
      </g>
    </g>
  </g>
</svg>
