<?xml version="1.0" encoding="UTF-8" standalone="no"?>
<svg
   xmlns:dc="http://purl.org/dc/elements/1.1/"
   xmlns:cc="http://creativecommons.org/ns#"
   xmlns:rdf="http://www.w3.org/1999/02/22-rdf-syntax-ns#"
   xmlns:svg="http://www.w3.org/2000/svg"
   xmlns="http://www.w3.org/2000/svg"
   xmlns:sodipodi="http://sodipodi.sourceforge.net/DTD/sodipodi-0.dtd"
   xmlns:inkscape="http://www.inkscape.org/namespaces/inkscape"
   width="35.365971mm"
   height="27.878263mm"
   viewBox="0 0 35.365971 27.878263"
   version="1.1"
   id="svg3432"
   inkscape:version="1.0.1 (3bc2e813f5, 2020-09-07)"
   sodipodi:docname="gift4.svg">
  <defs
     id="defs3426" />
  <sodipodi:namedview
     id="base"
     pagecolor="#ffffff"
     bordercolor="#666666"
     borderopacity="1.0"
     inkscape:pageopacity="0.0"
     inkscape:pageshadow="2"
     inkscape:zoom="0.35"
     inkscape:cx="563.97618"
     inkscape:cy="612.68335"
     inkscape:document-units="mm"
     inkscape:current-layer="layer1"
     inkscape:document-rotation="0"
     showgrid="false"
     fit-margin-top="0"
     fit-margin-left="0"
     fit-margin-right="0"
     fit-margin-bottom="0"
     inkscape:window-width="1267"
     inkscape:window-height="1040"
     inkscape:window-x="234"
     inkscape:window-y="0"
     inkscape:window-maximized="0" />
  <metadata
     id="metadata3429">
    <rdf:RDF>
      <cc:Work
         rdf:about="">
        <dc:format>image/svg+xml</dc:format>
        <dc:type
           rdf:resource="http://purl.org/dc/dcmitype/StillImage" />
        <dc:title></dc:title>
      </cc:Work>
    </rdf:RDF>
  </metadata>
  <g
     inkscape:label="Layer 1"
     inkscape:groupmode="layer"
     id="layer1"
     transform="translate(43.385365,13.939136)">
    <g
       id="g3371"
       transform="matrix(0.35277777,0,0,-0.35277777,-213.06544,238.3574)">
      <g
         id="g1254"
         transform="translate(577.4829,701.8273)">
        <path
           d="M 0,0 H -5.758 -7.513 -85.238 -92.75 V 6.257 9.594 H 0 Z m -7.888,-61.931 h -4.536 -72.439 v 54.844 3.337 h 76.975 z m 8.513,75.275 h -94 c -1.724,0 -3.125,-1.402 -3.125,-3.125 V -0.625 c 0,-1.092 0.565,-2.052 1.416,-2.611 0.059,-0.038 0.124,-0.066 0.185,-0.101 0.453,-0.255 0.968,-0.413 1.524,-0.413 h 4.762 v -58.556 c 0,-1.13 0.563,-2.125 1.417,-2.738 0.118,-0.085 0.245,-0.155 0.374,-0.224 0.475,-0.255 1.009,-0.413 1.584,-0.413 h 77.725 c 1.861,0 3.375,1.514 3.375,3.375 V -3.75 h 4.763 c 1.723,0 3.125,1.402 3.125,3.125 v 10.844 c 0,1.723 -1.402,3.125 -3.125,3.125"
           style="fill:#000000;fill-opacity:1;fill-rule:nonzero;stroke:none"
           id="path1256" />
      </g>
      <g
         id="g1258"
         transform="translate(490.287,636.5593)">
        <path
           d="M 0,0 H 0.374 C 0.245,0.069 0.118,0.139 0,0.224 Z"
           style="fill:#ffca00;fill-opacity:1;fill-rule:nonzero;stroke:none"
           id="path1260" />
      </g>
      <g
         id="g1262"
         transform="translate(554.6936,660.5724)">
        <path
           d="m 0,0 c -1.048,0 -2.25,0.114 -3.553,0.327 1.691,-2.142 2.564,-4.567 2.41,-6.925 -0.151,-2.307 -1.32,-5.582 -6.034,-8.086 -1.689,-0.898 -3.371,-1.352 -4.999,-1.352 -2.994,0 -5.64,1.58 -7.535,4.293 -1.238,1.347 -2.187,3.368 -2.668,5.869 -0.212,1.107 -0.423,2.129 -0.629,3.123 -0.167,-0.814 -0.337,-1.647 -0.508,-2.533 -1.255,-6.532 -5.234,-10.752 -10.138,-10.752 h -10e-4 c -1.628,0 -3.309,0.455 -4.998,1.352 -2.28,1.211 -3.725,2.603 -4.633,3.978 -0.762,0.827 -1.326,1.839 -1.406,3.055 -0.018,0.283 -0.01,0.57 0.023,0.859 -0.006,0.064 -0.014,0.131 -0.018,0.194 -0.161,2.468 0.798,5.008 2.646,7.22 10e-4,0.001 0.003,0.001 0.004,0.001 C -43.952,0.221 -45.711,0 -47.172,0 c -2.242,0 -3.884,0.668 -4.879,1.985 -0.176,0.233 -0.319,0.48 -0.445,0.734 -0.134,0.066 -0.244,0.141 -0.31,0.229 -0.251,0.331 -0.293,0.953 -0.223,1.712 -0.197,2.089 0.504,4.569 1.235,7.148 0.518,1.827 1.052,3.708 1.178,5.248 -0.077,1.686 -0.414,3.397 -0.73,4.927 -0.328,1.587 -0.684,3.33 -0.546,4.4 -0.118,1.665 0.093,3.186 1.102,4.425 1.102,1.353 2.884,2.01 5.448,2.01 4.962,0 11.472,-3.077 15.911,-5.958 0.578,-0.374 1.309,-0.872 2.107,-1.461 1.162,0.406 2.421,0.631 3.738,0.631 1.317,0 2.576,-0.225 3.738,-0.631 0.798,0.589 1.529,1.087 2.107,1.461 4.439,2.881 10.949,5.958 15.911,5.958 2.564,0 4.346,-0.657 5.448,-2.01 C 5.368,28.659 4.752,25.678 4.1,22.522 3.763,20.894 3.416,19.21 3.416,17.701 3.416,16.062 4.029,13.899 4.622,11.808 5.7,8.007 6.718,4.417 4.879,1.985 3.884,0.668 2.242,0 0,0 m -62.073,-20.676 h 72.438 v 54.845 h -72.438 z"
           style="fill:#ffca00;fill-opacity:1;fill-rule:nonzero;stroke:none"
           id="path1264" />
      </g>
      <g
         id="g1266"
         transform="translate(528.954,667.7838)">
        <path
           d="m 0,0 c -1.122,-0.733 -2.303,-1.379 -3.473,-1.979 0.183,-1.44 -0.237,-3.8 -1.032,-7.636 -0.228,-1.099 -0.464,-2.236 -0.701,-3.47 -0.545,-2.838 -1.692,-5.061 -3.182,-6.378 0.159,-0.014 0.319,-0.035 0.473,-0.035 3.022,0 5.556,3.026 6.456,7.711 0.237,1.234 0.473,2.371 0.701,3.47 0.929,4.48 1.352,6.957 0.893,8.293 C 0.09,-0.016 0.045,-0.009 0,0"
           style="fill:#ffffff;fill-opacity:1;fill-rule:nonzero;stroke:none"
           id="path1268" />
      </g>
      <g
         id="g1270"
         transform="translate(545.7888,660.8391)">
        <path
           d="m 0,0 c -1.098,0.782 -2.069,1.554 -2.941,2.297 -1.611,0.584 -3.221,1.25 -4.763,1.98 -1.232,0.585 -2.521,1.257 -3.765,2.003 10e-4,0 0.002,-0.001 0.003,-0.001 -0.103,-0.805 -0.01,-1.914 0.226,-3.393 1.479,-0.693 3.013,-1.329 4.552,-1.887 0.872,-0.743 1.843,-1.515 2.941,-2.297 2.664,-1.897 4.167,-4.372 4.02,-6.62 -0.14,-2.138 -1.775,-3.649 -3.357,-4.621 0.956,0.035 1.98,0.33 3.053,0.9 1.759,0.935 3.89,2.564 4.051,5.019 C 4.167,-4.372 2.664,-1.897 0,0"
           style="fill:#ffffff;fill-opacity:1;fill-rule:nonzero;stroke:none"
           id="path1272" />
      </g>
      <g
         id="g1274"
         transform="translate(554.3591,678.2738)">
        <path
           d="m 0,0 c 0,1.892 0.405,3.851 0.762,5.58 0.425,2.058 0.907,4.391 0.283,5.158 -0.331,0.406 -1.233,0.629 -2.541,0.629 -1.883,0 -4.468,-0.693 -7.238,-1.85 1.302,0.345 2.5,0.552 3.491,0.552 1.308,0 2.21,-0.223 2.541,-0.629 0.625,-0.767 0.142,-3.1 -0.283,-5.158 -0.357,-1.728 -0.762,-3.687 -0.762,-5.58 0,-2.161 0.686,-4.579 1.349,-6.917 0.527,-1.859 1.196,-4.244 1.113,-5.641 0.579,-0.061 1.125,-0.095 1.619,-0.095 0.962,0 1.65,0.18 1.888,0.495 0.714,0.944 -0.204,4.178 -0.873,6.539 C 0.686,-4.579 0,-2.161 0,0"
           style="fill:#ffffff;fill-opacity:1;fill-rule:nonzero;stroke:none"
           id="path1276" />
      </g>
      <g
         id="g1278"
         transform="translate(527.3608,681.5546)">
        <path
           d="m 0,0 c 3.696,0 6.703,-2.584 6.703,-5.761 0,-1.786 -0.95,-3.384 -2.438,-4.441 3.223,0.213 5.816,2.39 6.148,5.14 -0.127,1.574 -0.676,3.04 -1.547,4.309 C 7.636,0.499 5.799,1.298 3.747,1.298 2.128,1.298 0.641,0.802 -0.518,-0.023 -0.347,-0.011 -0.175,0 0,0"
           style="fill:#ffffff;fill-opacity:1;fill-rule:nonzero;stroke:none"
           id="path1280" />
      </g>
      <g
         id="g1282"
         transform="translate(519.4748,682.9891)">
        <path
           d="m 0,0 c 0.202,-0.131 0.399,-0.262 0.592,-0.392 -1.947,-1.728 -3.159,-4.139 -3.159,-6.804 0,-3.04 1.577,-5.749 4.024,-7.491 -0.664,-0.363 -1.382,-0.728 -2.155,-1.095 -1.066,-0.506 -2.175,-0.978 -3.293,-1.412 2.339,0.709 4.781,1.639 7.04,2.71 0.773,0.367 1.491,0.732 2.155,1.095 -0.97,0.69 -1.795,1.537 -2.448,2.492 -0.98,1.002 -1.573,2.293 -1.573,3.701 0,0.21 0.015,0.417 0.041,0.622 -0.018,0.224 -0.044,0.447 -0.044,0.676 0,2.665 1.212,5.075 3.159,6.804 -0.193,0.13 -0.39,0.261 -0.592,0.392 -4.935,3.202 -10.509,5.354 -13.87,5.354 -1.308,0 -2.21,-0.224 -2.54,-0.629 C -12.803,5.851 -12.88,5.592 -12.922,5.285 -9.522,4.95 -4.505,2.923 0,0"
           style="fill:#ffffff;fill-opacity:1;fill-rule:nonzero;stroke:none"
           id="path1284" />
      </g>
      <g
         id="g1286"
         transform="translate(482.3991,698.4906)">
        <path
           d="M 0,0 H 0.185 C 0.124,0.035 0.059,0.062 0,0.101 Z"
           style="fill:#ffca00;fill-opacity:1;fill-rule:nonzero;stroke:none"
           id="path1288" />
      </g>
      <g
         id="g1290"
         transform="translate(484.7324,708.0847)">
        <path
           d="m 0,0 v -6.257 h 7.513 77.725 1.755 V 0 Z"
           style="fill:#ffca00;fill-opacity:1;fill-rule:nonzero;stroke:none"
           id="path1292" />
      </g>
      <g
         id="g1294"
         transform="translate(510.0016,652.9213)">
        <path
           d="M 0,0 C 0.079,-1.216 0.644,-2.228 1.406,-3.055 0.489,-1.665 0.125,-0.294 0.023,0.859 -0.01,0.57 -0.018,0.283 0,0"
           style="fill:#8484dc;fill-opacity:1;fill-rule:nonzero;stroke:none"
           id="path1296" />
      </g>
      <g
         id="g1298"
         transform="translate(523.7485,654.6985)">
        <path
           d="M 0,0 C 0.237,1.234 0.473,2.371 0.701,3.471 1.496,7.307 1.915,9.667 1.733,11.106 1.281,10.875 0.824,10.628 0.382,10.418 -0.389,10.053 -1.177,9.704 -1.974,9.373 -3.103,8.353 -4.413,7.257 -5.98,6.141 -8.644,4.243 -10.147,1.769 -10,-0.479 c 0.16,-2.455 2.292,-4.085 4.051,-5.02 0.967,-0.513 1.893,-0.799 2.767,-0.878 C -1.692,-5.061 -0.545,-2.838 0,0"
           style="fill:#8484dc;fill-opacity:1;fill-rule:nonzero;stroke:none"
           id="path1300" />
      </g>
      <g
         id="g1302"
         transform="translate(531.7785,658.2735)">
        <path
           d="M 0,0 C -0.031,-0.148 -0.062,-0.303 -0.093,-0.452 0.113,-1.446 0.324,-2.468 0.536,-3.575 1.017,-6.076 1.966,-8.097 3.204,-9.444 1.995,-7.715 1.089,-5.528 0.601,-2.985 0.399,-1.936 0.197,-0.953 0,0"
           style="fill:#8484dc;fill-opacity:1;fill-rule:nonzero;stroke:none"
           id="path1304" />
      </g>
      <g
         id="g1306"
         transform="translate(546.0617,652.9211)">
        <path
           d="m 0,0 c 0.147,2.248 -1.356,4.723 -4.02,6.62 -1.098,0.782 -2.069,1.554 -2.94,2.297 -1.54,0.558 -3.074,1.194 -4.552,1.887 0.186,-1.169 0.46,-2.564 0.812,-4.259 0.227,-1.1 0.463,-2.236 0.7,-3.47 0.9,-4.684 3.434,-7.71 6.456,-7.71 0.061,0 0.126,0.011 0.187,0.014 C -1.775,-3.649 -0.14,-2.138 0,0"
           style="fill:#8484dc;fill-opacity:1;fill-rule:nonzero;stroke:none"
           id="path1308" />
      </g>
      <g
         id="g1310"
         transform="translate(551.9611,670.059)">
        <path
           d="m 0,0 c -0.663,2.338 -1.349,4.756 -1.349,6.917 0,1.892 0.405,3.851 0.762,5.58 0.425,2.058 0.908,4.391 0.283,5.158 -0.331,0.406 -1.233,0.629 -2.541,0.629 -0.991,0 -2.189,-0.207 -3.491,-0.553 -2.175,-0.908 -4.461,-2.095 -6.631,-3.503 -0.202,-0.131 -0.399,-0.262 -0.593,-0.392 1.947,-1.728 3.159,-4.139 3.159,-6.804 0,-3.04 -1.577,-5.749 -4.023,-7.491 0.664,-0.363 1.381,-0.728 2.154,-1.095 4.489,-2.128 9.701,-3.698 13.383,-4.087 C 1.196,-4.244 0.527,-1.859 0,0"
           style="fill:#8484dc;fill-opacity:1;fill-rule:nonzero;stroke:none"
           id="path1312" />
      </g>
      <g
         id="g1314"
         transform="translate(537.8103,677.0911)">
        <path
           d="m 0,0 c 0,1.413 -0.597,2.707 -1.583,3.711 0.87,-1.27 1.419,-2.735 1.547,-4.31 C -0.013,-0.402 0,-0.202 0,0"
           style="fill:#8484dc;fill-opacity:1;fill-rule:nonzero;stroke:none"
           id="path1316" />
      </g>
      <g
         id="g1318"
         transform="translate(534.0634,675.7932)">
        <path
           d="m 0,0 c 0,3.177 -3.007,5.761 -6.703,5.761 -0.175,0 -0.346,-0.011 -0.518,-0.022 -1.488,-1.058 -2.437,-2.656 -2.437,-4.441 0,-3.177 3.006,-5.762 6.702,-5.762 0.175,0 0.347,0.012 0.518,0.023 C -0.95,-3.383 0,-1.785 0,0"
           style="fill:#8484dc;fill-opacity:1;fill-rule:nonzero;stroke:none"
           id="path1320" />
      </g>
      <g
         id="g1322"
         transform="translate(522.2312,672.0922)">
        <path
           d="M 0,0 C -0.87,1.273 -1.409,2.745 -1.532,4.323 -1.558,4.118 -1.573,3.911 -1.573,3.701 -1.573,2.293 -0.98,1.002 0,0"
           style="fill:#8484dc;fill-opacity:1;fill-rule:nonzero;stroke:none"
           id="path1324" />
      </g>
      <g
         id="g1326"
         transform="translate(501.8871,663.5204)">
        <path
           d="M 0,0 C 0.067,-0.088 0.177,-0.163 0.31,-0.229 0.013,0.368 -0.157,1.017 -0.222,1.712 -0.292,0.953 -0.25,0.331 0,0"
           style="fill:#8484dc;fill-opacity:1;fill-rule:nonzero;stroke:none"
           id="path1328" />
      </g>
      <g
         id="g1330"
         transform="translate(503.4219,683.0946)">
        <path
           d="M 0,0 C -0.276,1.336 -0.534,2.636 -0.621,3.86 -0.758,2.79 -0.402,1.048 -0.075,-0.539 0.242,-2.07 0.579,-3.78 0.656,-5.466 0.674,-5.244 0.684,-5.028 0.684,-4.821 0.684,-3.312 0.336,-1.628 0,0"
           style="fill:#8484dc;fill-opacity:1;fill-rule:nonzero;stroke:none"
           id="path1332" />
      </g>
      <g
         id="g1334"
         transform="translate(520.9319,668.3019)">
        <path
           d="m 0,0 c -2.447,1.742 -4.024,4.452 -4.024,7.491 0,2.665 1.212,5.076 3.159,6.804 -0.193,0.131 -0.39,0.261 -0.592,0.392 -4.505,2.923 -9.522,4.951 -12.923,5.285 -0.146,-1.068 0.212,-2.822 0.542,-4.42 0.358,-1.729 0.762,-3.688 0.762,-5.58 0,-2.161 -0.685,-4.579 -1.349,-6.917 -0.669,-2.361 -1.586,-5.595 -0.873,-6.539 0.238,-0.315 0.926,-0.495 1.888,-0.495 2.056,0 4.921,0.55 7.962,1.472 1.118,0.435 2.226,0.907 3.293,1.412 C -1.382,-0.728 -0.664,-0.362 0,0"
           style="fill:#8484dc;fill-opacity:1;fill-rule:nonzero;stroke:none"
           id="path1336" />
      </g>
      <g
         id="g1338"
         transform="translate(556.5813,664.8182)">
        <path
           d="m 0,0 c -0.238,-0.315 -0.926,-0.496 -1.888,-0.496 -0.495,0 -1.04,0.035 -1.619,0.096 -3.683,0.389 -8.895,1.959 -13.383,4.087 -0.773,0.366 -1.49,0.732 -2.155,1.094 2.447,1.743 4.024,4.452 4.024,7.492 0,2.665 -1.212,5.075 -3.159,6.804 0.193,0.13 0.391,0.261 0.592,0.392 2.171,1.408 4.457,2.595 6.632,3.503 2.77,1.157 5.355,1.851 7.238,1.851 1.308,0 2.21,-0.224 2.541,-0.629 0.624,-0.767 0.142,-3.1 -0.283,-5.159 -0.357,-1.728 -0.762,-3.687 -0.762,-5.579 0,-2.161 0.685,-4.579 1.349,-6.917 C -0.204,4.177 0.713,0.944 0,0 m -10.824,-15.618 c -1.072,-0.57 -2.096,-0.865 -3.052,-0.9 -0.062,-0.003 -0.126,-0.014 -0.187,-0.014 -3.022,0 -5.557,3.026 -6.457,7.71 -0.237,1.234 -0.472,2.37 -0.7,3.47 -0.352,1.695 -0.625,3.09 -0.812,4.259 -0.236,1.479 -0.33,2.588 -0.227,3.393 -0.001,0 -0.002,0.001 -0.003,0.001 1.244,-0.746 2.534,-1.419 3.766,-2.003 1.541,-0.731 3.151,-1.396 4.763,-1.98 0.872,-0.743 1.842,-1.515 2.941,-2.297 2.663,-1.897 4.166,-4.372 4.019,-6.62 -0.16,-2.455 -2.291,-4.085 -4.051,-5.019 m -17.561,10.267 c -0.228,-1.1 -0.464,-2.237 -0.701,-3.471 -0.9,-4.684 -3.434,-7.711 -6.456,-7.71 -0.155,0 -0.315,0.02 -0.473,0.035 -0.874,0.08 -1.8,0.365 -2.766,0.879 -1.76,0.934 -3.891,2.564 -4.052,5.019 -0.147,2.248 1.356,4.723 4.02,6.62 1.567,1.116 2.877,2.212 4.006,3.232 0.797,0.331 1.585,0.68 2.356,1.045 0.442,0.21 0.899,0.457 1.351,0.689 1.17,0.599 2.35,1.245 3.473,1.979 0.045,-0.009 0.09,-0.017 0.135,-0.025 0.458,-1.335 0.035,-3.812 -0.893,-8.292 m -18.844,30.174 c 3.361,0 8.934,-2.152 13.869,-5.354 0.202,-0.131 0.399,-0.262 0.593,-0.392 -1.947,-1.729 -3.159,-4.139 -3.159,-6.804 0,-0.229 0.026,-0.452 0.043,-0.677 0.124,-1.577 0.663,-3.049 1.533,-4.322 0.652,-0.955 1.478,-1.802 2.447,-2.493 -0.664,-0.362 -1.381,-0.728 -2.154,-1.094 -2.259,-1.071 -4.702,-2.001 -7.041,-2.71 -3.04,-0.923 -5.905,-1.473 -7.962,-1.473 -0.961,0 -1.649,0.181 -1.887,0.496 -0.714,0.944 0.204,4.177 0.873,6.539 0.663,2.338 1.349,4.756 1.349,6.917 0,1.892 -0.405,3.851 -0.762,5.579 -0.33,1.599 -0.688,3.353 -0.542,4.421 0.042,0.307 0.12,0.566 0.259,0.738 0.331,0.405 1.233,0.629 2.541,0.629 m 21.755,-6.789 c 2.052,0 3.889,-0.798 5.12,-2.05 0.986,-1.004 1.583,-2.298 1.583,-3.711 0,-0.202 -0.013,-0.402 -0.036,-0.599 -0.332,-2.75 -2.925,-4.926 -6.148,-5.14 -0.172,-0.011 -0.344,-0.023 -0.519,-0.023 -3.695,0 -6.702,2.585 -6.702,5.762 0,1.785 0.949,3.383 2.437,4.441 1.16,0.824 2.647,1.32 4.265,1.32 M 2.734,7.562 c -0.593,2.091 -1.206,4.254 -1.206,5.894 0,1.509 0.348,3.192 0.684,4.82 0.652,3.156 1.268,6.137 -0.482,8.286 -1.102,1.353 -2.884,2.011 -5.448,2.011 -4.961,0 -11.472,-3.078 -15.911,-5.958 -0.578,-0.375 -1.309,-0.873 -2.107,-1.462 -1.161,0.406 -2.421,0.631 -3.738,0.631 -1.316,0 -2.576,-0.225 -3.737,-0.631 -0.798,0.589 -1.53,1.087 -2.107,1.462 -4.439,2.88 -10.95,5.958 -15.911,5.958 -2.564,0 -4.346,-0.658 -5.448,-2.011 -1.009,-1.239 -1.22,-2.759 -1.103,-4.425 0.086,-1.224 0.344,-2.524 0.621,-3.861 0.336,-1.628 0.684,-3.311 0.684,-4.82 0,-0.208 -0.01,-0.423 -0.028,-0.646 -0.127,-1.539 -0.66,-3.421 -1.179,-5.248 -0.731,-2.579 -1.432,-5.059 -1.235,-7.148 0.066,-0.695 0.236,-1.344 0.533,-1.941 0.126,-0.254 0.269,-0.501 0.445,-0.734 0.996,-1.317 2.637,-1.985 4.879,-1.985 1.461,0 3.221,0.221 5.136,0.624 -0.002,-0.001 -0.003,-0.001 -0.005,-0.001 -1.848,-2.213 -2.807,-4.753 -2.646,-7.221 0.004,-0.063 0.012,-0.129 0.018,-0.194 0.102,-1.153 0.466,-2.524 1.383,-3.914 0.908,-1.375 2.353,-2.767 4.633,-3.978 1.689,-0.897 3.371,-1.352 4.999,-1.352 v 0 c 4.904,0 8.884,4.22 10.139,10.753 0.17,0.885 0.34,1.719 0.507,2.532 0.031,0.15 0.063,0.304 0.093,0.452 0.198,-0.952 0.399,-1.936 0.601,-2.984 0.488,-2.544 1.394,-4.73 2.603,-6.46 1.895,-2.713 4.541,-4.293 7.536,-4.293 1.627,0 3.309,0.455 4.998,1.352 4.714,2.504 5.884,5.78 6.034,8.086 0.154,2.359 -0.718,4.783 -2.409,6.925 1.302,-0.213 2.504,-0.327 3.552,-0.327 2.242,0 3.884,0.668 4.879,1.985 1.839,2.433 0.821,6.022 -0.257,9.823"
           style="fill:#000000;fill-opacity:1;fill-rule:nonzero;stroke:none"
           id="path1340" />
      </g>
    </g>
  </g>
</svg>
