<?xml version="1.0" encoding="UTF-8" standalone="no"?>
<svg
   xmlns:dc="http://purl.org/dc/elements/1.1/"
   xmlns:cc="http://creativecommons.org/ns#"
   xmlns:rdf="http://www.w3.org/1999/02/22-rdf-syntax-ns#"
   xmlns:svg="http://www.w3.org/2000/svg"
   xmlns="http://www.w3.org/2000/svg"
   xmlns:sodipodi="http://sodipodi.sourceforge.net/DTD/sodipodi-0.dtd"
   xmlns:inkscape="http://www.inkscape.org/namespaces/inkscape"
   width="33.602257mm"
   height="33.767536mm"
   viewBox="0 0 33.602257 33.767536"
   version="1.1"
   id="svg3029"
   inkscape:version="1.0.1 (3bc2e813f5, 2020-09-07)"
   sodipodi:docname="gift1.svg">
  <defs
     id="defs3023" />
  <sodipodi:namedview
     id="base"
     pagecolor="#ffffff"
     bordercolor="#666666"
     borderopacity="1.0"
     inkscape:pageopacity="0.0"
     inkscape:pageshadow="2"
     inkscape:zoom="0.35"
     inkscape:cx="126.35747"
     inkscape:cy="546.66981"
     inkscape:document-units="mm"
     inkscape:current-layer="layer1"
     inkscape:document-rotation="0"
     showgrid="false"
     fit-margin-top="0"
     fit-margin-left="0"
     fit-margin-right="0"
     fit-margin-bottom="0"
     inkscape:window-width="1267"
     inkscape:window-height="1040"
     inkscape:window-x="104"
     inkscape:window-y="0"
     inkscape:window-maximized="0" />
  <metadata
     id="metadata3026">
    <rdf:RDF>
      <cc:Work
         rdf:about="">
        <dc:format>image/svg+xml</dc:format>
        <dc:type
           rdf:resource="http://purl.org/dc/dcmitype/StillImage" />
        <dc:title></dc:title>
      </cc:Work>
    </rdf:RDF>
  </metadata>
  <g
     inkscape:label="Layer 1"
     inkscape:groupmode="layer"
     id="layer1"
     transform="translate(-72.401252,-3.5269458)">
    <g
       id="g3127">
      <path
         d="m 89.954943,20.737139 v 15.234355 h 0.857603 V 19.856253 h -2.172759 v 0.880886 z"
         style="fill:#ffffff;fill-opacity:1;fill-rule:nonzero;stroke:none;stroke-width:0.352778"
         id="path146" />
      <path
         d="m 89.954943,13.014587 v 5.518855 h 0.857603 v -5.173838 c -0.226484,-0.209198 -0.525992,-0.340078 -0.857603,-0.345017"
         style="fill:#ffffff;fill-opacity:1;fill-rule:nonzero;stroke:none;stroke-width:0.352778"
         id="path150" />
      <path
         d="m 72.401252,18.919523 h 0.124883 c -0.08008,-0.186267 -0.124883,-0.391231 -0.124883,-0.606425 z"
         style="fill:#5ac8a8;fill-opacity:1;fill-rule:nonzero;stroke:none;stroke-width:0.352778"
         id="path402" />
      <path
         d="m 89.954943,12.792162 h -2.362906 v 5.741105 h 2.362906 v -5.518855 z"
         style="fill:#ff3e37;fill-opacity:1;fill-rule:nonzero;stroke:none;stroke-width:0.352778"
         id="path776" />
      <path
         d="M 97.380422,5.6099946 C 97.133478,5.3545835 96.830794,5.2360502 96.427216,5.2360502 c -0.36195,0 -0.80398,0.1044222 -1.2954,0.2899833 -0.722488,0.3707694 -1.514122,0.8784166 -2.327627,1.5102416 -1.66617,1.2939889 -2.650067,2.4930805 -2.780595,2.8596166 0.05115,0.04057 0.2413,0.1548693 0.813153,0.2296583 0.470606,0.06174 5.311422,-0.102658 7.301794,-0.1894416 0.0014,-0.039511 0.0025,-0.075847 0.0039,-0.1181806 0.03316,-0.9891888 0.110772,-3.3055277 -0.762,-4.2079332"
         style="fill:#ff3e37;fill-opacity:1;fill-rule:nonzero;stroke:none;stroke-width:0.352778"
         id="path780" />
      <path
         d="M 84.7429,7.4224964 C 82.980069,6.0533659 81.304728,5.2359798 80.261917,5.2359798 c -0.03986,0 -0.07444,0.00635 -0.112536,0.00882 -0.85337,0.9158111 -0.777523,3.2049861 -0.744714,4.1871194 0.006,0.1792111 0.01129,0.3344333 0.01129,0.4575527 0.03634,0.03175 6.916561,0.2896311 8.032397,0.2441231 C 87.171775,9.6555797 86.232328,8.5792547 84.7429,7.4224964"
         style="fill:#ff3e37;fill-opacity:1;fill-rule:nonzero;stroke:none;stroke-width:0.352778"
         id="path784" />
      <path
         d="m 89.954943,20.737139 h -1.315156 -1.04775 v 15.234355 h 2.362906 z"
         style="fill:#ff3e37;fill-opacity:1;fill-rule:nonzero;stroke:none;stroke-width:0.352778"
         id="path788" />
      <path
         d="m 92.135499,35.971813 h 8.289921 V 21.180899 h -8.289921 z"
         style="fill:#5ac8a8;fill-opacity:1;fill-rule:nonzero;stroke:none;stroke-width:0.352777"
         id="path790" />
      <path
         d="M 76.506738,35.971813 H 84.94624 V 21.180899 h -8.439502 z"
         style="fill:#5ac8a8;fill-opacity:1;fill-rule:nonzero;stroke:none;stroke-width:0.352777"
         id="path792" />
      <path
         d="M 103.20327,12.792162 H 92.135573 v 5.741105 h 9.982907 1.30528 v -5.545666 c 0,-0.105833 -0.1009,-0.195439 -0.22049,-0.195439"
         style="fill:#5ac8a8;fill-opacity:1;fill-rule:nonzero;stroke:none;stroke-width:0.352778"
         id="path796" />
      <path
         d="M 84.725755,12.792162 H 73.724027 v 5.520619 c 0,0.119592 0.101248,0.220486 0.220487,0.220486 h 2.341738 8.659989 v -5.545666 c 0,-0.105833 -0.100894,-0.195439 -0.220486,-0.195439"
         style="fill:#5ac8a8;fill-opacity:1;fill-rule:nonzero;stroke:none;stroke-width:0.352778"
         id="path800" />
      <path
         d="m 104.68059,18.312921 c 0,0.119592 -0.10089,0.220486 -0.22049,0.220486 h -1.03646 -1.30527 -9.98291 v -5.741105 -1.171223 h 12.32464 c 0.1196,0 0.22049,0.100895 0.22049,0.220487 z m -2.78271,17.658644 h -1.4725 -8.28992 V 21.180651 19.856324 h 9.76242 z M 86.269118,18.533407 h -1.322916 -8.659989 -2.341386 c -0.119592,0 -0.220486,-0.100894 -0.220486,-0.220486 v -5.520619 -0.950736 c 0,-0.119592 0.100894,-0.220487 0.220486,-0.220487 h 12.324291 z m 0,17.438158 H 84.946202 76.506699 V 21.180651 19.856324 h 9.762419 z M 81.119621,4.849863 c 1.042811,0 2.718153,0.8173861 4.480983,2.1865166 1.66617,1.2939888 2.650067,2.4927277 2.780595,2.8596166 -0.05115,0.040217 -0.2413,0.1545168 -0.813506,0.2296588 -0.0254,0.0035 -0.06879,0.006 -0.119239,0.0078 -1.115836,0.04586 -7.996061,-0.2120198 -8.032397,-0.2441226 -3.53e-4,-0.1231194 -0.0053,-0.2779889 -0.01129,-0.4575528 -0.03316,-0.9821333 -0.108655,-3.2713082 0.744361,-4.1867665 0.0063,-0.0067 0.01129,-0.014817 0.01729,-0.021167 0.246944,-0.2550583 0.54998,-0.3739444 0.953205,-0.3739444 m 8.835319,13.6835443 h -2.362905 v -5.741105 -1.132417 h 3.220508 v 1.700036 5.173486 z M 87.592035,35.971565 V 20.73721 19.856324 h 1.04775 2.172758 V 35.971565 H 89.95494 Z M 98.238162,5.2238074 c 0.872773,0.9024055 0.795161,3.2187444 0.762,4.2079332 -0.006,0.1795639 -0.01129,0.3344334 -0.01129,0.4575528 -0.0078,0.00706 -0.335138,0.024342 -0.850194,0.046919 -1.990725,0.086783 -6.831541,0.2511786 -7.301794,0.1894426 -0.572206,-0.07514 -0.762,-0.1894426 -0.813506,-0.2296593 0.130881,-0.3668889 1.114778,-1.5656278 2.780595,-2.8596166 0.813505,-0.631825 1.605138,-1.1394722 2.32798,-1.5102417 0.843139,-0.4325055 1.591381,-0.6762749 2.153003,-0.6762749 0.403578,0 0.706261,0.1188861 0.953205,0.3739444 m 6.221939,5.0743561 h -4.20758 c 0.043,-0.138995 0.0593,-0.276931 0.0593,-0.4053423 0,-0.1016 0.005,-0.24765 0.0106,-0.4166306 0.0452,-1.3514916 0.12947,-3.8664443 -1.13312,-5.1720748 -0.498828,-0.5157611 -1.139472,-0.7771695 -1.904294,-0.7771695 -1.9685,0 -4.461581,1.8055167 -5.44195,2.5819805 C 91.463418,6.4094935 89.992688,7.6064685 89.202465,8.7110157 88.41189,7.6064685 86.94116,6.4094935 86.561924,6.1089268 85.581202,5.332463 83.088121,3.5269463 81.119621,3.5269463 c -0.764469,0 -1.405114,0.2614084 -1.903942,0.7771695 -1.262591,1.3056305 -1.17863,3.8205832 -1.133122,5.1720748 0.0056,0.1689806 0.01058,0.3150306 0.01058,0.4166306 0,0.1284108 0.01623,0.2663468 0.05927,0.4053418 h -4.20758 c -0.851253,0 -1.543403,0.692503 -1.543403,1.543403 v 0.950736 5.520619 c 0,0.215194 0.0448,0.420158 0.124883,0.606425 0.236009,0.550333 0.782814,0.936978 1.41852,0.936978 h 1.238955 v 16.335727 c 0,0.607836 0.494595,1.102431 1.102431,1.102431 h 9.982905 5.866342 9.98291 c 0.60783,0 1.10243,-0.494595 1.10243,-1.102431 V 19.856324 h 1.2393 c 0.8509,0 1.54341,-0.692503 1.54341,-1.543403 v -6.471355 c 0,-0.8509 -0.69251,-1.543403 -1.54341,-1.543403"
         style="fill:#000000;fill-opacity:1;fill-rule:nonzero;stroke:none;stroke-width:0.352778"
         id="path804" />
    </g>
  </g>
</svg>
