<?xml version="1.0" encoding="UTF-8" standalone="no"?>
<svg
   xmlns:dc="http://purl.org/dc/elements/1.1/"
   xmlns:cc="http://creativecommons.org/ns#"
   xmlns:rdf="http://www.w3.org/1999/02/22-rdf-syntax-ns#"
   xmlns:svg="http://www.w3.org/2000/svg"
   xmlns="http://www.w3.org/2000/svg"
   xmlns:sodipodi="http://sodipodi.sourceforge.net/DTD/sodipodi-0.dtd"
   xmlns:inkscape="http://www.inkscape.org/namespaces/inkscape"
   width="34.831795mm"
   height="28.376244mm"
   viewBox="0 0 34.831795 28.376244"
   version="1.1"
   id="svg4274"
   inkscape:version="1.0.1 (3bc2e813f5, 2020-09-07)"
   sodipodi:docname="gift10.svg">
  <defs
     id="defs4268" />
  <sodipodi:namedview
     id="base"
     pagecolor="#ffffff"
     bordercolor="#666666"
     borderopacity="1.0"
     inkscape:pageopacity="0.0"
     inkscape:pageshadow="2"
     inkscape:zoom="0.35"
     inkscape:cx="-739.89042"
     inkscape:cy="553.6244"
     inkscape:document-units="mm"
     inkscape:current-layer="layer1"
     inkscape:document-rotation="0"
     showgrid="false"
     fit-margin-top="0"
     fit-margin-left="0"
     fit-margin-right="0"
     fit-margin-bottom="0"
     inkscape:window-width="1267"
     inkscape:window-height="1040"
     inkscape:window-x="26"
     inkscape:window-y="0"
     inkscape:window-maximized="0" />
  <metadata
     id="metadata4271">
    <rdf:RDF>
      <cc:Work
         rdf:about="">
        <dc:format>image/svg+xml</dc:format>
        <dc:type
           rdf:resource="http://purl.org/dc/dcmitype/StillImage" />
        <dc:title></dc:title>
      </cc:Work>
    </rdf:RDF>
  </metadata>
  <g
     inkscape:label="Layer 1"
     inkscape:groupmode="layer"
     id="layer1"
     transform="translate(-301.59601,-1.6868765)">
    <g
       id="g4239"
       transform="matrix(0.35277777,0,0,-0.35277777,84.729344,207.90986)">
      <g
         id="g184"
         transform="translate(708.037,555.5126)">
        <path
           d="m 0,0 c -0.653,12.177 -10.79,22.085 -22.598,22.085 -8.458,0 -14.778,-6.895 -18.554,-11.015 -2.101,-2.292 -3.061,-3.339 -4.425,-3.339 -1.291,0 -2.136,0.963 -3.989,3.072 -3.462,3.943 -9.905,11.282 -18.989,11.282 -7.939,0 -15.118,-4.482 -19.172,-11.117 -1.009,-2.412 -1.633,-5.022 -1.779,-7.747 -0.11,-2.061 0.01,-4.033 0.362,-5.972 h 12.78 c -0.062,0.231 -0.124,0.461 -0.194,0.671 l -1.716,5.203 c -0.826,2.503 -0.291,4.008 0.303,4.83 0.252,0.348 0.573,0.616 0.925,0.843 0.015,1.101 0.357,1.871 0.724,2.378 0.674,0.932 1.74,1.445 3.003,1.445 0.901,0 1.897,-0.26 2.96,-0.772 l 15.013,-7.222 c 1.375,-0.661 2.638,-1.673 3.69,-2.877 1.913,2.003 4.669,3.262 7.728,3.262 3.058,0 5.814,-1.259 7.727,-3.262 1.052,1.204 2.316,2.216 3.691,2.877 l 15.012,7.222 c 1.064,0.512 2.06,0.772 2.96,0.772 1.263,0 2.33,-0.513 3.003,-1.445 0.594,-0.822 1.13,-2.327 0.304,-4.83 l -1.717,-5.202 c -0.357,-1.083 -0.614,-2.449 -0.763,-3.893 H 0.001 C 0.046,-1.848 0.05,-0.934 0,0"
           style="fill:#ff3e37;fill-opacity:1;fill-rule:nonzero;stroke:none"
           id="path186" />
      </g>
      <g
         id="g458"
         transform="translate(695.2654,542.6232)">
        <path
           d="m 0,0 c 0.454,-1.978 0.158,-3.752 -0.833,-4.996 -0.182,-0.229 -0.396,-0.425 -0.617,-0.609 -0.003,-1.26 -0.347,-2.377 -1.032,-3.237 -0.863,-1.083 -2.181,-1.68 -3.711,-1.68 -0.762,0 -1.572,0.146 -2.406,0.435 l -12.314,4.258 c -1.678,0.58 -3.203,1.642 -4.411,2.967 -1.9,-1.859 -4.551,-3.016 -7.482,-3.016 -2.93,0 -5.582,1.157 -7.481,3.016 -1.209,-1.325 -2.734,-2.387 -4.411,-2.967 l -12.314,-4.258 c -0.835,-0.289 -1.644,-0.435 -2.406,-0.435 v 0 c -1.531,0 -2.849,0.597 -3.712,1.68 -0.991,1.243 -1.286,3.017 -0.832,4.996 l 0.69,3.01 c 0.221,0.965 0.347,2.136 0.386,3.378 h -10.809 c 0.58,-1.115 1.238,-2.241 1.994,-3.389 2.964,-4.498 11.367,-12.825 20.909,-20.719 11.596,-9.595 18.122,-13.078 19.679,-13.078 1.966,0 9.353,4.48 19.666,13.042 9.466,7.86 17.838,16.2 20.833,20.754 0.756,1.149 1.413,2.274 1.993,3.39 H -0.583 Z"
           style="fill:#ff3e37;fill-opacity:1;fill-rule:nonzero;stroke:none"
           id="path460" />
      </g>
      <g
         id="g462"
         transform="translate(642.0825,518.1675)">
        <path
           d="m 0,0 c -5.855,4.844 -13.287,11.568 -18.15,17.097 3.901,-4.71 11.002,-11.527 18.892,-18.054 11.596,-9.595 18.122,-13.078 19.679,-13.078 0.212,0 0.499,0.063 0.834,0.166 -1.366,0.225 -3.742,1.109 -8.461,4.224 C 9.12,-7.22 4.696,-3.885 0,0"
           style="fill:#ff3e37;fill-opacity:1;fill-rule:nonzero;stroke:none"
           id="path464" />
      </g>
      <g
         id="g466"
         transform="translate(636.6074,541.7849)">
        <path
           d="m 0,0 c -0.221,-0.963 -0.088,-1.572 0.11,-1.821 0.141,-0.177 0.403,-0.266 0.779,-0.266 v 0 c 0.344,0 0.741,0.077 1.18,0.229 L 14.383,2.4 c 1.326,0.458 2.56,1.465 3.423,2.652 -0.487,1.151 -0.758,2.406 -0.758,3.72 0,0.066 0.007,0.129 0.008,0.194 -1.428,0.979 -3.275,1.693 -4.247,2.161 l -13.2,6.35 0.473,-1.432 C 1.272,12.438 1.54,6.713 0.69,3.011 Z"
           style="fill:#8484dc;fill-opacity:1;fill-rule:nonzero;stroke:none"
           id="path468" />
      </g>
      <g
         id="g470"
         transform="translate(635.8472,535.8513)">
        <path
           d="M 0,0 V 0 C 0.281,0 0.605,0.065 0.951,0.166 0.236,0.257 -0.412,0.486 -0.977,0.843 -0.942,0.579 -0.869,0.38 -0.779,0.266 -0.638,0.09 -0.376,0 0,0"
           style="fill:#8484dc;fill-opacity:1;fill-rule:nonzero;stroke:none"
           id="path472" />
      </g>
      <g
         id="g474"
         transform="translate(662.4595,540.4955)">
        <path
           d="M 0,0 C 0.434,0 0.858,0.042 1.27,0.115 -1.47,0.21 -3.943,1.307 -5.753,3.041 -4.582,1.224 -2.445,0 0,0"
           style="fill:#8484dc;fill-opacity:1;fill-rule:nonzero;stroke:none"
           id="path476" />
      </g>
      <g
         id="g478"
         transform="translate(662.4595,552.9257)">
        <path
           d="m 0,0 c -2.01,0 -3.812,-0.829 -5.042,-2.132 -0.003,-0.079 -0.013,-0.157 -0.013,-0.237 0,-3.427 3.008,-6.215 6.704,-6.215 2.01,0 3.812,0.829 5.042,2.132 0.003,0.08 0.013,0.157 0.013,0.237 C 6.704,-2.788 3.696,0 0,0"
           style="fill:#8484dc;fill-opacity:1;fill-rule:nonzero;stroke:none"
           id="path480" />
      </g>
      <g
         id="g482"
         transform="translate(689.8787,554.608)">
        <path
           d="M 0,0 1.717,5.203 C 1.958,5.932 1.965,6.354 1.944,6.551 1.772,6.547 1.347,6.493 0.636,6.151 l -15.012,-7.222 c -0.417,-0.201 -0.818,-0.474 -1.209,-0.776 0.17,-0.71 0.269,-1.445 0.269,-2.204 0,-1.315 -0.271,-2.569 -0.759,-3.72 0.863,-1.187 2.098,-2.194 3.423,-2.652 l 12.314,-4.258 c 0.04,-0.014 0.075,-0.019 0.115,-0.032 l -0.385,1.679 C -1.458,-9.332 -1.19,-3.607 0,0"
           style="fill:#8484dc;fill-opacity:1;fill-rule:nonzero;stroke:none"
           id="path484" />
      </g>
      <g
         id="g486"
         transform="translate(641.1311,580.8191)">
        <path
           d="m 0,0 c 9.083,0 15.527,-7.339 18.989,-11.281 1.853,-2.11 2.698,-3.073 3.989,-3.073 1.364,0 2.324,1.047 4.425,3.339 C 31.179,-6.895 37.499,0 45.957,0 c 11.808,0 21.945,-9.907 22.598,-22.085 0.11,-2.06 -0.01,-4.033 -0.364,-5.972 H 66.907 53.195 c 0.149,1.444 0.406,2.81 0.763,3.892 l 1.717,5.203 c 0.825,2.503 0.29,4.008 -0.304,4.83 -0.673,0.931 -1.74,1.444 -3.003,1.444 -0.9,0 -1.897,-0.26 -2.96,-0.771 l -15.012,-7.222 c -1.375,-0.661 -2.639,-1.674 -3.691,-2.877 -1.913,2.002 -4.669,3.261 -7.727,3.261 -3.059,0 -5.815,-1.259 -7.728,-3.261 -1.052,1.203 -2.316,2.216 -3.69,2.877 l -15.013,7.222 c -1.063,0.511 -2.059,0.771 -2.96,0.771 -1.263,0 -2.329,-0.513 -3.003,-1.444 -0.367,-0.507 -0.709,-1.277 -0.724,-2.379 -0.01,-0.683 0.104,-1.493 0.421,-2.451 l 1.716,-5.203 c 0.357,-1.082 0.614,-2.448 0.763,-3.892 h -2.218 -12.78 c -0.353,1.938 -0.472,3.911 -0.362,5.972 0.146,2.725 0.77,5.334 1.779,7.746 C -17.323,-5.971 -9.167,0 0,0 m -4.442,-22.99 -0.472,1.433 -1.244,3.77 c -0.241,0.73 -0.249,1.151 -0.228,1.349 0.172,-0.005 0.597,-0.059 1.308,-0.401 l 15.012,-7.222 c 1.215,-0.584 2.355,-1.653 3.192,-2.872 -0.367,-0.983 -0.571,-2.038 -0.593,-3.135 -0.002,-0.065 -0.009,-0.129 -0.009,-0.194 0,-1.315 0.271,-2.569 0.758,-3.72 -0.863,-1.187 -2.097,-2.194 -3.423,-2.652 l -12.314,-4.258 c -0.439,-0.152 -0.836,-0.229 -1.18,-0.229 v 0 c -0.376,0 -0.638,0.089 -0.779,0.266 -0.198,0.249 -0.331,0.858 -0.11,1.821 l 0.691,3.011 c 0.849,3.701 0.582,9.426 -0.609,13.033 m 27.42,-13.487 c -3.697,0 -6.704,2.788 -6.704,6.215 0,0.08 0.01,0.157 0.013,0.237 0.135,3.317 3.08,5.978 6.691,5.978 3.696,0 6.703,-2.788 6.703,-6.215 0,-1.563 -0.63,-2.99 -1.662,-4.083 -1.23,-1.303 -3.031,-2.132 -5.041,-2.132 m 26.81,0.454 0.691,-3.011 c 0.221,-0.963 0.088,-1.572 -0.11,-1.821 -0.141,-0.177 -0.403,-0.266 -0.779,-0.266 -0.312,0 -0.674,0.072 -1.066,0.197 -0.039,0.013 -0.074,0.018 -0.114,0.032 l -12.314,4.258 c -1.326,0.458 -2.56,1.465 -3.423,2.652 0.487,1.151 0.758,2.405 0.758,3.72 0,0.758 -0.098,1.494 -0.268,2.204 -0.092,0.383 -0.198,0.76 -0.334,1.125 0.838,1.219 1.977,2.288 3.192,2.872 l 15.012,7.222 c 0.711,0.342 1.136,0.396 1.308,0.401 0.021,-0.198 0.013,-0.619 -0.227,-1.349 l -1.717,-5.203 c -1.19,-3.607 -1.458,-9.332 -0.609,-13.033 m 15.725,0.369 c -0.58,-1.115 -1.237,-2.241 -1.992,-3.39 C 60.526,-43.598 52.153,-51.938 42.687,-59.797 32.374,-68.36 24.988,-72.84 23.022,-72.84 c -1.557,0 -8.083,3.483 -19.68,13.078 -9.542,7.894 -17.945,16.221 -20.909,20.719 -0.756,1.148 -1.413,2.274 -1.994,3.389 -0.672,1.292 -1.239,2.57 -1.685,3.847 h 14.143 c -0.038,-1.242 -0.164,-2.413 -0.386,-3.378 l -0.69,-3.011 c -0.454,-1.978 -0.158,-3.752 0.832,-4.995 0.304,-0.381 0.68,-0.678 1.086,-0.934 0.565,-0.357 1.214,-0.586 1.928,-0.677 0.23,-0.029 0.456,-0.069 0.698,-0.069 v 0 c 0.762,0 1.572,0.146 2.406,0.434 l 12.314,4.258 c 1.678,0.581 3.202,1.643 4.411,2.967 0.025,-0.024 0.054,-0.046 0.079,-0.07 1.811,-1.735 4.283,-2.832 7.023,-2.926 0.127,-0.005 0.251,-0.019 0.38,-0.019 2.93,0 5.581,1.157 7.481,3.015 1.209,-1.324 2.734,-2.386 4.411,-2.967 l 12.314,-4.258 c 0.835,-0.288 1.644,-0.434 2.406,-0.434 1.206,0 2.27,0.382 3.094,1.07 0.221,0.184 0.435,0.38 0.618,0.609 0.99,1.244 1.286,3.018 0.832,4.996 l -0.583,2.542 -0.107,0.469 c -0.222,0.965 -0.348,2.136 -0.386,3.378 h 14.14 c -0.447,-1.277 -1.013,-2.555 -1.685,-3.847 m -82.712,-9.901 c 4.864,-5.528 12.295,-12.252 18.15,-17.097 4.696,-3.885 9.12,-7.22 12.795,-9.645 4.718,-3.114 7.095,-3.999 8.461,-4.223 0.321,-0.053 0.588,-0.07 0.815,-0.07 4.62,0 15.804,8.713 22.061,13.907 7.499,6.227 17.648,15.614 21.571,21.578 2.873,4.369 6.111,10.501 5.646,19.22 -0.366,6.833 -3.26,13.249 -8.147,18.066 C 59.201,1.062 52.739,3.75 45.957,3.75 35.849,3.75 28.557,-4.206 24.639,-8.481 24.112,-9.056 23.503,-9.72 23.038,-10.183 22.667,-9.787 22.209,-9.265 21.807,-8.807 18.228,-4.731 10.781,3.75 0,3.75 c -6.783,0 -13.245,-2.688 -18.197,-7.569 -4.888,-4.817 -7.781,-11.233 -8.147,-18.066 -0.364,-6.814 1.377,-12.742 5.646,-19.221 0.876,-1.329 2.084,-2.841 3.499,-4.449"
           style="fill:#000000;fill-opacity:1;fill-rule:nonzero;stroke:none"
           id="path488" />
      </g>
    </g>
  </g>
</svg>
