<?xml version="1.0" encoding="UTF-8" standalone="no"?>
<svg
   xmlns:dc="http://purl.org/dc/elements/1.1/"
   xmlns:cc="http://creativecommons.org/ns#"
   xmlns:rdf="http://www.w3.org/1999/02/22-rdf-syntax-ns#"
   xmlns:svg="http://www.w3.org/2000/svg"
   xmlns="http://www.w3.org/2000/svg"
   xmlns:sodipodi="http://sodipodi.sourceforge.net/DTD/sodipodi-0.dtd"
   xmlns:inkscape="http://www.inkscape.org/namespaces/inkscape"
   width="35.365971mm"
   height="30.440201mm"
   viewBox="0 0 35.365971 30.440201"
   version="1.1"
   id="svg3601"
   inkscape:version="0.92.4 (5da689c313, 2019-01-14)"
   sodipodi:docname="gift5.svg">
  <defs
     id="defs3595" />
  <sodipodi:namedview
     id="base"
     pagecolor="#ffffff"
     bordercolor="#666666"
     borderopacity="1.0"
     inkscape:pageopacity="0.0"
     inkscape:pageshadow="2"
     inkscape:zoom="3.959798"
     inkscape:cx="48.450843"
     inkscape:cy="51.787806"
     inkscape:document-units="mm"
     inkscape:current-layer="layer1"
     inkscape:document-rotation="0"
     showgrid="false"
     fit-margin-top="0"
     fit-margin-left="0"
     fit-margin-right="0"
     fit-margin-bottom="0"
     inkscape:window-width="1600"
     inkscape:window-height="848"
     inkscape:window-x="-8"
     inkscape:window-y="-8"
     inkscape:window-maximized="1" />
  <metadata
     id="metadata3598">
    <rdf:RDF>
      <cc:Work
         rdf:about="">
        <dc:format>image/svg+xml</dc:format>
        <dc:type
           rdf:resource="http://purl.org/dc/dcmitype/StillImage" />
        <dc:title></dc:title>
      </cc:Work>
    </rdf:RDF>
  </metadata>
  <g
     inkscape:label="Layer 1"
     inkscape:groupmode="layer"
     id="layer1"
     transform="translate(-156.94201,4.6367704)">
    <ellipse
       style="opacity:1;fill:#ffffff;fill-opacity:1;fill-rule:nonzero;stroke:none;stroke-width:1.97601366;stroke-miterlimit:4;stroke-dasharray:none;stroke-dashoffset:0;stroke-opacity:1;paint-order:fill markers stroke"
       id="path1022"
       cx="174.75751"
       cy="0.35247028"
       rx="2.8928373"
       ry="2.2206101" />
    <rect
       style="opacity:1;fill:#ffffff;fill-opacity:1;fill-rule:nonzero;stroke:none;stroke-width:0.60994101;stroke-miterlimit:4;stroke-dasharray:none;stroke-dashoffset:0;stroke-opacity:1;paint-order:fill markers stroke"
       id="rect840-6"
       width="33.314728"
       height="7.4564824"
       x="157.95625"
       y="-0.3991392" />
    <path
       style="fill:#ffffff;stroke:none;stroke-width:0.4050349px;stroke-linecap:butt;stroke-linejoin:miter;stroke-opacity:1"
       d="m 177.99646,5.0236337 -7.20371,-7.419286 -6.75386,-1.63377 -2.75559,2.8365331 c 0.0475,2.9389401 0.48662,4.1437381 0.14975,5.665311 z"
       id="path923"
       inkscape:connector-curvature="0"
       sodipodi:nodetypes="cccccc" />
    <path
       style="fill:#ffffff;stroke:none;stroke-width:0.40759534px;stroke-linecap:butt;stroke-linejoin:miter;stroke-opacity:1"
       d="m 170.25653,4.8270938 7.53323,-7.184718 7.06282,-1.582118 2.88164,2.746853 c -0.0497,2.8460231 -0.50887,4.0127312 -0.15657,5.4861981 z"
       id="path923-7"
       inkscape:connector-curvature="0"
       sodipodi:nodetypes="cccccc" />
    <rect
       style="opacity:1;fill:#ffffff;fill-opacity:1;fill-rule:nonzero;stroke:none;stroke-width:1.02655602;stroke-miterlimit:4;stroke-dasharray:none;stroke-dashoffset:0;stroke-opacity:1;paint-order:fill markers stroke"
       id="rect840"
       width="28.293915"
       height="24.869495"
       x="160.29742"
       y="0.13002746" />
    <g
       id="g3556"
       transform="matrix(0.35277777,0,0,-0.35277777,-60.635161,250.06006)">
      <g
         id="g1198"
         transform="translate(678.0505,687.1365)">
        <path
           inkscape:connector-curvature="0"
           d="M 0,0 C -1.803,1.046 -3.433,2.144 -4.776,3.16 -5.728,2.391 -6.819,1.794 -8.001,1.394 c 1.001,-2.462 2.529,-5.333 4.135,-8.34 1.572,-2.944 3.303,-6.19 4.764,-9.488 0.379,1.277 1.149,2.331 2.199,3.005 0.669,2.306 2.644,3.877 5.124,3.877 0.294,0 0.591,-0.029 0.888,-0.074 -0.893,1.286 -2.15,2.868 -3.91,4.74 C 3.497,-3.075 1.725,-1.421 0,0"
           style="fill:#5ac8a8;fill-opacity:1;fill-rule:nonzero;stroke:none"
           id="path1200" />
      </g>
      <g
         id="g1202"
         transform="translate(662.3135,687.4541)">
        <path
           inkscape:connector-curvature="0"
           d="m 0,0 c 0.055,0.182 0.102,0.353 0.146,0.52 -2.487,0.028 -4.766,0.928 -6.551,2.407 -2.951,-1.774 -6.46,-4.667 -9.716,-8.131 -0.9,-0.958 -1.664,-1.838 -2.324,-2.646 -0.621,-0.993 -0.983,-1.753 -1.126,-2.228 0.543,-0.106 1.103,-0.16 1.671,-0.16 0.967,0 1.614,0.16 1.62,0.162 0.51,0.136 1.039,0.206 1.558,0.206 2.951,0 5.211,-2.21 5.374,-5.256 0.062,-1.145 0.184,-2.306 0.334,-3.357 1.324,2.845 2.805,5.628 4.169,8.182 C -2.792,-6.456 -0.853,-2.824 0,0"
           style="fill:#5ac8a8;fill-opacity:1;fill-rule:nonzero;stroke:none"
           id="path1204" />
      </g>
      <g
         id="g1206"
         transform="translate(648.4208,673.6187)">
        <path
           inkscape:connector-curvature="0"
           d="M 0,0 C 0.124,-0.085 0.234,-0.186 0.349,-0.281 0.248,-0.168 0.13,-0.076 0,0"
           style="fill:#5ac8a8;fill-opacity:1;fill-rule:nonzero;stroke:none"
           id="path1208" />
      </g>
      <g
         id="g1210"
         transform="translate(697.2969,694.859)">
        <path
           inkscape:connector-curvature="0"
           d="m 0,0 c -0.24,1.527 -0.467,2.97 -0.417,4.333 0.058,1.619 0.353,3.154 0.637,4.638 0.281,1.464 0.546,2.848 0.576,4.231 0.001,0.006 0.001,0.013 0.001,0.02 l 0.001,0.036 c 0.059,3.293 -0.854,5.37 -2.792,6.351 -3.826,1.937 -11.242,-0.326 -17.116,-3.483 0.765,-1.453 1.203,-3.104 1.203,-4.858 V 6.625 c 0,-1.848 -0.488,-3.582 -1.331,-5.091 1.557,-0.967 3.048,-2.078 4.342,-3.132 C -9.462,-4.693 -3.19,-6.731 0.343,-4.995 0.551,-3.537 0.275,-1.751 0,0"
           style="fill:#5ac8a8;fill-opacity:1;fill-rule:nonzero;stroke:none"
           id="path1212" />
      </g>
      <g
         id="g1214"
         transform="translate(658.1677,693.3805)">
        <path
           inkscape:connector-curvature="0"
           d="M 0,0 C 0.344,-0.3 0.717,-0.566 1.117,-0.792 0.728,-0.55 0.353,-0.289 0,0"
           style="fill:#5ac8a8;fill-opacity:1;fill-rule:nonzero;stroke:none"
           id="path1216" />
      </g>
      <g
         id="g1218"
         transform="translate(673.4299,703.0902)">
        <path
           inkscape:connector-curvature="0"
           d="m 0,0 c 0,3.708 -3.017,6.725 -6.725,6.725 h -4.129 c -1.549,0 -2.973,-0.532 -4.111,-1.415 -0.257,-0.711 -0.404,-1.474 -0.404,-2.273 v -4.643 c 0,-3.708 3.017,-6.725 6.725,-6.725 h 4.129 c 1.549,0 2.973,0.532 4.111,1.415 C -0.147,-6.205 0,-5.442 0,-4.643 Z"
           style="fill:#5ac8a8;fill-opacity:1;fill-rule:nonzero;stroke:none"
           id="path1220" />
      </g>
      <g
         id="g1222"
         transform="translate(652.1011,703.0902)">
        <path
           inkscape:connector-curvature="0"
           d="m 0,0 c 0,2.167 0.662,4.183 1.794,5.856 -6.05,4.087 -15.901,7.858 -20.518,5.522 -0.087,-0.044 -0.16,-0.102 -0.243,-0.15 -0.248,-0.893 -0.361,-1.944 -0.339,-3.164 v 0 l 0.001,-0.036 c 0,-0.007 0,-0.014 0,-0.02 0.031,-1.383 0.296,-2.767 0.577,-4.232 0.284,-1.484 0.579,-3.018 0.637,-4.637 0.049,-1.363 -0.177,-2.805 -0.417,-4.332 -0.431,-2.744 -0.877,-5.581 0.564,-7.091 3.447,-3.61 12.143,-0.479 18.691,3.763 C 0.267,-7.321 0,-6.013 0,-4.643 Z"
           style="fill:#5ac8a8;fill-opacity:1;fill-rule:nonzero;stroke:none"
           id="path1224" />
      </g>
      <g
         id="g1226"
         transform="translate(620.5037,689.4941)">
        <path
           inkscape:connector-curvature="0"
           d="m 0,0 c 0,-0.339 0.286,-0.625 0.625,-0.625 h 7.138 2.403 c -0.043,0.17 -0.083,0.34 -0.115,0.512 -1.663,2.735 -1.118,6.222 -0.666,9.098 0.211,1.343 0.41,2.613 0.374,3.614 -0.04,1.097 -0.221,2.195 -0.434,3.333 H 0 Z"
           style="fill:#ff9f9d;fill-opacity:1;fill-rule:nonzero;stroke:none"
           id="path1228" />
      </g>
      <g
         id="g1230"
         transform="translate(651.0874,658.9989)">
        <path
           inkscape:connector-curvature="0"
           d="m 0,0 h -0.001 c -2.698,0.001 -3.315,3.876 -3.612,5.739 -0.343,2.151 -0.458,4.264 -0.463,4.352 -0.057,1.053 -0.681,1.707 -1.63,1.707 -0.193,0 -0.397,-0.028 -0.604,-0.083 -0.109,-0.029 -1.111,-0.285 -2.574,-0.285 -1.102,0 -2.188,0.143 -3.228,0.425 -1.591,0.432 -2.466,1.855 -2.23,3.625 0.265,1.988 1.944,4.669 4.075,7.309 0.063,0.099 0.119,0.195 0.184,0.294 H -22.696 V -19.561 H 2.767 V 1.934 C 2.077,0.796 1.209,0 0,0"
           style="fill:#ff9f9d;fill-opacity:1;fill-rule:nonzero;stroke:none"
           id="path1232" />
      </g>
      <g
         id="g1234"
         transform="translate(668.6667,675.387)">
        <path
           inkscape:connector-curvature="0"
           d="M 0,0 C -1.314,2.461 -2.569,4.829 -3.576,7.034 -4.239,5.737 -4.953,4.4 -5.681,3.037 -6.75,1.035 -7.837,-1.002 -8.853,-3.06 V -35.949 H 3.067 V -5.885 C 2.082,-3.899 1.032,-1.933 0,0"
           style="fill:#5ac8a8;fill-opacity:1;fill-rule:nonzero;stroke:none"
           id="path1236" />
      </g>
      <g
         id="g1238"
         transform="translate(692.8576,682.0818)">
        <path
           inkscape:connector-curvature="0"
           d="m 0,0 c 1.106,-1.681 1.877,-3.27 2.05,-4.565 0.236,-1.771 -0.64,-3.194 -2.231,-3.625 -0.14,-0.039 -0.287,-0.054 -0.43,-0.087 -0.04,-1.45 -0.857,-2.576 -2.201,-2.951 -1.01,-0.282 -2.065,-0.425 -3.136,-0.425 h -10e-4 c -1.192,0 -2.061,0.178 -2.376,0.254 -0.072,-0.804 -0.186,-1.85 -0.354,-2.908 -0.27,-1.692 -0.809,-5.036 -2.928,-5.636 -0.475,-1.603 -1.324,-3.14 -2.975,-3.14 -0.205,0 -0.397,0.032 -0.582,0.078 V -42.644 H 9.521 V 0 Z"
           style="fill:#ff9f9d;fill-opacity:1;fill-rule:nonzero;stroke:none"
           id="path1240" />
      </g>
      <g
         id="g1242"
         transform="translate(690.97,677.7786)">
        <path
           inkscape:connector-curvature="0"
           d="M 0,0 C -0.359,0.887 -1.203,2.346 -2.742,4.303 H -2.944 C -1.783,2.847 -0.755,1.374 0,0"
           style="fill:#ff9f9d;fill-opacity:1;fill-rule:nonzero;stroke:none"
           id="path1244" />
      </g>
      <g
         id="g1246"
         transform="translate(709.437,705.426)">
        <path
           inkscape:connector-curvature="0"
           d="M 0,0 H -6.166 C -6.379,-1.138 -6.56,-2.236 -6.6,-3.332 c -0.036,-1.002 0.163,-2.272 0.374,-3.616 0.48,-3.058 1.068,-6.808 -1.009,-9.609 h 3.289 4.553 V -0.625 C 0.607,-0.286 0.329,0 0,0"
           style="fill:#ff9f9d;fill-opacity:1;fill-rule:nonzero;stroke:none"
           id="path1248" />
      </g>
      <g
         id="g1250"
         transform="translate(713.2542,689.4941)">
        <path
           inkscape:connector-curvature="0"
           d="m 0,0 c 0,-0.339 -0.286,-0.625 -0.625,-0.625 h -2.585 -4.553 -3.289 c 2.077,2.801 1.489,6.551 1.009,9.609 -0.211,1.344 -0.411,2.614 -0.374,3.615 0.039,1.097 0.221,2.195 0.434,3.333 0.045,0.244 0.091,0.487 0.138,0.735 0.145,0.754 0.291,1.52 0.408,2.302 h 8.812 C -0.286,18.969 0,18.683 0,18.344 Z m -7.888,-50.056 h -2.988 -24.685 v 19.639 5.073 c 0.707,-1.233 1.601,-2.114 2.873,-2.114 0.247,0 0.471,0.042 0.684,0.103 2.119,0.599 2.659,3.943 2.928,5.636 0.169,1.058 0.282,2.104 0.355,2.907 0.075,0.83 0.106,1.4 0.108,1.446 0.057,1.052 0.681,1.706 1.63,1.706 0.193,0 0.397,-0.028 0.604,-0.083 0.11,-0.029 1.111,-0.285 2.574,-0.285 h 0.001 c 0.952,0 1.887,0.128 2.797,0.339 0.142,0.033 0.289,0.048 0.43,0.086 1.591,0.432 2.466,1.855 2.23,3.625 -0.172,1.295 -0.944,2.885 -2.05,4.566 -0.654,0.994 -1.424,2.021 -2.259,3.037 h 14.768 z m -31.423,0 h -2.209 -11.92 v 32.888 c 1.015,2.059 2.103,4.096 3.172,6.098 0.728,1.363 1.441,2.7 2.105,3.996 0.679,1.329 1.307,2.615 1.84,3.842 1.054,-2.423 2.471,-5.078 3.945,-7.838 1.033,-1.933 2.082,-3.899 3.067,-5.885 z m -17.879,0 h -2.21 -25.463 v 42.644 3.037 h 14.873 c -0.835,-1.016 -1.605,-2.043 -2.26,-3.037 -0.065,-0.099 -0.121,-0.196 -0.184,-0.294 -1.002,-1.571 -1.703,-3.053 -1.865,-4.272 -0.236,-1.77 0.639,-3.193 2.23,-3.625 1.04,-0.282 2.126,-0.425 3.228,-0.425 1.463,0 2.465,0.256 2.574,0.285 0.207,0.055 0.411,0.083 0.604,0.083 0.317,0 0.594,-0.079 0.83,-0.215 0.13,-0.076 0.248,-0.168 0.349,-0.281 0.263,-0.294 0.424,-0.704 0.451,-1.21 0.005,-0.089 0.12,-2.202 0.463,-4.353 0.297,-1.863 0.914,-5.738 3.612,-5.739 h 10e-4 c 1.209,0 2.077,0.796 2.767,1.934 z m -34.935,69.025 h 8.153 c 0.117,-0.783 0.263,-1.549 0.408,-2.302 0.047,-0.248 0.093,-0.491 0.138,-0.735 0.213,-1.138 0.395,-2.236 0.435,-3.333 0.036,-1.001 -0.164,-2.271 -0.375,-3.614 -0.452,-2.876 -0.996,-6.363 0.667,-9.098 0.105,-0.174 0.219,-0.345 0.342,-0.512 h -0.227 -2.404 -7.137 c -0.339,0 -0.625,0.286 -0.625,0.625 v 15.932 2.412 c 0,0.339 0.286,0.625 0.625,0.625 m 14.458,9.042 c 4.617,2.337 14.468,-1.435 20.517,-5.522 -1.132,-1.673 -1.793,-3.688 -1.793,-5.856 V 11.99 c 0,-1.805 0.459,-3.505 1.266,-4.989 -0.847,-0.654 -1.766,-1.302 -2.729,-1.926 -6.548,-4.242 -15.244,-7.373 -18.691,-3.763 -1.441,1.51 -0.995,4.347 -0.564,7.091 0.24,1.527 0.466,2.969 0.417,4.332 -0.058,1.619 -0.353,3.154 -0.637,4.638 -0.281,1.464 -0.546,2.848 -0.577,4.231 0,0.006 0,0.013 0,0.02 l -0.001,0.036 v 0 c -0.022,1.22 0.091,2.271 0.339,3.164 0.421,1.516 1.233,2.57 2.453,3.187 m 29.199,-4.652 h 4.128 c 3.709,0 6.725,-3.017 6.725,-6.726 V 11.99 c 0,-2.159 -1.026,-4.078 -2.613,-5.31 -1.138,-0.883 -2.563,-1.415 -4.112,-1.415 h -4.128 c -3.709,0 -6.725,3.017 -6.725,6.725 v 4.643 c 0,0.799 0.147,1.562 0.403,2.273 0.935,2.592 3.412,4.453 6.322,4.453 m -11.821,-40.525 c -0.163,3.046 -2.423,5.256 -5.374,5.256 -0.519,0 -1.047,-0.07 -1.557,-0.206 -0.007,-0.002 -0.654,-0.162 -1.621,-0.162 -0.568,0 -1.127,0.054 -1.67,0.16 0.143,0.475 0.504,1.235 1.125,2.228 0.885,1.416 2.315,3.322 4.534,5.683 3.256,3.464 6.765,6.357 9.716,8.131 0.016,-0.013 0.034,-0.025 0.05,-0.038 0.352,-0.288 0.727,-0.55 1.116,-0.791 1.57,-0.976 3.41,-1.556 5.385,-1.577 -0.044,-0.167 -0.091,-0.339 -0.146,-0.521 -0.853,-2.824 -2.792,-6.456 -4.845,-10.3 -2.045,-3.831 -4.364,-8.172 -6,-12.474 -0.041,-0.108 -0.081,-0.212 -0.121,-0.31 -0.093,0.467 -0.178,1.004 -0.258,1.564 -0.149,1.051 -0.272,2.212 -0.334,3.357 m 38.005,5.451 c 0.059,-0.146 0.115,-0.288 0.149,-0.403 -0.543,-0.106 -1.102,-0.16 -1.669,-0.16 h -0.001 c -0.962,0 -1.608,0.158 -1.608,0.158 -0.226,0.061 -0.454,0.102 -0.682,0.137 -0.297,0.045 -0.594,0.073 -0.888,0.073 -2.48,0 -4.454,-1.571 -5.124,-3.876 -0.127,-0.438 -0.224,-0.893 -0.25,-1.379 -0.095,-1.756 -0.324,-3.576 -0.592,-4.922 -0.039,0.098 -0.079,0.202 -0.121,0.31 -0.378,0.996 -0.796,1.993 -1.236,2.985 -1.461,3.298 -3.192,6.545 -4.764,9.489 -1.605,3.007 -3.134,5.877 -4.135,8.339 -0.279,0.686 -0.524,1.346 -0.71,1.961 -0.055,0.183 -0.103,0.356 -0.147,0.524 2.378,0.063 4.561,0.921 6.292,2.319 1.343,-1.016 2.973,-2.114 4.776,-3.16 1.725,-1.422 3.497,-3.075 5.199,-4.887 1.117,-1.187 2.016,-2.249 2.769,-3.205 1.539,-1.958 2.383,-3.417 2.742,-4.303 m 6.543,39.726 c 1.937,-0.98 2.85,-3.058 2.791,-6.351 l -0.001,-0.036 c 0,-0.007 0,-0.014 0,-0.02 -0.031,-1.383 -0.296,-2.766 -0.577,-4.231 -0.284,-1.484 -0.578,-3.019 -0.637,-4.638 -0.049,-1.363 0.177,-2.805 0.417,-4.333 0.431,-2.743 0.877,-5.58 -0.564,-7.09 -0.374,-0.392 -0.813,-0.702 -1.302,-0.942 -3.533,-1.736 -9.805,0.302 -15.239,3.397 -1.295,1.054 -2.785,2.165 -4.343,3.132 0.844,1.509 1.331,3.243 1.331,5.091 v 4.643 c 0,1.754 -0.437,3.405 -1.202,4.858 -0.233,0.442 -0.494,0.868 -0.785,1.27 6.076,3.98 15.596,7.535 20.111,5.25 m 15.116,-5.292 h -8.59 c -0.227,5.195 -2.709,7.563 -4.833,8.638 -7.001,3.544 -18.873,-2.081 -24.578,-5.951 -1.644,1.075 -3.607,1.703 -5.714,1.703 h -4.128 c -2.238,0 -4.312,-0.708 -6.016,-1.908 -5.579,3.872 -17.751,9.763 -24.877,6.156 -2.124,-1.075 -4.605,-3.443 -4.833,-8.638 h -7.931 c -2.413,0 -4.375,-1.962 -4.375,-4.375 L -96.5,0 c 0,-2.412 1.962,-4.375 4.375,-4.375 h 3.512 v -45.806 c 0,-1.999 1.627,-3.625 3.625,-3.625 h 27.798 21.629 27.798 c 1.999,0 3.625,1.626 3.625,3.625 v 45.806 h 3.513 c 2.412,0 4.375,1.963 4.375,4.375 v 18.344 c 0,2.413 -1.963,4.375 -4.375,4.375"
           style="fill:#000000;fill-opacity:1;fill-rule:nonzero;stroke:none"
           id="path1252" />
      </g>
    </g>
  </g>
</svg>
