<?xml version="1.0" encoding="UTF-8" standalone="no"?>
<svg
   xmlns:dc="http://purl.org/dc/elements/1.1/"
   xmlns:cc="http://creativecommons.org/ns#"
   xmlns:rdf="http://www.w3.org/1999/02/22-rdf-syntax-ns#"
   xmlns:svg="http://www.w3.org/2000/svg"
   xmlns="http://www.w3.org/2000/svg"
   xmlns:sodipodi="http://sodipodi.sourceforge.net/DTD/sodipodi-0.dtd"
   xmlns:inkscape="http://www.inkscape.org/namespaces/inkscape"
   width="30.158266mm"
   height="29.601936mm"
   viewBox="0 0 30.158266 29.601936"
   version="1.1"
   id="svg6425"
   inkscape:version="1.0.1 (3bc2e813f5, 2020-09-07)"
   sodipodi:docname="gift25.svg">
  <defs
     id="defs6419" />
  <sodipodi:namedview
     id="base"
     pagecolor="#ffffff"
     bordercolor="#666666"
     borderopacity="1.0"
     inkscape:pageopacity="0.0"
     inkscape:pageshadow="2"
     inkscape:zoom="0.35"
     inkscape:cx="-540.15086"
     inkscape:cy="-158.34505"
     inkscape:document-units="mm"
     inkscape:current-layer="layer1"
     inkscape:document-rotation="0"
     showgrid="false"
     inkscape:window-width="1267"
     inkscape:window-height="1040"
     inkscape:window-x="104"
     inkscape:window-y="0"
     inkscape:window-maximized="0" />
  <metadata
     id="metadata6422">
    <rdf:RDF>
      <cc:Work
         rdf:about="">
        <dc:format>image/svg+xml</dc:format>
        <dc:type
           rdf:resource="http://purl.org/dc/dcmitype/StillImage" />
        <dc:title></dc:title>
      </cc:Work>
    </rdf:RDF>
  </metadata>
  <g
     inkscape:label="Layer 1"
     inkscape:groupmode="layer"
     id="layer1"
     transform="translate(-248.74825,-190.06213)">
    <g
       id="g6390"
       transform="matrix(0.35277777,0,0,-0.35277777,29.58908,256.1567)">
      <g
         id="g1342"
         transform="translate(637.3461,176.2616)">
        <path
           d="m 0,0 8.207,-2.971 c 0.138,0.115 0.268,0.241 0.411,0.349 2,2.891 5.273,4.777 8.968,4.777 4.161,0 7.035,-2.869 8.603,-4.62 1.64,1.773 4.485,4.62 8.518,4.62 4.01,0 7.541,-2.207 9.466,-5.526 l 6.393,2.315 C 43.329,2.702 34.045,4.76 24.184,4.76 15.293,4.76 6.875,3.083 0,0"
           style="fill:#ff915c;fill-opacity:1;fill-rule:nonzero;stroke:none"
           id="path1344" />
      </g>
      <g
         id="g1346"
         transform="translate(676.8443,164.9696)">
        <path
           d="m 0,0 c -0.21,3.923 -3.46,7.114 -7.244,7.114 -2.634,0 -4.769,-2.33 -6.045,-3.722 -0.897,-0.979 -1.49,-1.625 -2.516,-1.625 -1.013,0 -1.582,0.648 -2.37,1.545 -1.249,1.422 -3.339,3.802 -6.19,3.802 -1.372,0 -2.671,-0.423 -3.782,-1.144 -0.583,-1.008 -0.945,-2.162 -1.011,-3.387 -0.105,-1.98 0.398,-3.657 1.683,-5.607 1.001,-1.519 3.907,-4.408 7.23,-7.188 3.752,-3.138 6.15,-4.596 6.918,-4.851 1.645,0.489 7.032,4.707 10.779,8.33 0.341,0.405 0.644,0.79 0.864,1.124 C -0.398,-3.654 0.106,-1.976 0,0"
           style="fill:#ff3e37;fill-opacity:1;fill-rule:nonzero;stroke:none"
           id="path1348" />
      </g>
      <g
         id="g1350"
         transform="translate(628.4202,140.1892)">
        <path
           d="m 0,0 v -13.199 c 0,-2.044 0.579,-4.052 1.686,-5.966 V -1.174 C 1.096,-0.794 0.547,-0.398 0,0"
           style="fill:#ff915c;fill-opacity:1;fill-rule:nonzero;stroke:none"
           id="path1352" />
      </g>
      <g
         id="g1354"
         transform="translate(633.0185,153.5946)">
        <path
           d="M 0,0 C 0.569,1.259 1.622,2.327 2.893,2.787 L 9.83,5.298 C 9.027,6.869 8.331,8.95 8.471,11.575 8.508,12.27 8.609,12.947 8.762,13.602 L -3.462,18.027 C -3.894,17.683 -4.301,17.33 -4.695,16.974 -6.879,14.238 -8.03,11.271 -8.03,8.227 v -2.84 c 0,-3.787 1.782,-7.456 5.118,-10.707 v 0.745 c 0,1.871 1.227,3.747 2.912,4.575"
           style="fill:#ff915c;fill-opacity:1;fill-rule:nonzero;stroke:none"
           id="path1356" />
      </g>
      <g
         id="g1358"
         transform="translate(661.5298,130.8653)">
        <path
           d="m 0,0 c -9.2,0 -17.954,1.721 -25.221,4.88 v -21.102 c 0.674,-0.465 1.387,-0.918 2.141,-1.354 6.79,-3.931 15.858,-6.095 25.533,-6.095 9.629,0 18.652,2.147 25.431,6.041 V 6.12 C 20.151,2.163 10.349,0 0,0"
           style="fill:#ff915c;fill-opacity:1;fill-rule:nonzero;stroke:none"
           id="path1360" />
      </g>
      <g
         id="g1362"
         transform="translate(688.5355,150.2722)">
        <path
           d="m 0,0 -12.336,4.465 c -1.793,-1.925 -4.153,-4.057 -6.174,-5.735 -6.567,-5.452 -8.375,-5.452 -8.97,-5.452 -0.586,0 -2.37,0 -8.972,5.463 -1.919,1.587 -4.139,3.576 -5.892,5.406 L -52.226,0.57 v -7.128 c 7.405,-4.203 17.216,-6.516 27.673,-6.516 9.436,0 18.34,1.888 25.432,5.343 v 6.478 C 0.879,-0.807 0.419,-0.152 0,0"
           style="fill:#ff915c;fill-opacity:1;fill-rule:nonzero;stroke:none"
           id="path1364" />
      </g>
      <g
         id="g1366"
         transform="translate(697.0923,142.1368)">
        <path
           d="M 0,0 C -0.465,-0.414 -0.968,-0.814 -1.475,-1.212 V -23.311 C -0.509,-21.514 0,-19.638 0,-17.729 Z"
           style="fill:#ff915c;fill-opacity:1;fill-rule:nonzero;stroke:none"
           id="path1368" />
      </g>
      <g
         id="g1370"
         transform="translate(700.5237,159.2381)">
        <path
           d="M 0,0 C 0,4.432 -2.437,8.703 -6.954,12.332 L -17.482,8.52 c 0,-10e-4 0,-0.003 0,-0.005 0.173,-3.241 -0.883,-5.592 -1.951,-7.327 l 11.174,-4.045 c 1.911,-0.691 3.352,-2.746 3.352,-4.778 v -5.274 c 0.546,0.422 1.059,0.854 1.547,1.294 C -1.162,-8.871 0,-5.894 0,-2.84 Z"
           style="fill:#ff915c;fill-opacity:1;fill-rule:nonzero;stroke:none"
           id="path1372" />
      </g>
      <g
         id="g1374"
         transform="translate(702.9766,158.9817)">
        <path
           d="m 0,0 c 0,-4.042 -2.03,-7.95 -5.813,-11.359 -0.488,-0.44 -1.001,-0.872 -1.547,-1.294 v 5.274 c 0,2.033 -1.441,4.087 -3.352,4.779 l -11.173,4.045 c 1.067,1.735 2.123,4.086 1.95,7.327 0,10e-4 0,0.003 0,0.005 -0.03,0.552 -0.099,1.094 -0.203,1.622 l 13.184,4.772 C -2.437,11.543 0,7.272 0,2.84 Z m -3.431,-31.991 c 0,-3.147 -1.362,-6.207 -3.929,-8.97 v 0.805 22.099 0.812 c 1.443,0.942 2.754,1.938 3.929,2.983 z m -7.679,16.843 c -0.788,-0.455 -1.61,-0.882 -2.452,-1.293 -7.092,-3.455 -15.996,-5.342 -25.432,-5.342 -10.457,0 -20.268,2.313 -27.673,6.516 v 7.127 0.761 c 0,0.446 0.459,1.101 0.878,1.253 l 11.457,4.147 c 1.753,-1.83 3.972,-3.819 5.892,-5.407 6.602,-5.462 8.386,-5.462 8.972,-5.462 0.594,0 2.403,0 8.97,5.452 2.021,1.678 4.381,3.81 6.174,5.735 l 12.336,-4.465 c 0.419,-0.152 0.878,-0.807 0.878,-1.253 z m 0,-29.044 c -0.735,-0.518 -1.518,-1.019 -2.351,-1.501 -0.032,-0.018 -0.069,-0.034 -0.101,-0.053 -6.78,-3.895 -15.803,-6.042 -25.432,-6.042 -9.675,0 -18.743,2.165 -25.533,6.095 -0.754,0.437 -1.467,0.889 -2.14,1.355 v 21.102 3.715 c 7.7,-3.888 17.418,-6.012 27.673,-6.012 10.35,0 20.151,2.163 27.884,6.12 z m -59.307,31.38 c -0.894,0.678 -1.711,1.381 -2.453,2.105 -3.336,3.251 -5.118,6.92 -5.118,10.707 v 2.84 c 0,3.043 1.151,6.011 3.335,8.747 1.011,1.267 2.242,2.485 3.685,3.637 l 12.225,-4.426 c -0.153,-0.655 -0.254,-1.332 -0.291,-2.027 -0.187,-3.499 1.112,-6.033 2.171,-7.678 l -3.265,-1.182 -6.937,-2.511 c -1.272,-0.46 -2.324,-1.528 -2.893,-2.787 -0.287,-0.633 -0.459,-1.312 -0.459,-1.992 z m 0,-28.372 c -0.993,1.036 -1.811,2.116 -2.453,3.226 -1.107,1.914 -1.686,3.922 -1.686,5.967 v 13.198 4.531 c 1.231,-1.096 2.612,-2.139 4.139,-3.121 z m 30.958,32.108 c -0.768,0.256 -3.167,1.714 -6.918,4.852 -3.323,2.78 -6.229,5.668 -7.23,7.188 -1.285,1.95 -1.789,3.627 -1.683,5.607 0.066,1.225 0.428,2.379 1.01,3.386 1.283,2.219 3.632,3.728 6.235,3.728 2.851,0 4.942,-2.38 6.191,-3.802 0.787,-0.897 1.356,-1.545 2.37,-1.545 1.026,0 1.618,0.646 2.515,1.625 1.276,1.392 3.412,3.722 6.045,3.722 3.785,0 7.034,-3.191 7.245,-7.114 0.105,-1.976 -0.398,-3.654 -1.684,-5.609 -0.641,-0.973 -1.859,-2.296 -3.317,-3.707 -3.747,-3.623 -9.134,-7.842 -10.779,-8.331 m -27.494,27.022 c 7.438,4.305 17.367,6.677 27.959,6.677 10.592,0 20.521,-2.372 27.959,-6.677 0.094,-0.054 0.184,-0.109 0.276,-0.164 l -4.305,-1.558 -6.394,-2.315 c -1.924,3.319 -5.456,5.526 -9.466,5.526 -4.032,0 -6.878,-2.847 -8.517,-4.62 -1.568,1.751 -4.443,4.62 -8.604,4.62 -3.695,0 -6.968,-1.887 -8.967,-4.777 -0.092,-0.134 -0.197,-0.257 -0.284,-0.395 l -0.127,0.046 -8.207,2.971 -1.519,0.55 c 0.066,0.038 0.13,0.077 0.196,0.116 m 57.797,3.245 c -8,4.631 -18.597,7.182 -29.838,7.182 -11.241,0 -21.838,-2.551 -29.838,-7.182 C -77.154,16.374 -81.738,9.856 -81.738,2.84 V 0 c 0,-3.56 1.182,-6.991 3.432,-10.137 v -21.854 c 0,-6.486 4.226,-12.504 11.9,-16.947 7.353,-4.256 17.087,-6.6 27.412,-6.6 10.325,0 20.06,2.344 27.412,6.6 7.674,4.443 11.901,10.461 11.901,16.947 v 21.854 C 2.568,-6.991 3.75,-3.56 3.75,0 v 2.84 c 0,7.016 -4.583,13.534 -12.906,18.351"
           style="fill:#000000;fill-opacity:1;fill-rule:nonzero;stroke:none"
           id="path1376" />
      </g>
    </g>
  </g>
</svg>
