<?xml version="1.0" encoding="UTF-8" standalone="no"?>
<svg
   xmlns:dc="http://purl.org/dc/elements/1.1/"
   xmlns:cc="http://creativecommons.org/ns#"
   xmlns:rdf="http://www.w3.org/1999/02/22-rdf-syntax-ns#"
   xmlns:svg="http://www.w3.org/2000/svg"
   xmlns="http://www.w3.org/2000/svg"
   xmlns:sodipodi="http://sodipodi.sourceforge.net/DTD/sodipodi-0.dtd"
   xmlns:inkscape="http://www.inkscape.org/namespaces/inkscape"
   width="33.602081mm"
   height="32.109833mm"
   viewBox="0 0 33.602081 32.109833"
   version="1.1"
   id="svg5280"
   inkscape:version="0.92.4 (5da689c313, 2019-01-14)"
   sodipodi:docname="gift18.svg">
  <defs
     id="defs5274" />
  <sodipodi:namedview
     id="base"
     pagecolor="#ffffff"
     bordercolor="#666666"
     borderopacity="1.0"
     inkscape:pageopacity="0.0"
     inkscape:pageshadow="2"
     inkscape:zoom="5.6"
     inkscape:cx="95.42279"
     inkscape:cy="69.214118"
     inkscape:document-units="mm"
     inkscape:current-layer="layer1"
     inkscape:document-rotation="0"
     showgrid="false"
     inkscape:window-width="1600"
     inkscape:window-height="848"
     inkscape:window-x="-8"
     inkscape:window-y="-8"
     inkscape:window-maximized="1" />
  <metadata
     id="metadata5277">
    <rdf:RDF>
      <cc:Work
         rdf:about="">
        <dc:format>image/svg+xml</dc:format>
        <dc:type
           rdf:resource="http://purl.org/dc/dcmitype/StillImage" />
        <dc:title></dc:title>
      </cc:Work>
    </rdf:RDF>
  </metadata>
  <g
     inkscape:label="Layer 1"
     inkscape:groupmode="layer"
     id="layer1"
     transform="translate(-254.58587,-107.16532)">
    <path
       style="opacity:1;fill:#ffffff;fill-opacity:1;fill-rule:nonzero;stroke:none;stroke-width:0.83594733;stroke-miterlimit:4;stroke-dasharray:none;stroke-dashoffset:0;stroke-opacity:1;paint-order:fill markers stroke"
       d="m 272.06653,113.16385 c 0.59111,1.37459 -8.80482,0.97511 -9.56053,-0.14122 -0.97945,-2.72125 0.84683,-5.87755 2.78708,-5.02272 1.27502,0.61609 6.7546,3.78301 6.77345,5.16394 z"
       id="path838"
       inkscape:connector-curvature="0"
       sodipodi:nodetypes="cccc" />
    <path
       style="opacity:1;fill:#ffffff;fill-opacity:1;fill-rule:nonzero;stroke:none;stroke-width:0.83594733;stroke-miterlimit:4;stroke-dasharray:none;stroke-dashoffset:0;stroke-opacity:1;paint-order:fill markers stroke"
       d="m 269.93999,115.16516 c -0.43002,1.00002 6.96973,2.35496 10.14094,1.3276 1.18779,-0.38481 -0.0861,-3.09414 0.11982,-3.39833 0.97946,-2.72125 -0.84681,-5.87756 -2.78708,-5.02273 -0.625,0.47069 -2.53535,1.22491 -3.89285,2.78727 -0.65961,0.75915 -2.28112,-0.3304 -3.20387,0.32959 -1.57786,1.12854 -2.20338,3.82754 -0.37696,3.9766 z"
       id="path838-4"
       inkscape:connector-curvature="0"
       sodipodi:nodetypes="csccssc" />
    <rect
       style="opacity:1;fill:#ffffff;fill-opacity:1;fill-rule:nonzero;stroke:none;stroke-width:0.99104726;stroke-miterlimit:4;stroke-dasharray:none;stroke-dashoffset:0;stroke-opacity:1;paint-order:fill markers stroke"
       id="rect885"
       width="26.033112"
       height="22.064362"
       x="258.24753"
       y="116.12287" />
    <rect
       style="opacity:1;fill:#ffffff;fill-opacity:1;fill-rule:nonzero;stroke:none;stroke-width:1;stroke-miterlimit:4;stroke-dasharray:none;stroke-dashoffset:0;stroke-opacity:1;paint-order:fill markers stroke"
       id="rect859"
       width="31.806688"
       height="4.9254365"
       x="255.40961"
       y="115.99576" />
    <g
       id="g5188"
       transform="matrix(0.35277777,0,0,-0.35277777,130.94329,221.43343)">
      <g
         id="g160"
         transform="translate(359.2327,234.6817)">
        <path
           d="M 0,0 V -0.189 C 0,-0.528 0.286,-0.814 0.625,-0.814 H 0.789 C 0.493,-0.576 0.226,-0.306 0,0"
           style="fill:#5ac8a8;fill-opacity:1;fill-rule:nonzero;stroke:none"
           id="path162" />
      </g>
      <g
         id="g164"
         transform="translate(351.3447,284.113)">
        <path
           d="M 0,0 V -0.189 C 0,-0.528 0.286,-0.814 0.625,-0.814 H 0.789 C 0.493,-0.576 0.226,-0.306 0,0"
           style="fill:#5ac8a8;fill-opacity:1;fill-rule:nonzero;stroke:none"
           id="path166" />
      </g>
      <g
         id="g842"
         transform="translate(392.9861,297.3796)">
        <path
           d="M 0,0 C -0.007,0 -0.014,0 -0.022,0 -0.031,-0.001 -0.042,-0.002 -0.051,-0.003 0.033,-0.037 0.116,-0.075 0.202,-0.106 0.136,-0.068 0.065,-0.04 0,0"
           style="fill:#ff3e37;fill-opacity:1;fill-rule:nonzero;stroke:none"
           id="path844" />
      </g>
      <g
         id="g846"
         transform="translate(406.2444,308.5049)">
        <path
           d="M 0,0 8.782,1.125 C 9.809,1.256 10.749,0.531 10.88,-0.496 11.012,-1.524 10.286,-2.463 9.259,-2.594 L 0.477,-3.719 C 0.396,-3.73 0.315,-3.735 0.236,-3.735 c -0.93,0 -1.736,0.691 -1.858,1.637 C -1.753,-1.071 -1.027,-0.131 0,0 m -6.21,-1.599 -1.331,0.946 c -1.022,0.727 -2.227,1.111 -3.483,1.111 -1.256,0 -2.46,-0.384 -3.483,-1.11 l -0.15,-0.107 c 0.272,-0.373 0.411,-0.845 0.347,-1.339 -0.121,-0.946 -0.928,-1.637 -1.857,-1.637 -0.079,0 -0.16,0.005 -0.241,0.016 l -8.782,1.125 c -1.027,0.131 -1.753,1.07 -1.621,2.098 0.131,1.026 1.069,1.752 2.098,1.621 l 7.175,-0.919 c -3.218,3.41 -8.331,8.677 -12.676,8.677 -0.376,0 -0.747,-0.041 -1.1,-0.121 -0.017,-0.004 -0.031,-0.009 -0.047,-0.013 -0.148,-1.079 -0.012,-2.523 0.247,-4.485 0.241,-1.828 0.49,-3.719 0.298,-5.557 -0.029,-0.281 -0.117,-0.639 -0.513,-2.178 -0.292,-1.135 -0.914,-3.553 -1.114,-4.692 1.051,-0.994 2.546,-1.466 4.635,-1.466 2.338,0 5.025,0.592 7.623,1.164 2.431,0.536 4.73,1.043 6.771,1.087 0.097,0.011 0.259,0.016 0.397,0.005 0.012,0.001 0.028,0.003 0.047,0.006 l 0.732,0.095 0.6,-0.43 c 1.027,-0.735 2.238,-1.123 3.501,-1.123 1.264,0 2.474,0.388 3.501,1.123 l 0.6,0.43 0.732,-0.095 c 0.02,-0.003 0.036,-0.004 0.049,-0.006 0.115,0.009 0.299,0.006 0.396,-0.004 2.042,-0.044 4.342,-0.55 6.775,-1.086 2.596,-0.571 5.28,-1.162 7.616,-1.162 v 0 c 0.521,0 1.004,0.029 1.454,0.089 -0.264,1.138 -0.608,2.479 -0.804,3.24 -0.4,1.554 -0.496,1.946 -0.524,2.244 -0.191,1.833 0.058,3.718 0.298,5.542 C 12.587,6.277 12.517,8.019 9.26,8.762 8.91,8.842 8.541,8.882 8.166,8.882 5.482,8.882 2.503,6.865 -0.143,4.52 -0.81,3.837 -1.432,3.179 -1.985,2.592 L -3.322,1.173 -3.481,1.286 C -3.978,0.77 -4.446,0.274 -4.873,-0.18 Z"
           style="fill:#ff3e37;fill-opacity:1;fill-rule:nonzero;stroke:none"
           id="path848" />
      </g>
      <g
         id="g850"
         transform="translate(372.6475,296.549)">
        <path
           d="M 0,0 C -0.612,0.372 -1.169,0.818 -1.672,1.339 -1.694,1.229 -1.717,1.115 -1.733,1.021 -1.256,0.57 -0.674,0.241 0,0"
           style="fill:#ff3e37;fill-opacity:1;fill-rule:nonzero;stroke:none"
           id="path852" />
      </g>
      <g
         id="g854"
         transform="translate(362.1204,279.5492)">
        <path
           d="m 0,0 v -42.285 c 0,-0.339 0.286,-0.625 0.625,-0.625 H 25.1 V 0 Z"
           style="fill:#5ac8a8;fill-opacity:1;fill-rule:nonzero;stroke:none"
           id="path856" />
      </g>
      <path
         d="m 393.858,236.639 h 5.612 v 42.91 h -5.612 z"
         style="fill:#ff3e37;fill-opacity:1;fill-rule:nonzero;stroke:none"
         id="path858" />
      <g
         id="g860"
         transform="translate(430.5823,279.5492)">
        <path
           d="m 0,0 h -24.475 v -42.91 h 25.1 V -0.625 C 0.625,-0.286 0.339,0 0,0"
           style="fill:#5ac8a8;fill-opacity:1;fill-rule:nonzero;stroke:none"
           id="path862" />
      </g>
      <g
         id="g864"
         transform="translate(438.4702,295.3933)">
        <path
           d="m 0,0 h -15.851 c -1.803,-2.04 -4.335,-3.035 -7.731,-3.035 v 0 c -2.743,0 -5.63,0.636 -8.421,1.25 -2.271,0.5 -4.416,0.972 -6.098,1 -0.009,0 -0.019,0 -0.028,0 -1.539,-0.95 -3.296,-1.45 -5.121,-1.45 -1.825,0 -3.582,0.5 -5.122,1.45 -0.007,0 -0.014,0 -0.021,0 -1.682,-0.028 -3.828,-0.501 -6.099,-1.002 -2.794,-0.615 -5.683,-1.252 -8.429,-1.252 -3.4,0 -5.934,0.997 -7.735,3.039 h -13.582 v -8.698 c 0,-0.338 0.286,-0.625 0.625,-0.625 h 7.888 27.362 16 H -5 0.625 v 8.698 C 0.625,-0.286 0.339,0 0,0"
           style="fill:#5ac8a8;fill-opacity:1;fill-rule:nonzero;stroke:none"
           id="path866" />
      </g>
      <g
         id="g868"
         transform="translate(406.4802,304.7699)">
        <path
           d="m 0,0 c 0.079,0 0.16,0.005 0.241,0.016 l 8.782,1.125 c 1.027,0.131 1.753,1.07 1.622,2.098 C 10.513,4.266 9.573,4.991 8.546,4.86 L -0.236,3.735 C -1.263,3.604 -1.989,2.664 -1.857,1.637 -1.736,0.691 -0.929,0 0,0"
           style="fill:#000000;fill-opacity:1;fill-rule:nonzero;stroke:none"
           id="path870" />
      </g>
      <g
         id="g872"
         transform="translate(379.4331,308.0084)">
        <path
           d="m 0,0 c -0.132,-1.027 0.594,-1.967 1.621,-2.098 l 8.783,-1.125 c 0.081,-0.01 0.161,-0.016 0.24,-0.016 0.93,0 1.737,0.691 1.858,1.637 0.063,0.495 -0.076,0.966 -0.348,1.34 -0.293,0.402 -0.741,0.69 -1.274,0.758 L 9.273,0.702 2.098,1.621 C 1.069,1.752 0.131,1.027 0,0"
           style="fill:#000000;fill-opacity:1;fill-rule:nonzero;stroke:none"
           id="path874" />
      </g>
      <g
         id="g876"
         transform="translate(441.9829,286.6956)">
        <path
           d="m 0,0 c 0,-0.339 -0.286,-0.625 -0.625,-0.625 h -2.263 -5.625 -27.362 -16 -27.363 -7.887 c -0.339,0 -0.625,0.286 -0.625,0.625 v 8.698 2.146 c 0,0.339 0.286,0.625 0.625,0.625 h 15.844 c 0.086,-0.098 0.183,-0.183 0.274,-0.276 0.503,-0.522 1.059,-0.968 1.672,-1.34 1.557,-0.946 3.466,-1.423 5.789,-1.423 2.746,0 5.635,0.637 8.429,1.252 2.259,0.498 4.391,0.967 6.069,1 0.009,0 0.02,0.002 0.03,0.002 0.007,0 0.014,0 0.021,0 0.065,-0.04 0.136,-0.067 0.202,-0.106 1.492,-0.874 3.172,-1.344 4.92,-1.344 1.825,0 3.582,0.5 5.121,1.45 0.009,0 0.019,0 0.028,0 1.682,-0.028 3.827,-0.5 6.098,-1 2.791,-0.614 5.678,-1.249 8.421,-1.25 h 0.001 c 3.395,0 5.927,0.995 7.73,3.035 H -0.625 C -0.286,11.469 0,11.183 0,10.844 Z m -7.888,-49.431 c 0,-0.339 -0.286,-0.625 -0.625,-0.625 h -2.263 -25.099 v 42.91 2.771 h 27.362 c 0.339,0 0.625,-0.286 0.625,-0.625 z m -31.737,-0.625 h -2.888 -5.612 v 42.91 2.771 h 8.5 z m -12.25,0 h -2.888 -24.475 c -0.338,0 -0.625,0.286 -0.625,0.625 V -7.146 -5 c 0,0.339 0.287,0.625 0.625,0.625 h 27.363 z m -12.29,83.399 c 0.353,0.08 0.724,0.121 1.101,0.121 4.502,0 9.837,-5.664 13.025,-9.048 l 1.35,-1.432 1.331,0.944 c 1.023,0.727 2.227,1.111 3.483,1.111 1.256,0 2.461,-0.385 3.484,-1.111 l 1.172,-0.833 0.158,-0.113 1.338,1.419 c 0.553,0.587 1.174,1.245 1.841,1.929 3.181,3.258 7.474,7.133 11.197,7.133 0.375,0 0.744,-0.041 1.094,-0.12 3.257,-0.743 3.327,-2.485 2.696,-7.272 -0.24,-1.824 -0.489,-3.709 -0.298,-5.542 0.028,-0.299 0.125,-0.691 0.524,-2.244 0.288,-1.119 0.902,-3.505 1.097,-4.631 -0.793,-0.75 -1.832,-1.202 -3.181,-1.381 -0.449,-0.059 -0.933,-0.089 -1.453,-0.089 h -0.001 c -2.335,0.001 -5.02,0.591 -7.616,1.163 -2.433,0.535 -4.733,1.041 -6.775,1.085 -0.097,0.01 -0.28,0.014 -0.396,0.005 -0.013,0.001 -0.029,0.003 -0.049,0.005 l -0.732,0.095 -0.6,-0.429 c -1.026,-0.735 -2.237,-1.124 -3.5,-1.124 -1.264,0 -2.474,0.389 -3.501,1.123 l -0.601,0.43 -0.732,-0.095 c -0.019,-0.003 -0.034,-0.004 -0.046,-0.005 -0.139,0.01 -0.3,0.005 -0.398,-0.005 -2.041,-0.045 -4.339,-0.552 -6.771,-1.087 -2.598,-0.573 -5.284,-1.165 -7.622,-1.165 -2.089,0 -3.584,0.472 -4.635,1.466 0.199,1.14 0.822,3.558 1.114,4.692 0.396,1.54 0.484,1.897 0.512,2.178 0.193,1.838 -0.056,3.729 -0.298,5.558 -0.258,1.962 -0.394,3.405 -0.247,4.485 0.213,1.553 1.018,2.346 2.935,2.784 M -0.625,15.219 H -16.06 c -0.208,0.972 -0.528,2.256 -0.977,4.001 -0.181,0.701 -0.384,1.492 -0.429,1.72 -0.139,1.389 0.079,3.042 0.289,4.641 0.548,4.156 1.298,9.849 -5.582,11.418 -0.624,0.142 -1.272,0.214 -1.926,0.214 -5.708,0 -11.139,-5.356 -14.961,-9.386 -1.312,0.633 -2.749,0.962 -4.229,0.962 -1.48,0 -2.917,-0.329 -4.228,-0.961 -3.818,4.026 -9.248,9.386 -14.961,9.386 -0.656,0 -1.306,-0.073 -1.934,-0.215 -6.871,-1.57 -6.12,-7.26 -5.572,-11.416 0.21,-1.593 0.427,-3.24 0.29,-4.632 -0.045,-0.225 -0.243,-0.995 -0.419,-1.678 -0.456,-1.772 -0.78,-3.073 -0.99,-4.054 h -15.436 c -2.413,0 -4.375,-1.963 -4.375,-4.375 L -91.5,0 c 0,-0.969 0.327,-1.857 0.862,-2.583 0.226,-0.306 0.493,-0.575 0.789,-0.813 0.75,-0.603 1.689,-0.979 2.724,-0.979 h 3.562 c -0.029,-0.205 -0.05,-0.412 -0.05,-0.625 v -44.431 c 0,-0.969 0.327,-1.857 0.863,-2.583 0.226,-0.306 0.493,-0.575 0.789,-0.814 0.75,-0.602 1.689,-0.978 2.723,-0.978 h 27.363 16 27.362 c 2.412,0 4.375,1.962 4.375,4.375 V -5 c 0,0.213 -0.02,0.42 -0.05,0.625 h 3.563 c 2.412,0 4.375,1.963 4.375,4.375 v 10.844 c 0,2.412 -1.963,4.375 -4.375,4.375"
           style="fill:#000000;fill-opacity:1;fill-rule:nonzero;stroke:none"
           id="path878" />
      </g>
    </g>
  </g>
</svg>
