<?xml version="1.0" encoding="UTF-8" standalone="no"?>
<svg
   xmlns:dc="http://purl.org/dc/elements/1.1/"
   xmlns:cc="http://creativecommons.org/ns#"
   xmlns:rdf="http://www.w3.org/1999/02/22-rdf-syntax-ns#"
   xmlns:svg="http://www.w3.org/2000/svg"
   xmlns="http://www.w3.org/2000/svg"
   xmlns:sodipodi="http://sodipodi.sourceforge.net/DTD/sodipodi-0.dtd"
   xmlns:inkscape="http://www.inkscape.org/namespaces/inkscape"
   width="31.980011mm"
   height="31.938736mm"
   viewBox="0 0 31.980011 31.938736"
   version="1.1"
   id="svg5825"
   inkscape:version="0.92.4 (5da689c313, 2019-01-14)"
   sodipodi:docname="gift21.svg">
  <defs
     id="defs5819" />
  <sodipodi:namedview
     id="base"
     pagecolor="#ffffff"
     bordercolor="#666666"
     borderopacity="1.0"
     inkscape:pageopacity="0.0"
     inkscape:pageshadow="2"
     inkscape:zoom="5.6"
     inkscape:cx="27.044295"
     inkscape:cy="86.893997"
     inkscape:document-units="mm"
     inkscape:current-layer="layer1"
     inkscape:document-rotation="0"
     showgrid="false"
     inkscape:window-width="1600"
     inkscape:window-height="848"
     inkscape:window-x="-8"
     inkscape:window-y="-8"
     inkscape:window-maximized="1" />
  <metadata
     id="metadata5822">
    <rdf:RDF>
      <cc:Work
         rdf:about="">
        <dc:format>image/svg+xml</dc:format>
        <dc:type
           rdf:resource="http://purl.org/dc/dcmitype/StillImage" />
        <dc:title></dc:title>
      </cc:Work>
    </rdf:RDF>
  </metadata>
  <g
     inkscape:label="Layer 1"
     inkscape:groupmode="layer"
     id="layer1"
     transform="translate(49.25191,-237.27468)">
    <path
       style="opacity:1;fill:#ffffff;fill-opacity:1;fill-rule:nonzero;stroke:none;stroke-width:1;stroke-miterlimit:4;stroke-dasharray:none;stroke-dashoffset:0;stroke-opacity:1;paint-order:fill markers stroke"
       d="m -22.510098,247.14906 c 4e-6,2.66157 -6.200797,0.42799 -11.173919,0.59059 -4.358037,0.14249 -11.254185,2.10747 -10.063614,-2.05525 1.331667,-4.06189 0.591502,-2.68919 1.010924,-7.22938 0.112904,-1.22218 4.73131,0.48668 7.098923,0.7688 0.676239,0.0806 1.657257,-0.86747 2.237249,-0.83908 0.872653,0.0427 1.902288,0.88157 2.703509,0.77501 1.790062,-0.23807 4.056732,-1.72603 5.298328,-1.32387 1.140978,0.36957 1.704535,1.3925 1.955728,4.581 0.161634,2.05168 0.93287,4.01575 0.932872,4.73218 z"
       id="path863"
       inkscape:connector-curvature="0"
       sodipodi:nodetypes="cscssssssc" />
    <path
       style="fill:#ffffff;stroke:none;stroke-width:0.26458332px;stroke-linecap:butt;stroke-linejoin:miter;stroke-opacity:1"
       d="m -32.951687,253.40929 c 14.6702,-7.37054 14.693825,-7.37054 14.693825,-7.37054 l -4.630209,-2.3151 -21.379278,-0.0472 -4.134115,2.19699 z"
       id="path866"
       inkscape:connector-curvature="0" />
    <path
       style="fill:#ffffff;stroke:none;stroke-width:0.26458332px;stroke-linecap:butt;stroke-linejoin:miter;stroke-opacity:1"
       d="m -33.554557,268.44649 -14.92715,-7.6758 -0.148181,-14.25205 15.075331,7.11591 z"
       id="path868"
       inkscape:connector-curvature="0"
       sodipodi:nodetypes="ccccc" />
    <path
       style="fill:#ffffff;stroke:none;stroke-width:0.26458332px;stroke-linecap:butt;stroke-linejoin:miter;stroke-opacity:1"
       d="m -32.882581,268.55457 14.92715,-7.6758 0.148181,-14.25205 -15.075331,7.11591 z"
       id="path868-4"
       inkscape:connector-curvature="0"
       sodipodi:nodetypes="ccccc" />
    <g
       transform="matrix(0.35277777,0,0,-0.35277777,-35.713323,246.19001)"
       id="g1026">
      <path
         inkscape:connector-curvature="0"
         id="path1028"
         style="fill:#ff3e37;fill-opacity:1;fill-rule:nonzero;stroke:none"
         d="M 0,0 C -0.948,0.924 -1.688,2.043 -2.13,3.295 -1.928,1.943 -1.142,0.77 0,0" />
    </g>
    <g
       transform="matrix(0.35277777,0,0,-0.35277777,-33.428557,245.78975)"
       id="g1030">
      <path
         inkscape:connector-curvature="0"
         id="path1032"
         style="fill:#ff3e37;fill-opacity:1;fill-rule:nonzero;stroke:none"
         d="m 0,0 c 0.373,0 0.736,0.037 1.088,0.104 0.566,0.782 0.899,1.72 0.899,2.728 0,2.715 -2.393,4.923 -5.334,4.923 -0.373,0 -0.736,-0.036 -1.088,-0.104 C -5.001,6.87 -5.333,5.932 -5.333,4.923 -5.333,2.208 -2.941,0 0,0" />
    </g>
    <g
       transform="matrix(0.35277777,0,0,-0.35277777,-22.112399,247.54143)"
       id="g1034">
      <path
         inkscape:connector-curvature="0"
         id="path1036"
         style="fill:#5ac8a8;fill-opacity:1;fill-rule:nonzero;stroke:none"
         d="M 0,0 C -0.011,-0.02 -0.024,-0.038 -0.035,-0.057 L 5.185,2.544 0.962,4.648 C 1.064,2.961 0.757,1.388 0,0" />
    </g>
    <g
       transform="matrix(0.35277777,0,0,-0.35277777,-23.118592,245.71954)"
       id="g1038">
      <path
         inkscape:connector-curvature="0"
         id="path1040"
         style="fill:#5ac8a8;fill-opacity:1;fill-rule:nonzero;stroke:none"
         d="M 0,0 C -0.083,0.51 -0.225,1.042 -0.419,1.593 L -0.588,1.677 C -0.347,1.11 -0.161,0.552 0,0" />
    </g>
    <g
       transform="matrix(0.35277777,0,0,-0.35277777,-31.570512,243.83853)"
       id="g1042">
      <path
         inkscape:connector-curvature="0"
         id="path1044"
         style="fill:#ff3e37;fill-opacity:1;fill-rule:nonzero;stroke:none"
         d="M 0,0 C -0.183,1.351 -0.949,2.526 -2.071,3.309 -1.136,2.381 -0.431,1.25 0,0" />
    </g>
    <g
       transform="matrix(0.35277777,0,0,-0.35277777,-32.220505,247.20661)"
       id="g1046">
      <path
         inkscape:connector-curvature="0"
         id="path1048"
         style="fill:#ff3e37;fill-opacity:1;fill-rule:nonzero;stroke:none"
         d="M 0,0 -0.009,0.003 C 0.037,-0.034 0.081,-0.073 0.128,-0.11 0.087,-0.074 0.04,-0.036 0,0" />
    </g>
    <g
       transform="matrix(0.35277777,0,0,-0.35277777,-24.998827,244.79304)"
       id="g1050">
      <path
         inkscape:connector-curvature="0"
         id="path1052"
         style="fill:#ff3e37;fill-opacity:1;fill-rule:nonzero;stroke:none"
         d="m 0,0 c -2.087,3.24 -1.615,6.85 -1.236,9.75 0.256,1.962 0.498,3.815 -0.207,4.618 -0.442,0.503 -1.628,1.104 -4.764,1.104 -3.67,0 -6.654,-0.812 -9.059,-1.98 -1.023,-0.804 -1.882,-1.645 -2.581,-2.447 -0.462,-0.53 -0.878,-1.062 -1.251,-1.587 2.571,-1.534 4.286,-4.259 4.286,-7.36 0,-2.509 -1.122,-4.771 -2.912,-6.356 2.185,-1.929 5.252,-3.684 9.319,-4.525 1.785,-0.369 3.493,-0.556 5.077,-0.556 1.683,0 3.17,0.22 4.432,0.616 0.162,0.204 0.316,0.413 0.439,0.637 C 2.626,-6.099 2.079,-3.227 0,0" />
    </g>
    <g
       transform="matrix(0.35277777,0,0,-0.35277777,-35.746025,240.76453)"
       id="g1054">
      <path
         inkscape:connector-curvature="0"
         id="path1056"
         style="fill:#5ac8a8;fill-opacity:1;fill-rule:nonzero;stroke:none"
         d="m 0,0 c 0.6,-0.688 1.119,-1.384 1.6,-2.079 0.059,0.037 0.112,0.082 0.172,0.117 -0.373,0.525 -0.789,1.058 -1.251,1.588 -0.409,0.468 -0.876,0.95 -1.393,1.431 L -0.945,1.02 C -0.607,0.677 -0.292,0.335 0,0" />
    </g>
    <g
       transform="matrix(0.35277777,0,0,-0.35277777,-33.027908,240.29382)"
       id="g1058">
      <path
         inkscape:connector-curvature="0"
         id="path1060"
         style="fill:#5ac8a8;fill-opacity:1;fill-rule:nonzero;stroke:none"
         d="m 0,0 -2.609,1.3 c -0.33,0.165 -0.854,0.263 -1.401,0.263 -0.356,0 -0.695,-0.045 -0.985,-0.119 0.218,-0.231 0.44,-0.462 0.637,-0.688 0.81,-0.928 1.507,-1.875 2.104,-2.807 0.143,0.017 0.292,0.016 0.436,0.026 0.186,0.231 0.358,0.462 0.558,0.691 C -0.879,-0.897 -0.459,-0.449 0,0" />
    </g>
    <g
       transform="matrix(0.35277777,0,0,-0.35277777,-37.813762,244.7905)"
       id="g1062">
      <path
         inkscape:connector-curvature="0"
         id="path1064"
         style="fill:#ff3e37;fill-opacity:1;fill-rule:nonzero;stroke:none"
         d="M 0,0 C 0,3.102 1.715,5.827 4.286,7.36 3.913,7.885 3.497,8.417 3.035,8.948 c -2.593,2.973 -7.297,6.516 -14.987,6.516 -0.447,0 -0.856,-0.021 -1.238,-0.058 -0.401,-1.315 -0.259,-3.247 -0.109,-5.268 0.255,-3.411 0.543,-7.278 -1.513,-10.47 -1.923,-2.987 -2.546,-5.431 -1.754,-6.884 0.809,-1.483 3.308,-2.334 6.857,-2.334 1.973,0 4.211,0.255 6.649,0.76 1.944,0.401 3.653,1.016 5.153,1.755 0.285,0.223 0.559,0.45 0.819,0.679 C 1.123,-4.771 0,-2.509 0,0" />
    </g>
    <g
       transform="matrix(0.35277777,0,0,-0.35277777,-47.570819,245.98123)"
       id="g1066">
      <path
         inkscape:connector-curvature="0"
         id="path1068"
         style="fill:#5ac8a8;fill-opacity:1;fill-rule:nonzero;stroke:none"
         d="m 0,0 3.851,-1.919 c 0.306,1.487 0.98,3.104 2.011,4.84 z" />
    </g>
    <g
       transform="matrix(0.35277777,0,0,-0.35277777,-47.826582,248.65762)"
       id="g1070">
      <path
         inkscape:connector-curvature="0"
         id="path1072"
         style="fill:#5ac8a8;fill-opacity:1;fill-rule:nonzero;stroke:none"
         d="m 0,0 v -32.113 c 0,-0.675 0.61,-1.68 1.208,-1.991 l 6.998,-3.642 v 33.657 z" />
    </g>
    <g
       transform="matrix(0.35277777,0,0,-0.35277777,-35.526985,254.78614)"
       id="g1078">
      <path
         inkscape:connector-curvature="0"
         id="path1080"
         style="fill:#5ac8a8;fill-opacity:1;fill-rule:nonzero;stroke:none"
         d="M 0,0 -19.562,9.747 V -24.067 L 1.199,-34.87 V -0.431 C 0.767,-0.323 0.361,-0.18 0,0" />
    </g>
    <g
       transform="matrix(0.35277777,0,0,-0.35277777,-32.254407,248.48924)"
       id="g1082">
      <path
         inkscape:connector-curvature="0"
         id="path1084"
         style="fill:#5ac8a8;fill-opacity:1;fill-rule:nonzero;stroke:none"
         d="M 0,0 -1.393,0.487 C -2.047,0.344 -2.726,0.266 -3.424,0.266 c -0.774,0 -1.524,0.098 -2.242,0.273 L -6.627,0.203 c -2.307,-2.172 -5.96,-4.62 -11.345,-5.772 l 13.715,-6.834 c 0.331,-0.165 0.855,-0.263 1.401,-0.263 0.547,0 1.071,0.098 1.402,0.263 l 13.392,6.674 C 11.727,-5.69 11.519,-5.658 11.306,-5.614 5.984,-4.514 2.343,-2.145 0,0" />
    </g>
    <g
       transform="matrix(0.35277777,0,0,-0.35277777,-32.600412,255.01862)"
       id="g1086">
      <path
         inkscape:connector-curvature="0"
         id="path1088"
         style="fill:#5ac8a8;fill-opacity:1;fill-rule:nonzero;stroke:none"
         d="m 0,0 v -35.953 l 19.457,10.125 V 9.273 Z" />
    </g>
    <g
       transform="matrix(0.35277777,0,0,-0.35277777,-19.877834,248.95494)"
       id="g1090">
      <path
         inkscape:connector-curvature="0"
         id="path1092"
         style="fill:#5ac8a8;fill-opacity:1;fill-rule:nonzero;stroke:none"
         d="m 0,0 -9.51,-4.533 v -34.79 l 9.503,4.945 C -0.006,-34.356 0,-34.333 0,-34.312 Z" />
    </g>
    <g
       transform="matrix(0.35277777,0,0,-0.35277777,-18.697122,259.98651)"
       id="g1094">
      <path
         inkscape:connector-curvature="0"
         id="path1096"
         style="fill:#000000;fill-opacity:1;fill-rule:nonzero;stroke:none"
         d="m 0,0 c 0,-0.675 -0.61,-1.679 -1.208,-1.991 l -2.146,-1.116 -9.503,-4.945 v 34.79 2.727 L 0,35.871 Z m -16.607,-10.004 -3.347,-1.742 -19.457,-10.124 v 35.952 2.319 c 0.432,0.108 0.838,0.251 1.199,0.431 l 21.605,10.765 z m -26.554,-11.866 -3.347,1.741 -20.761,10.804 v 33.813 3.758 L -44.36,16.832 c 0.361,-0.18 0.767,-0.323 1.199,-0.431 z m -27.858,14.496 -3.347,1.742 -6.998,3.641 c -0.598,0.312 -1.208,1.316 -1.208,1.991 v 32.113 3.759 l 11.553,-5.757 z m -3.74,43.542 -3.237,1.613 -3.851,1.919 5.862,2.921 3.613,1.8 c -1.962,-3.153 -2.761,-5.917 -2.387,-8.253 m 11.965,24.462 c 6.478,0 10.831,-2.515 13.595,-5.086 0.516,-0.48 0.984,-0.962 1.392,-1.431 0.463,-0.53 0.878,-1.062 1.251,-1.587 -0.06,-0.036 -0.113,-0.081 -0.172,-0.117 -2.471,-1.552 -4.114,-4.214 -4.114,-7.243 0,-0.966 0.17,-1.894 0.477,-2.763 0.442,-1.252 1.182,-2.371 2.13,-3.295 0.102,-0.099 0.198,-0.204 0.305,-0.298 -1.141,-1.007 -2.528,-1.963 -4.166,-2.77 -1.5,-0.739 -3.209,-1.353 -5.152,-1.755 -2.439,-0.504 -4.677,-0.76 -6.65,-0.76 -3.549,0 -6.048,0.851 -6.857,2.335 -0.792,1.452 -0.169,3.896 1.754,6.883 2.056,3.193 1.768,7.059 1.514,10.47 -0.151,2.021 -0.293,3.954 0.108,5.269 0.128,0.419 0.308,0.778 0.564,1.054 0.674,0.726 2.027,1.094 4.021,1.094 m 20.107,-1.418 c 0.33,0.165 0.854,0.263 1.401,0.263 0.547,0 1.071,-0.098 1.402,-0.263 l 2.608,-1.3 c -0.459,-0.449 -0.879,-0.896 -1.26,-1.334 -0.81,-0.929 -1.507,-1.875 -2.104,-2.807 -0.367,0.043 -0.74,0.068 -1.118,0.068 -0.231,0 -0.456,-0.025 -0.682,-0.042 -0.145,-0.011 -0.293,-0.009 -0.436,-0.026 -0.598,0.932 -1.295,1.878 -2.105,2.807 -0.197,0.226 -0.419,0.457 -0.636,0.687 -0.106,0.112 -0.199,0.221 -0.309,0.333 z m -3.506,-11.318 c 0.957,1.322 2.587,2.195 4.435,2.195 1.203,0 2.302,-0.384 3.195,-1.006 1.123,-0.783 1.888,-1.959 2.071,-3.309 0.028,-0.202 0.067,-0.4 0.067,-0.608 0,-2.371 -1.825,-4.354 -4.246,-4.819 -0.351,-0.067 -0.715,-0.104 -1.087,-0.104 -2.941,0 -5.334,2.208 -5.334,4.923 0,1.009 0.333,1.946 0.899,2.728 m 19.701,-21.033 -13.393,-6.673 c -0.33,-0.165 -0.854,-0.263 -1.401,-0.263 -0.547,0 -1.071,0.098 -1.401,0.263 l -13.715,6.834 -5.65,2.815 c 1.731,0.11 3.594,0.369 5.563,0.776 5.49,1.134 9.194,3.619 11.527,5.816 L -44,36.765 c 0.718,-0.175 1.468,-0.272 2.242,-0.272 0.698,0 1.377,0.077 2.031,0.22 l 1.384,-0.483 0.009,-0.004 c 0.04,-0.036 0.087,-0.073 0.128,-0.11 2.347,-2.116 5.947,-4.422 11.178,-5.503 2.035,-0.421 3.999,-0.634 5.837,-0.634 0.233,0 0.46,0.008 0.689,0.015 l 0.175,-0.061 z m 10.532,32.666 c 0.706,-0.804 0.464,-2.657 0.208,-4.618 -0.379,-2.901 -0.851,-6.511 1.236,-9.75 0.702,-1.091 1.214,-2.136 1.563,-3.125 0.195,-0.55 0.337,-1.083 0.42,-1.592 0.208,-1.283 0.073,-2.428 -0.44,-3.369 -0.679,-1.245 -2.002,-2.168 -3.786,-2.728 -1.262,-0.396 -2.749,-0.616 -4.432,-0.616 -1.584,0 -3.292,0.187 -5.077,0.556 -4.067,0.841 -7.134,2.596 -9.319,4.525 1.79,1.585 2.912,3.847 2.912,6.356 0,3.101 -1.715,5.826 -4.286,7.36 0.373,0.525 0.789,1.057 1.251,1.587 0.699,0.802 1.558,1.643 2.581,2.447 2.772,2.178 6.79,4.07 12.406,4.07 3.136,0 4.321,-0.6 4.763,-1.103 M -0.725,39.7 -4.496,37.821 -9.716,35.22 c 0.011,0.02 0.024,0.038 0.035,0.057 0.757,1.388 1.064,2.961 0.962,4.648 -0.082,1.363 -0.425,2.799 -1.055,4.284 z m 2.803,2.793 -14.314,7.133 c -0.223,1.527 -0.009,3.179 0.202,4.797 0.353,2.703 0.718,5.498 -1.107,7.578 -1.426,1.623 -3.835,2.379 -7.582,2.379 -5.776,0 -10.144,-1.71 -13.359,-3.869 l -4.13,2.058 c -0.85,0.423 -1.942,0.656 -3.074,0.656 -1.132,0 -2.224,-0.233 -3.074,-0.656 l -4.677,-2.331 c -3.249,2.286 -7.74,4.142 -13.757,4.142 -3.123,0 -5.337,-0.75 -6.769,-2.293 -2.172,-2.339 -1.914,-5.803 -1.664,-9.153 0.092,-1.231 0.183,-2.479 0.162,-3.672 L -84.65,42.493 c -1.246,-0.621 -1.961,-1.639 -1.962,-2.793 0,-0.431 0.1,-0.843 0.29,-1.222 V 0 c 0,-0.659 0.153,-1.336 0.403,-1.989 0.305,-0.794 0.768,-1.541 1.345,-2.164 0.441,-0.474 0.936,-0.882 1.479,-1.164 l 38.726,-20.152 c 0.879,-0.457 1.981,-0.686 3.083,-0.686 1.102,0 2.205,0.229 3.083,0.686 L 0.523,-5.317 C 2.363,-4.36 3.75,-2.074 3.75,0 v 38.478 c 0.19,0.379 0.29,0.791 0.29,1.222 0,1.154 -0.715,2.172 -1.962,2.793" />
    </g>
  </g>
</svg>
