<?xml version="1.0" encoding="UTF-8" standalone="no"?>
<svg
   xmlns:dc="http://purl.org/dc/elements/1.1/"
   xmlns:cc="http://creativecommons.org/ns#"
   xmlns:rdf="http://www.w3.org/1999/02/22-rdf-syntax-ns#"
   xmlns:svg="http://www.w3.org/2000/svg"
   xmlns="http://www.w3.org/2000/svg"
   xmlns:sodipodi="http://sodipodi.sourceforge.net/DTD/sodipodi-0.dtd"
   xmlns:inkscape="http://www.inkscape.org/namespaces/inkscape"
   width="28.037014mm"
   height="33.319508mm"
   viewBox="0 0 28.037014 33.319508"
   version="1.1"
   id="svg4544"
   inkscape:version="1.0.1 (3bc2e813f5, 2020-09-07)"
   sodipodi:docname="gift12.svg">
  <defs
     id="defs4538" />
  <sodipodi:namedview
     id="base"
     pagecolor="#ffffff"
     bordercolor="#666666"
     borderopacity="1.0"
     inkscape:pageopacity="0.0"
     inkscape:pageshadow="2"
     inkscape:zoom="0.35"
     inkscape:cx="-207.01667"
     inkscape:cy="334.39456"
     inkscape:document-units="mm"
     inkscape:current-layer="layer1"
     inkscape:document-rotation="0"
     showgrid="false"
     fit-margin-top="0"
     fit-margin-left="0"
     fit-margin-right="0"
     fit-margin-bottom="0"
     inkscape:window-width="1267"
     inkscape:window-height="1040"
     inkscape:window-x="130"
     inkscape:window-y="0"
     inkscape:window-maximized="0" />
  <metadata
     id="metadata4541">
    <rdf:RDF>
      <cc:Work
         rdf:about="">
        <dc:format>image/svg+xml</dc:format>
        <dc:type
           rdf:resource="http://purl.org/dc/dcmitype/StillImage" />
        <dc:title></dc:title>
      </cc:Work>
    </rdf:RDF>
  </metadata>
  <g
     inkscape:label="Layer 1"
     inkscape:groupmode="layer"
     id="layer1"
     transform="translate(-160.60649,-59.69144)">
    <g
       id="g4507"
       transform="matrix(0.35277777,0,0,-0.35277777,81.409507,221.48358)">
      <g
         id="g180"
         transform="translate(225.2463,366.1018)">
        <path
           d="m 0,0 v -0.484 c 0,-0.339 0.286,-0.625 0.625,-0.625 h 0.47 C 0.669,-0.805 0.294,-0.434 0,0"
           style="fill:#ff3e37;fill-opacity:1;fill-rule:nonzero;stroke:none"
           id="path182" />
      </g>
      <g
         id="g806"
         transform="translate(246.6829,423.1736)">
        <path
           d="M 0,0 H -0.001 -18.437 V -17.557 H 5.551 V 0 Z"
           style="fill:#ff3e37;fill-opacity:1;fill-rule:nonzero;stroke:none"
           id="path808" />
      </g>
      <g
         id="g810"
         transform="translate(228.2454,384.6849)">
        <path
           d="m 0,0 v -16.135 c 0,-0.339 0.286,-0.625 0.625,-0.625 H 23.989 V 0 Z"
           style="fill:#ff3e37;fill-opacity:1;fill-rule:nonzero;stroke:none"
           id="path812" />
      </g>
      <path
         d="m 273.232,367.924 h 23.989 v 16.76 h -23.989 z"
         style="fill:#ff3e37;fill-opacity:1;fill-rule:nonzero;stroke:none"
         id="path814" />
      <g
         id="g816"
         transform="translate(288.2317,433.3183)">
        <path
           d="m 0,0 c -0.232,1.621 -3.469,3.297 -8.482,3.297 -1.104,0 -2.241,-0.083 -3.381,-0.246 -1.095,-0.157 -2.126,-0.463 -3.095,-0.847 -0.62,-0.892 -1.237,-1.669 -1.757,-2.265 -0.296,-0.339 -0.647,-0.719 -1.034,-1.115 1.848,-1.072 4.888,-2.287 8.302,-2.287 0.649,0 1.294,0.046 1.918,0.135 2.783,0.399 5.42,1.273 7.393,2.433 C -0.014,-0.581 0.04,-0.278 0,0"
           style="fill:#008bad;fill-opacity:1;fill-rule:nonzero;stroke:none"
           id="path818" />
      </g>
      <path
         d="m 258.983,405.616 h 7.5 v 17.557 h -7.5 z"
         style="fill:#008bad;fill-opacity:1;fill-rule:nonzero;stroke:none"
         id="path820" />
      <g
         id="g822"
         transform="translate(262.0585,451.9418)">
        <path
           d="m 0,0 c -2.26,0 -4.24,-0.866 -5.744,-2.351 -0.646,-1.462 -1.004,-3.165 -1.004,-5.027 0,-5.796 6.926,-11.933 8.771,-12.76 0.937,0.392 3.204,2.17 5.192,4.61 0.911,1.65 1.532,3.434 1.532,5.218 C 8.747,-4.336 5.068,0 0,0"
           style="fill:#008bad;fill-opacity:1;fill-rule:nonzero;stroke:none"
           id="path824" />
      </g>
      <g
         id="g826"
         transform="translate(243.8934,436.6155)">
        <path
           d="m 0,0 c -2.799,0 -5.042,-0.523 -6.52,-1.267 0.305,-0.781 1.079,-1.643 2.235,-2.442 2.025,-1.401 4.997,-2.464 8.155,-2.916 0.623,-0.09 1.268,-0.135 1.918,-0.135 3.307,0 6.264,1.141 8.126,2.186 -0.426,0.43 -0.811,0.844 -1.133,1.209 -0.285,0.324 -0.603,0.709 -0.931,1.124 C 9.049,-1.45 4.535,-0.412 3.38,-0.246 2.241,-0.083 1.104,0 0,0"
           style="fill:#008bad;fill-opacity:1;fill-rule:nonzero;stroke:none"
           id="path828" />
      </g>
      <path
         d="m 258.983,368.174 h 7.5 v 16.51 h -7.5 z"
         style="fill:#008bad;fill-opacity:1;fill-rule:nonzero;stroke:none"
         id="path830" />
      <path
         d="m 228.245,391.367 h 68.976 v 7.567 h -68.976 z"
         style="fill:#008bad;fill-opacity:1;fill-rule:nonzero;stroke:none"
         id="path832" />
      <g
         id="g834"
         transform="translate(296.5959,423.1736)">
        <path
           d="M 0,0 H -23.364 V -17.557 H 0.625 V -0.625 C 0.625,-0.286 0.339,0 0,0"
           style="fill:#ff3e37;fill-opacity:1;fill-rule:nonzero;stroke:none"
           id="path836" />
      </g>
      <g
         id="g838"
         transform="translate(269.4824,368.1744)">
        <path
           d="m 0,0 h -2.999 -7.5 v 16.51 2.933 H 0 Z m -14.249,-0.25 h -2.999 -23.364 c -0.339,0 -0.625,0.286 -0.625,0.625 v 16.135 2.933 h 26.988 z m -26.363,58.181 h 20.811 10e-4 5.551 V 37.442 h -2.999 -23.989 v 17.557 2.307 c 0,0.339 0.286,0.625 0.625,0.625 m 8.364,10.145 c 0.233,1.621 3.469,3.297 8.483,3.297 1.103,0 2.241,-0.083 3.38,-0.246 1.562,-0.224 3.008,-0.731 4.3,-1.373 0.73,-1.376 1.575,-2.577 2.346,-3.553 0.328,-0.415 0.646,-0.801 0.931,-1.125 0.322,-0.365 0.707,-0.779 1.133,-1.209 -1.862,-1.045 -4.819,-2.186 -8.126,-2.186 -0.65,0 -1.295,0.046 -1.918,0.135 -3.158,0.452 -6.13,1.515 -8.155,2.916 -1.156,0.799 -1.93,1.661 -2.235,2.442 -0.124,0.317 -0.179,0.622 -0.139,0.902 m 26.823,18.623 c 5.068,0 8.747,-4.336 8.747,-10.31 0,-2.912 -1.64,-5.83 -3.53,-8.15 -1.989,-2.44 -4.255,-4.218 -5.193,-4.61 -1.845,0.828 -8.771,6.964 -8.771,12.76 0,1.863 0.358,3.565 1.004,5.027 1.425,3.229 4.255,5.283 7.743,5.283 M 9.886,71.127 c 1.139,0.163 2.276,0.246 3.38,0.246 5.014,0 8.25,-1.676 8.482,-3.297 0.139,-0.97 -0.748,-2.22 -2.373,-3.344 -0.24,-0.166 -0.496,-0.327 -0.761,-0.483 -1.974,-1.161 -4.611,-2.034 -7.394,-2.433 -0.623,-0.089 -1.269,-0.135 -1.918,-0.135 -3.413,0 -6.453,1.215 -8.302,2.287 0.388,0.396 0.739,0.776 1.035,1.115 0.519,0.595 1.136,1.373 1.756,2.265 0.463,0.665 0.928,1.387 1.356,2.182 1.4,0.749 2.998,1.348 4.739,1.597 M 30.113,57.931 c 0.338,0 0.625,-0.286 0.625,-0.625 V 37.442 H 27.739 3.75 v 17.557 2.932 z M -10.499,37.442 v 17.557 2.932 H 0 V 37.442 H -2.999 Z M 30.738,23.193 h -2.999 -68.976 v 7.567 2.932 h 71.975 z m 0,-22.818 c 0,-0.339 -0.287,-0.625 -0.625,-0.625 H 27.739 3.75 v 16.76 2.933 h 26.988 z m 3.75,0 v 19.068 17.999 19.864 c 0,2.413 -1.963,4.375 -4.375,4.375 h -8.558 c 2.871,2.003 4.259,4.461 3.906,6.927 -0.559,3.897 -5.46,6.515 -12.195,6.515 -1.281,0 -2.597,-0.095 -3.912,-0.284 -0.866,-0.124 -1.691,-0.313 -2.476,-0.547 0.124,0.685 0.194,1.386 0.194,2.097 0,8.016 -5.372,14.06 -12.497,14.06 -7.124,0 -12.497,-6.044 -12.497,-14.06 0,-0.675 0.066,-1.341 0.18,-1.993 -0.675,0.186 -1.378,0.338 -2.111,0.443 -1.315,0.189 -2.631,0.284 -3.912,0.284 -6.736,0 -11.636,-2.618 -12.195,-6.515 -0.353,-2.466 1.034,-4.924 3.906,-6.927 h -8.558 c -2.412,0 -4.375,-1.962 -4.375,-4.375 V 37.442 19.443 0.375 c 0,-0.906 0.277,-1.749 0.751,-2.448 0.294,-0.433 0.669,-0.805 1.095,-1.109 0.716,-0.51 1.585,-0.818 2.529,-0.818 h 70.725 c 2.412,0 4.375,1.963 4.375,4.375"
           style="fill:#000000;fill-opacity:1;fill-rule:nonzero;stroke:none"
           id="path840" />
      </g>
    </g>
  </g>
</svg>
